/* XPM */
static char *result[] = {
/* columns rows colors chars-per-pixel */
"23 23 21 1 ",
"  c black",
". c gray12",
"X c #360505",
"o c #6A0B0B",
"O c #A01010",
"+ c #B01111",
"@ c #B73E3F",
"# c #CB1414",
"$ c #E91616",
"% c #E81717",
"& c #EA2626",
"* c #EC3737",
"= c #EB3D3D",
"- c #EB3F3F",
"; c #EE6060",
": c gray56",
"> c #F28484",
", c #F59E9E",
"< c #C3D7DE",
"1 c #FBD7D7",
"2 c white",
/* pixels */
"222222222     222222222",
"2222222  %%%%%  2222222",
"22222 X&==&&####X 22222",
"2222 %>>>>;==%#++O 2222",
"222 &>,,,,>==&%#++O 222",
"22 &>,11,,>===&%#O+O 22",
"22o;>,11,>;====%#OO+o22",
"2 *;>,,,>;=====%#OO+O 2",
"2X*;>,,>;======%#OO+OX2",
" o*->>;========%#OO++o ",
" %&===========&#+O+##+ ",
" %%&=========&o%#O#%%# ",
" %#%&======&%Oo%%%O%%# ",
" O+o%%%%%%%%Oo+%%%+o%+ ",
"2XO@X######OX+%#O X@$X2",
"2 o@<X ++X++X++  :<@# 2",
"22XO<<:   OOOX  :<<$X22",
"22 o@<: .:OOO:  :<@+ 22",
"222 oXXXX@OOO@XXXXo 222",
"2222 oOOOOOOOOOO++ 2222",
"22222 XoOOOOOOOOX 22222",
"2222222  oOOoo  2222222",
"222222222     222222222"
};
