/* XPM */
static char *result[] = {
/* columns rows colors chars-per-pixel */
"23 23 28 1 ",
"  c black",
". c gray12",
"X c #360505",
"o c #2D2D2D",
"O c #6A0B0B",
"+ c #A01010",
"@ c #B01111",
"# c #853A36",
"$ c #B73E3F",
"% c #CB1414",
"& c #E91616",
"* c #E81717",
"= c #EA2626",
"- c #EC3737",
"; c #EB3D3D",
": c #EB3F3F",
"> c #BE6561",
", c #EE6060",
"< c gray56",
"1 c #D1928F",
"2 c #F28484",
"3 c #F59E9E",
"4 c #C1C1C1",
"5 c #C3D7DE",
"6 c gray83",
"7 c #FBD7D7",
"8 c #EAEAEA",
"9 c white",
/* pixels */
"999999999     999999999",
"9999999  *****  9999999",
"99999 X%%%%==;;=X 99999",
"9999 +@@%*;;,2222* 9999",
"999 +@@%*=;;233332= 999",
"99 +@+%*=;;;2337732= 99",
"99O@++%*;;;;,237732,O99",
"9 +@++%*;O;;;,23332,- 9",
"9X+@++%OO;;;;;,2332,-X9",
" O@@++O*;;;;;;;;,22:-O ",
" %%%@ @%=;;;;;;;;;;;=* ",
" %**O      O;;;;;;;=** ",
" %**$< .55$=;;;;;;=*%* ",
" #***< .5<$********%@# ",
"9o1**X  <O@%%%%%%%%@>o9",
"9 61**XXX++@@@@@@@@>4 9",
"99o91&%@++++++++++>6o99",
"99 6911@++++++++>>6< 99",
"999 899>>>>>>>>>664 999",
"9999 699888664444< 9999",
"99999 o688664444o 99999",
"9999999  <<44<  9999999",
"999999999     999999999"
};
