/* XPM */
static char *result[] = {
/* columns rows colors chars-per-pixel */
"23 23 26 1 ",
"  c black",
". c gray12",
"X c #360505",
"o c #292A2A",
"O c #6A0B0B",
"+ c #A01010",
"@ c #B01111",
"# c #B73E3F",
"$ c #CB1414",
"% c #E91616",
"& c #E81717",
"* c #EA2626",
"= c #EC3737",
"- c #EB3D3D",
"; c #EB3F3F",
": c #BE6561",
"> c #EE6060",
", c gray56",
"< c #F28484",
"1 c #F59E9E",
"2 c #C1C1C1",
"3 c #C3D7DE",
"4 c gray83",
"5 c #FBD7D7",
"6 c #EAEAEA",
"7 c white",
/* pixels */
"777777777     777777777",
"7777777  &&&&&  7777777",
"77777 X*--**$$$$X 77777",
"7777 &<<<<>--&$@@+ 7777",
"777 *<1111<--*&$@@+ 777",
"77 *<15511<---*&$+@+ 77",
"77O><1551<>----&$++@O77",
"7 =><111<>-----&$++@: 7",
"7X=><11<>---***&$ O@:o7",
" O=;<<>----OX     X@:, ",
" &*--------:,33  ,#$:2 ",
" &&*--------:33. .$&:2 ",
" &$&*------*&:,, X$&:2 ",
" +@$&&&&&&&&$$XXX$&:24 ",
"7X+@$$$$$$$$@+++@$&:6X7",
"7 O+@@@@@@@@+++@$%:64 7",
"77X++++++++++++@$:76X77",
"77 O+++++++++++@:774 77",
"777 O+++++++++::774 777",
"7777 O++++++::6664 7777",
"77777 X:::::2264X 77777",
"7777777 o,22,,  7777777",
"777777777     777777777"
};
