/* XPM */
static char *result[] = {
/* columns rows colors chars-per-pixel */
"23 23 23 1 ",
"  c black",
". c #360505",
"X c #2D2D2D",
"o c #6A0B0B",
"O c #A01010",
"+ c #B01111",
"@ c #853A36",
"# c #CB1414",
"$ c #E81717",
"% c #EA2626",
"& c #EC3737",
"* c #EB3D3D",
"= c #EB3F3F",
"- c #BE6561",
"; c #EE6060",
": c gray56",
"> c #F28484",
", c #F59E9E",
"< c #C1C1C1",
"1 c gray83",
"2 c #FBD7D7",
"3 c #EAEAEA",
"4 c white",
/* pixels */
"444444444     444444444",
"4444444  $$$$$  4444444",
"44444 .%**%%####. 44444",
"4444 $>>>>;**$#++O 4444",
"444 %>,,,,>**%$#++O 444",
"44 %>,22,,>***%$#O+O 44",
"44o;>,22,>;****$#OO+o44",
"4 &;>,,,>;*****$#OO+O 4",
"4.&;>,,>;******$#OO+O.4",
" o&=>>;********$#OO++o ",
" $%***********%#+O+### ",
" $$%*********%$#O+#$$# ",
" $#$%******%$$#+O+#$$# ",
" @+#$$$$$$$$##+O+#$$$@ ",
"4X-+########+OOO+#$$-X4",
"4 <---++++++OOOOO---1 4",
"44X1<<-----------334X44",
"44 :11<<<<<111333441 44",
"444 <11<<<113334443 444",
"4444 :<<<<11333441 4444",
"44444 X<<<<11331X 44444",
"4444444  :<<::  4444444",
"444444444     444444444"
};
