/* XPM */
static char *result[] = {
/* columns rows colors chars-per-pixel */
"23 23 17 1 ",
"  c black",
". c #360505",
"X c #6A0B0B",
"o c #A01010",
"O c #B01111",
"+ c #CB1414",
"@ c #E91616",
"# c #E81717",
"$ c #EA2626",
"% c #EC3737",
"& c #EB3D3D",
"* c #EB3F3F",
"= c #EE6060",
"- c #F28484",
"; c #F59E9E",
": c #FBD7D7",
"> c white",
/* pixels */
">>>>>>>>>     >>>>>>>>>",
">>>>>>>  #####  >>>>>>>",
">>>>> .$&&$$++++. >>>>>",
">>>> #----=&&#+OOo >>>>",
">>> $-;;;;-&&$#+OOo >>>",
">> $-;::;;-&&&$#+oOo >>",
">>X=-;::;-=&&&&#+ooOX>>",
"> %=-;;;-=&&&&&#+ooOo >",
">.%=-;;-=&&&&&&#+ooOo.>",
" X%*--=&&&&&&&&#+ooOOX ",
" #$&&&&&&&&&&&$+OoO++O ",
" ##$&&&&&&&&&$#+oO+##+ ",
" #+#$&&&&&&$##+OoO+##+ ",
" oO+########++OoO+###O ",
">.oO++++++++OoooO+##@.>",
"> XoOOOOOOOOoooO+@@@+ >",
">>.ooooooooooooO+@@@.>>",
">> XoooooooooooO+@@O >>",
">>> XooooooooooO++O >>>",
">>>> XooooooooooOO >>>>",
">>>>> .Xoooooooo. >>>>>",
">>>>>>>  Xoooo  >>>>>>>",
">>>>>>>>>     >>>>>>>>>"
};
