/* XPM */
static char *_15ec0b600ab49308e10f6bec487bc7bTd00AYdDtoAeIpy4[] = {
/* columns rows colors chars-per-pixel */
"32 32 8 1 ",
"  c None",
". c #26450F",
"X c #426316",
"o c #6C731D",
"O c #9A8821",
"+ c #B39D20",
"@ c #C2AC32",
"# c #D4B63F",
/* pixels */
"                           .ooO+",
"                          .+OOoO",
"                           .+OOo",
"                         .. .oOo",
"                         .@..ooO",
"                          .@+Ooo",
"                           .++OO",
"                            .OOO",
"                             .O.",
"                           ...+@",
"                           .@.O.",
"                            .+oO",
"                            .oOX",
"                             .OX",
"                          .. ..O",
"                          .O.##.",
"                           .o##@",
"                           .X@@+",
"                            .XXX",
"                             .oO",
"                              .o",
"                            ..OX",
"                           .@+OO",
"                           .@oOO",
"                            .ooO",
"                            .@+o",
"                         .. .@+O",
"                         .#. .+O",
"                         .#@..XO",
"                         .@@+oO+",
"                          .+OOO+",
"                           ..O+O"
};
