/* XPM */
static char *_86406d5006140229c2208add8532f4dps0zCwdWjqeEHb0a[] = {
/* columns rows colors chars-per-pixel */
"32 32 8 1 ",
"  c None",
". c #26450F",
"X c #426316",
"o c #6C731D",
"O c #9A8821",
"+ c #B39D20",
"@ c #C2AC32",
"# c #D4B63F",
/* pixels */
"                                ",
"                                ",
"                                ",
"                                ",
"                                ",
"                                ",
"                                ",
"                                ",
"                                ",
"                                ",
"                                ",
"                                ",
"                                ",
"                                ",
"                                ",
"                                ",
"                                ",
"                                ",
"                                ",
"                                ",
"                                ",
"                                ",
"                                ",
"                                ",
"     .               ..    ..   ",
"    .#.  ..    ...   .#..  .#.  ",
".  .@#. .##.  .##@.   .+O.. .O. ",
"O. .@@.  .@. .OX+@+.   .oXo..oO.",
"OO..+@+. .@X..OoXX+X.  .o++O..OO",
"+O.XO++X..O+oOOo.OO+O. o+o+++O++",
"++OoXOOOXOOO+OOX.OO@+O..XXooOOO+",
"OOOOXoOOOOOO@@+OOOO@@+OO.XoOoO+O"
};
