/* XPM */
static char *c3c903105f16464e8079637c89ead54f459hQydcs2qikgEi[] = {
/* columns rows colors chars-per-pixel */
"32 32 8 1 ",
"  c None",
". c #26450F",
"X c #426316",
"o c #6C731D",
"O c #9A8821",
"+ c #B39D20",
"@ c #C2AC32",
"# c #D4B63F",
/* pixels */
"+OOOXXo.                        ",
"+OOOOOO.                        ",
"OOO..XoO.                       ",
"OO.@@.Xo. ..                    ",
"O.@@@+XX..OX.                   ",
"OO..X++X. .o.                   ",
"oOOOOOoO.  .X.                  ",
"oooOOoooo.  ..                  ",
"..XooO.Xo.                      ",
"@@@XooO.X..                     ",
".@@Xooo...O.                    ",
"OX+XOOX.  .o.                   ",
"OOXOOooX. .oX.                  ",
"XOOO.oooX. ...                  ",
"ooo.#.oXoX..                    ",
"O.o.#@..X.XX.                   ",
"XO..@@.o. .X.                   ",
"+OOOX+oO.  .                    ",
"XXOOOXoOX.                      ",
"OOO...XooX.                     ",
"OO.##OOoXX.                     ",
"ooO.@@Oo.X.                     ",
"XooO..XX..                      ",
"OOoOOOooo.                      ",
"OOOXOO.oXX.                     ",
"oOOoX.#...                      ",
"oOOOo.#.                        ",
"OOOOOXOo..                      ",
"OOoOOoXoXX.                     ",
"+OOOOoXX.XX.                    ",
"+OOooOoX...                     ",
"OOOOXoo.                        "
};
