/* XPM */
static char *bff22fe95fde4962dc2a1c35ce5407b283pSNBJLhqWqXzRz[] = {
/* columns rows colors chars-per-pixel */
"32 32 8 1 ",
"  c None",
". c #26450F",
"X c #426316",
"o c #6C731D",
"O c #9A8821",
"+ c #B39D20",
"@ c #C2AC32",
"# c #D4B63F",
/* pixels */
"+OOOXX.                         ",
"++...oO.                        ",
"O.#@..o@.                       ",
"OX#@XO.@@.  ...                 ",
"OX+@XXO@@. .@OO.                ",
"OOX+OoX.++. ..oo.               ",
"oOooO+@o.oo.  ..                ",
"oooO++@@X.Xo.                   ",
".XXoO.XoXX.oo.                  ",
"@@+XOo.XooXoo.                  ",
".@@+XOo.XooX.@.    ..           ",
"OXXOOX@@@.o.@@.   .+O.          ",
"OoOOoXo@@+..@@.   .XoO.         ",
"XXooOo.X++..++o.   ..o.         ",
"o.XXo.@..oOo.OOo.    ..         ",
"Oo.oX.@.X.oO.XOO.               ",
"XooOX.@@XX.OO.XOo.    ..        ",
"+XXoo.@@+XX.OoXXo.   .#+.       ",
"O+OXoo.++oXXXo... ..  .Oo.      ",
"OOOo..X.oOo.Xo.@. .@.  .o.      ",
"OOXO.@@+.XOO.X.@. .@@.  . ...   ",
"oOOXo.@@+.XOo..@@. .@+.  .@@.   ",
"XXOooo..oO.Xoo.++. ..+o..@@.    ",
"OXOOoXoo.oOXXoo.oo.+.ooo.@@.    ",
"OOOOO.X.X.ooXXXXXo.OO.oo.++o.   ",
"ooOO.#.X.XX...X...o.o.Xo..oo.   ",
"oXo.@#.oX..O+O.@@@Xo....@@.oo...",
"OXX.@@Xo@@.o++OX+@+XX.OXXX@.o.+O",
"OOXX+@+Xo+@XO+OoXX+XXX.oo+++...O",
"+OoXO++X+oO+oOOo.O++...o+o+++..+",
"++OoXOOO++OO+OOX.O+@+Oo.XXooOOO+",
"OOOOXoOOOOOO@@+OOOO@@+OO.XoOoO+O"
};
