/* XPM */
static char *_3b6cb9e8685444f9c7baf09fb1013242NtiP3ExHUIqiyni[] = {
/* columns rows colors chars-per-pixel */
"32 32 8 1 ",
"  c None",
". c #26450F",
"X c #426316",
"o c #6C731D",
"O c #9A8821",
"+ c #B39D20",
"@ c #C2AC32",
"# c #D4B63F",
/* pixels */
"                           .#@O+",
"                           ..@@O",
"                          .@+X+O",
"                          .XX+O+",
"                        ..oooXOO",
"                       .++oO+++o",
"                       .+OO#@@oO",
"                      .oooO##o.O",
"                   ....XXXoOO...",
"                   .##@OOOOoo.+@",
"                    .#@+OO##XO..",
"                     .O+O@#@XoOO",
"                     .ooO@+XOOoX",
"                    ..Xoo+XoOOOX",
"               .... .++XoOX....O",
"               .##@.oX++OOo.##@.",
"                .#@@O...OoOO.+@@",
"                 .+@O.##.oo.o.+@",
"            .... .O+O.##@Xo@+OXX",
"        ... .##+..OOOoO+@OXoXoOO",
"        .##..@#@@OOoOooO+OO##XXo",
"        .@#OX..O@+OXoOooOoooO@XX",
"   ....  .@+oXXXO+OOXXoOOo##@.@O",
"   .##@. .++ooOOO...OOOOOO#@.@@+",
"    .#@+.oOOOooOO.##.OOoO+@.OO+O",
"   .oOO+OXO+++Ooo.#@@XOoo++...Oo",
"....ooOO..o++@@ooXO+@+XooO+X.+.O",
"+@Oooo@#.#..++@XooXO+++OooXO.+.O",
"oOoO@@X++X#+.++O.XXXoOOOOoOO.++X",
"+oOoo@+X+X++OXOOO.XOOoO++OOOO.++",
"+OoXo++OoOO...XOOO...XOX.XOOOOX+",
"OOOOXoOOOOOX@@+XOO.@@+XO.XoOoO+O"
};
