/* XPM */
static char *result[] = {
/* columns rows colors chars-per-pixel */
"64 75 256 2 ",
"   c None",
".  c #020102",
"X  c #0B0101",
"o  c #020904",
"O  c #01030B",
"+  c #01090B",
"@  c #0A0909",
"#  c #160803",
"$  c #191308",
"%  c #000413",
"&  c #000914",
"*  c #00051A",
"=  c #000A1B",
"-  c #0A0B14",
";  c #071419",
":  c #141818",
">  c #110A12",
",  c #250501",
"<  c #241705",
"1  c #361A01",
"2  c #2D0909",
"3  c #3B2309",
"4  c #362817",
"5  c #2C2519",
"6  c #000B23",
"7  c #000827",
"8  c #01152C",
"9  c #051625",
"0  c #000D33",
"q  c #001A33",
"w  c #011838",
"e  c #141A29",
"r  c #122731",
"t  c #2F322E",
"y  c #19221D",
"u  c #570102",
"i  c #4A1405",
"p  c #680705",
"a  c #6F100E",
"s  c #452503",
"d  c #593817",
"f  c #57310A",
"g  c #663802",
"h  c #643C14",
"j  c #4C3A27",
"k  c #553B25",
"l  c #433D35",
"z  c #4D1322",
"x  c #3C443E",
"c  c #6C4307",
"v  c #784805",
"b  c #754819",
"n  c #6D491A",
"m  c #674927",
"M  c #765230",
"N  c #454138",
"B  c #001944",
"V  c #032347",
"C  c #183847",
"Z  c #043A58",
"A  c #173B54",
"S  c #0C384C",
"D  c #313B4C",
"F  c #003D64",
"G  c #033C68",
"H  c #003C73",
"J  c #363966",
"K  c #493244",
"L  c #19435A",
"P  c #094159",
"I  c #254557",
"U  c #2F434E",
"Y  c #02436C",
"T  c #074668",
"R  c #174A68",
"E  c #044977",
"W  c #0A537A",
"Q  c #155478",
"!  c #0F4F71",
"~  c #2B5C7B",
"^  c #2A506C",
"/  c #2D637C",
"(  c #4D6A7B",
")  c #735853",
"_  c #9C382C",
"`  c #A6342D",
"'  c #854A07",
"]  c #8A5307",
"[  c #92550C",
"{  c #8A5617",
"}  c #8B5015",
"|  c #9C6A16",
" . c #9D7014",
".. c #A76918",
"X. c #A7761A",
"o. c #B1751D",
"O. c #A46C0E",
"+. c #855625",
"@. c #8E4B37",
"#. c #956830",
"$. c #A56A25",
"%. c #A97824",
"&. c #B47828",
"*. c #AD7535",
"=. c #A7522C",
"-. c #964B51",
";. c #A84D4D",
":. c #8C6F48",
">. c #B26B73",
",. c #8C6262",
"<. c #C36678",
"1. c #B8892B",
"2. c #B88933",
"3. c #B48D31",
"4. c #AB801E",
"5. c #C48837",
"6. c #C5983A",
"7. c #C2872A",
"8. c #CFA738",
"9. c #B0874A",
"0. c #CA9648",
"q. c #D4A44B",
"w. c #D6B44E",
"e. c #E5BB5A",
"r. c #E3BD67",
"t. c #DEB570",
"y. c #DCC157",
"u. c #E6C25B",
"i. c #E7C363",
"p. c #F5D86C",
"a. c #FAD875",
"s. c #EBCD6D",
"d. c #FEE378",
"f. c #004C85",
"g. c #045485",
"h. c #175C87",
"j. c #025A93",
"k. c #105492",
"l. c #2E5D87",
"z. c #18638B",
"x. c #196797",
"c. c #0D6997",
"v. c #276688",
"b. c #386987",
"n. c #3B738D",
"m. c #256995",
"M. c #28759A",
"N. c #387597",
"B. c #336B95",
"V. c #1569A3",
"C. c #1B75A6",
"Z. c #0B6EAD",
"A. c #287AA8",
"S. c #377BA7",
"D. c #287EB5",
"F. c #2B70A7",
"G. c #486B88",
"H. c #497488",
"J. c #467796",
"K. c #4D7090",
"L. c #8A7A94",
"P. c #9E748E",
"I. c #1B88BA",
"U. c #1985B6",
"Y. c #2D82AB",
"T. c #3682AB",
"R. c #2785B9",
"E. c #3586B7",
"W. c #488CBA",
"Q. c #4B97BB",
"!. c #548DB0",
"~. c #7095B4",
"^. c #53A2BB",
"/. c #6D95AF",
"(. c #1888C8",
"). c #118BCE",
"_. c #268BC5",
"`. c #2D98C8",
"'. c #3896C9",
"]. c #3799D4",
"[. c #3192CF",
"{. c #36A5DA",
"}. c #2DA4D3",
"|. c #2A98E5",
" X c #36A8E6",
".X c #27A6E7",
"XX c #4597C6",
"oX c #559CC6",
"OX c #4594C9",
"+X c #719CC3",
"@X c #49A3C9",
"#X c #57A5C7",
"$X c #57ABD6",
"%X c #56B4D7",
"&X c #4DAED7",
"*X c #65A8CA",
"=X c #66B6CB",
"-X c #65A9D6",
";X c #68BAD8",
":X c #79B8D7",
">X c #78ADCE",
",X c #4BB5E5",
"<X c #56B4E7",
"1X c #5ABBFA",
"2X c #51AEEB",
"3X c #6ABBE6",
"4X c #65BDF7",
"5X c #74B9E6",
"6X c #6DC3D6",
"7X c #75C2D9",
"8X c #58C3FC",
"9X c #5CD0F6",
"0X c #67C3E6",
"qX c #67C5FC",
"wX c #75CEF5",
"eX c #7EF8FF",
"rX c #94949A",
"tX c #969AA6",
"yX c #8E97B1",
"uX c #97A5AE",
"iX c #A8A5B2",
"pX c #CDB0B4",
"aX c #EAABA4",
"sX c #E39194",
"dX c #FFE885",
"fX c #FFF189",
"gX c #FFDE85",
"hX c #8BADCA",
"jX c #93A9CB",
"kX c #8ACBD6",
"lX c #8AD4D9",
"zX c #93D0D1",
"xX c #86D5E5",
"cX c #8AD1E9",
"vX c #9BE9EB",
"bX c #99ECF8",
"nX c #89F4FF",
"mX c #96F2FD",
"MX c #8DEDF6",
"NX c #A3EBEB",
"BX c #AAEBEA",
"VX c #A5E9E6",
"CX c #A5F2F8",
"ZX c #B9F6F7",
"AX c #ADEDF6",
"SX c #A3C5C6",
"DX c #C4FCFA",
"FX c #CAFCFC",
"GX c #C8F8F6",
"HX c #D2F8FB",
"JX c #EBFEFF",
"KX c #E6FBFE",
"LX c #FDFCFD",
"PX c #F7FAFA",
"IX c #FCEFF8",
"UX c #C5C5C3",
/* pixels */
"                                              . . . . . . . . . . . . . . .                                                     ",
"                                              O O O O O O O O O & O O . + O                                                     ",
"                                              & = 6 7 7 7 6 = 6 6 8 6 6 7 =                                                     ",
"                                  . . . . O & +X*X-X-X-X-X-X*X-X-X-X-X:X-X+X& O O O X X                                         ",
"                                  . . X O % 6 *X$X<X2X2X2X2X2X2X2X2X<X<X$X:X% O . . X X                                         ",
"                                  . O O % = 6 *X%X&X,X,X,X,X,X,X2X1X&X<X&X$X6 & & O . .                                         ",
"                            . O & ( H.H.>X7X7XmXmXmXmXbXbXmXmXmXmXMXmXwXwXwX%X$X#XN.K.( O & O                                   ",
"                            + O = n.b.n.7X6X;XmXbXvXNXNXNXNXvXvXvXCXbXxXxXwX,X,X<XA.B.G.6 % *                                   ",
"                            O % 6 n.J.n.:X:X:XAXBXBXVXBXBXBXVXBXBXBXVXvXlXcX%X,X&XA.S.N.7 = *                                   ",
"                      O O % ( H.J.hX:X:XcXcXlXZXZXZXZXDXDXDXFXFXFXFXFXZXZXAXxXwXwX%X$X-XJ.K.K.* % O                             ",
"                      & % * H.n.B.:X7X7XxXxXlXZXZXGXFXGXFXGXGXGXHXHXFXAXZXAXlXxXxX@X0X$XM.J.G.= & %                             ",
"                      % * 6 n.N.Y.0X0X6XxXxXkXZXZXZXDXGXFXFXHXHXHXGXDXAXZXZXlXlXxX%X,X&XC.M.J.7 * &                             ",
"                . O O ( G.J.W.XX`.`.`.E.&X%X=XbXbXvXNXBXBXDXHXGXBXNXNXvXNXvX=X=X%X'.[.[.].'.XXN.H.( % O o                       ",
"                . O O ( G.B.Q.'.'.`.`.`.,X&X%XmXmXbXvXNXVXDXGXGXVXvXvXbXCXbX%X%X<X'.].[.[.'.OXF.n.H.= O .                       ",
"                . O O H.n.M.XXOXOXXX'.`.,X,X&XmXbXvXAXBXBXDXFXDXVXNXCXvXbXmX,X,X<X`.[.].E.W.Q.B.n.H.& O O                       ",
"                . O O H.n.N.$X-X*XS.A.R.U.I.R.0X6X7XVXVXBXDXFXDXBXNXbX6X6X;XI.(.R.D.R.A.oX~.~.N.n.b.= O O . . . . o .           ",
"                . O % G.N.N.+X~.+Xn.N.S.R._.R.0X0X6XvXVXBXDXGXDXNXbXbX6X6X0XI.(.U.Y.A.N.~.~.~.J.n.H.& O . . . X . . @           ",
"                + & = G.J.K.~.yX~.K.K.n.S.E.Y.0X;X;XbXNXBXDXFXDXNXCXbX=X;X0XA.D.T.M.J.H./.yX~.G.H.b.= & ; O O O O O .           ",
"          O O O / v.~ hX~.~.PXLXJXO O % I L R ^.#X#XbXNXVXDXGXDXNXCXbX#XQ.oX^ J J = O O LXPXLXyXyX+Xb.~ ^ = % O SXSXSXo . .     ",
"          . . % v.x.B.+XyXyXLXPXLXO O O D D A +X#X#XbXCXBXFXFXFXVXCXCX^.@X!.D K K X . X PXLXLXtXyXyXv.v.b.6 % O zXkXzX+ . o     ",
"          . . % v.x.l.hXyXtXLXLXLX. + O D D A ~.$X@XbXNXVXDXGXGXBXNXvX^.@X^.D K K O . . LXLXLXrXtXyXh.x.l.6 % & kXxXzX; o o     ",
"          . o % v.m.l.JXJXLX> X # X O - > O 8 hX3X;XCXBXBXDXGXGXzXzXxX;X%X>X: , @ o o . # # X LXLXKXB.x.l.6 O O :X7X:XkXzXSX. @ ",
"          . . % v.h.l.JXJXLX# # # X . . # # = uX;X;XvXVXBXZXGXGXzXkXxX;X<X:X@ , # . X X 2 , X LXPXKXv.v./ * O & 5X3XwXcXkXSXo . ",
"          . . O v.z.l.JXJXLX, 2 2 # X # , , X uX>X;XvXNXAXZXDXDXzXkXcX;X3X>X# 2 , # , , 2 2 2 IXLXJX~ v./ & O & 5XqX4XwXcXkXO . ",
"          . . O v.z.l.JXPXIXa p a u u u _ @.) uX>X;XkXlXlXNXBXBXzXlXxX;X;XhXM _ @.u u p p a z IXLXKXv.v.~ * O & Y.I.R.4X0X:X% . ",
"          . . O / v.l.KXPXIXp p a u u u ` _ M iX>X;XlXlXlXNXNXVXzXlXlX;X;XjX_ ` ` p p p a a a IXLXKXv.z.~ * O & M.U.D.qX8X5X= O ",
"          . . O / z.B.HXJXLXp a a u u u ;.@.K jX;X%XlXzXzXBXBXBXzXzXxX;X3XhX-.` _ p p u a u z IXLXKXm.z./ = O O n.Y.A.wX8X3X6 O ",
"          . . O / m.m.:XhXiXsXsXsX;.;.-.>.>.rXhX3X;XxXzXzXVXVXvXzXzXxX=X;XhXP.<.>.;.;.;.aXaXUXiXjXkXh.x.v.= . O S Y Y '.}.@X= O ",
"          . O & v.z.x.5X>XiXsXsXsX;.-.-.P.L./.>X5X;XxXkXzXVXNXNXzXlXxX;X;X>XL.P.>.-.;.;.aXaXpXiXhXhXm.z.v.& . . A F Y @X{.'.& . ",
"          O O * v.x.k.5X:XhXiXpXpX,.) ) L././.>X;X;XkXlXlXCXNXvXxXxXxX;X=X>X~.L.L.,.,.,.pXpXUXjXkX:Xm.h.~ & . O Z H E '.{.@X% . ",
"          . . % v.z.x.W h.v.b./ / ~.+X!.*X#X^.hX7X7X#XQ.^.7XlXlXQ.@X#X;X6X7X*X*X*X!.*X~./ G.b.~ Q z.x.m.v.= O & XX]._. X XXX& . ",
"          . . O ~ v.z.z.h.h.m.m.m.XX@X@X$X#X#X7X:X7XoXQ.#XwXlXlX#XXXXX7X7X7X#X$X$X&X@X@XM.m.F.h.h.h.x.m.~ = % 6 '.|.|.{.{.oX+ . ",
"          . . . / ~ m.g.h.z.v.m.m.#X#X#X#X#X^.kX7X7X#XQ.#XxXxXxX@X@X#X3X7X7X*X*X*X#XXX#Xm.m.M.g.h.v.v./ / 6 = 7 '.].`.@XQ./.. X ",
"                O = 0 B.M.m.E Y E Y F F Z Z Z ! ! ! Q h.W Y.A.A.z.z.h.W W ! Z T T F Y E T T Y m.M.m.6 6 6 R R Q @X].&Xw 8 =     ",
"                O % = b.m.m.E E T Z Z T P T P ! ! E z.z.h.E.S.S.h.h.h.! Q ! Z Y Y F F Z Y W T m.V.x.6 % = L W g.{.{.XX0 7 %     ",
"                O & * ( b.B.Y E Y T P Z Z F F W W E g.z.k.A.S.S.z.h.h.! Q T Y G F Y Y G E Y T v.m.v.= & & ^ ! E @XXX^.7 * %     ",
"          . % % S Z A 8 q w v.M.x.Y.Y.A.E.E.A.C.x.C.x.m.x.h.h.h.x.z.z.x.M.M.E.D.E.A.S.S.C.x.m.w q 8 C C C % % & & & %           ",
"          O * 7 Y Z Z V q 0 B.m.m.D.E.A.R.R.E.V.C.A.x.x.x.h.h.h.x.c.c.C.x.x.D.A.Y.S.S.S.M.m.B.w 8 8 L S A * & O + . .           ",
"          % 7 0 E Y E w B V v.v.v.N.S.S.T.A.A.A.C.V.c.x.x.z.z.z.c.V.V.V.V.A.A.T.T.N.!.N.v.b.l.V B B F Y F 0 0 6 O . .           ",
"    . + & J.S.E.@X@XXXx.x.x.B w q w w w T E E A.R.R.'.@X'.'.'.'.'.'.'.R.R.R.E T R w w q q q B m.V.V.XX@XXXD.D.S.& . X X X .     ",
"    O % 7 S.(.). X{.{.c.Z.V.q q 8 8 8 8 R T Y E.D.R.'.'.'.].`.'.OXOXOXD._.E.E R L q 8 6 q q B F.Z.Z.].}. XU.).D.= . . X . .     ",
"    6 7 B D.).)..X X{.Z.Z.z.w 9 ; ; ; 9 C I R N.S.T.OXXXXXXXQ.XXW.W.OXS.S.S.R L U ; & 9 8 q B k.V.Z.{.{.}.).).(.0 & ; . O .     ",
"O & A._.I.9X9X9Xj.j.g.F Y G V r y 5 5 5 : y 9 9 8 8 q q q q 8 8 q q q 8 q q 9 : $ 5 4 5 e r V G Y G g.g.j.1X1X8X(.R.F.7 O .     ",
". 9 R.).).9X9XwXg.E ! Z A A w e < 3 4 4 < < $ $ @ - - ; ; ; ; ; ; ; ; ; ; @ : < < s 3 3 y e q C L Z E E g.4X<X8X).).R.0 & .     ",
". 6 C.).(.qXqXwXg.! R I t r y < 1 s s 1 1 1 1 , < < # $ $ # $ $ # # # $ < # 1 < 1 s 1 s < @ y t r I R ! ! 5X5X4X(.(.Y.7 O .     ",
"X & V.Z.Z.E F T B w ; y 5 4 ) :.#.*.*.9.9.9.9.#.#.:.M m m k k k m m m #.#.#.9.9.9.9.*.:.:.:.) 4 5 y 9 w w F F H Z.Z.x.6 + o     ",
"X * c.Z.j.Y F Z w q - 5 3 s #.#.$.*.%.*.2.0.0.$.$.#.b b n h h d b b b #.$.$.5.5.5.&.*.*.$.#.#.s 3 5 ; 9 q Z G H Z.Z.z.6 % O     ",
". % z.c.z.Z Z S q & $ 3 s i $.| | &.%.%.1.1.2.| | | v v v g g g v ' ' ......1.7.5.&.&.%.....$.f s 3 $ ; q S Z Z x.z.~ = % O     ",
"O & & ; = q 6 8 ; : $ M +.{ q.q.q.a.p.p.p.p.p.p.p.p.w.w.e.3.3.2.0.0.6.a.a.d.p.p.p.p.p.a.q.q.q.{ +.M # : 9 ; 9 ; = = & & O .     ",
"O O . . O ; 9 e - $ $ M +.{ q.q.q.a.a.p.p.p.p.p.p.p.w.y.w.1.3.2.6.6.6.d.d.d.p.p.s.p.p.p.q.q.0.} { M < : & ; + : O O O O . .     ",
"O . X X X : ; & : $ # M { { 0.q.q.a.a.a.a.a.a.a.a.a.y.w.w.1.2.2.6.6.8.p.d.a.a.a.a.a.a.a.q.q.q.{ { M # $ : ; ; + O O O O . @     ",
"    . . . rXtXuX; $ , +.{ ] $.| | | |  .X.X.%.X. .X.X.X.X.[ [ ] X. .O.X.X.X.%.%.X...| ......$.} { +.< $ e tXtXuXO O O           ",
"    . . . tXtXtX: $ , +.} [ ............o.%.&...o.X.X.X.X.] [ ] ..X.X.X.%.%.....&.......O.O.$.{ { b < $ - iXrXrXO . .           ",
"    . . . tXtXtX- $ 1 +.{ [ $...........o.X...o.X.X.X. .o.' [ [ X...O.X.%.*...&.........O...$.{ { n < $ : tXiXtX. . .           ",
"    @ . O JXJXKX; > , d f g } { [ 2.5.5.e.i.i.dXdXdXdXd.dX1.&.%.dXa.d.d.dXgXe.e.e.6.0.6.[ [ { f f d < > - LXIXPXO . .           ",
"    . . O JXJXJX; - $ j j d +.+.{ 0.5.1.i.u.w.fXfXd.dXdXdXX.%.&.dXd.d.d.d.dXu.e.i.2.2.0.] { +.d j j @ ; ; JXPXPX. . .           ",
"    X X . JXPXJX; ; : x l j M +.{ 9.2.3.i.y.y.dXfXdXfXdXdX%.&.%.a.d.d.d.d.d.y.e.i.3.6.0.} +.M j N U 9 9 ; JXPXPX. o .           ",
"          . . . t C r C r t d f g v v v %.X.%.%.4.X.X.X.%.&.5.2.%.X.X.X.4.X.X.4.X.' v v g d j t D I A A r + . .                 ",
"          X X . C S Z S L r k h f b } v &.&.&.&.&.%.o.o.O.2.1.2.%.%.&.o.o.o.&.o.&.' ' v h k l U R Q Z P C O . .                 ",
"          . X O S F Y F T A t j d M b v *.*.&.&.&.o.&.X.o.1.4.1.%.X.%.&.&.&.$.*.*.' } b j t D ^ W E F P S + o .                 ",
"          O . % T._._._.R.E.R U l j d d g g g ' v ] r.e.i.d.dXfXi.s.r.' ' ' g g h f d k D I R S.E.E.A.M.J.& O .                 ",
"          O . & E.(.).)._._.E R D t l j d d f b } v s.r.w.dXdXd.w.r.t.v } v d d j j j N L T E R.R.R.A.M.n.= O O                 ",
"          O . & '.[._._.R.R.g.E R I U x t j d M n b t.s.r.gXdXdXr.s.t.b b b k l t x t U R E g.I.I.R.U.M.n.= % O                 ",
"          O . & F.D.C.MXnXnX].].oX! L I r : < 1 s s c g c c v c c c c s s s $ e r U U R XX{.}.eXnXnXC.M.N.6 % O                 ",
"          . . & N.A.M.mXnXnX}..X].j.g.! w e y 5 1 s h b c b c c c n n s s 4 e w V ^ R g. X.X}.nXnXmXM.M.J.= O .                 ",
"          o . % B.A.Y.MXmXeX X|. Xj.j.g.V 9 : 5 4 s k m h m n n m m m 1 s 4 9 V B h.E f.|..X{.nXmXmXA.M.n.9 O .                 ",
"          . . % B.A.A.4X8X1XqXqXqXj.f.Y 6 O . o . X X X X X X X X X X # X X & * 8 T g.j.qX8X1X8X<X<XY.m.n.* O +                 ",
"          . O 6 N.A.D.1X1X1XqXqXqXf.j.W & . . . . . . . . . . . . . X X X . . O 6 ! E g.4XqXqX4X1X8XC.A.N.6 & O                 ",
"          % 6 0 F.C._.qX1XqX4XwXqXf.j.W & X X . . . . . . . . O O O O . . . . O 6 ! g.g.wXwXqX1X8X1XD.A.M.0 6 6                 ",
"    . + = !.!.W.g.E f.[.[.[.f.E E ].[.Q.% X X                               . O = W.'.'.E E f.|.|.].E H E XXW.!.% @ .           ",
"    . O = !.OXOXE f.f.'.].[.E E f.'.].OX6 O .                               O O 7 W.].].E E f.|.|.[.f.f.f.'.'.Q.6 O X           ",
"    . O & !.W.W.G ! Y W.W.W.Y E Y W.W.!.* O O                               O O 7 !.W.OXT ! E '.'.OXY G Y W.oX!.6 % X           ",
"    . . O O & * % % % % & & % % & * * *                                           % = * O O & & * & O O O % * * % O .           ",
"    . . . . . . . . O O O O . . . O O O                                           O O O . . . . . . . . . . O O O O O           ",
"    O . . . . . . . O O O O . . . . . .                                           . . . . . . . . O . . . . . . O O .           "
};
