/* XPM */
static char *_ee1c1173d864f638892cb24eb81a8b7IdGOORZfZP3rAbLy[] = {
/* columns rows colors chars-per-pixel */
"63 75 256 2 ",
"   c None",
".  c #020202",
"X  c #0A0101",
"o  c #00040B",
"O  c #06090A",
"+  c #170602",
"@  c #171407",
"#  c #000413",
"$  c #000A14",
"%  c #00051B",
"&  c #000A1C",
"*  c #0B0C16",
"=  c #071318",
"-  c #151816",
";  c #0F0F10",
":  c #260501",
">  c #350301",
",  c #261703",
"<  c #321909",
"1  c #3A2508",
"2  c #362717",
"3  c #2A2415",
"4  c #000B23",
"5  c #000926",
"6  c #00152C",
"7  c #041727",
"8  c #000C34",
"9  c #011B33",
"0  c #011837",
"q  c #161C24",
"w  c #022238",
"e  c #14272F",
"r  c #2F302D",
"t  c #1F291E",
"y  c #4A0206",
"u  c #590303",
"i  c #4E1808",
"p  c #6F0A0E",
"a  c #452503",
"s  c #55320E",
"d  c #673707",
"f  c #643710",
"g  c #4E3A2A",
"h  c #591524",
"j  c #394434",
"k  c #774807",
"l  c #6A4718",
"z  c #78491A",
"x  c #6C4C0D",
"c  c #584B31",
"v  c #654B28",
"b  c #6E5132",
"n  c #001C43",
"m  c #001642",
"M  c #032646",
"N  c #1A3748",
"B  c #002756",
"V  c #043959",
"C  c #163B58",
"Z  c #0D314A",
"A  c #273949",
"S  c #2A3B52",
"D  c #033B66",
"F  c #09396D",
"G  c #433542",
"H  c #03415E",
"J  c #174259",
"K  c #17434E",
"L  c #2C4455",
"P  c #02446C",
"I  c #0A446A",
"U  c #084667",
"Y  c #174467",
"T  c #044879",
"R  c #085379",
"E  c #165377",
"W  c #2C5573",
"Q  c #2A627C",
"!  c #376378",
"~  c #714C4E",
"^  c #4F697C",
"/  c #57565B",
"(  c #983A2C",
")  c #A53825",
"_  c #885518",
"`  c #8F520D",
"'  c #9D6B17",
"]  c #A6650D",
"[  c #A86817",
"{  c #AB741C",
"}  c #A77719",
"|  c #B3761B",
" . c #A6720C",
".. c #966931",
"X. c #A86823",
"o. c #AA7826",
"O. c #B57925",
"+. c #A97839",
"@. c #B47B31",
"#. c #934830",
"$. c #A85053",
"%. c #977850",
"&. c #915564",
"*. c #A36463",
"=. c #B0575B",
"-. c #BB8A37",
";. c #B68A2D",
":. c #BDA03A",
">. c #C48B37",
",. c #C6953C",
"<. c #C38F2E",
"1. c #C5A634",
"2. c #B98D4A",
"3. c #90866D",
"4. c #C39245",
"5. c #DBB953",
"6. c #E6BA59",
"7. c #E9BB63",
"8. c #E3BF75",
"9. c #E3A574",
"0. c #FAD46C",
"q. c #F8D873",
"w. c #E7C266",
"e. c #FCE47B",
"r. c #DFC356",
"t. c #024887",
"y. c #0B5A89",
"u. c #145C89",
"i. c #045595",
"p. c #084E96",
"a. c #265C82",
"s. c #18648A",
"d. c #146393",
"f. c #1B6798",
"g. c #0D6694",
"h. c #276588",
"j. c #356888",
"k. c #256A96",
"l. c #2A749A",
"z. c #397498",
"x. c #347290",
"c. c #0056A4",
"v. c #0769A7",
"b. c #176BA6",
"n. c #126FB5",
"m. c #297AA7",
"M. c #367BA7",
"N. c #287EB3",
"B. c #2F75A9",
"V. c #486C87",
"C. c #467495",
"Z. c #4B738C",
"A. c #417CA5",
"S. c #7C7293",
"D. c #0672C7",
"F. c #056FD2",
"G. c #8E7896",
"H. c #A56F86",
"J. c #1B85BE",
"K. c #2984B7",
"L. c #3586B7",
"P. c #3386AE",
"I. c #308194",
"U. c #4897BD",
"Y. c #5698BA",
"T. c #4B8AB0",
"R. c #7698B6",
"E. c #6C94B3",
"W. c #51A2BE",
"Q. c #6FADBF",
"!. c #1B8DCE",
"~. c #238BC4",
"^. c #2B96CA",
"/. c #3797C9",
"(. c #2A99D7",
"). c #3797D5",
"_. c #348DCA",
"`. c #3AA3D9",
"'. c #2DA1DE",
"]. c #299BE8",
"[. c #299AF0",
"{. c #1AA5FB",
"}. c #1FA3ED",
"|. c #24A6FC",
" X c #34AAEE",
".X c #1898EF",
"XX c #4897C6",
"oX c #559CC5",
"OX c #4695CB",
"+X c #679AC5",
"@X c #7499C4",
"#X c #4BA4C6",
"$X c #56A5C8",
"%X c #59ABD7",
"&X c #58B4D9",
"*X c #4AACD8",
"=X c #66A9CA",
"-X c #78A8C8",
";X c #68AAD5",
":X c #67B8D8",
">X c #77B8D7",
",X c #71B4CE",
"<X c #4CB4E7",
"1X c #56B6E8",
"2X c #58BAF8",
"3X c #4CB0F1",
"4X c #66B9E6",
"5X c #77BAE5",
"6X c #64BDF7",
"7X c #78BAF7",
"8X c #6BC2D6",
"9X c #77C4D8",
"0X c #71C2CC",
"qX c #59C4FD",
"wX c #69C3E6",
"eX c #75CBEF",
"rX c #999C9D",
"tX c #8896AA",
"yX c #989BA4",
"uX c #899AB9",
"iX c #94A4B1",
"pX c #A5A5B1",
"aX c #B19EA2",
"sX c #F7A7A7",
"dX c #DAA19D",
"fX c #F7D888",
"gX c #FFE987",
"hX c #FFEB90",
"jX c #FEE4A6",
"kX c #88B1CE",
"lX c #82BAE8",
"zX c #8AD3CC",
"xX c #89CAD8",
"cX c #89D4D9",
"vX c #94D2D5",
"bX c #91CBD2",
"nX c #88D4E8",
"mX c #88D3ED",
"MX c #9AECE7",
"NX c #99ECF7",
"BX c #99F2F9",
"VX c #95F1F2",
"CX c #A5E9E9",
"ZX c #A4EBF5",
"AX c #BCF5F8",
"SX c #ABF1EC",
"DX c #9FECDE",
"FX c #C4FCFC",
"GX c #C9F9F8",
"HX c #D2F9FB",
"JX c #C1ECF1",
"KX c #E8FEFF",
"LX c #FDFBFD",
"PX c #F6F8F9",
"IX c #F7EFF3",
"UX c #C0BDC8",
/* pixels */
"                                                X . . . . . . . o . . . . . .                                                 ",
"                                                o o o o o o o o $ o o o o o o                                                 ",
"                                                # & $ & 4 5 4 5 % 4 4 & 4 % #                                                 ",
"                                    . . o o . o -X=X=X$X%X;X;X;X-X=X;X=X=X-XuX# o o . . .                                     ",
"                                    X . o o o & ;X1X<X<X<X3X1X1X3X3X3X3X*X%XQ.& o . X . O                                     ",
"                                    o o o o $ 4 %X<X<X<X<X<X<X<X1X3X3X<X1X&X;X4 # o $ o o                                     ",
"                              . O o Z.C.! 0X,X9XNXBXBXBXNXNXBXBXVXVXBXNXeXmXeX&X%X=Xx.C.^ & % o                               ",
"                              o o $ x.x.I.8X8X8XNXZXZXCXCXCXCXVXMXMXCXZXmXmXeX1X<X*XP.k.C.5 % %                               ",
"                              o o & x.x.z.>X9X9XZXCXZXCXSXCXCXZXCXMXSXCXnXnXmX%X&X%Xm.l.x.6 % %                               ",
"                        o o # ^ ^ Z.>X,X9XnXnXxXAXAXAXFXGXGXAXFXFXAXFXFXAXAXAXmXeXmX%X$X=Xx.V.V.# o O                         ",
"                        $ # & V.C.z.9X8X0XcXcXvXAXJXJXHXGXGXGXGXGXGXGXGXAXAXAXxXmXeX&X<X1Xm.z.C.% o o                         ",
"                        # % 4 z.B.m.wXwX8XeXcXvXAXAXJXGXAXFXGXGXHXGXGXFXAXSXAXvXnXeX*X<X<XN.m.z.6 # o                         ",
"                  . o o ^ V.j.Y./.(.^.L.^.*X&X:XMXMXCXCXCXCXGXGXGXSXSXDXMXMXCXQ.=X:X/.^.(.^./.L.j.Z.^ o o o o $ o             ",
"                  . o # Z.j.z.U.^.)./././.<X<X&XBXVXVXMXMXCXHXHXGXCXMXMXVXVXBX=X&X&X/.^.^.^././.z.Z.^ o o o o o #             ",
"                  . $ # V.C.M.U.XXL.U.XXL.<X3X<XBXVXVXBXVXCXHXGXGXCXCXZXNXBXBX&X1X<X/./._.XXXXU.l.z.^ & o o $ $ $             ",
"                  . o # Z.z.z.=X+X+XM.m.K.K.!.J.8X0X8XNXVXCXGXHXFXSXZXNX8XwX1XK.J.~.m.m.M.+X+X+Xz.z.V.# o # kXkXkX# o .       ",
"                  . o % C.x.C.@X@X@Xz.l.K.K.!.~.wX8X8XNXVXCXHXGXFXCXCXZX:XwXqX~.!.~.N.l.C.R.R.R.z.z.V.# o & >X5X>X6 o o       ",
"                  o # 5 V.C.V.R.tXuXZ.z.z.P.L.N.wXwX8XBXZXCXGXGXFXCXCXZX8XwXeXN.N.M.z.C.V.tXtXE.C.V.V.& & 4 xX>XlX4 & #       ",
"            o o o ! ! W kXuXtXPXPXPXo o # S L Y $X#XW.NXCXCXHXHXGXSXZXNX$XXXY.Y S L % # # LXLXLXtXuXR.j.s.h.& # & xX5XlX5 o . ",
"            o o & W h.a.kXuXtXLXPXLX. . X r G S oX#XW.ZXCXCXGXHXGXSXMXNX#X$XE.L A r X X . LXLXLXyXtX-Xa.f.h.# o $ >X6X5X# X . ",
"            O o % h.k.h.R.tXyXLXLXLX. . O G G S oX#XW.ZXMXDXGXGXAXSXSXZX#X$XR.A g g X . . LXLXLXyXtXR.h.u.k.$ o & >XqX5X# X . ",
"            . o 4 Q s.k.KXLXLX@ + X X . . + + & >X4X,XZXMXDXAXGXGXzXzXxX:X:X-X4 + + X . X X : + LXPXKXj.k.h.o o 4 5X6X4Xo X o ",
"            . o & j.s.h.KXLXLX+ : + X . X + : O ,X:X:XNXNXCXFXGXFXbXvXcX:X:XkX7 + : + X X + : + LXKXKXW s.Q $ o 4 5X2X5X# . o ",
"            . o & Q s.h.KXLXLX: > > + X + : > + >X4X:XNXZXCXFXFXFXbXbXcX:X:XkX* : > + + + > : > LXPXKXj.h.j.# # 4 5XqXeX& o . ",
"            . o % Q h.h.KXLXIXh p p y > y ( ) b kX4X:XnXxXvXCXZXCXvXzXcX&X>XiX~ ( ( u y y p p p LXPXKXQ h.h.# o & 5XqX6X% o . ",
"            . o % Q h.h.KXPXLXh p p y y u ) ) #.kX4X:XeXxXbXCXCXCXzXzXcX:X>XpX~ ( ) u u u p p p LXPXKXQ s.h.# o & >XqX6X% . . ",
"            . o 5 Q k.h.HXPXIXi p p y y u ( ( b -X&X:XnXvXzXCXMXSXzXzXcX:X>XiX~ #.( u p u p p h LXKXHXQ h.h.# o 4 :XqX4X& . . ",
"            . o 5 j.u.k.kXiXaXdXdXdX$.&.&.*.*.*.kX4X:XxXzXzXCXCXDXzXcXcX:X,XkXG.*.H.$.$.$.sXsXsXpXkXxXa.k.Q o $ 4 oX`.XX# . . ",
"            o o 5 h.f.s.,XkXpXaXdXsX#.&.&.H.H.G.-X:X,XnXvXzXCXCXCXvXcXnX,X>XkXS.H.*.$.$.$.sXsXdXpXkXlXh.f.h.$ o 4 oX).OX& . . ",
"            o o % j.s.d.5X-XkXpXdXdX&.~ S.G.G.R.,X,X>XnXnXcXCXCXCXcXnXnX:X:X-XE.S.G.&.&.&.dXUXUXkXxX5Xk.d.h.$ o 4 U.`.OX& . . ",
"            . o # ! E l.u.u.a.j.! V.T.Y.Y.+X+X+X9X9X:X$X#XW.cXcXnXW.U.#X:XwXeX=X,XR.E.R.E.C.j.h.u.R s.d.f.h.# $ 4 XX`.OX% . . ",
"            . . o ! Q s.u.d.y.k.l.s.#X#X#X%X%X$X9X9XeX#X#XU.nXcXmXXX#X#XwXwXeX$X$X%X$X$X#Xf.m.f.y.u.u.k.f.h.4 & 4 Y.OXoX# X . ",
"            . . o / ! h.s.y.u.k.k.k.oXoXoX=XoX=XxX9X9X#XU.W.nXnXmX#XU.U.eXeX>X=X=X=XY.$XoXm.b.b.y.u.u.a.k.h.8 5 5 =XoXT.o X X ",
"                  o # 4 s.m.k.P P P P D D P U H U U R R y.s.P.l.l.y.s.s.R P U H V H V P P P T T f.l.j.5 5 8 U.$XoX5 4 &       ",
"                  o o 4 k.f.B.P U U V H V H H V T R T s.s.y.P.P.m.y.u.u.R R E P D U V V V I I P k.k.h.4 4 4 Y.XX$X5 $ .       ",
"                  o o & Q k.k.T P P V V V H P P R y.R u.u.y.m.P.M.d.u.u.R T T P D D P D D I U U x.h.Q 4 # % E.Y.T.& o .       ",
"            o o o N Z Z w 0 m k.b.b.P.P.P.m.N.K.b.f.f.f.k.s.d.u.u.s.s.f.l.k.l.P.L.K.L.K.m.k.k.x.9 = 9 C Y L o $ $             ",
"            o # % Z V V 6 6 n k.f.b.P.m.M.m.N.L.b.b.m.f.k.f.s.d.d.f.u.d.l.f.f.K.N.N.K.K.P.f.f.h.9 6 w J I Y # o .             ",
"            & 5 8 D D D 9 9 6 j.j.k.A.A.M.T.M.M.k.f.f.d.d.d.d.f.y.f.f.f.f.f.m.m.L.P.M.M.M.h.j.h.M n m T T T 5 5 #             ",
"      . . o Y E t.u.p.t.Z N Z 9 9 0 9 0 m F E I M.P.K./.).OXOX_.OX_././.L.N.m.T P I M 0 9 9 9 0 f.b.b.OX`.).lXlXkX# o .       ",
"      . . & T i.t.i.c.p.V Z Z 0 6 6 6 6 6 L Y I P.K.K.^.).).)./.).)._.).~.N.M.T Y Y 6 6 9 6 6 0 f.v.v.'.'.`.6X7XlX4 o .       ",
"      . o % y.c.c.c.p.i.D V V 0 9 4 7 = - A A Y z.M.P.L.XXXXXXXXT.XXXXXXL.M.z.Y S A q * 7 4 6 n f.v.v.).`.`.6X6X5X4 o .       ",
"      . O % ).[.(.3X3XOXi.t.R M w 7 t 3 3 , - e 9 9 9 9 9 9 6 6 9 9 9 9 6 6 9 = - 3 3 2 r q 9 w D D D R R T v.g.h.4 & .       ",
"      o o 5 (.[.]. X`.*Xi.t.R M w - 2 a a , @ - = = = ; ; ; = = O = = = = = ; , , , a 1 3 - q e C V V U I P d.d.Q & # o       ",
"      4 5 8 ].[.].'. X*Xt.u.E w 7 - 1 1 1 < , @ @ @ , : : , + @ @ @ @ @ @ @ + < < > a a 1 , , - N C C C Y Y h.h.Q & # .       ",
"o $ 4 T.U.).qXqXqX].].).B 8 9 e t 2 s f f l v b %.%.%.......b b v g g g c v v ............%.%.3.= 6 9 6 9 0 0 9 9 # # .       ",
"o # 8 OX).'.qXqX2X]..X(.m 4 ; 2 1 a f f f z l z +.2.@.[ [ ..z l z f f f z z z X.X.[ X.X.X.@.+.%.@ = = = 7 7 7 7 4 # o .       ",
". # 8 OX(.(.qXqXqX).(._.6 @ : a a i d d d z k ` @.O.| ] ] ' k k k d d d k k k ' [ [ ] ] ] O.O.+., - ; = $ = $ = = o . .       ",
". o 5 I T y.v.v.f.n 0 7 3 a a z z z 4.2.2.2.-.-.q.q.0.0.0.q.5.5.5.;.;.;.:.:.4.fXe.q.q.0.q.q.0.fX@ ; - rXrXyXo o o             ",
". o & Y I P d.d.h.9 7 O 2 a i _ k ` 4.>.,.-.<.<.q.q.0.0.q.q.5.5.5.;.;.;.1.1.,.q.e.e.q.0.q.q.q.fX, ; ; rXrXrX. . .             ",
". . o L K J h.h.Q 6 7 - 2 < a z k ` >.>.,.>.<.<.0.q.0.0.0.0.r.5.6.;.-.-.,.<.,.gXe.e.w.0.0.0.q.fX+ ; - rXrXrX. . .             ",
"      o $ $ % % $ 7 7 O 2 a a _ _ ` [ ] [ [ ] [ { { } } } } } } { ` ' ` ] | [ { } } }  .} ' { .., - ; PXPXPX. . .             ",
"      o . o o o $ = ; , 1 a s _ ' ` [ [ [ [ ] ] O.o.{ { } } } { o._ ` ` { { [ [ } }  .| | [ ' ..+ O - LXIXPX. . .             ",
"      o . . o o . ; @ , a a a _ _ ` X.X.[ { ] ] { { } o.} } } o.o._ ` ` [ [ { { } o.} } o.....%.@ - ; PXLXIX. . .             ",
"      o . . yXyXrXq O @ 1 a i f d d _ _ _ -.>.,.7.7.w.gXgXgXgXgXgX;.{ O.,.>.,.7.w.5.gXgXjX: @ @ IXIXLX. . O                   ",
"      . . . yXyXyX* - @ 2 1 1 s s s b z _ 4.2.-.7.6.6.gXgXgXgXgXgX} | O.,.,.,.w.6.w.gXhXjX, @ ; PXPXPX. . .                   ",
"      X . . yXyXrX- ; ; 3 2 2 r j j ~ b b 2.2.-.7.6.6.e.e.gXgXgXgXO.| | ,.>.>.6.6.6.hXhXjX@ @ ; PXPXPX. . .                   ",
"      . . . LXPXPXq = q e q e ! ! L L r s v x k O.| } } } } } o.{ O.>.>.{ o.[ O.| } k k l , O ; PXPXPXo . .                   ",
"      . . . PXPXPX= 7 9 w M n a.h.h.J A r c v x o.| O.| | | { { | ;.-.@.o.o.o.{ | | k x z : @ ; PXPXPX. . .                   ",
"      . . . PXKXKX6 M B B D D b.c.b.P J K / c v +.O.O.O.O.{ O.| | ;.;.-.o.} o.@.{ @.l b b + q = PXPXPX. . .                   ",
"      o . o 7 0 M k.n.n.[.[.|.|.|.'.g.s.E K e r z k ` o.@.@.6.6.6.6.w.5.gXgXfXk k v r e r N Z Z o . .                         ",
"      . . o 9 M B b.n.F.|.{.{.{.|.}.v.g.s.U J r v k k +.+.o.7.7.6.w.5.w.gXgXjXx l c C D V D D V o . .                         ",
"      . . $ 6 M B n.D.F..X|.|.|.|.|.v.i.y.P I A b z z +.+.+.7.7.7.8.8.8.gXhXjXv b / D t.F F F D # . .                         ",
"      . . o C.T._.3X X X|.}.}.|.|.|.!.^.L.T I N 3 a a f d d k d k x x x a a 1 , @ w b.D.n.n.n.l.# . .                         ",
"      . . $ A._.~.3X X X|.|.{.{.{.{.!.~._.P I N 3 1 a s f d k k x x l l i a 1 - e n D.F.F.F.F.n.% . .                         ",
"      . . $ P.~.^.3X X X}.}.|.|.{.|.(.~.L.P Y S t 2 1 s g s l l l f v v < 2 e w M D n.F.F.F.F.n.4 . O                         ",
"      . . # :X2X3Xn.D.D.2XqXqXD.F.D.2X6X5XB n 9 o . . X X X X X X X X X A C D /.).^.t.t.t.].}.^.% . .                         ",
"      . O % 5X1X2Xn.D.D.2X1X2XD.D.D.2X4X;XB n 7 o . . . . o o . . o X # C D T ).'.^.D V P /.(./.% O .                         ",
"      . o % >X6X1Xn.n.v.wX4X2Xn.n.v.6X4X5Xn 9 e o . . . o o o o . . X o C B D XX/.XXJ N V Y.U.T.# O .                         ",
"      . . # I T t.t.t.p.T T T t.t.t.t.T D 5 # o                         # 4 4 4 5 5 % # 4 % 4 &                               ",
"      O o & F t.T t.t.t.t.t.T t.t.t.T T Y 5 # o                         . . o o o o # # # # o o                               ",
"      . O o C F I D I I F F F I I I F C C # o o                         X X . . . . o # o o . .                               ",
"            # % $ o # # # o o o $ $ % # o                                                                                     ",
"            X . . . . . . . . . . . o o .                                                                                     ",
"            X X X . o o . . o o . . . . .                                                                                     "
};
