/* XPM */
static char *dd78f0b999504d23cab2930004b7ba96wrRwBXzcDZXwRv8b[] = {
/* columns rows colors chars-per-pixel */
"66 75 256 2 ",
"   c None",
".  c #010202",
"X  c #0A0101",
"o  c #01030B",
"O  c #000A0C",
"+  c #09080A",
"@  c #180703",
"#  c #17130B",
"$  c #000413",
"%  c #000A14",
"&  c #00051B",
"*  c #000A1C",
"=  c #0C0D17",
"-  c #08141A",
";  c #151517",
":  c #0F0F10",
">  c #250504",
",  c #241505",
"<  c #371A04",
"1  c #300705",
"2  c #3B2307",
"3  c #362517",
"4  c #2F2916",
"5  c #000B23",
"6  c #000826",
"7  c #00142C",
"8  c #011A2C",
"9  c #051625",
"0  c #191B26",
"q  c #001534",
"w  c #011B33",
"e  c #001C3B",
"r  c #061A39",
"t  c #000B32",
"y  c #05223A",
"u  c #172E38",
"i  c #2D312E",
"p  c #211A21",
"a  c #4C0303",
"s  c #481C01",
"d  c #590D09",
"f  c #680604",
"g  c #720B0A",
"h  c #462303",
"j  c #552200",
"k  c #56360E",
"l  c #693805",
"z  c #763D0A",
"x  c #673C19",
"c  c #50392C",
"v  c #6D3E20",
"b  c #794606",
"n  c #794815",
"m  c #6D4910",
"M  c #57452C",
"N  c #6D4C2A",
"B  c #6F512B",
"V  c #011B46",
"C  c #012548",
"Z  c #143748",
"A  c #012857",
"S  c #043859",
"D  c #113852",
"F  c #253849",
"G  c #303A4F",
"H  c #023C64",
"J  c #043A68",
"K  c #003D75",
"L  c #0B3668",
"P  c #423543",
"I  c #05435B",
"U  c #18445C",
"Y  c #1D4348",
"T  c #2A4456",
"R  c #03436B",
"E  c #084568",
"W  c #184767",
"Q  c #054777",
"!  c #0C5578",
"~  c #125275",
"^  c #2B5470",
"/  c #13637D",
"(  c #2A637C",
")  c #39667D",
"_  c #3C707E",
"`  c #744C50",
"'  c #4B6B7A",
"]  c #64655D",
"[  c #9A3A35",
"{  c #A6342D",
"}  c #820901",
"|  c #834806",
" . c #88560C",
".. c #885715",
"X. c #8A5215",
"o. c #9B6815",
"O. c #9A6E16",
"+. c #A66718",
"@. c #A7761B",
"#. c #B1781E",
"$. c #8D542D",
"%. c #95692F",
"&. c #A66724",
"*. c #A97724",
"=. c #B57927",
"-. c #B57B36",
";. c #A65D18",
":. c #954851",
">. c #A84F50",
",. c #B26F76",
"<. c #8D6761",
"1. c #893E43",
"2. c #B78829",
"3. c #BA8538",
"4. c #AF8A2F",
"5. c #C69937",
"6. c #C08D33",
"7. c #C5A037",
"8. c #B1884B",
"9. c #968C6E",
"0. c #CA9745",
"q. c #D7B44E",
"w. c #E3BB57",
"e. c #E7C358",
"r. c #F7D66D",
"t. c #FBD776",
"y. c #F3D370",
"u. c #FCE97A",
"i. c #FFF17F",
"p. c #D3C249",
"a. c #003E89",
"s. c #034885",
"d. c #095886",
"f. c #165B87",
"g. c #055796",
"h. c #0E518F",
"j. c #2C5E85",
"k. c #196589",
"l. c #086699",
"z. c #196796",
"x. c #146A91",
"c. c #276487",
"v. c #346786",
"b. c #256995",
"n. c #297599",
"m. c #377798",
"M. c #387093",
"N. c #196AA3",
"B. c #146BB7",
"V. c #1070B1",
"C. c #2979A6",
"Z. c #377AA5",
"A. c #277DB3",
"S. c #2B71AC",
"D. c #065DA6",
"F. c #466B94",
"G. c #457894",
"H. c #467088",
"J. c #406EA2",
"K. c #0473CB",
"L. c #0670CD",
"P. c #89788C",
"I. c #807BA3",
"U. c #31829C",
"Y. c #1987B6",
"T. c #2B82AA",
"R. c #3683AA",
"E. c #2786B9",
"W. c #3484B4",
"Q. c #3894BB",
"!. c #4894B9",
"~. c #5193B8",
"^. c #689ABA",
"/. c #6F94AE",
"(. c #4AA4BC",
"). c #5DA8BD",
"_. c #6B90A3",
"`. c #1C8CCA",
"'. c #378CC6",
"]. c #3895CA",
"[. c #3798D6",
"{. c #2992D2",
"}. c #39A1DC",
"|. c #2B9AE8",
" X c #1AA8FB",
".X c #18A7EC",
"XX c #23A5F7",
"oX c #34ACEF",
"OX c #1D96EC",
"+X c #4797C7",
"@X c #4D99CD",
"#X c #6A9BC7",
"$X c #6F9CCC",
"%X c #4BA4C7",
"&X c #57A6C8",
"*X c #48A5D8",
"=X c #56A9D5",
"-X c #5AB6DA",
";X c #4FB5D4",
":X c #65A8C7",
">X c #67AAD4",
",X c #69B9D7",
"<X c #77B9D8",
"1X c #74B0CB",
"2X c #4AB4E6",
"3X c #56B6E7",
"4X c #59B9F8",
"5X c #49B1F0",
"6X c #68B8E5",
"7X c #6DBBEE",
"8X c #76C3D8",
"9X c #6DC6DB",
"0X c #5AC4FE",
"qX c #5EC6EA",
"wX c #68C2E8",
"eX c #71CCF2",
"rX c #58C0DD",
"tX c #969BA6",
"yX c #8C9AB4",
"uX c #94A6B2",
"iX c #ACA8B4",
"pX c #A7979D",
"aX c #EB9193",
"sX c #E1A7A7",
"dX c #FEE886",
"fX c #FEE892",
"gX c #F8DC85",
"hX c #8AB2CF",
"jX c #909DC7",
"kX c #C7B7C0",
"lX c #8BD3CD",
"zX c #94CED6",
"xX c #88D5DB",
"cX c #93D3D6",
"vX c #8FCBCF",
"bX c #A9C9CD",
"nX c #87D6E6",
"mX c #84D7F4",
"MX c #8BD1E5",
"NX c #9CEBEA",
"BX c #99ECFA",
"VX c #9AF1F9",
"CX c #A3ECEB",
"ZX c #A8EAE8",
"AX c #A4ECF5",
"SX c #BAF8F9",
"DX c #AEEFF0",
"FX c #C4FBFD",
"GX c #C9F9F6",
"HX c #D6FBFA",
"JX c #C6F5EE",
"KX c #EAFBFB",
"LX c #FDFCFE",
"PX c #F8F9FA",
"IX c #F8F2ED",
"UX c #A6C3BF",
/* pixels */
"                                          . . . . . . . . . . . . . . .                                                             ",
"                                          o o O o o O O o o . o o O o O                                                             ",
"                                          % % * 5 5 5 5 5 5 6 6 * 5 * &                                                             ",
"                              . . . + o O ^.1X&X>X>X>X>X>X>X>X>X>X&X:X1X$ o o . + .                                                 ",
"                              X . . . o % 1X=X3X3X5X3X2X2X2X2X2X5X2X3X:X* o . . . X                                                 ",
"                              o o O % * 5 :X;X*X2X2X2X2X2X2X2X2X5X5X3X>X5 * % O o o                                                 ",
"                        O o $ ' H.G.hX1X<XAXBXVXBXBXBXBXBXBXVXVXVXeXeXeX=X>X>Xm.H.' & $ o                                           ",
"                        o O % H.G.m.<XeX,XAXAXZXCXCXCXCXZXZXCXCXBXnXmXeX3X3X=XC.m.G.6 * .                                           ",
"                        O % 5 M.m.m.,X9X8XAXZXZXZXZXZXZXDXDXAXCXCXxXxXmX-X=X=XC.n.m.5 * O                                           ",
"                  X . O ' H.G.<X<X,XmXnXxXDXSXSXJXGXGXFXFXFXSXSXFXSXDXSXnXmXmX=X-X&Xm.H.' % o o                                     ",
"                  X $ $ H.G.M.8X8X8XxXlXcXSXSXSXGXGXGXGXJXGXGXGXGXJXSXSXxXnXeX;X;X-Xn.M.F.6 $ o                                     ",
"                  o & 5 M.M.C.wX9X9XnXxXxXSXDXDXFXGXJXGXGXGXGXGXGXJXSXSXxX8XeX-X3X3XC.Z.m.6 5 $                                     ",
"            . o O ' H.M.!.Q.].].].Q.-X-X:XBXVXAXZXZXZXGXGXGXDXZXDXNXBXBX,X-X3X[.{.].].+X!.Z.M.H.o + . o O o o . .                   ",
"            . o O H.G.n.!.].].[.[.'.3X-X;XBXBXAXNXZXZXFXFXFXDXCXNXVXVXBX-X3X2X{.[.[.'.Q.+XC.m.H.$ o o o o O o o .                   ",
"            . O % _ M.n.@X+X'.].[.].2X2X;XBXBXAXAXCXCXSXFXFXZXZXCXNXBXBX;X3X3X[.].].@X!.!.n.M.H.% o o O o O O o O                   ",
"            . o % H.M.Z.#X>X>XS.S.A.Y.Y.E.wX<X8XCXNXCXFXFXFXZXCXNX8X,X9XY.Y.E.A.A.C.#X#X^.M.m.v.$ o % ' _.' bXbXbXo . .             ",
"            . O % _ M.J.$X#X#Xm.Z.A.`.`.E.wX,X<XAXNXNXSXGXGXDXNXVX9XwX3X`.A.A.A.n.m.^._.^.G.M.F.$ % 5 G.U.m.cXbXbXo . .             ",
"            - % % G.F.F./.yX/.H.F.m.W.E.C.eX,X8XBXNXNXSXGXGXZXNXVX9XwXeXA.A.Z.m.G.' _.yX_.F.F.F.& & 5 G.m.R.vXcXvX% O O             ",
"      . o % ^ ( ( #X$XjXLXLXLX. o * F T W :X+X(.VXNXCXSXGXGXAXBXAX&X+X&XW G G & $ $ LXPXKXyXyXyX) ) ) 6 6 5 U.m.U.cXvXbXo . .       ",
"      $ . $ v.c.v.^.jXyXPXLXLXX . . P G T ^.%X;XBXCXZXJXGXFXAXVXAX(.%X~.G P P o + . LXLXPXyXyXyXc.c.) & & & m.T.U.eXnXvXo . .       ",
"      o . O c.f.v.jXyXtXLXLXLX. X X c G F #X@X%XAXZXZXGXHXFXNXBXBX(.%X).G c c o . X LXLXLXtXtX/.k.b.^ & o 5 Z.A.T.eXeXnXO . .       ",
"      . . O c.b.c.KXKXLXX @ X . X X @ = 5 1X6X6XAXZXZXGXHXFXcXxXxX,XrX:X: > @ . . . , @ X LXKXKXk.z.j.& o $ Z.E.E.qXqX,XzXUXbXO . . ",
"      . . % k.x.( KXKXLX@ @ @ X X X @ + * hX,X-XBXCXZXFXHXGXlXlXxX,X3X<X: > @ X . X @ > > LXLXHXc.z.( * o % Z.A.T.3X0XwXxXbXbXo . . ",
"      . X $ c.x.c.HXKXLX> 1 1 @ @ @ > @ = uX,X,XVXCXZXSXGXGXvXlXnX,X3X<X> 1 1 @ X @ 1 1 > LXLXKXc.k.j.* o $ m.W.T.wX4XqXmXzXzXO . . ",
"      . X $ c.z.( KXKXPXd f g a a a [ $.` uX<X,XxXlXlXCXZXZXvXcXnX,X-XhX:.{ [ d a a g g d IXLXKXc.b.c.* o $ S R R T.E.E.wX<XhX% . . ",
"      . X $ c.k.v.HXKXIXg } g f a a { [ ` tX<X,XxXlXlXCXCXCXvXzXMX,X6XhX1.{ { f f f g g d IXLXKXc.k.c.* o $ D J H Z.E.E.0X7X<X* o . ",
"      . . $ c.k.( HXHXLXd g g d a a [ $.` uX6X6XzXvXlXNXNXBXzXzXMX,X6X1X` [ [ f f f g g d LXLXKXc.k.( % . O Z S E Z.T.A.0X0X,X5 o . ",
"      . . $ c.z.b.1XhXiXaXaXaX:.:.:.,.,.P.hX6X,XzXvXcXCXAXAXcXzXMX1X6XhX<.,.,.>.>.>.aXsXsXiXuXhXc.k.( % o . y C C f.z.l.}.}.@X6 o . ",
"      . o & b.z.b.<XhXuXsXaXaX>.:.:.P.P.G.hX<X,XzXvXlXNXCXCXcXcXMX1X,X1XP.,.,.>.>.>.sXsXkXiXhXhXz.z.( % . . y V A f.f.l.}.}.+X6 O . ",
"      . . % b.z.b.<X1XhXiXpXpX<.<.] P.I._.hX<X<XxXxXxXAXZXDXxXnXxX8X,X1X_.P.P.<.<.<.kXkXbXhXhX<Xz.b.( % . o y A A f.g.l.oX}.+X5 o . ",
"      . . o c.z.z.f.f./ ( ' ) /./.^.$X$X#XhX8X8X!.(.(.nXzXxX(.(.%X,X,X<X:X$X$X#X#X#Xv.F.c.! / f.z.z.c.% . o Z S H +X].{.oX[.~.* o . ",
"      . . . ( k.k.f.x.d.b.n.k.%X%X%X=X=X:X<X8X8X%X%X+XmXMXMX%X%X+XwXwX9X&X:X=X%X*X%XC.b.z.f.f.f.z.c.c.* o O D H H +X].{.}.*X^.% . . ",
"      + . . ^ ( b.d.f.x.b.b.z.&X%X&X&X&X:X8X8X8X%X%X+XmXnXMX&X@X=X6XeX<X).:X&X(.&X!.b.n.b.d.f.f.c.c.j.6 % * S J K @X[.].+X~._.* . . ",
"            % * t b.b.b.R ! Q H R S R R S ~ E ! / k.d.R.C.Z.f.f.d.! ! ~ I I I E I E R Q Q n.n.b.6 5 5 W U ^ k.g.g.*X}.*Xq * *       ",
"            $ & 6 M.( v.~ R E S H H J S S ~ E ~ / k.d.T.U.U./ ! k.Q Q ~ S S L S H E R s.Q z.z.c.% o % W W Q N.g.l.}.|.].q o .       ",
"            & 6 6 ) _ ) R Q R E H J R H E ~ ! ! f.k.k.n.n.U.k./ / Q d.! R J Q J J J Q K Q n.b.v.O o % U W h.g.N.d.%X+X&X% . .       ",
"      . . o U E W q q e b.b.n.C.A.W.C.T.C.N.C.z.k.z.z.z.x.x.f.k.k.b.S.S.A.A.E.A.W.T.z.m.M.q 8 9 C D Z % O & Q s.~ * % O             ",
"      o o % W Q E e 7 q b.b.z.W.W.T.T.T.T.N.N.N.z.b.z.z.h.x.k.x.k.C.N.N.E.E.A.E.T.T.b.c.( 7 8 w S S C * O % ~ ! U O . .             ",
"      $ * 7 R Q Q e q w v.c.b.m.Z.m.R.C.C.N.N.N.z.z.z.z.z.z.x.x.z.N.z.N.T.T.A.Z.m.m.c.M.( y w q H H L t 6 6 W W T % . .             ",
". o $ hXhX<X+X=X+XE E W e q e e e e E R d.A.E.A.].+X+X+X+X].].].].E.E.T.Q E E V e y 7 w w S S H s.h.h.h.Q ~ 6 & $                   ",
". o * <XwXwX@X@X@XQ Q E w w q 7 7 7 W W Q W.E.A.].].+X].].].].[.].E.T.R.R W W q 7 7 7 7 8 D S H h.s.g.g.g.s.& . .                   ",
". o 5 <X4X0X].%X@XR ! W 9 - = ; : ; F T W m.Z.R.+X!.!.!.!.!.+X+X+XR.Z.M.W F F 9 = - 9 7 q S H J g.g.g.g.D.s.$ . .                   ",
"X $ 6 c.l.l.d.R E e w 9 4 2 2 N N N # ; 9 8 w 7 w w w 8 8 7 q e q 7 7 8 0 ; p 3 3 4 0 r C s.g.g.*X*X5X|.|.'.* . o                   ",
"o o 6 j.z.l.Q I U 8 8 = 2 s j n n N < , # : O - % % - - - = = = - - - : , , , h 2 3 p r V h.g.g.*X2XoX{.OX[.7 % $                   ",
"O o & ^ b.f.E W U 8 8 : h s j n n m < < < @ , @ # # @ # @ @ , @ @ @ , @ , < < h h h , 0 u W ~ h.5X|.oX|.|.[.V t 7                   ",
". o % 7 e q w 7 8 - - : h s s X.n X.%.%.$.B N N c c c N N B %.%.%.-.8.-.%.%.%.%.%.%.c c i 8 q V {.XXOX0X0X0X[.+X~.7 $ .             ",
". . . - 5 y 7 9 9 + ; , < 2 j n b n o.&.%.n n n x x x N n n %.&.&.-.-.-.o.+.&.&.&.%.l x M : 9 V |.XX|.0X0X4X|.[.+Xq $ o             ",
". . . + - 9 5 9 = ; : @ 2 h s n n | O.O.@.b b | l l l n b b O.O.o.=.=.=.o.+.+.+.+.*.l k x @ # 7 +X[.{.4X0X0X|.[.+X6 & o             ",
"      . . O tXuXtX; - ; 2 s s $.X. .t.u.u.7.7.5.2.2.2.w.q.q.t.r.r.r.r.t.y.y.t.2.3.6.n n n k x c 7 V V x.l.l.s.s.E 6 o .             ",
"      . . . tXtXtX= - : s j j ......u.u.r.7.5.5.2.2.2.w.p.p.r.y.y.r.t.t.y.t.r.2.6.3.| n X.z l k : 7 e f.f.x.d.E W $ o .             ",
"      . . . tXtXpX: ; # h j j ......gXt.dX0.0.0.6.3.3.q.q.e.r.t.r.r.r.t.t.t.r.6.5.2.| b b l l x ; 5 7 ( c.j.E W T & o .             ",
"      . X + IXLXLX# # # s s s n n b *.O.+.*.=.&. . . .*.@.@.@.+.@.@.@.@.o.o.@.+.+.+.+.&.&.X.n N # - 9 * & & 5 & $                   ",
"      . . X IXIXIX# : @ h h s n b | +.*.+.*.*.&. ... .*.@.@.*.*.*.*.@.@.+.+.+.+.;.+.+.&.&.| n B , # ; . . . . . O                   ",
"      . . . LXIXIX: : # 2 h s N X.| =.*.@.+.@.*. . .b *.O.@.@.@.+.@.*.*.+.+.+.+.&.&.;.+.&.b n N @ @ # . X X . . .                   ",
"            . . o KXKXPX# @ < < s j  . . .t.t.y.@.*.4.dXi.i.dXdXu.e.e.q.5.0.0.3.8.3.+.o.%.j h 2 # ; + tXtXtX. . .                   ",
"            . . . KXKXPX# # @ h s s $... .t.y.t.*.@.@.dXi.i.i.dXdXw.e.e.5.5.0.8.8.8.%.%.%.2 2 2 # ; ; tXtXtXo . .                   ",
"            . . o KXKXKX: # @ 3 h s $.....gXt.r.#.@.2.dXdXu.dXdXfXw.e.w.5.0.8.8.9.9.] ] ] 3 3 3 : ; O tXtXtXo . .                   ",
"            o o o KXPXIX; # # 3 2 h n b | *.@.#.2.2.=.*.@.@.2.@.O.4.#.@.| b m 3 i Y T ^ ' 0 0 0 - - - KXPXKXo . .                   ",
"            . . . PXIXIX# : # 3 2 2 X.| | +.=.*.6.3.3.*.@.=.@.=.-.*.=.=.b m B i Y U c.k.( y y y w 9 9 KXPXIX. . .                   ",
"            . o . IXIXIX; - ; 4 4 2 n | | =.=.+.-.-.3.*.4.@.*.@.*.*.=.-.B M P Y U R V.l.l.H A A V C e KXKXLX. . .                   ",
"                  . . . u Z Z Z u i 2 s j X...o.-.3.4.fXu.u.u.dXfXb | N i Y I / k.l.|.|.oX|.XXoXL.S.b.V w 9 . . .                   ",
"                  . X . Z S S S S Z i h h $.....3.3.4.dXdXu.dXu.dXb n N F E R d.x.l.XX X.X.X XXXL.L.B.A e 8 . . .                   ",
"                  o o % E K K Q Q L u 3 < B $...8.-.8.fXfXdXgXfXfXm n N F E R x.g.D.XX X X X X XL.K.B.A e 8 o . .                   ",
"                  o o 6 S.V.B.B.B.N.V 0 , 2 h h b z b l b b l k k h h 2 F E R W.'.{.XX X X X X XoXoX5XE.R.G.% . .                   ",
"                  o + 6 B.K.L.L.K.B.A r 0 3 2 h m z z z z z l k x h h 4 F D R '.{.OX X X.X X X XoXoX5X`.'.R.% . X                   ",
"                  o . 6 B.L.L.L.L.B.L A y u 4 3 M N v v v v x c c < 2 4 u U R '.{.OXXXXXXXXX X XoXoX5X`.`.R.% X X                   ",
"                  + . & [.|.|.a.a.s.'.[.+XH D F . . X X X . . . X X . o w C A 6X0X5XK.K.K.4X4X0XK.K.B.4X4X6X$ X .                   ",
"                  . . % +X[.].Q J K +X[.[.Q J D $ o . . . . . . . . . $ y V C ,X3X4XL.L.B.4X7X4XK.L.B.4X4X6X$ . .                   ",
"                  . . o ~.W.~.S D D ~.!.+XH S Z $ . . . . . . . . . . o 0 y C <X6X4XB.L.B.7X6X6XB.B.D.7X6X1XO . .                   ",
"                        7 t 5 * $ & 6 5 5 5 & $                         o & 5 E K s.s.s.s.Q Q Q s.g.h.K Q E O . .                   ",
"                        % * % o $ o o o . o . .                         O $ 6 L Q Q s.s.Q Q K Q s.s.s.Q R E % . .                   ",
"                        o % . O o o . . X . . .                         . o & D L L W E J E L Q Q J L W L D % . o                   ",
"                                                                              o $ $ $ $ % % $ % % $ $ & % %                         ",
"                                                                              . . . . . . . . . . . . o o +                         ",
"                                                                              . . . . . . . . . . . . + o +                         "
};
