/* XPM */
static char *fb0ed16332444ab3944e0a0a56f055432pyi4K5A98w1IDGW[] = {
/* columns rows colors chars-per-pixel */
"90 72 256 2 ",
"   c None",
".  c #010202",
"X  c #0B0201",
"o  c #010904",
"O  c #00030B",
"+  c #000B0C",
"@  c #0D0B07",
"#  c #140100",
"$  c #1B0000",
"%  c #170C03",
"&  c #08130C",
"*  c #171307",
"=  c #000413",
"-  c #010A14",
";  c #00051B",
":  c #000A1C",
">  c #0C0D13",
",  c #02131C",
"<  c #0A1518",
"1  c #151617",
"2  c #170E13",
"3  c #280402",
"4  c #370704",
"5  c #32160F",
"6  c #372613",
"7  c #000624",
"8  c #000B23",
"9  c #000B2B",
"0  c #040A2A",
"q  c #001424",
"w  c #00132C",
"e  c #011A2C",
"r  c #081924",
"t  c #131A26",
"y  c #000C34",
"u  c #001533",
"i  c #001B34",
"p  c #001B3B",
"a  c #02163B",
"s  c #170923",
"d  c #032538",
"f  c #112B31",
"g  c #363639",
"h  c #31302C",
"j  c #1B2409",
"k  c #450603",
"l  c #590702",
"z  c #51160E",
"x  c #670602",
"c  c #740701",
"v  c #651509",
"b  c #72140F",
"n  c #4C2312",
"m  c #463636",
"M  c #4B2D29",
"N  c #733026",
"B  c #334137",
"V  c #76592E",
"C  c #7A5B22",
"Z  c #001C45",
"A  c #001D59",
"S  c #022748",
"D  c #07354B",
"F  c #012C58",
"G  c #053758",
"H  c #163855",
"J  c #163249",
"K  c #2C3649",
"L  c #023A66",
"P  c #013A75",
"I  c #123762",
"U  c #07425B",
"Y  c #16445C",
"T  c #254459",
"R  c #2E424D",
"E  c #054669",
"W  c #174A68",
"Q  c #054978",
"!  c #174C75",
"~  c #095279",
"^  c #13557B",
"/  c #15526F",
"(  c #224967",
")  c #2C5276",
"_  c #6A4F69",
"`  c #616466",
"'  c #453849",
"]  c #880F02",
"[  c #B41F11",
"{  c #922F1A",
"}  c #A82617",
"|  c #B72717",
" . c #B22B16",
".. c #91372F",
"X. c #AF342C",
"o. c #C62C19",
"O. c #C43228",
"+. c #C21F16",
"@. c #855D22",
"#. c #D3443B",
"$. c #AB5153",
"%. c #9B646D",
"&. c #C64C49",
"*. c #AF9C67",
"=. c #AF9F6A",
"-. c #C2A057",
";. c #DFC27E",
":. c #024B84",
">. c #025283",
",. c #00548C",
"<. c #095888",
"1. c #025695",
"2. c #115690",
"3. c #275A88",
"4. c #1A6698",
"5. c #116592",
"6. c #376A89",
"7. c #246697",
"8. c #28769B",
"9. c #367697",
"0. c #2D6991",
"q. c #0765A9",
"w. c #176AA6",
"e. c #1A77A9",
"r. c #0669B6",
"t. c #0A74B8",
"y. c #1977B5",
"u. c #136BB6",
"i. c #2778A8",
"p. c #3579A7",
"a. c #277AB5",
"s. c #2267A3",
"d. c #105DA5",
"f. c #447795",
"g. c #4B728B",
"h. c #437FA4",
"j. c #0476C7",
"k. c #077BD4",
"l. c #1376C9",
"z. c #207EC6",
"x. c #003D80",
"c. c #817F97",
"v. c #1786B9",
"b. c #2882AA",
"n. c #2685B7",
"m. c #3788B7",
"M. c #3A8EB2",
"N. c #35839E",
"B. c #768797",
"V. c #4894BB",
"C. c #508DB2",
"Z. c #7293AE",
"A. c #649EB6",
"S. c #1985C8",
"D. c #188BD6",
"F. c #128CD6",
"G. c #2788C5",
"H. c #368BC2",
"J. c #2895C9",
"K. c #3A95C9",
"L. c #2696D6",
"P. c #3395D4",
"I. c #35A6DA",
"U. c #1994E6",
"Y. c #0F95E5",
"T. c #2996E3",
"R. c #37A6E8",
"E. c #2BA7F7",
"W. c #35ADF7",
"Q. c #2DABEF",
"!. c #4898C7",
"~. c #549CC7",
"^. c #4D9BD2",
"/. c #7199C7",
"(. c #4BA4CA",
"). c #57A5CA",
"_. c #48A8D8",
"`. c #56A8D7",
"'. c #57B5D8",
"]. c #4DB3D5",
"[. c #68A6CA",
"{. c #76A4C8",
"}. c #66AAD4",
"|. c #66B9D7",
" X c #77B6D7",
".X c #78B6CD",
"XX c #48A8E4",
"oX c #54ADE3",
"OX c #4CB3EB",
"+X c #56B4E7",
"@X c #57BCFA",
"#X c #46B9F8",
"$X c #68BAEB",
"%X c #76BBE4",
"&X c #66BCF5",
"*X c #6AB5EE",
"=X c #75CADB",
"-X c #54C4FF",
";X c #5BC3FD",
":X c #58C9FE",
">X c #58CBF8",
",X c #67C6E9",
"<X c #79CBE8",
"1X c #7DD2E7",
"2X c #66C7FB",
"3X c #77CCF8",
"4X c #69D2FA",
"5X c #78D3FA",
"6X c #69D1E8",
"7X c #8699B2",
"8X c #8FA5B5",
"9X c #B3B0B3",
"0X c #828691",
"qX c #CBB892",
"wX c #C9B5AC",
"eX c #F5ABAA",
"rX c #A5CBB6",
"tX c #E5CEA9",
"yX c #8BB0C9",
"uX c #A0B3CD",
"iX c #C2BCC2",
"pX c #8BCDCC",
"aX c #93CDCD",
"sX c #96CEC5",
"dX c #8CD1CC",
"fX c #89D1CB",
"gX c #94D2CA",
"hX c #89CCD7",
"jX c #94CDD3",
"kX c #9ACDD6",
"lX c #8CD3D4",
"zX c #8BD2DB",
"xX c #83D4DB",
"cX c #92D1D3",
"vX c #94D4D8",
"bX c #84CCE6",
"nX c #87D4E7",
"mX c #84D3F3",
"MX c #88CEEE",
"NX c #9CEBEC",
"BX c #9BEDF7",
"VX c #9AF0F5",
"CX c #A3ECEC",
"ZX c #A9E8E8",
"AX c #A4ECF3",
"SX c #B1F1F1",
"DX c #AFC7CF",
"FX c #EADAD4",
"GX c #F4E4D6",
"HX c #C6FBFB",
"JX c #DCFFFF",
"KX c #E7E9E8",
"LX c #E7FAFB",
"PX c #F9FAFB",
"IX c #F3EEEB",
"UX c #E0DFE0",
/* pixels */
"                              X X . . . . . . o . . . . . . X X X X O O                                                                                                             ",
"                              O O O O O O O O O O O + O O O O O . o = O                                                                                                             ",
"                              ; 7 7 7 7 8 8 8 8 : : 8 : : : 8 : - : ; ;                                                                                                             ",
"                        X o = {.[.}.}.}.}.}.}.}.}.[.}.C.C.C.C.C.C.6.g.g.O o .                                                                                                       ",
"                        X O 7 }.+X+X+X+X+X+X+XoXoX`.oX!.!.!.!.!.~.p.9.f.= o O                                                                                                       ",
"                        O 8 y `.oXOXOXOXOXOXOXOXOXOX+XK.K.K.K.K.K.a.i.h.: = +                                                                                                       ",
"                  O + : A.).'.,X;X2X2X4X4X4X5X5X5X3X5X3X3X5X5X3X4X].oX~.f.g.` = + O                                                                                                 ",
"                  - = 8 }.'.].>X+X,X3X5X5X5X5X5X3X3X5X5X3X5X3X3X4X'.`.|.9.6.g.; = -                                                                                                 ",
"                  ; 7 y oXOX_.,X=X|.1X1X<XmX1X1X1X1X1X<X<X1X<X1X<X'.'.`.i.p.9.7 : O                                                                                                 ",
"            . O = 7X{.}.2X2X5XBXBXNXVXBXBXBXBXBXBXBXBXBXBXBXnX1XnX1X1X5X`.`.|.6.g.` + o .                                                                                           ",
"            o o - {.}.$X5X3X5XBXBXNXCXAXNXNXNXNXAXAXNXNXNXAXxXzXzXzXnX1X+XoX`.p.9.g.O O o                                                                                           ",
"            . o : [.`.oX3X3X3XBXAXCXNXCXCXNXNXCXCXCXCXCXCXCXpXlXaXlXhX1X+XOX`.p.9.g.= O O                                                                                           ",
"            . O : bX$X&X5X3XmXbXzXzXhXhXvXcXcXcXZXZXSXSXHXHXZXZXZXcXlXnX'.OXoXi.8.f.; O O                                                                                           ",
"            O = 8  X,X$X3X3X3XmXnXzXzXzXzXlXlXjXZXZXZXSXHXHXZXZXZXaXlXxX+X@X+Xi.8.0.8 = O                                                                                           ",
"            = : u |.,X,X4X5X3XmXnX1XnXnXxXzXzXlXCXZXZXHXHXSXSXZXSXpXlX=X+XOXoXi.i.9.8 : =                                                                                           ",
"      . . + yX=X<X'.'.XXJ.J.K.M.M.M.].'.|.=XxXlXdXdXdXZXZXZXHXHXHXgXdXxX5X4X5X_.`.~.! ( T = . .                                                                                     ",
"      X . O hX6X3X'.+XOXJ.J.P.K.K.J.OXoX'.nXxXfXdXgXfXCXCXZXHXHXHXaXdXxX<X3X5X_.XXXX>.~ W O . X                                                                                     ",
"      . . + =X6X4X+XXXOXI.J.H.K.K.!.+X+X`.<X1XzXdXcXdXCXCXZXHXHXHXaXdXlXbX<X5X_.XXXX,.>.W = O .                                                                                     ",
"      . . o xX6X2Xv.S.v.a.p.9./.A.C.p.i.i.`.`.(.zXlXlXCXNXZXHXHXHXaXjXcXzXnX1X(._._.>.>.! : = O                                                                                     ",
"      + o + =X6X4Xn.v.n.p.0.f.Z.7XZ.g.p.p.oXXX`.nXlXlXCXNXCXHXHXHXcXkXjXjXzX1X(._._.>.~ ! 7 = O                                                                                     ",
"      - + , <X,X,Xb.p.9.6.g.` Z.B.7X) f.p.`.XX`.bXjXjXCXNXCXSXHXSXcXjXaXaXlXnX(._._.>.~ ! 7 O O                                                                                     ",
"@ O = yXpXxX~.).).E W T ; - - LXPXLX7X{./.*X&X+XzXaXcXAXNXNXSXZXSXdXjXaXaXcX1X(._._.>.~ ! 7 O .                                                                                     ",
"X O - hX=X6X!.^.C.( K K O O o PXPXPX7X8X/. X$X'.lXfXlXCXVXVXAXZXZXfXcXjXjXzX1X(._._.>.~ ( ; . X                                                                                     ",
"X o - hX6X6X_.^./.H ' m X . O PXPXPX7X7X{. X|.=XlXfXlXNXNXVXAXAXCXdXcXaXjXzXbX)._._.>.~ W = . X                                                                                     ",
". o + hX6X6X].'.{.9 2 % . X X # $ # PXPXLX.X|.'.zXdXlXAXVXNXlXlXcXlXdXlXcXhXnX8.i.i.>.~ W : O .                                     . . o . . X X . . o . X X . O                   ",
". o - =X6X4XOX`.{.w $ 3 # X # 3 3 3 PXPXLX{.,X=XlXdXjXAXAXCXdXdXgXcXdXcXhXbXMX8.i.i.>.~ W : = O                                     = O O o - O O O o o O O O O O                   ",
". O 8 <X2X:XOX`./.s 4 k $ $ 3 3 4 4 PXPXLX.X).|.lXjXkXZXCXCXgXsXsXsXsXcXzXnXbXi.i.i.1.Q / : = O                                     : 9 8 8 9 9 7 : : : 9 y y 9 :                   ",
". O 7 ~.I.R.R.$XyX_ ....l k k b b z PXPXLX.X|.|.lXaXkXkXvXvXfXsXsXgXgXfXA.).).i.a.a.:.>./ i q , O o O                         O X = C.V.!.$X$X%X%X X.XC.m.G.s.3.) 8 = +             ",
"O = 9 !.L.T.#X*X/._ ..X.x l l x b b PXPXJX.X|.|.lXgXaXjXjXcXfXdXgXgXdXxX).(.^.i.i.a.<.Q W q d , . X o                         + O = !.P.L.:X@X2X&X,X&XG.F.D.u.4.3.9 7 =             ",
"O = w !.I.T.#XoXyX_ ..X.x x x b x v PXLXJX X|.|.xXlXcXcXaXcXlXlXcXpXnXmX).(._.a.i.7.^ ! W q q , . X .                         = ; w M.J.I.-X;X$X$X,X+XJ.D.D.q.4.7.y 9 8             ",
"O O : 9.b.v.I._.[.B.%.%.$.$.$.eXeXwX8XuXyXMXmX<XhXlXaXaXsXsXdXlXnX).~.!.e.e.e.~ ~ ^ i u u yXyX8XPXPXPX. . o             + = : f.m.m.mXxX=XxXzXzXzXnXnX=X1XmX$X&X*X7.3.) ; - O       ",
". O : f.p.b.I.].).C.0X%.%.%.%.eXwXiXyX X%XMXMXMXMXnXcXcXgXgXlXnXnX(.(._.e.e.b.~ ~ E d w u yX8X8XPXIXPXX . .             O = : C.G.J.bXcXvXlXhXvXkXjXlXlXcXzX|.2X&X4.2.3.9 ; O       ",
". o O g.f.p._.].`.C.Z.0X_ ` ` iXiXDXyX%X%XMXmXMXmXbXnXhXaXvXbXmXmX).`.^.y.e.i.E W ( p w i 8X8X8XIXIXPX# X .             O = - C.n.J.nXpXzXnX5X5XnXkXkXkXpXnX,X@X&Xq.q.d.a 9 =       ",
"      = 7 y m.b.b.~.A./.7X7XZ.Z.Z.A.).`.`.).).(.b.N.N.=XpX.XV.V.V.7.a.i.,.,.E p i u 7X8XyXJ g m N ..N $ X o             O O q bX4X4XnXvXbXM.I.H.p e e D U U K.OXXX2X-X@Xw.0.) O . . ",
"      - ; 7 9.b.n.`.`.~./.[.A.}.[.).`.oXoX(.(.(.b.b.9..X.X XV.V.V.8.w.i.Q Q ^ i i : yXyX8XR g M { } ..3 # X             o o : MX5X5XxXzXnXM.P.K.i e q D U G +XXXXX;X;X2Xq.2.6.; O . ",
"      O O = f.N.8.).~.).`.`.).).).).`._.`.(.(.(.b.b.N.=X=X XV.~.V.b.8.8.~ ~ / i w i 7X8X8Xg M M } } { 4 3 $             . + : MX5X6XnXhXnXM.H.!.Z p d G G Q XXXXR.4X2X@Xr.u.3.: O . ",
"            o + , D S G G G E E E E ~ ~ <.4.4.4.(.(.(.i.8.i.5.<.5.F L L Z u i Z.B.Z.K K g 6 z z v x c X.X.$.$ . .       @ o 8  X,X,XhXjXlXd i Z 4.1.w.a.a.y.R.R.R.@X;X;Xj.q.7.9 O X ",
"            X . o f f D G E L E E ~ ~ ~ ^ 7.4.4.(.!.(.e.b.i.5.5.4.G G G w i q B.B.B.g g m z z l v x c X.O.X.$ o o       . O 8 <X,X,XhXkXvX, e p w.r.r.u.a.y.R.R.R.-X;X-Xr.r.4.9 = . ",
"            X o o f f f U U L Q Q Q ~ ~ <.4.4.4.^.(.`.e.i.i.5.<.^ G D H q , , B.B.B.g m n z v x c c c X.X...# O O       X O 8  X2X2XmXbXhXi e p d.u.q.n.y.y.R.T.T.:X#X-Xr.r.s.9 = . ",
"                  + O = 6.0.8.!.!.!.!.V.V.m.m.m.w.w.4.>.>.Q L E G d e , , < < LXLXIX2 4 4 v b ] X.X.X.c c v # O O       X O 8 %X2X@X,X%X Xi i p w.q.q.2X2X;X:X-X-XQ.Q.W.r.q.7.9 = O ",
"                  + O : 6.7.4.^.K.H.K.K.K.m.H.H.w.e.w.>.:.:.L G G q e , > > > KXKXIX5 4 k v b ] | | X.x x z # X .       X O : %X@X2X;X$X%Xp q i w.r.q.;X@X;X@X;X-XQ.E.W.q.4.3.7 = O ",
"                  O = = 6.6.0.V.V.~.V.V.V.M.m.m.7.7.7.<.! ! G G H e q , > 1 @ IXIXIX4 4 k b b ] o.o.X.] c l 3 $ #       X O ; yX%X2X@X4X$XZ p a 4.q.w.2X;X@X;X2X-XT.W.R.4.0.) = O O ",
"                        + = = : : : e e , e e e i u i u i i w i w S d f t > 1 UXKXFX4 k k v b ] | +.[ | | | #.$.$.$ X .       = = 8 !.J.I.2X@X&Xp p Z 4.q.r.j.r.r.r.q.w.9 : =       ",
"                        O O O O O O , , < + & & < , , , , , q w p S D d w t > KXUXGX4 k k v b ] | [ [ O.o.o.#.#.$.3 X .       O . , M.L.T.-X#X2XS w a 7.q.q.r.r.u.w.w.4.8 + o       ",
"                        O o O O O O r < > * * % @ @ 1 > 1 , e e Z F F F p w r UXUXUX5 3 3 n b b } [ [ O.| O.#.&.$.3 X .       o o - M.I.L.-X-X@XZ Z F 3.4.7.7.7.5.3.0.) = O O       ",
"                                    O O . V V V 6 6 6 . . o J U Q i.b.m.F H J < < o KXIXFX5 k l ] ] ]  .[ [ ] x z $ # .       o o - ~ ,.1.D.U.T.u.s.7.S Z Z Z a S 7 7 7             ",
"                                    o . X V V V 5 6 6 X . O H E Q n.S.y.P I a r < 1 UXFXGX3 k l b ] ] } |  .c l z $ X @       O O = ! >.,.L.L.D.j.u.s.S p w u u u ; = O             ",
"                                    . o X V @.C 6 6 6 . O = E E Q G.S.z.P F J r < > KXKXUX5 3 k v b b } } } c v z $ X X       O O O T ! >.G.T.U.k.j.e.Z Z Z u i w = O X             ",
"                              O . X . X X *.-.-.X o o f H E *X&X&Xr.j.u.Q L H w < > PXLXPXg m M 4 4 k v x c } } { 3 X O             + : u J.U.U.W.W.Q.t.u.y.Q ~ W ; O .             ",
"                              = O O O . % *.-.*.o - : G G E $X&X@Xu.l.r.Q U H e < > PXPXIXg h m 5 4 4 z z c } } { 3 X O             . + y P.U.U.W.W.W.j.k.j.,.~ / : = O             ",
"                              8 q : = o X =.=.=.+ 8 9 E E E 2X+X2Xq.u.w.E U H q < 1 PXIXIXh M M 4 5 4 z z x | | { 3 X O             X O 9 H.U.U.R.R.W.j.j.j.,.~ W : = O             ",
"                        O + ; C.M.C.: O X % % o f.m.b.3X4X4Xv.S.y.P :.P p e e e r > 1 * * GXFXGXM M M 4 4 l X.O.X.4 # >             X O 9 H.T.U.:X;X-Xj.j.j.,.Q W : = O             ",
"                        O = w C.P.H.: . X X o , a.S.S.:X4X:XF.F.S.Q P L i q 8 r t t < 2 % tXGXtXM m h 5 4 k O.O.X.4 # .             X o 9 H.T.U.-X-X-Xj.j.j.,.~ W = O O             ",
"                        - : 8 C.P.P.9 = O > - 9 n.D.G.;X:X4XF.D.n.L G D q r w p p p e , 1 FXGXGXh m m * 5 k X.X...3 $ .             . O u H.D.U.-X-X-Xj.k.j.,.Q W = O O             ",
"                        O = 8 W :.x.P ( I 9 : w L L G E P L Q L G e q , > 8 w 3.s.2.<.! T r @ @ IXKXKXg h M k k k # X o       o O O t r S H.U.Y.Q.W.W.j.j.j.,.~ W = O .             ",
"                        O = 8 H P :.P P I u 8 8 D U D G F L G D J , & * X q p 3.d.u.,.:.! i q < KXIXKXB B h 3 4 3 X o .       . O - , d F G.U.Y.E.W.W.j.j.j.>./ T = O .             ",
"                        O O ; H I I I Y Y q 8 w D D D D G D D f f & * % * < 8 7.q.r.1.,.<.Z i q LXKXIXg h g 3 5 * X X .       O O = d S F P.L.Y.E.W.E.j.t.y.! ( T - O .             ",
"                              = : ; : q : D H H i w e e w e q , + wXqXqX% > e 7.q.r.D.G.H.Q / ( , 1 2 9X9X9XwXwXwX* 2 2 O O O t t e 6.7.w.2X@X:Xj.j.j.q.1.>.9 ; =                   ",
"                              O O - O = : D W G u w w w q , q , j qXqXqX% & e <.r.r.F.D.G.1.>.W , 2 2 9X9X9X9XwX9X> 1 1 O + O < r d 0.i.w.@X2X;Xt.j.j.1.>.~ 7 = +                   ",
"                              . o . . O = J H H w 0 0 0 < < , & @ qX;.qX3 * , 3.5.q.P.G.n.,.>.E q r < 9X9X9X9XiXiX< 1 - = = - d d S 4.w.e.2X@X@Xt.u.y.>.~ Y = O O                   ",
"                                          O = : ; ; = O . . . X X V C C n 5 h r i S a S Z Q Q ^ ^ G ( p q < 1 1 & t < r Y G E 8.b.y.1.1.,.,.1.1.,.>.Q 9 = o                         ",
"                                          . + O = = O O . . X X X V C @.z n 6 1 , d i p S Q :.:.>.>.! p e r & > & < f e G E :.e.t.t.1.2.2.<.>.<.~ ! ( = O .                         ",
"                                          . . O O O . . . . O O X V V V n 6 6 1 t e p Z A 1.1.1.,.,.:.S 8 q t 1 1 < r d G Q P a.a.b.! W / / ^ ! W ( T = + O                         ",
"                                                                  X # X # X X O O 8 0.a.a.l.k.k.R.R._.Q ) T = O O t r e F F L L L S 7 : : : 7 7 7 ; =                               ",
"                                                                  X X . . . X . O 8 y.k.l.k.k.k.E.E.R.,.! W 8 = O < t e D G F F S f = O + + O + O O O                               ",
"                                                                  . O O O O . o . : z.k.k.l.k.k.E.E.R.1.<.W : = O < < r f J S J f t - O O O . . . X .                               ",
"                                                                              . . 8 !.T.P.:.1.1.k.F.l.x.L G ; = O o o . o + = = O +                                                 ",
"                                                                              X X = V.K.!.Q Q :.l.S.y.P F H = O . . . . . . O O O O                                                 ",
"                                                                              X X O A.C.C.W G Q p.i.p.F H J = O . . . . . . O O O O                                                 ",
"                                                                                    : 8 : = ; 7 9 9 7 8 ; =                                                                         ",
"                                                                                    : - O . > O = : O O > O                                                                         ",
"                                                                                    + O . X . O O O . . X X                                                                         "
};
