/* XPM */
static char *cdc23f3709174bf9ab5c52e3a0420c27OhYBmev7LgWMIub5[] = {
/* columns rows colors chars-per-pixel */
"93 72 256 2 ",
"   c None",
".  c #010102",
"X  c #0B0101",
"o  c #01030B",
"O  c #010A0C",
"+  c #060807",
"@  c #1A0000",
"#  c #150402",
"$  c #14130B",
"%  c #000413",
"&  c #010A14",
"*  c #00061B",
"=  c #000A1C",
"-  c #0C0D19",
";  c #01131C",
":  c #0C141B",
">  c #091416",
",  c #131415",
"<  c #12110E",
"1  c #280504",
"2  c #360503",
"3  c #2E130F",
"4  c #312416",
"5  c #000622",
"6  c #000B23",
"7  c #000C2B",
"8  c #011423",
"9  c #011A23",
"0  c #00142B",
"q  c #001A2C",
"w  c #0B1725",
"e  c #151A23",
"r  c #000C34",
"t  c #001C33",
"y  c #001B3C",
"u  c #001438",
"i  c #170923",
"p  c #052438",
"a  c #122C38",
"s  c #38353A",
"d  c #322E2D",
"f  c #460602",
"g  c #570200",
"h  c #58160B",
"j  c #690601",
"k  c #770702",
"l  c #691409",
"z  c #781509",
"x  c #751913",
"c  c #6A1414",
"v  c #4B250F",
"b  c #66241A",
"n  c #482B2B",
"m  c #443537",
"M  c #4F2E2B",
"N  c #691F20",
"B  c #78591C",
"V  c #6E5A33",
"C  c #716132",
"Z  c #001B46",
"A  c #022848",
"S  c #073448",
"D  c #032B5A",
"F  c #03375A",
"G  c #153855",
"H  c #163048",
"J  c #303946",
"K  c #023B65",
"L  c #0D3C69",
"P  c #07425B",
"I  c #264558",
"U  c #074669",
"Y  c #194A69",
"T  c #034C7B",
"R  c #074A77",
"E  c #154B72",
"W  c #08517A",
"Q  c #175579",
"!  c #15516A",
"~  c #224A67",
"^  c #315977",
"/  c #30637A",
"(  c #6A4F69",
")  c #736F79",
"_  c #576562",
"`  c #453849",
"'  c #880C05",
"]  c #871506",
"[  c #8B140F",
"{  c #B61C09",
"}  c #B71C15",
"|  c #AD1D0A",
" . c #952517",
".. c #B7230A",
"X. c #A92717",
"o. c #B62515",
"O. c #AE260F",
"+. c #96352D",
"@. c #BA2B25",
"#. c #B53428",
"$. c #A8352B",
"%. c #B41E20",
"&. c #C21C16",
"*. c #C52E19",
"=. c #C63228",
"-. c #E23F36",
";. c #AE4A3A",
":. c #845121",
">. c #D24734",
",. c #A2595F",
"<. c #CC4644",
"1. c #E24340",
"2. c #D8BC77",
"3. c #E1BB72",
"4. c #E1C26F",
"5. c #034C84",
"6. c #015384",
"7. c #04558A",
"8. c #025898",
"9. c #165A8B",
"0. c #265B8A",
"q. c #056698",
"w. c #196998",
"e. c #176A95",
"r. c #26688B",
"t. c #366B8A",
"y. c #246A98",
"u. c #27759A",
"i. c #367898",
"p. c #327295",
"a. c #0765AA",
"s. c #166AA7",
"d. c #1B75A7",
"f. c #056AB6",
"g. c #0974B9",
"h. c #1879B8",
"j. c #0C72AC",
"k. c #277AA8",
"l. c #3579A7",
"z. c #267AB4",
"x. c #266DA8",
"c. c #095DA5",
"v. c #49738E",
"b. c #6E7A85",
"n. c #437FA4",
"m. c #0376C7",
"M. c #0675CA",
"N. c #257BC2",
"B. c #817F97",
"V. c #1886B8",
"C. c #2784AC",
"Z. c #2888B7",
"A. c #3688B7",
"S. c #358FB6",
"D. c #3F889D",
"F. c #4995BC",
"G. c #5696B9",
"H. c #4D8AB1",
"J. c #7394AF",
"K. c #6BA3BB",
"L. c #6797AD",
"P. c #1785C7",
"I. c #1390CE",
"U. c #2896CB",
"Y. c #3996C7",
"T. c #2896D7",
"R. c #3091CE",
"E. c #34A5D7",
"W. c #1795E7",
"Q. c #1393EE",
"!. c #37A9EA",
"~. c #2CADF7",
"^. c #36B5F6",
"/. c #2DACF1",
"(. c #299AE4",
"). c #4799C7",
"_. c #559BC8",
"`. c #519BD3",
"'. c #7199C7",
"]. c #4CA3CA",
"[. c #58A6CB",
"{. c #49A7D6",
"}. c #57A9D7",
"|. c #57B5D8",
" X c #4DB3D5",
".X c #66AAD4",
"XX c #66B9D7",
"oX c #78B6D9",
"OX c #71A9CA",
"+X c #48A9E4",
"@X c #55ACE3",
"#X c #4BB3EB",
"$X c #56B3E6",
"%X c #58BBF9",
"&X c #43B4F5",
"*X c #67BAEA",
"=X c #66BAF8",
"-X c #72BAEA",
";X c #76C8D9",
":X c #4DC5FF",
">X c #5CC3FE",
",X c #56C6FE",
"<X c #59D4FF",
"1X c #56CAF4",
"2X c #67C7EA",
"3X c #79C9E7",
"4X c #7BD3E9",
"5X c #63C3FE",
"6X c #68C9FA",
"7X c #77CCF7",
"8X c #69D6FA",
"9X c #78D3FA",
"0X c #67D1E6",
"qX c #AE9894",
"wX c #8699B2",
"eX c #949CA3",
"rX c #E2AA9E",
"tX c #D4C5A5",
"yX c #89B5CE",
"uX c #95B4D6",
"iX c #8CCDCB",
"pX c #93CDCD",
"aX c #99CBCB",
"sX c #8CD1CC",
"dX c #8CD1C7",
"fX c #93D2CB",
"gX c #89CCD8",
"hX c #95CDD5",
"jX c #8DD3D3",
"kX c #8BD3DB",
"lX c #84D4DB",
"zX c #93D2D4",
"xX c #B7C4CB",
"cX c #AECBD8",
"vX c #88CCE7",
"bX c #87D3E7",
"nX c #85D4F3",
"mX c #82CBF4",
"MX c #9CEBEC",
"NX c #9BEDF7",
"BX c #9AF0F5",
"VX c #A3ECEC",
"CX c #A8E8E8",
"ZX c #A4ECF3",
"AX c #B0F0F0",
"SX c #C4C9D4",
"DX c #C7FAFB",
"FX c #D2FEF9",
"GX c #F7EEF8",
"HX c #EAF6FA",
"JX c #F4F3FC",
"KX c #F5FDFF",
"LX c #FAF5F7",
"PX c #F1EDEE",
"IX c #FFE4DF",
"UX c #C0BFC5",
/* pixels */
"                              X X . . . . . . . . . . . . . X X X X o o                                                                                                                   ",
"                              o o o o o o o O O O O O o o o o o . o % o                                                                                                                   ",
"                              * 5 6 6 6 6 6 6 6 * * 6 * * = 6 * & = * %                                                                                                                   ",
"                        X + % OXOX.X.X.X.X.X.X.X.X.XOXG.G.H.G.H.H.t.v.v.O . .                                                                                                             ",
"                        X o 5 .X$X$X$X$X$X$X$X@X@X}.@X).).).).)._.l.p.v.% o o                                                                                                             ",
"                        o 6 r }.+X#X#X#X#X#X#X#X#X#X$XY.Y.Y.Y.Y.Y.z.k.n.* % O                                                                                                             ",
"                  o O = K.[.|.2X%X5X6X8X8X8X9X9X9X7X9X7X7X9X9X7X8X X$X_.v.v._ % O o                                                                                                       ",
"                  & % 6 .X|. X1X$X2X7X9X9X9X9X9X7X7X9X7X7X7X7X7X9X|.}.XXp.t.v.* % &                                                                                                       ",
"                  * 5 r @X#X X2X;XXX4X4X3XnX4X4X4X4X4X4X3X4X3X4X3X|.|.}.k.l.i.6 = o                                                                                                       ",
"            . o % wXOX.X6X6X9XNXNXMXBXNXNXNXNXNXNXNXNXNXNXNXbX4XbX4X4X9X{.}.XXt.v._ O . .                                                                                                 ",
"            + . & K..X*X9X7X7XNXNXMXZXZXMXMXMXMXZXZXMXMXMXZXlXkXkXkXbX4X$X@X}.l.v.v.o o .                                                                                                 ",
"            . . = '.}.@X7X7X7XNXZXVXMXVXVXMXMXVXCXCXVXVXVXVXiXjXpXhXgX4X$X#X}.l.p.v.% o .                                                                                                 ",
"            . o = vX*X*X7X7XmXvXkXkXgXgXzXzXzXzXCXCXAXAXDXDXCXCXCXzXjXbX|.#X@Xk.p.v.* o o                                                                                                 ",
"            o % 6 oX2X*X7X7X7XnXbXkXkXkXgXjXjXhXCXCXCXAXDXDXCXCXCXpXjXlX$X%X$Xk.u.t.6 % o                                                                                                 ",
"            % 6 q XX2X2X8X9X7XnXbX4XbXbXlXkXkXjXVXVXCXDXDXAXAXCXAXiXsX;X$X#X@Xk.k.i.6 * %                                                                                                 ",
"      . . O yX;X3X|.|.+XU.U.Y.S.S.S. X|.XX;XlXjXsXsXsXVXCXCXDXDXDXzXjXlX9X8X9X{.{.[.E ~ I % o .                                                                                           ",
"      X . O gX0X7X|.$X#XU.U.E.Y.Y.U.#X@X|.bXlXsXdXfXsXVXVXCXDXDXDXhXjXkX4X7X9X{.{.{.5.E ~ % o .                                                                                           ",
"      . . O ;X0X6X$X+X#XE.R.Y.Y.Y.).$X$X}.4X4XbXiXfXsXVXVXCXDXDXDXpXhXzXvX4X9X{.+X+X7.5.Y % o .                                                                                           ",
"      . . O lX0X6XV.P.V.z.l.p.'.'.H.l.x.k.}.}.].kXjXjXVXMXCXDXFXDXaXaXhXkXbX9X{.+X+X7.5.Y * o .                                                                                           ",
"      O . O ;X0X8XZ.V.Z.l.t.v.J.wXJ.v.i.l.@X+X{.bXjXjXVXMXVXDXFXFXaXaXaXhXkXnX{.+X+X7.5.E 5 o .                                                                                           ",
"      & O = 3X2X2XC.l.i.t.v./ J.J.wXv.v.l.}.+X}.vXhXhXVXMXVXAXDXDXaXpXpXzXkX4X{.{.+X6.T E 5 o .                                                                                           ",
"+ o % yXiXlX_.[.[.U Y I % & & HXKXKXwX'.'.-X*X*XkXpXzXZXMXMXAXAXAXpXpXpXzXkX4X].{.+X6.T E = o .                                                                                           ",
"X o & hX;X0X).`.G.~ J J o o o KXKXKXwXwX'.oX*X|.jXsXjXVXBXBXZXCXVXsXjXsXjXlX4X].{.{.6.T Y * . .                                                                                           ",
"X . & gX0X0X{.`.'.G ` m X . o KXKXKXeXwX'.oXXX;XjXdXjXMXBXBXZXZXVXsXjXsXjXkX4X].{.{.6.T Y % . .                                                                                           ",
". . O gX0X0X X}.OX6 , # X X X # # # KXKXHXoXXX|.kXsXjXZXBXMXjXsXsXsXpXfXhXkXbXu.C.d.6.W Y % o .                                           X X X . o . . X . o o X X . .                   ",
". . & ;X8X8X#X}.OX0 @ 1 # X # 1 1 1 LXKXHXOX3X;XjXsXhXZXZXVXjXdXfXfXpXzXhXvXbXu.d.k.5.9.Y 8 o o                                           . O o o o O o o O % % % & O o                   ",
". O 6 3X6X<X#X}.'.i 2 f 1 @ 1 1 2 2 LXKXHXoX[.XXjXpXhXCXCXCXfXdXfXfXdXzXhXvXvXu.C.k.6.R Y * % o                                           % 6 7 7 6 * = 6 q 7 u r r 6 %                   ",
". O 6 _.E.!.!.*XyX( +.+.f f f c c h LXKXHXOXXXXXjXpXaXhXhXzXdXdXdXzXfXjXK.G.[.k.d.z.6.W ! t q 8 o . .                               X . & H.).Y.-XoXoXoX-X-XA.A.R.w.r./ % o X             ",
"o % 7 ).T.(.&X*XwX( +.$.j g g j x c GXKXFXOXXXXXjXfXpXhXhXzXsXdXjXjXgXlX[.].].d.k.k.T W ! q 8 9 o . +                               . O 6 F.T.(.5X5X*X=X>X>XT.I.T.f.s.r.6 o .             ",
"o % 0 ).E.(.&X@XyX( +.$.j j j c j c LXHXFXoXXXXXlXsXzXzXpXzXjXjXkXgXbXnX[.].{.C.z.u.W ! Y p 9 ; o . .                               % * u Y.U.U.%X2X2X2X1X%XU.U.T.a.s.y.r 5 *             ",
"o o * i.C.V.!.{..XJ.,.,.,.,.,.rXrXrXeXuXyXmXnXmXgXjXpXpXfXdXiXjXkX[._.).d.d.z.5.T 9.p q q b.b.b.eXeXeX. . .                   . . O H.A.Z.9XbXlXkXkXbXkXbXbXlXbX7X*X2X*Xw.0.0.7 % o       ",
". o = v.l.C.E. X[.L.eX,.,.,.,.rXrXUXyXyXoXmXmXmXvXkXzXfXfXdXjXbXbXG.[.].k.z.z.6.T E q q q b.b.) qXqXqXX # X                   . . = A.Z.S.4XsXfXfXgXgXhXpXpXpXhXvX-X*X6X8.8.0.r 5 =       ",
". . O v.n.l.{. X}.G.J.B.( ) ) SXxXxXyX-X-X7X9X7XbXgXkXjXdXjXlXbXvX[._.].z.d.k.W E Y 9 8 w b.) ) qXqXqX1 1 1                   . + * S.Z.C.4XsXjXbXnXvXvXhXhXhXhXbX*X>X,Xa.a.9.u r 5       ",
"      % 5 r S.C.C._.G.J.wXwXJ.J.J.K._.}.}.[.].].i.i.D.;XiX;XF.F.F.u.k.d.T 6.T Z y 0 cXxXxXJ J s v c l ;.$.+.@ . o             . o = 4X8X4XnXjXkXY.Y.F.A t q S S F ].#X&X%X%X=Xw.w.r.% . . ",
"      & * 6 i.C.Z.}.}._._.OXG.OXK.[.}.}.}.].{.].k.D.u.oXoXoXG.F.).d.e.k.7.W E y r 0 cXSXxXs s d b x [ @.=.;.@ + .             + X O 4X8X4X4XgXnXE.T.).Z 0 t S P F }.!.!.6X=X6Xa.a.9.% . . ",
"      o o % v.D.u.[._.[.[.[.[.[.[.[.}.}.[.].{.{.C.l.A.-X3XoXF.`.Y.k.k.u.U U Y y y 0 xXSXSXd m M l ' ' =.*.#.2 # X             . X O 3X8X9XnXvXvXY.Y.).Z y 0 U F K {.#X!.5X=X%Xg.g.w.* X . ",
"            o O ; S A F F F R U U R W 9.9.e.w.w.`.].].k.u.k.9.9.e.K F F p p 8 cXcXSXJ m M M b z @.} } { ..| #.$.+.@ X .       . . * *X>X2X4XgXzXt Z Z w.d.w.x.k.h.!.!.(.%X6X%Xf.f.s.% X . ",
"            X . o a a S F U K R R W W Q Q y.e.e.].).{.d.C.k.e.9.9.K F S 9 ; 9 xXxXSXs n M b x k } &.o...| ..*.@.$.2 X +       . o = =X>X6X4XlXpX8 q Z w.a.f.N.z.N.T.!.!.>X%X5Xf.m.8.* X o ",
"            X . O a a a P P K T T T W W 9.e.e.w.).{.{.d.k.k.9.9.0.D G H ; ; : xXxXSXs n M h x ] o.{ ........*.@.$.2 # o       . + % =X,X5X9X4XgX9 0 y s.a.f.N.s.h.!.!.T.,X,X,Xf.m.h.* X o ",
"                  O o % t.r.u.F.).S.).F.F.S.A.A.w.u.e.6.6.T K K F y 0 8 HXHXPXs s s , 3 2 h h j | { ..| ..{ >.>.;.2 X .       . . % *X>X>X6X2X;X8 0 y w.g.f.5X=X5X>X>X:X/././.f.m.s.5 . . ",
"                  O o = t.y.w.).).Y.Y.Y.Y.A.A.A.w.w.u.T T 5.K K G 0 9 ; HXPXPXm m n 1 2 2 h h j | ..} } &.} -.>.;.1 X .       o . O 3X1X5X%X*XvX9 8 y w.f.f.>X5X%X5X,X:X~.~.!.f.a.x.5 o X ",
"                  o % % t.p.y.H.H._.F.F.).A.H.H.y.r.r.E E E F F S 9 9 ; HXPXPXd n M 2 f f l k k X.X.} %.} @.>.>.;.2 1 #       o + O yX3X$X5X=X*Xt t y w.x.c.5X>X5X%X5X,XW.^.+Xs.x.0.* o X ",
"                        O % % * * = t 7 u y 6 q t t q q q q 0 q 9 > > > HXPXPX3 2 f h x ] #.@.#.j j j k k j l j j $.$.+.@ . .       % 6 u Y.T.T.>X*X3XA u Z s.a.g.f.a.f.g.a.y.7 5 %       ",
"                        O o o o o o - 8 w 8 w 8 0 0 9 9 8 8 8 8 & > : > HXGXLX1 2 f x ] ' @.=.@.j j j j j j h h k #.-.$.@ . .       o & 7 S.T.(.:X:X6XZ u Z w.s.a.a.s.s.a.s.^ * O o       ",
"                        . o o + o o e w w & - 6 t y t q 0 0 q 0 w : : : JXGXGX3 2 f x z ' @.=.=.k k k ' k k g j k #.@.$.@ + +       . o 6 F.{.T.:X,X%XD D Z r.y.x.w.x.y.0.0.^ % + .       ",
"                                          o + % t.r.r.Y G G G H a : : : JXGXGX3 2 f x ] ' o.} | #.#.#.<.>.>. .x [ ' ' z @ X .       X O * ! T 8.I.W.T.j.s.x.Z u y Z Z y 5 5 *             ",
"                                          . . & r.w.w.K L L L G G ; ; : HXJXGX3 2 f c z ' O.....*.o.=.>.>.>. .[ [ [ ' x @ . o       o % % ~ Q 7.T.W.W.m.M.h.y 9 q q t q O o %             ",
"                                          o O 6 y.s.d.U T R K G G ; > : JXJXPX3 2 f l z ] | { { *.*.*.>.>.>.] [ [ [ ' l 1 . .       o o o I ~ T T.W.W.m.M.g.Z t q q 0 8 o X o             ",
"                                    O O & v.i.l.=X=X%XP.P.P.K A a ; > < JXJXGX3 2 f c z ' o.} &.&.{ o.| O.X.j j k <.<.<.1 X .             o & 6 T.Q.Q.~./.!.g.j.d.T W Y o X X             ",
"                                    o = ; i.Z.Z.=X=X%XP.I.V.K S H > < , JXJXGX3 3 2 b x z X.} &.&.{ X. . . .j j k <.1.<.1 X .             . . * T.Q.Q.^./.^.m.m.g.8.6.! o X X             ",
"                                    % 5 ; i.C.h.%X%X>XP.P.Z.A a a & 4 X JXJXJX, 3 1 v h l  .X.} } o.X.X. . .z j k =.>.<.@ o o             . . * T.Q.Q.~./.^.M.M.m.8.7.E o X X             ",
"                              . X . H Y ! 4X8X8XP.P.N.5.K K p 0 : d 4 4 < : : JXLXLXM b b l z ' o.} @.j g g $.#.#.=.*.#.# o o             . . * U.Q.Q.,X,X,XM.M.m.8.7.E % X o             ",
"                              . . o Y U U 9X8X8XI.P.P.K K L 7 8 > 4 v v $ , - JXPXLXn n v b z ] ....X.j g g #.@.@.o.*.#.# . o             . . = R.Q.W.%X%X>XM.M.m.8.7.E % o o             ",
"                              . . O Y R U 9X9X8XV.V.k.K G a > $ # v v 3 , 8 = HXKXHXm n n v b x X.X. .j g j @.=.*.*.*.$.@ . .             . . * R.W.W.,X>X,XM.m.m.8.7.E % o o             ",
"                              . . & F F U K K F t p 9 d 4 4 tX2.2.B :.V I E ~ q & e PXLXLXm n M f g j  . .O.} { o.' ' l @ + o       o % o w w A T.Q.W.^.^.^.m.m.g.8.6.E % o o             ",
"                              . . O G F F K F S 9 ; + 4 v v 2.4.3.:.B V ! T E t q ; JXJXHXs s m 3 2 g  .X.o.| o.X.' z N @ . .       o o % w p A T.Q.W.~.~./.m.m.h.7.W Y % o o             ",
"                              . . o a S S S H H ; > < 4 4 4 2.4.2.B B V ! T W y t 9 HXKXHXs s s , 3 f +.+. . .+.+.x c h @ X .       o o & p p A R.W.W.~.~.^.g.j.d.W E I o . .             ",
"                                    O & & % % % o . + . X # B B C $ # $ p.d.w.W E ~ ; & : HXHXHXs n v f g g g f f IXIXGXX o + . + . e e 9 / t.y.>X:X:Xm.I.m.7.7.R r 5 =                   ",
"                                    o o o o o o o + o . X X C V V $ < 8 y.s.s.7.R Y q : - HXHXJXm m M 2 2 f f 2 3 LXIXLXo o . . . O e w p / y.s.%X,X:Xm.m.m.8.5.Q 5 % &                   ",
"                                    o + . . X X + o o O . X V V _ : 6 A w.j.j.7.6.R q 9 6 KXPXHXd d m 3 3 3 1 1 $ PXPXHX% * O & ; = p p A r.w.s.>X>X>Xg.P.g.5.E Y * & o                   ",
"                                                            $ O 9 / u.s.R.E.E.s.s.e.R ! ~ 8 , $ HXHXHXHXGXGXLXLXLX, , & G U U r.e.d.z.z.d.q.8.8.8.8.7.7.7.T r 5 %                         ",
"                                                            9 t t u.d.j.E.U.Y.j.j.h.6.W Y t > $ HXHXHXHXHXJXJXHXPX> < w L K R k.h.h.h.h.h.6.7.7.7.6.9.9.R Y = % o                         ",
"                                                            y u A e.j.g.U.U.E.j.g.j.6.9.~ 6 w : GXJXHXHXJXJXJXHXKX> w 8 L R K x.w.k.x.z.k.W E Q Y ! Y Y Y I o o o                         ",
"                                                      X o * H.Y.Z.6X6X<X<X<X<X^.^.^.5.R L = % o , , > > , , , , : e w p D D K D F F K F F 8 * * = = & % = %                               ",
"                                                      X X = Z.I.I.<X,X<X<X<X<X^.~.&X5.R Y = % O < < < < < < < < : w w p A D D D A A G A H % % % o o O o o O                               ",
"                                                      . . 6 Z.I.I.,X8X<X:X<X<X^.^.!.5.E G * O . , < < < < < < , : e w p a H H H G p p H a & o o o . . . . .                               ",
"                                                      . . * 9X,X<Xq.q.q.T.E.E.j.j.q.Z u w o + . . o . . . . . . . o o o % % % * % % % % o                                                 ",
"                                                      . . % -X8X6Xq.7.q.Y.Y.S.e.e.u.y 6 - X X X . o o o . . . . . . . o o o O o o O o o O                                                 ",
"                                                      . + & yX3X3XQ Q Q G.H.G.r.r./ 0 w , X # X . o o o o . . . . . . . . . . o + o o . .                                                 ",
"                                                            6 6 = 8 * = = 9 = = = 8 % o o                                                                                                 ",
"                                                            O % O O o O o o O O & & o o -                                                                                                 ",
"                                                            O o . . X X X . O O O o % o o                                                                                                 "
};
