/* XPM */
static char *_ef309b0fd6c4882f9ba1edd7f1550feZcB8JZWor0zLdGSw[] = {
/* columns rows colors chars-per-pixel */
"96 79 256 2 ",
"   c None",
".  c #020202",
"X  c #0B0101",
"o  c #020A03",
"O  c #00040B",
"+  c #010A0C",
"@  c #0B0809",
"#  c #140000",
"$  c #1C0100",
"%  c #180B08",
"&  c #181309",
"*  c #000413",
"=  c #000A14",
"-  c #00051B",
";  c #000A1B",
":  c #0C0C13",
">  c #02131D",
",  c #0A1419",
"<  c #141416",
"1  c #081108",
"2  c #270602",
"3  c #380603",
"4  c #261307",
"5  c #36150E",
"6  c #37240E",
"7  c #000B23",
"8  c #000C2C",
"9  c #000523",
"0  c #011424",
"q  c #00152B",
"w  c #011A2D",
"e  c #071A25",
"r  c #000C33",
"t  c #001432",
"y  c #001B33",
"u  c #00153B",
"i  c #001C3C",
"p  c #111520",
"a  c #002138",
"s  c #192F3D",
"d  c #363639",
"f  c #323234",
"g  c #470502",
"h  c #590703",
"j  c #54150F",
"k  c #680802",
"l  c #780704",
"z  c #791607",
"x  c #671C15",
"c  c #761A15",
"v  c #6F160D",
"b  c #492500",
"n  c #56201E",
"m  c #4A2F2F",
"M  c #6E2B26",
"N  c #755A2B",
"B  c #7C5A14",
"V  c #001C42",
"C  c #001945",
"Z  c #001F52",
"A  c #022546",
"S  c #08334A",
"D  c #17374A",
"F  c #043858",
"G  c #143955",
"H  c #0A294E",
"J  c #353945",
"K  c #253749",
"L  c #033A66",
"P  c #003C73",
"I  c #243C60",
"U  c #12455C",
"Y  c #24455B",
"T  c #064469",
"R  c #174969",
"E  c #074A77",
"W  c #164B77",
"Q  c #085379",
"!  c #155375",
"~  c #0C536F",
"^  c #264B6C",
"/  c #36657C",
"(  c #4A6978",
")  c #71787A",
"_  c #725A56",
"`  c #493D49",
"'  c #890B02",
"]  c #861405",
"[  c #931004",
"{  c #BA1D08",
"}  c #B11F1A",
"|  c #B8220B",
" . c #B82616",
".. c #AB2716",
"X. c #A93528",
"o. c #BA3426",
"O. c #AE2C24",
"+. c #9B2A29",
"@. c #C52C19",
"#. c #C83327",
"$. c #C01F0D",
"%. c #845A14",
"&. c #946B33",
"*. c #A6742D",
"=. c #9F641E",
"-. c #D1463B",
";. c #E5433C",
":. c #B3504B",
">. c #986D5B",
",. c #CB4B48",
"<. c #E24840",
"1. c #E7B95C",
"2. c #DCB869",
"3. c #E6B964",
"4. c #E6C26C",
"5. c #044D86",
"6. c #015383",
"7. c #02538B",
"8. c #045887",
"9. c #145684",
"0. c #015394",
"q. c #025799",
"w. c #0E5594",
"e. c #255D8D",
"r. c #1A6499",
"t. c #166A94",
"y. c #256897",
"u. c #26769B",
"i. c #397599",
"p. c #33698D",
"a. c #0865AA",
"s. c #176AA6",
"d. c #1C77A8",
"f. c #076AB5",
"g. c #0873BA",
"h. c #1978B7",
"j. c #136FAF",
"k. c #2779A7",
"l. c #347AA6",
"z. c #247BB3",
"x. c #2A6EA5",
"c. c #0055A1",
"v. c #486C89",
"b. c #4B758D",
"n. c #6A7A84",
"m. c #787585",
"M. c #4276A8",
"N. c #0578C7",
"B. c #137BC5",
"V. c #0878CF",
"C. c #8B778A",
"Z. c #1A81B4",
"A. c #2B82B2",
"S. c #3688B8",
"D. c #3489AE",
"F. c #38829E",
"G. c #4895BA",
"H. c #508DAD",
"J. c #7190B2",
"K. c #56A3B9",
"L. c #74A2BB",
"P. c #68808A",
"I. c #1387CF",
"U. c #298AC7",
"Y. c #3897CA",
"T. c #2797D8",
"R. c #3598D5",
"E. c #3090CB",
"W. c #34A4DA",
"Q. c #1596E7",
"!. c #1296EF",
"~. c #2698E6",
"^. c #2D9AEC",
"/. c #27A4EA",
"(. c #37A7E6",
"). c #37AAF6",
"_. c #2FACF8",
"`. c #1EA0E3",
"'. c #4897C7",
"]. c #519CCC",
"[. c #6B9CC4",
"{. c #4BA3CC",
"}. c #56A6C7",
"|. c #4AA6D7",
" X c #57A9D7",
".X c #57B3DA",
"XX c #47B5DF",
"oX c #65A8CA",
"OX c #65ACD8",
"+X c #69B7D9",
"@X c #72B3CF",
"#X c #47A9E4",
"$X c #48B4E8",
"%X c #57B7E7",
"&X c #48B7F7",
"*X c #58BCFA",
"=X c #53ACEB",
"-X c #66BBE8",
";X c #75BBE3",
":X c #63BCF4",
">X c #7AC7D8",
",X c #70C5D5",
"<X c #54C3FE",
"1X c #5BC4FE",
"2X c #5CCBFE",
"3X c #59C6F8",
"4X c #53C8F9",
"5X c #67C6EA",
"6X c #78CAE8",
"7X c #7BD3EA",
"8X c #68C6F8",
"9X c #77CCFA",
"0X c #69D3FB",
"qX c #78D2F8",
"wX c #8894AF",
"eX c #90A9BC",
"rX c #ADABB0",
"tX c #E0B0B0",
"yX c #8BBACF",
"uX c #ACBAD0",
"iX c #8DCCCB",
"pX c #93CCCD",
"aX c #96CBC9",
"sX c #8BD3C9",
"dX c #93D2CB",
"fX c #8ACCD8",
"gX c #93CCD3",
"hX c #96CDD9",
"jX c #8DD3D4",
"kX c #8CD4DB",
"lX c #86D4DA",
"zX c #95D3D5",
"xX c #BBC5CC",
"cX c #BBC8D3",
"vX c #ABCBD6",
"bX c #87CEE7",
"nX c #84D4E3",
"mX c #8BD4E3",
"MX c #86D3EB",
"NX c #8DD4EC",
"BX c #9BECEA",
"VX c #98EBF9",
"CX c #99F1F6",
"ZX c #A3EBEA",
"AX c #AAE9E9",
"SX c #A4EBF6",
"DX c #AEF5F4",
"FX c #C1C8CB",
"GX c #C3C9D4",
"HX c #C6FBFE",
"JX c #FFF9EB",
"KX c #EBFCFD",
"LX c #FDFDFD",
"PX c #FAF9F7",
"IX c #F3EFF0",
"UX c #C4C0BD",
/* pixels */
"                                                                                                                                                                                                ",
"                                                                                                                                                                                                ",
"                                                                                                                  . . . O O X X . . . . . . . . o . . o . .                                     ",
"                                                                                                                  . o . O O O O O O O O O O O O . . . . + .                                     ",
"                                                                                                                  . + = ; ; ; = * - 7 7 8 8 7 9 7 ; 7 7 ; *                                     ",
"                                                                                                            X o . ( v.b.H.H.H.K.H.H.oXOX XOXoXoXoXoX+X XoXL.O X .                               ",
"                                                                                                            X O * b.p.p.G.'.'.G.G.G.=X=X&X&X$X%X%X X&X&X=XOX- O O                               ",
"                                                                                                            * - 7 i.l.k.'.'.Y.Y.'.'.=X=X&X&X#X=X=X=X&X&X$X Xr 9 *                               ",
"                                                                                                      . O * v.p.i.OX.X.X9X9X9X9X9X8X0X0X9X9XqXqX9X9X9X*X8X-X.XoXL.; * O                         ",
"                                                                                                      . * ; b.i.k..X.X.XqX9X9X9X9X9X9XqXqXqXqX9X9X9X9X%X5X5X$X.XoX7 9 *                         ",
"                                                                                                      = ; 7 i.u.A.|..X.X6X6X6XMX6X7X7X7X7XMXMXMX7X7X7X,X,X5X.X.XOXr t 7                         ",
"                                                                                                . + . ( v.i. X.X.XqXqXMXnXlXmXVXVXSXVXVXCXCXVXVXVXVXVXVXVXVX9X9X9XOX}.L.* . .                   ",
"                                                                                                . . + ( b.i. X.X.XqXMXlXfXiXjXSXBXZXBXCXCXCXSXSXSXVXCXCXCXVXqX9X9X%X+XoX* . @                   ",
"                                                                                                . + O v.i.y.%X|..XqXnXfXzXdXjXZXZXDXBXBXCXBXZXSXSXSXZXBXBXVXqX9X9X.X|.@X* . X                   ",
"                                                                                                . . * v.i.D.|.%X.X7XmXjXAXAXAXDXHXHXBXBXBXjXgXgXjXiXdXiXzXmX9X0X0X8X5X+X* X X                   ",
"                                                                                                O * - v.l.k.%X$X.X7XmXiXAXAXAXHXHXHXZXBXZXjXgXhXkXjXzXiXzXbX8X0X0X%X3X+X; . .                   ",
"                                                                                                = 9 r i.k.k.=X%X.XMXkXiXAXAXAXDXHXDXSXBXBXjXgXhXmXMXlXnXmXqX0X0X0X5X3X5X0 = O                   ",
"                                                                                          . . O Y R E  X X|.0X0X6XmXgXaXHXHXDXAXZXZXjXjXzXdXgXmXoX X.XS.S.S.E.R.Y.$X$X%X>XiXaXO . .             ",
"                                                                                          . . O R Q Q  X|.|.0XqX6XkXzXaXHXHXHXAXAXAXaXaXaXdXgXNX.X$X$XR.U.Y.R.E.R.$X&X$X6X>XpXO . X             ",
"                                                                                          o . O R Q 6.#X#X|.qX7XnXfXzXaXHXHXHXAXZXAXaXzXzXjXbXMX.X#X%XY.'.Y.Y.Y.E.&X&X&X5X>XyX= . .             ",
"                        X . X X . . X . . . . . @ X .                                     . o = ~ 6.6.#X#X|.qX7XkXgXzXaXHXHXHXAXZXBXjXfX6X}.|.|.A.x.l.H.[.[.p.l.h.U.B.U.0X>XfX= O .             ",
"                        O O = O ; * * O O * O O * * .                                     . . * E 6.6.#X#X|.7XlXjXpXdXaXHXHXHXAXBXBXkXnXqX|.$X#Xl.i.v.wXJ.J.b.i.k.S.U.z.8X6X>X; = O             ",
"                        9 8 8 8 8 7 8 7 9 7 ; 7 t 7 ;                                     o . * W 7.7.#X#X|.nXsXzXpXaXdXHXHXDXZXZXZXdXjX7X|.#X|.i.v.v.wXwXwX( ( p.M.M.l.9XqX6Xq ; =             ",
"                  . . O p.r.s.S.A.G.+X;X;X;X+X6XS.G.H.= O .                               . . * W 7.6.|.#X|.lXsXaXdXdXdXAXZXZXZXBXZXaXdXnX.X5X-X[.eXwXLXLXLXO = = Y I W '.{.}.>XfXyX= O .       ",
"                  + . - y.a.f.I.Q.I.1X:X8X:X3X3XT.Y.H.9 - O                               . . * W 7.6.|.#X XlXsXdXaXiXiXBXSXZXBXBXZXdXpXkX@X-X+XL.wXwXLXLXLX. . . J J I ].|.{.6X6XfX* . .       ",
"                  * * 8 r.a.a.T.I.T.3X5X-X:X5X3XR.E.H.u 8 -                               . . ; E 6.8.|.|.{.kXdXaXdXdXzXZXSXZXBXBXZXaXpXkX@X+X+XwXwXwXLXLXLX. . X m ` K }.W.{.5X5XfX* . .       ",
"            X . ; / e.r.*X8X-XbXnX>XmXmXNXNXlXlXlXMXMXS.S.H.O . .                         . . * ! 6.6.A.z.u.>XsXzXiXdXiXjXkXzXZXZXSXgXjXmX+X-X+XKXLXPX% % % . X X % % ; }.$XXX0X8XfX+ . .       ",
"            . O 9 9.q.a.8X-X;XmXzXiXaXaXhXfXkXkXiXkXqXU.Z.S.= . .                         . . * E 6.6.d.k.u.nXkXjXiXzXdXzXgXiXZXSXSXhXfXMX+X-X+XKXLXPX$ # $ X X $ 2 2 : +X$X$X8X0X6X+ . .       ",
"            - 8 r r.a.a.:X8X+XbXfXgXvXaXhXNXqX7XkXfXbXD.E.S.; O .                         O . ; Q 8.6.k.k.k.7XlXfXkXzXiXgXgXdXAXZXBXzXhXbX+X-X+XKXJXJX2 3 3 2 $ 2 3 3 % }.$X&X2X0X6X> o .       ",
"      . O * p.e.x.:X*X8X|.|. XL F S > > A G.R.Y.lXzXnX7X0X6X7 O .                   . O O , , 0 T 6.7.z.k.u.}.K.K.fXzXpXgXzXiXsXjXjXgXhXmX@X-X+XKXJXPXj x k j h h +.X._ @X$X(.).~.'.+ . .       ",
"      . . * e.s.f.1X2X&X&X#X|.P L F 0 w V R.~.T.MXjXlX7X0XqX= . .                   . O O , , w Q 7.0.x.k.k.{.}.K.mXjXpXgXzXdXsXsXsXpXhXhX@X+X@XKXPXJXj k l k h l X.X.M @X&X&X/./.W.= . o       ",
"      . X O e.f.N.<X<X2X(.#X#XP L F i i Z Y.R.R.mXjXnX7X0XqX= . .                   . . O ; e 0 R E 9.x.l.k.'.{.}.MXkXzXzXiXsXsXsXsXpXhXjX@X+X+XKXLXJXj c l k k k X.X._ oX$X&X/./.R.= . .       ",
"      . X * r.a.f.<X<X1X(.T.(.h.k.l.r.r.r.Z u i gXsXmX5X3X-X= . .             . o . LXLXLXm.n.n.q y i E 6.5.k.k.k.}.K.K.fXjXdXdXdXpXzXjXlXnX7XMXyXeXrXtXtXtX:.:.:.>.>.C. X(.(.I.I.A.* X .       ",
"      . X ; r.f.f.2X1X<X(.(.(.h.k.z.a.f.r.C t e gXkXbX-X1X8X* . .             . . . LXLXIX) n.n.> 0 w R Q 6.d.d.k.{.].}.mXmXjXpXgXgXiXkXnXMX7X7X>XyXeXUXUXtX>.>.>.C.m.J.{.#X|.A.A.F.* X .       ",
"      X X - r.g.f.<X2X<X(.W.R.Z.j.h.g.a.r.V y t NXMX7X8X2X:X* X @             # # 2 JXJXPX) P.n.> 0 a R T Q k.A.z.|.{.}.MXbXfXkXfXkXmXMXMXqXqX9X;X;XyXvXxXuXC.) ) C.J.J. X|.OXl.i.H.O . .       ",
"      X . - s.f.N._./.(.*X2X2X<X1X1Xa.f.r.i y q ;X8X5X3X&X8X* X .       . X # n n j j j 6 f f f n.n.b.a i i 9.5.5.z.d.u.G.H.K.@X>X@Xu.F.u.{.{.|. X X[.[.L.wXJ.wXwXJ.J.[.S.A.l.8 7 -             ",
"      O O 9 r.g.f./._.).1X1X1X1X1X*XN.a.y.A 0 w 9X*X%X3X<X5X= . o       . X # n c c h j j m f d n.n.P.0 q t Q 7.7.h.d.d.G.G.G.>X@X@XF.l.S. X X{. X X XOX}.}.[.K.oX}.}.{.k.l.b.; - *             ",
"      . O ; e.r.f.).).^.1X*X1X*X1X*Xa.s.e.u q a *X<X8X8X-X@X* . .       o X $ x z ] l k h n m f ) n.n.> 0 y R Q 7.k.k.u.'.G.G.+X6X+Xl.D.k.].]. X X X X X X X}.}.}.}.}.}.F.b.b.O O .             ",
"            > - r r.j.f.g.f.f.f.f.j.u y A bX;X1XQ.~.Y.t 9 ;             . # 2 :.,.#.#.O.X.c x m J K K cXcXcXw q u F F L t.t.q.k.u.D.{.].'.u.y.y.Q ! Q E E T T F T F F S 7 * .                   ",
"            X O 9 e.r.a.a.a.a.f.f.w.a q V -X1X<XQ.T.G.9 * .             X $ 3 :.-.<.@. .o.z z x m J J xXcXxX> 0 w S F F 9.t.t.A.d.d.{.{.{.r.t.y.~ ! E E E E T F F S S D O . .                   ",
"            o . - p.e.y.y.r.r.s.r.r.V V Z 8X*X4XR.S.H.9 * @             2 3 g :.,.-.o.o.X.] z v m m d FXxXcX, > q H G F e.t.9.k.d.Z.|.|.].u.t.t.Q Q 9.T E T T F G S s f . . X                   ",
"                  9 8 8 u V V C u Z y.s.f.~.I.T.8.E ! ; O X       . . # :.:.,.[ ' ' l l l k k k 3 4 & FXxXcX: p p 0 y y F L L Q 6.6.s.s.k.A.S.D.G.S.'.].'.'.y.p./ ; O .                         ",
"                  * * * w 0 0 y y V h.N.V.Q.!.T.7.R R = + .       . o # :.,.,.' ] ] k k k k k h 3 3 4 FXFXxX: < : , w y F F L ! 5.7.s.s.s.S.S.S.Y.Y.E.E.Y.S.s.u./ ; O .                         ",
"                  O . . > w a y i A g.V.V.!.!.Q.9.^ Y = . o       . . # :.-.-.[ ' ] k k k k k j g 3 4 UXFXxX: < : e 0 w F F F R W E y.x.y.H.D.D.S.S.'.G.G.'.y.p./ = O .                         ",
"                  . o O R E 6.j.j.j.)._._.!.!.~.r * O             o . X c ' [ o.#.#.o.O.X.] z v g 3 2 PXLXLX, , e K G S a i t V i q w w 0 a w y i y y ; = * ; * *                               ",
"                  : X O ! 5.q.g.N.N._._._.Q.!.T.9 . X             . . # c [ '  .@.@.#.@.#.' z v g g 2 JXPXLX, > e D G F y i i r w 0 e > > 0 0 q 0 w > O + . X X .                               ",
"                  . X * W 0.0.h.N.N.).)./.Q.!.R.= . X             . X $ c ' [ #.@.@.@. .o.[ ] c g 3 5 JXJXJX< , 0 D U F a i C C u a y y w q t t t y w * . . X X X                               ",
"                  . . * E 0.0.g.N.N.2X<X<XQ.Q.U.= . X             . X 2 ,.<.-.| | | { |  .' l c g 5 2 JXJXJX& , 0 D G F y.r.e.y.y.y.T U G A A H ^ ^ Y * O .                                     ",
"                  . O - E q.0.N.N.N.<X<X2XQ.!.T.= . X             . X 2 ,.;.#.{ { | { { | [ ] v g 3 4 JXJXJX& , > D G F j.f.g.f.f.j.T T L A A A W W ^ 9 O O                                     ",
"                  . O - ! 5.q.N.N.V.<X<X<X/.!.U.= . X . . . . . . . @ $ :.;.#.| { | $.{  .' z x 3 4 4 JXJXJX< , > D D R j.N.f.g.N.a.E E T F A A W E W r 9 *                                     ",
"                  @ O ; W 5.0.g.N.N._._._.!.!.T.7 . . . . . . . . . . # c ' [ ....|  .} ..h g 3 m m f LXIXLX& , e 0 w u 5.q.7.2X<X0XT.R.R.E T R u V i D.E.'.- . .                               ",
"                  . O * R E 7.h.N.N.)._._.Q.Q.U.8 * . . . . . . . X . # v ] ' ......} } +.h 3 4 d d d LXLXLX& 1 : , > w R E 8.3X0X2X/./.W.Q T T i u i D.E.S.* X .                               ",
"                  X . ; Y T Q d.h.N.).)._.Q.~.U.u 9 * . . . . . . . . # c ' ' ..O.O.} } +.h 3 4 d f d LXLXLX% 4 & 4 $ & I ~ Q 0X5X8X/.`.W.Q E T V y a H.S.H.. o X                               ",
"                        - 8 r 9.7.q.N.V.I.&X<X8Xr.p.( * O . . . . . o # :.,.-.[ ' ' l l v g 3 4 IXKXKX< : & 6 6 6 >.>.>.e w A T 8.6.2X2X4X|.|.].E R R 7 t 7 . . .                               ",
"                        * ; 9 R 6.0.g.N.N.4X<X3Xs.y.p.= + . . . . . . # ,.-.-.' ] z k h h g g 5 LXKXIX< < & 5 b b *.*.&.o e y ~ Q 6.3X2X3X(.#X#X5.W ^ - * * . . .                               ",
"                        O * ; Y R E g.N.g.<X3X8Xj.s.p.7 = + . . . . . $ ,.-.-.[ ' z h b j g 3 5 IXKXKX: % 4 b b b *.*.*.4 1 > Y E 8.5X5X8X|.|.|.9.R Y * O . . . .                               ",
"                              O * 9 Q 7.0.q.6.8.(.#X XE E R * O . . . $ O.{  .@.@.X.g 3 5 n m m PXPXPX< & & N %.%.3.1.3.*.>.>.< 0 y F P P P L F 9 * .                                           ",
"                              . . O T Q 5.5.9.8.#X(.|.7.7.Q 9 * O O . 2 [ { { @.#.X.3 4 4 m m d PXPXIX, + 1 N %.%.3.1.1.*.*.>.$ 1 > H H L L F G O . X                                           ",
"                              . X O U ! W W R ! #X).&Xc.0.E 8 * O . . # X.|  .o.O.X.3 4 < d J J LXPXKXw y > _ N N 2.3.1.*.=.*.4 & o K D G G S s . o X                                           ",
"                                    = ; 9 9 7 7 6.0.q.I.I.S.F D s = . # z ' ' l l h m f f GXcXcX< : e Y R Y + & 2 &.*.=.1.4.2.B N _ . O * * ; O                                                 ",
"                                    = + O O . = Q 8.q.I.Z.A.T F S = * # c ] z k k j m f d cXcXcX, , q ^ W ! w : % &.=.=.4.1.4.B %.N # X . . O .                                                 ",
"                                    o O O . . . U T E S.F.l.E L U ; - * n x x j n 5 d J J xXGXcXe q u W 7.E Z q , _ &.*.2.2.4.%.&._ . * O O . o                                                 ",
"                                                O = ; ; = 7 L P L F G D . # % ) ) ) FXFXFX< , 0 R Q 7.h.B.B.%X;X@Xw , % 6 b 5 X X O l.d.i.7 O .                                                 ",
"                                                X . . . . * G L L F G D > 1 . ) ) P.cXcXGX, ; y Q 8.q.g.V.V.2X*X;Xu w , 6 6 6 X . ; d.U.y.8 * .                                                 ",
"                                                . . . O . O K D G G D K ; + , ) ) ) xXcXcXw w i Q 6.6.h.j.Z.&X1X;Xi t e 6 6 6 . O 7 p.p.v.- O O                                                 ",
"                                                            O * * - * * O = . < @ : , 0 0 Y ^ T u.d.k.VXVXVX2X&X+Xi t 0 X X X . = * * * * O O O                                                 ",
"                                                            O O O O O O O . . : @ X , e a R R Q k.k.d.VXVXVX%X3X;XA q e . X X . O O O O O O O O                                                 ",
"                                                            . . . . . O O . . @ < @ , 0 w ! T Q k.z.A.VXSXCX%X<X-XC V i O X . O O . . . O . . .                                                 ",
"                                                                                    . = ; R Q 6.z.h.h.*X:X3XI.I.I.B.B.x.* . o .                                                                 ",
"                                                                                    . O ; R ~ E d.h.h.1X<X<XV.I.V.V.V.z.7 . .                                                                   ",
"                                                                                    . . = Y U ! l.z.h.*X<X*XB.B.V.I.V.h.9 . .                                                                   ",
"                                                                                          O = 7 E 6.0.B.V.B.0.0.0.~.^.R.7 . X                                                                   ",
"                                                                                          . O - W 7.0.B.I.V.0.5.5.T.^.E.- X X                                                                   ",
"                                                                                          . @ * R W 9.z.h.j.E T E '.Y.].* X .                                                                   ",
"                                                                                                O * - 7 9 ; * O * - - *                                                                         ",
"                                                                                                X o O O . X X X X . . o                                                                         ",
"                                                                                                . . . . . . . X . . X X                                                                         ",
"                                                                                                                                                                                                ",
"                                                                                                                                                                                                "
};
