/* XPM */
static char *_b9b62cc56914d06cfe90ca3b51704ae8Ubfb9stWJi3DsDr[] = {
/* columns rows colors chars-per-pixel */
"90 72 256 2 ",
"   c None",
".  c #010202",
"X  c #0B0101",
"o  c #020A03",
"O  c #00030B",
"+  c #020B0D",
"@  c #0B0808",
"#  c #120100",
"$  c #180604",
"%  c #09140A",
"&  c #171309",
"*  c #000413",
"=  c #000A14",
"-  c #00051B",
";  c #000B1C",
":  c #0A0C1A",
">  c #02131B",
",  c #091417",
"<  c #141519",
"1  c #150B16",
"2  c #270402",
"3  c #370402",
"4  c #2F110E",
"5  c #382412",
"6  c #000B23",
"7  c #000C2B",
"8  c #000626",
"9  c #011424",
"0  c #021A25",
"q  c #01142B",
"w  c #011B2D",
"e  c #0B1826",
"r  c #131B25",
"t  c #000D34",
"y  c #001534",
"u  c #021B33",
"i  c #001C3B",
"p  c #021639",
"a  c #191E31",
"s  c #042438",
"d  c #142A32",
"f  c #38342B",
"g  c #373638",
"h  c #322D2D",
"j  c #222124",
"k  c #470604",
"l  c #590803",
"z  c #4F150D",
"x  c #660702",
"c  c #770601",
"v  c #70150F",
"b  c #46240B",
"n  c #47342A",
"m  c #492D2F",
"M  c #752922",
"N  c #78582F",
"B  c #7B5610",
"V  c #001C46",
"C  c #00184E",
"Z  c #042746",
"A  c #07354B",
"S  c #012955",
"D  c #043658",
"F  c #153A58",
"G  c #15304A",
"H  c #2C3848",
"J  c #013B63",
"K  c #043A68",
"L  c #153C64",
"P  c #023A78",
"I  c #0C306C",
"U  c #213862",
"Y  c #0D465C",
"T  c #264859",
"R  c #26474E",
"E  c #08466A",
"W  c #184969",
"Q  c #064978",
"!  c #164C72",
"~  c #07527A",
"^  c #145575",
"/  c #285170",
"(  c #35617D",
")  c #6E544C",
"_  c #626375",
"`  c #890E06",
"'  c #B11D0C",
"]  c #952516",
"[  c #B72917",
"{  c #AF2A17",
"}  c #95332D",
"|  c #B0352B",
" . c #C82D18",
".. c #C83321",
"X. c #83591B",
"o. c #9E4933",
"O. c #CE4D37",
"+. c #AE5552",
"@. c #9C5C63",
"#. c #B39D69",
"$. c #B69F5E",
"%. c #C8B365",
"&. c #DAC874",
"*. c #034B84",
"=. c #035284",
"-. c #00538B",
";. c #095485",
":. c #015696",
">. c #1A5D98",
",. c #115589",
"<. c #255A8C",
"1. c #176799",
"2. c #12668F",
"3. c #256896",
"4. c #267899",
"5. c #387798",
"6. c #306A8B",
"7. c #0C5BA5",
"8. c #0766AA",
"9. c #196AA7",
"0. c #1C78A8",
"q. c #0666B6",
"w. c #0773BC",
"e. c #1777B7",
"r. c #1366B6",
"t. c #2779A8",
"y. c #3678A3",
"u. c #267BB7",
"i. c #2D71A7",
"p. c #457896",
"a. c #4A6E8A",
"s. c #677294",
"d. c #0375C4",
"f. c #0678CA",
"g. c #1078CB",
"h. c #207EC6",
"j. c #8E798E",
"k. c #3583A8",
"l. c #2886B9",
"z. c #368ABA",
"x. c #318BB2",
"c. c #2284AD",
"v. c #788995",
"b. c #4898B8",
"n. c #518EB2",
"m. c #7395B1",
"M. c #5EA5BE",
"N. c #74A6BF",
"B. c #1885C8",
"V. c #1388D8",
"C. c #298AC6",
"Z. c #388BC7",
"A. c #3A95C8",
"S. c #2797D7",
"D. c #3698D3",
"F. c #2A8FD2",
"G. c #36A5D8",
"H. c #1994E7",
"J. c #1192E6",
"K. c #299AE5",
"L. c #37A5E8",
"P. c #29A7FA",
"I. c #35A9F7",
"U. c #33ADF3",
"Y. c #4698C8",
"T. c #559DC7",
"R. c #4697CF",
"E. c #6E9BC3",
"W. c #4CA4CA",
"Q. c #55A5CB",
"!. c #49A7D8",
"~. c #55A9D8",
"^. c #58B2D8",
"/. c #4EB2D5",
"(. c #67A8C8",
"). c #64ABD5",
"_. c #67B8DA",
"`. c #77B8D8",
"'. c #75AFCC",
"]. c #49AAE6",
"[. c #59ADE4",
"{. c #4AB3E9",
"}. c #55B5E8",
"|. c #4BB6F6",
" X c #58BDFA",
".X c #49ADF3",
"XX c #67BAE7",
"oX c #76BAE5",
"OX c #67BEF5",
"+X c #489FE4",
"@X c #7BC6DD",
"#X c #74CCD2",
"$X c #54C3FE",
"%X c #5BC3FD",
"&X c #5AC7F8",
"*X c #55CBF8",
"=X c #67C5E8",
"-X c #7AC9E9",
";X c #63C4FD",
":X c #67C8F7",
">X c #74CDFE",
",X c #7ACCF8",
"<X c #6BD7FA",
"1X c #78D2F9",
"2X c #79D1E7",
"3X c #8698B0",
"4X c #90A8B4",
"5X c #B6AFB1",
"6X c #81898C",
"7X c #DBB1AD",
"8X c #C7C58E",
"9X c #E5DBBE",
"0X c #8BB4CD",
"qX c #B6B9C4",
"wX c #859DC2",
"eX c #CFB7C5",
"rX c #8DCDCC",
"tX c #89CAC4",
"yX c #94CECC",
"uX c #97CEC8",
"iX c #8AD3CB",
"pX c #94D2CD",
"aX c #96D2C8",
"sX c #8ACEDB",
"dX c #89CCD8",
"fX c #94CCD5",
"gX c #8CD2D3",
"hX c #8CD3DA",
"jX c #87D4D9",
"kX c #94D3D3",
"lX c #94D6D9",
"zX c #A7EADD",
"xX c #86CCE8",
"cX c #86D3E7",
"vX c #84D3F5",
"bX c #8BD0EC",
"nX c #9EE9EA",
"mX c #9BEBFA",
"MX c #91F3F8",
"NX c #A3ECEB",
"BX c #A7EAE7",
"VX c #A6ECF4",
"CX c #AFF4F2",
"ZX c #A6CDDC",
"AX c #F3DDCF",
"SX c #EDE3D1",
"DX c #C4FDFA",
"FX c #DCF3F4",
"GX c #E8E9E8",
"HX c #FFF5E9",
"JX c #E8F7FA",
"KX c #FDFCFE",
"LX c #F6FAFA",
"PX c #F0EEEE",
"IX c #E6DADE",
"UX c #B9C4A6",
/* pixels */
"                                                                                                            o . . X . @ O . . . O O . . . . . . . . X                               ",
"                                                                                                            o + . O O * * O . o * * O . . . O O = O .                               ",
"                                                                                                            = - - 6 - - 6 ; = ; ; 6 6 6 6 ; ; 6 6 6 ;                               ",
"                                                                                                      . . . a.p.p.n.n.n.n.n.n.(.(.(.).).).Q.).).).E.N.= o .                         ",
"                                                                                                      . . O a.5.5.b.b.b.Y.Y.Y.}.}.}.{.{.{.{.{.{.{.XX(.6 o .                         ",
"                                                                                                      O O 6 6.4.4.Y.A.A.A.A.D.].{.{.{.{..X.X.X.X.X].~.7 ; O                         ",
"                                                                                                o o * _ a.6._.^.^.>X>X>X>X>X>X1X,X,X>X>X>X>X>X>XOXXX:X~._.E.- O .                   ",
"                                                                                                o O = a.5.4.^.^./.<X>X>X>X>X,X,XvXvXvXvX,X>X>X,XoXXX:X{.[.).8 * O                   ",
"                                                                                                O = 9 6.y.t.^.^.^.-X,X,X-X-X-XcX2X-XvXvX,X,X-XxX_.#X=X].}.[.7 - *                   ",
"                                                                                          . . O _ 6.6._.[.^.vXcXxXxXxXbXmXmXmXmXmXmXmXmXmXmXmXmXmXMXMX<X:X1X).'.3X* O O             ",
"                                                                                          . . O a.5.y.~.].}.bXsXlXlXlXsXVXnXVXVXVXmXnXnXBXBXVXmXMXMXMX1X>X>X{.~.N.= O O             ",
"                                                                                          . . = a.5.i.[.].}.cXgXrXpXrXhXNXNXNXNXVXVXNXzXzXBXBXnXMXMXmX-X,X>X{.}.(.> * O             ",
"                                                                                          O O = a.y.i.[.|.{.vXhXgXNXBXBXDXDXDXBXNXVXkXkXiXgXgXhXdXsXxXxX,X,X:XXX`.> = O             ",
"                                                                                          O O ; p.y.i.[.|.{.cXgXiXBXBXBXDXCXDXBXVXVXtXiXiXgXhXcXhXbXxXvX,X>XXX=X`.9 ; =             ",
"                                                                                          O O ; 4.0.t.[.}.}.xXkXpXBXzXzXDXDXDXnXVXnXiXaXlXsXcXvXxXcXvX,X>X>X}.=X_.9 ; *             ",
"                                                                                    . . O T T W W.!.!.>X>X,XcXyXuXDXDXDXCXBXnXhXjXgXiXtXgX(.^.^.z.z.z.A.F.D.}./.^.@X0X0XO . .       ",
"                                                                                    . o = W ! =.!.!.!.>X,X-XsXyXuXDXDXDXBXCXNXgXiXrXgXhXjXQ.{.{.S.D.F.D.D.S.|.{./.=X-X0X= . .       ",
"                                                                                    . o = W =.-.].!.!.>X,XcXgXpXaXDXDXDXBXCXNXiXpXkX@X2X2XQ.}.{.D.A.A.A.A.D..X|.*X&X1XsXO o .       ",
"                                                                                    . . = W =.-.].!.!.1XcXsXhXfXyXDXDXDXBXBXNXgXrXdX/././.t.y.y.E.E.m.p.y.u.B.B.B.*X:X@X+ . .       ",
"                                                                                    . . * W ~ -.].!.W.2XcXhXfXfXyXDXDXDXBXNXnXhXkXcX!.].!.i.p.a.m.m.3Xa.p.y.l.B.c.<X:X-X= . o       ",
"                                                                                    . . * W ~ -.].!.W.cXhXgXyXyXkXCXCXCXBXNXNXhXyXcX~.].~.y.p.a.3Xv.3X_ a.p.4.k.k.=X:X-X9 = O       ",
"                                                                                    . . = W ~ -.!.!.W.cXhXkXuXuXyXBXBXNXBXNXNXgXrXhX^.XXoXE.E.3XJXLXLXO = ; T Y Y M.W.W.@XdXfX= O . ",
"                                                                                    . . - W ~ -.!.W.Q.cXsXyXuXuXuXBXBXNXNXNXNXiXiXjX_._.`.E.wX3XKXKXLX= O = g H T n.W.!.1X@X0X6 O . ",
"                                                                                    . O - W ~ -.!.W.Q.xXhXyXuXuXaXBXNXNXNXnXNXgXiXjX_._.'.'.wX3XKXKXKX. . . m H H m.W.G.=X-X0X6 O . ",
"                  . . . . . . . . . . . . . X X                                     . * 6 ! =.-.0.0.4.cXgXyXuXaXpXkXgXgXNXnXBXiXiXjX_.XX`.JXLXKX$ 2 # X X . 1 1 q (.^.{.:X-XxX6 O . ",
"                  ; O O = O O O * * * * O O . .                                     O = 6 ^ =.=.0.0.4.cXcXfXkXyXyXrXgXgXNXNXBXrXpXdXXXXX`.JXLXKX2 2 $ # X # 2 1 7 (.}.{.:X-XdX; O . ",
"                  - 6 t 7 7 6 6 7 7 6 6 q 6 6 -                                     O = 6 ! ~ =.0.0.t.xXbXsXlXtXkXrXgXgXNXNXBXyXuXfXXXXX`.JXLXHX3 3 3 $ # 2 k 3 : E.}.{.&X1XxX9 O . ",
"            . = - ( 3.1.Z.z.n.oXoXoXoX`.oXb.Y.n.O . .                         o . O > 0 y ! ~ ~ c.t.t.T.T.M.sXlXgXiXlXgXgXgXkXpXyXfX_._.'.JXLXHXx x l k k l } } ) wX[.{.G.A.b.6 O . ",
"            O O - <.1.8.S.S.B.%XOX:X:X:X%XS.S.A.= . o                         . . . > 0 u W ! ~ 4.t.t.~.Q.T.xXhXlXiXgXgXgXrXrXpXyXhX_._.'.JXLXHXv ` v x x x | } ) N.~.U.G.D.Y.7 * . ",
"            * 6 t 3.9.8.F.B.B.&X=X=X=X&X&XS.S.A.q = O                         . . + > 9 w W W ! t.t.u.!.~.Q.xXcXdXgXrXrXkXkXkXyXpXhX_._.`.FXJXKXl c v x x x | } ) N.[..XS.G.Y.7 * . ",
"      . O - ( <.>.[.OXXXvXcXcXcXsXdXjXcXcX2XsXcXx.k.n.; * +             . . . KXKXJX4X4X0Xy y V =.=.=.t.t.t.W.Q.M.dXkXaXaXtXyXkXrXhX,X>XxXsX0X4XeX7X7X+.+.+.@.j.j.E.!..XC.c.y.6 O . ",
"      . * 7 >.7.8.;XOXoXsXfXkXyXyXyXhXsXjXhXaXgXl.C.n.6 * .             . . X KXKXKX4X4X4Xw y p Q =.=.t.t.t.R.Q.b.cXgXrXaXpXlXfXfXsX1X,XvXoX`.0XqX7X7X@.@.@.j.j.m.(.].].c.k.p.; O . ",
"      - 7 V 8.8.8.;X:XXXvXcXyXfXfXfX-XvX2XjXpXjXl.l.n.6 O X             @ . # HXHXHX4X4X4X0 q p ! ! Q t.u.0.~.R.W.cXcXsXhXdXsXdXsXcX-X,X,XOX-X`.ZXqXeX_ _ s.s.m.n.~.~.~.y.p.a.O . . ",
". * * ( 3.>. X$X&XL.!./.K D A 0 0 s Z.A.z.cXgXjX<X<X-X6 O .             . # 2 M ] } g G R 3X0XwXy i S E =.=.9.u.4.b.b.b.`.`.`.k.5.k.Q.W.~.~.Q.Q.m.m.3Xm.3Xm.E.E.Q.t.k.5.7 6 >       ",
"O O ; 6.>.9.>X%X X{.].!.J D Z y q u D.S.z.xXhXjX<X<XbX6 * O             o X 3 } | } m g H 4X0X3Xq y p ! Q ;.i.t.4.b.b.b.@X`.`.5.y.k.Q.T.W.!.~.Q.(.(.M.(.(.T.Q.W.W.k.y.p.9 * O       ",
"o O 6 3.9.8.;X X;XL.].].E D L p u Z D.C.Y.bXdXcX<X<XbX6 - O             X 2 3 } ] } M m g 4X4X0Xw 9 p W ! E i.3.4.b.b.b.@X@X`.k.t.t.T.T.~.^.Q.Q.M.M.(.Q.Q.~.W.Q.T.p.a.a.; * .       ",
". = ; 2.8.q.&X$X%XL.L.L.0.4.t.2.1.3.V V y fXhXcX=X=X`.; O .       . . # } } | x x x z z m g g H v.v.m.q q i K J E 2.2.2.4.4.4.W.W.!.1.3.2.Q ^ E W E E D J E A A A ; = ;             ",
"X O q 3.8.q. X;X%XK.P.L.e.u.e.8.8.1.Z y 0 ZXdX2X&X:X`.; o X       @ . # | | | c l x l v z m m h v.v.v.q q y S K D 2.2.-.t.x.t.W.!.W.1.3.3.,.^ ^ E ! Q E ! D G d d * O .             ",
"X * 7 3.r.g. X X XL.L.L.l.u.e.8.q.9.p q w sXbX1X$X;XoX; o .       . @ 2 } | | c c x x l z m m n 6Xv.v.9 ; w A D J ,.2.1.t.0.0.!.!.!.9.9.1.=.=.~ E Q Q J E F d h d + . o             ",
"O * 7 <.r.q.I.I.I. X&X$X XOX;X8.q.9.p q s `.`.=X%X;XoX6 O .       O @ 2 l c c | | | v v v 3 4 & PXJXJX> , 9 q u p J J K =.=.=.1.9.0.l.z.Z.A.A.R.Y.b.Y.3.3.( ; . o                   ",
". * 6 <.9.q.P.P.I.$X&X;X;X X%X8.q.9.y q i -XXX:X&X:XoX8 O X       O . X z x c | [ | ` v v k k 4 GXLXGX, < = 9 w q F J K Q ~ =.1.1.0.z.z.C.D.D.D.A.R.A.9.3.6.; = o                   ",
". O = ( <.1.I.P.P.&X%X}.;X;X X8.>.3.V i V XX:X:XXX`.0X6 O X       X # 2 l c c | ..[ ` v v l 3 4 PXPXGX< @ , 0 0 w G D L ! ! ^ 2.3.3.k.k.z.z.Y.Y.T.n.b.6.6.6.- O .                   ",
"      . O q 1.q.d.q.q.e.w.8.9.C Z y oXOX%XS.S.Z.; = *       . X 2 +.+.O.[ [  .[ ' ' ` c v k k 3 SXIXGX% < = s s s u y y y q q s 0 9 0 0 0 w q q = > * * * O                         ",
"      X . O <.9.r.q.8.8.8.7.>.V 7 V OX$X$XK.K.A.= . X       . X 2 +.O.O. . ...' ' [ c v v k k 3 AXSXGX< < 0 s A s q y q e e 0 > = , % % = r e > . . . . . .                         ",
"      . . * 6.<.3.2.2.2.1.i.>.C S S $X*X$XS.S.Y.- @ .       O . 2 +.O.O.[ .. .[ [ ] v M z k 4 4 SXIXIX: 6 p S S S y p y : < , , < 1 & $ & O : : . . . . . .                         ",
"            - 6 7 Z u w V p V i.9.h.H.H.S.:.:.~ - . .       . X $ z v c [ ' [ ` ` ] l k k AXIXIX@ < ; G F S u.u.i.E D G * . X j h 5 ) N ) X O O                                     ",
"            . = * q 0 u u p V i.e.d.H.H.F.=.~ W * O .       . X # z l c [ ' { ` ` v k 3 2 AXIXGX< + e G I P h.B.l.Q E F O . X 5 5 5 N X.N X . .                                     ",
"            . . O 9 q i p V C 9.d.f.H.S.C.~ Y T O . .       X X # z x c ] ] { ` v v 3 4 2 SXGXGX% < q G I P h.V.B.*.E Y = O . 5 5 b B X.N # . .                                     ",
"            . . = T ! ;.9.e.w.I.I.P.K.S.z.q ; O             . # 2 } ] { c l v k k 3 m n f PXJXJX< , q L J *.d.d.w. XXXoXD F G = . X $.$.$.# . . . . .                               ",
"            . . = W ~ :.w.f.d.I.U.U.H.S.z.9 * .             o X 2 ] { { x z z k 3 4 n f f PXJXJX, , w Y J Q r.r.8. X XXXY Y L 8 = . $.$.#.X . . o + O                               ",
"            . . - W =.:.d.d.d.I.U.U.J.H.Z.7 * .             . # 3 ] ' { x z z 3 4 & n n n HXLXLX1 , 0 F F E 9.9.e. X X XE Y E t t = #.#.#.X . O 6 7 6                               ",
"            . . 6 ! =.:.d.d.f. X$X$XJ.H.Z.7 O .             . X 3 | ..[ l k 3 m f n AXAXSX# < 1 < r ; u u y J K Q B.B.B.<X=X:Xl.e.n.. $ @ . . - n.Y.n.- * .                         ",
"            . O 6 ~ -.:.d.d.f.$X%X$XH.H.Z.7 O X             . # 3 } [ | k k 4 m n f AXAX9X& & , e e e 9 q y D K P B.V.V.*X*X*XB.V.u.; X o . o - Z.F.z.7 * .                         ",
"            . O 6 ~ -.:.d.d.f. X$X$XH.H.Z.7 O .             . X 2 o.| o.k 4 4 m g f SX9XSX% , 9 p V u ; 6 0 G D P u.B.B.<X<X&XB.B.u.6 O ; O * 7 F.K.Y.7 O .                         ",
"            . O 6 ! ;.:.w.d.d.I.U.U.J.H.F.S s r . @ .       . X X 4 3 3 n n h PXGXPX@ % > / E ,.>.>.<.u , + > 0 u K K K J J Q P Q J ; = - W W P *.*.K 6 O .                         ",
"            . . ; W ! =.e.d.d.I.U.P.J.H.C.S s w O . .       X . . & 4 2 f f f PXPXGX< 9 i Q =.:.q.r.<.q + o % , > A A D D D J D D D ; ; 7 L K Q P P L 6 O .                         ",
"            X . * T W Q 9.w.d.I.I.I.H.S.Z.S Z s * . .       . . . & 2 4 f g g PXGXPX0 u i ~ -.:.q.8.,.w % @ & % , d G A A D A A A A 9 - 7 F L W L U U - . .                         ",
"                  ; = 6 ;.:.:.d.d.f.$X XOX1.3.6.y r j . . . o < & eX5X5X5X5X5X< @ , T ! ,.z.B.B.q.8.<.q % $ 8X8XUX+ 0 6 s q 0 0 0 w F F F 6 6 - - - *                               ",
"                  . = = ! =.:.w.f.w.&X%X:X1.1.3.Z u r o O + < + : qX5X5X5X5X5X< & e W =.=.B.S.V.q.7.<.p = & 8X%.8X% e q 9 0 9 0 0 6 L L F - O o . . .                               ",
"                  . . = T E =.e.w.w.%X;X X1.0.9.S i s = - * > r r qXqX5X5X5X5X, , ; ~ -.-.l.C.C.9.>.<.7 1 2 %.&.8X$ < : > > : : e q F L F * . . . . .                               ",
"                        * 7 t =.:.:.:.:.2.-.:.:.t.t.5.E D F s w e : : < : e u T Y ^ ~ Q ;.V V V V Z e j 5 b X.B N # . O + . O O * ; 6 - ;                                           ",
"                        O = 6 ! ~ ;.,.=.~ ;.*.:.u.e.t.K E L i w a r , , e u p ! ~ ~ *.:.Q V Z y u ; < 5 b b X.X.N # . . . . . O = O O * O                                           ",
"                        . O = T W W ! ! / / ! ,.u.e.9.Q E F u r , , % , > q S *.-.:.7.:.*.S V i u d % h 5 5 N N ) X X . . o . . . . X . .                                           ",
"                              O O = 6 - - - 7 7 J J J D D Z u r r . . o T ! *.+XL.P.g.g.h.e.e.y.6 O . . X # # # #                                                                   ",
"                              o O O O O O O * - A A S S A Z s e < . . = W ;.-.L.P.P.f.g.g.f.V.e.8 . . . . . . . .                                                                   ",
"                              . . . . . . . . O d G Z Z G d d e , @ O * W =.:.I.P.P.f.g.f.V.f.g.6 . . o . @ @ . .                                                                   ",
"                                                O * = = = O O . O . O ; S K P h.g.g.-.*.:.F.K.R.- . @                                                                               ",
"                                                . O O O O . . . . . . * A J K u.e.h.P P Q R.D.n.- . .                                                                               ",
"                                                . . . . . . X . . o @ O G Z D y.i.i.W L E n.n.n.O . .                                                                               ",
"                                                                        O ; 6 7 7 7 - = = ; 6 -                                                                                     ",
"                                                                        . O ; ; ; = O o o o + O                                                                                     ",
"                                                                        o . O * * O . X . o o .                                                                                     "
};
