/* XPM */
static char *result[] = {
/* columns rows colors chars-per-pixel */
"19 27 199 2 ",
"   c #010203",
".  c #00060D",
"X  c #000A0F",
"o  c #000807",
"O  c #180008",
"+  c #000513",
"@  c #000A14",
"#  c #00061C",
"$  c #000B1B",
"%  c #011513",
"&  c #02131D",
"*  c #141C1F",
"=  c #230008",
"-  c #3B0C08",
";  c #2E0418",
":  c #000523",
">  c #000C24",
",  c #000A2D",
"<  c #00052B",
"1  c #011223",
"2  c #021A2B",
"3  c #051B28",
"4  c #030C32",
"5  c #031237",
"6  c #14222D",
"7  c #0E2934",
"8  c #122933",
"9  c #202622",
"0  c #4E0100",
"q  c #540000",
"w  c #5E0000",
"e  c #590B00",
"r  c #581409",
"t  c #5A1B13",
"y  c #6B0300",
"u  c #610000",
"i  c #730100",
"p  c #7E0200",
"a  c #661A15",
"s  c #701B1E",
"d  c #7A1408",
"f  c #492D1E",
"g  c #51261D",
"h  c #5A2215",
"j  c #662E1F",
"k  c #7B2317",
"l  c #4C2926",
"z  c #582A25",
"x  c #583329",
"c  c #432C3E",
"v  c #4D3032",
"b  c #763435",
"n  c #692D25",
"m  c #1C2C4E",
"M  c #003A4E",
"N  c #1F334E",
"B  c #002352",
"V  c #002C51",
"C  c #0C3253",
"Z  c #003D51",
"A  c #093F59",
"S  c #193E57",
"D  c #253C48",
"F  c #243F50",
"G  c #002566",
"H  c #023C68",
"J  c #653A43",
"K  c #11414F",
"L  c #134357",
"P  c #294858",
"I  c #32435F",
"U  c #1E4B63",
"Y  c #144A65",
"T  c #0E536A",
"R  c #13526B",
"E  c #084775",
"W  c #0A446A",
"Q  c #235B6F",
"!  c #3B5967",
"~  c #285C77",
"^  c #244963",
"/  c #445C68",
"(  c #466F73",
")  c #48767C",
"_  c #820000",
"`  c #811509",
"'  c #B3351E",
"]  c #841C23",
"[  c #812822",
"{  c #91342C",
"}  c #862530",
"|  c #A42E2A",
" . c #A63A2A",
".. c #B9372A",
"X. c #AE3531",
"o. c #A63936",
"O. c #944139",
"+. c #8C4438",
"@. c #D0523C",
"#. c #CB473B",
"$. c #9B594A",
"%. c #8B464B",
"&. c #A55549",
"*. c #A85E5B",
"=. c #BB4A46",
"-. c #926262",
";. c #86697F",
":. c #C64A42",
">. c #004584",
",. c #345C84",
"<. c #27568C",
"1. c #2D6189",
"2. c #396A87",
"3. c #38768C",
"4. c #286B9A",
"5. c #326D97",
"6. c #3B7492",
"7. c #367B9B",
"8. c #2D7898",
"9. c #1A76A7",
"0. c #2779AE",
"q. c #277EB3",
"w. c #3B7EB2",
"e. c #3B7AA5",
"r. c #4B7282",
"t. c #457A8F",
"y. c #466A9E",
"u. c #3985A4",
"i. c #3088B8",
"p. c #3F9EBC",
"a. c #2684B8",
"s. c #438EAE",
"d. c #578EA2",
"f. c #4799B8",
"g. c #45A0BF",
"h. c #79A7B4",
"j. c #6CA4B5",
"k. c #2E93CB",
"l. c #3690C2",
"z. c #39A5E8",
"x. c #4C99C1",
"c. c #4A98C6",
"v. c #549AC4",
"b. c #519BC8",
"n. c #4DA6C9",
"m. c #57ACCB",
"M. c #57AEDB",
"N. c #5CB4DA",
"B. c #55B4DA",
"V. c #64AFCC",
"C. c #67B5CD",
"Z. c #70BBCE",
"A. c #60ADD7",
"S. c #67BAD8",
"D. c #72A7D9",
"F. c #48B0EF",
"G. c #58B7E4",
"H. c #48AEF0",
"J. c #50B2F2",
"K. c #70AEE2",
"L. c #74C1D4",
"P. c #76C1D8",
"I. c #5EC5EE",
"U. c #67C1FF",
"Y. c #70D0FF",
"T. c #73CEF4",
"R. c #979C9F",
"E. c #8EB6BE",
"W. c #94B2BA",
"Q. c #D7C2BD",
"!. c #89B9C5",
"~. c #89C2CF",
"^. c #8ECECD",
"/. c #96D3CD",
"(. c #8DCED9",
"). c #98CDD8",
"_. c #8AD1DB",
"`. c #8CD0D3",
"'. c #95D3D8",
"]. c #94D5D3",
"[. c #8AD6E5",
"{. c #91D8E2",
"}. c #ADE3E6",
"|. c #BCF5EC",
" X c #BCFCFB",
".X c #B6E6EF",
"XX c #D5DAD6",
"oX c #F6E8DB",
"OX c #C2FAF5",
"+X c #C2FEFE",
"@X c #CBFFFE",
"#X c #C6F9F6",
"$X c #FFF9EE",
"%X c #FFEDF6",
"&X c #FFF6F4",
"*X c #FCFAF4",
"=X c #FFF5FB",
"-X c #FEFBFD",
";X c None",
/* pixels */
";X;X;X;X;X;X;XX @ $ > : ;X;X;X;X;X;X;X",
";X;X;X;X;X. . W.E.!.!.h.# + ;X;X;X;X;X",
";X;X;X;X+ r.!..X}.}..X).h.) X ;X;X;X;X",
";X;X;X+ r.~.~.+X+X@X#X@X].^.( X ;X;X;X",
";X;X+ ) )._.@X X@X|.OXOX X].'.) X ;X;X",
";X;X@ t.Z.[._. XOX#XOX+X`.{.Z.3.+ ;X;X",
";X. Q f.m.K.[._./././.^.[.S.A.n.P & ;X",
";X+ T f.S.N.P.P.[.'.'.L.S.S.M.v.^ + ;X",
";X+ T p.G.B.B.N.N.B.S.A.N.B.G.c.U + ;X",
";X# T f.n.N.n.f.c.b.c.b.c.N.G.f.U + ;X",
";X. U 7.s.u.6.2.3.6.6.6.3.u.u.8.U $ ;X",
";X;X# Y K L 1 3 2 > 3 $ 1 S Z R > ;X;X",
";X;X# : @ % $X$X=X%X%X=X*X% @ $ $ ;X;X",
";X+ I N & XXx j t t s j g oX9 D S # ;X",
". $ m : &   b [ &.0 =.| k h Q.* D ! . ",
". P , ,.Q ! O %.r q _ #. .e - *X6 / @ ",
". $ 1.T.m.C.Q @ n  ...p w 0 b z -X    ",
"# 2.K.Y.I.Y.G.~ = d @...y a *.n *X  ;X",
", 5.J.J.a.9.k.D.= ] :...y { $.g *X  ;X",
"4 4.J.H.q.E G K.O } X._ y d +.z &X  ;X",
"5 4.H.z.i.B >.y.; w i ....u a v -X@ ;X",
", W q.M.l.B <.5 J q o.X. .&.- -X8 P ;X",
";X2 H 0.J.H 4 ;.-.r O.&.$.g -X7 j.d.+ ",
";X;X# C q.w.4 c v f g x f *X8 t.C.M # ",
";X;X;X: W 4.,.5 1 . R.*X*X  S e.V.K # ",
";X;X;X;X: , C L P 6 X o     C 1.Y $ ;X",
";X;X;X;X;X;X@ .       ;X;X;X;X+ + ;X;X"
};
