/* XPM */
static char *result[] = {
/* columns rows colors chars-per-pixel */
"20 27 188 2 ",
"   c #010202",
".  c #00040C",
"X  c #00080C",
"o  c #090006",
"O  c #110004",
"+  c #000513",
"@  c #000913",
"#  c #00051A",
"$  c #000A1B",
"%  c #01121B",
"&  c #09141D",
"*  c #071518",
"=  c #1A191E",
"-  c #240000",
";  c #3D0E04",
":  c #2F1D1D",
">  c #000523",
",  c #000A24",
"<  c #080E26",
"1  c #001C2C",
"2  c #071824",
"3  c #141823",
"4  c #021638",
"5  c #241F25",
"6  c #192729",
"7  c #132B37",
"8  c #26232A",
"9  c #3D2F2F",
"0  c #21313A",
"q  c #262F38",
"w  c #470403",
"e  c #5D0000",
"r  c #5C0B03",
"t  c #581707",
"y  c #660000",
"u  c #6C0A0B",
"i  c #770406",
"p  c #61130F",
"a  c #681F1B",
"s  c #74181A",
"d  c #55281A",
"f  c #4F301B",
"g  c #452B1C",
"h  c #68231E",
"j  c #78231E",
"k  c #701F25",
"l  c #4D2922",
"z  c #442F2A",
"x  c #562A29",
"c  c #662926",
"v  c #79452F",
"b  c #001C50",
"n  c #00204C",
"m  c #1D3845",
"M  c #002454",
"N  c #053658",
"B  c #163A5C",
"V  c #2F3B46",
"C  c #003968",
"Z  c #003670",
"A  c #153E6A",
"S  c #184558",
"D  c #36454A",
"F  c #27485A",
"G  c #3B4F5A",
"H  c #194B67",
"J  c #15526E",
"K  c #034376",
"L  c #0F4E70",
"P  c #295975",
"I  c #36577A",
"U  c #2D506C",
"Y  c #29617C",
"T  c #425059",
"R  c #477279",
"E  c #657477",
"W  c #840100",
"Q  c #99331D",
"!  c #A6331E",
"~  c #912F2E",
"^  c #8A3233",
"/  c #A22F2A",
"(  c #B8372A",
")  c #B33830",
"_  c #A63931",
"`  c #814338",
"'  c #914337",
"]  c #BB4B3F",
"[  c #CE453F",
"{  c #903E4A",
"}  c #9E5B48",
"|  c #A65A48",
" . c #B1574E",
".. c #AB5351",
"X. c #9D6250",
"o. c #AC6050",
"O. c #C95047",
"+. c #265C88",
"@. c #27618B",
"#. c #3E768C",
"$. c #36768B",
"%. c #2C7096",
"&. c #117CB2",
"*. c #1C69A1",
"=. c #2478AD",
"-. c #3D78A9",
";. c #387EB8",
":. c #466D8A",
">. c #497482",
",. c #5A7485",
"<. c #406D94",
"1. c #467794",
"2. c #417BAB",
"3. c #247FC6",
"4. c #318BB2",
"5. c #41829E",
"6. c #4A9BBB",
"7. c #4D92B9",
"8. c #5799BE",
"9. c #79A9AD",
"0. c #2988C5",
"q. c #3194C4",
"w. c #399DD1",
"e. c #3EA5DF",
"r. c #489BC7",
"t. c #4CA2C4",
"y. c #46A1CE",
"u. c #54B6CA",
"i. c #56B4D2",
"p. c #5CB4D1",
"a. c #55B6DC",
"s. c #5BB9D8",
"d. c #52ABD5",
"f. c #65AECF",
"g. c #6ABACD",
"h. c #72BBCE",
"j. c #64B6D5",
"k. c #7ABED1",
"l. c #5AAEE4",
"z. c #5AB2E0",
"x. c #58B5E7",
"c. c #44ACF2",
"v. c #5BBFF0",
"b. c #6CBFE9",
"n. c #69C1CD",
"m. c #71C4D1",
"M. c #5AC0FF",
"N. c #64C7FF",
"B. c #6BD6FF",
"V. c #7CD6FF",
"C. c #9B948E",
"Z. c #8BB7BD",
"A. c #91B3BD",
"S. c #DCC0BD",
"D. c #88BDC4",
"F. c #85C4CD",
"G. c #93CCCD",
"H. c #8ED0CC",
"J. c #94CDDA",
"K. c #96CFD3",
"L. c #88D4DB",
"P. c #95D3D5",
"I. c #99D4DC",
"U. c #8CCCD6",
"Y. c #93D7E4",
"T. c #8CD9E3",
"R. c #A8E5ED",
"E. c #B0E5ED",
"W. c #ADEDF6",
"Q. c #BCFEFF",
"!. c #C0D4D2",
"~. c #D0D3CD",
"^. c #C4EEFA",
"/. c #C4F5FF",
"(. c #C9F5FD",
"). c #C5FAFF",
"_. c #CCFDFD",
"`. c #C7F5F5",
"'. c #D1FEFF",
"]. c #FFF6E6",
"[. c #E7FFFF",
"{. c #FFF3F4",
"}. c #FFFBF2",
"|. c #FFF6FA",
" X c #F1FEFD",
".X c #FFFCFB",
"XX c #F2E8E6",
"oX c None",
/* pixels */
"oXoXoXoXoXoXoXX @ @ @ @ oXoXoXoXoXoXoXoX",
"oXoXoXoXoXX + A.A.D.Z.9.@ . oXoXoXoXoXoX",
"oXoXoXoX@ R D.W.R.R.E.K.9.R @ oXoXoXoXoX",
"oXoXoX# >.F.F.Q.Q._./._.P.G.R @ oXoXoXoX",
"oXoX# :.J.K.'.`.'.^.(.(.).I.J.>.X oXoXoX",
"oXoX> 1.k.L.G._.(._.(.).J.Y.h.#.+ oXoXoX",
"oX. P 7.f.m.L.H.P.P.J.U.Y.g.p.8.F & oXoX",
"oXX L r.a.i.n.n.L.L.L.m.g.h.d.t.F X oXoX",
"oX+ K r.x.a.u.u.s.p.n.a.s.i.a.8.S @ oXoX",
"oX+ J r.z.s.t.6.6.t.4.t.6.p.a.6.F @  XoX",
"oX@ H -.-.2.<.:.#.#.$.$.$.5.4.$.S $  XoX",
"oXoX> U N B 4 < < % 2 % 2 S N J , [.oXoX",
"oXoX# # $ & .X}.}.}.{.{. X% $ $ , $ $ + ",
"oXoX. 0 * ~.x c d t a s g XX8 V G 1 ,.@ ",
"oXX q = ~.z k ~ } w  ./ s d S.= m U ,.$ ",
"X E 6 !.X X - { r e W O._ r ; }.6 m G + ",
"X D 8 @ Y +.+.# c ! ( W e w v l .X    oX",
"  X # +.m.v.l.+.O j O.) u s } d }.  oXoX",
"oX$ %.l.V.v.B.b.P o  .( u ~ ..h .X  oXoX",
"oX$ =.v.d.=.&.q.j.. ^ i y s ^ c |.o X oX",
"oX# =.v.w.4.Z =.f.+ y ] ) y p x .X+ D . ",
"oX# *.c.e.0.M @.1.3 ' ! Q | w {.6 0 T X ",
"oX# Z 3.c.0.n I % : ` o.X.l |.8 q 3 + oX",
"oXoXn Z 0.x.C 1 D 9 l d g }.5 3 . . oXoX",
"oXoXoX> M ;.4.b b $ C.].}.    o oXoXoXoX",
"oXoXoXoX> A +.@.B 7       oXoXoXoXoXoXoX",
"oXoXoXoXoX# # + .   oXoXoXoXoXoXoXoXoXoX"
};
