/* XPM */
static char *result[] = {
/* columns rows colors chars-per-pixel */
"29 29 220 2 ",
"   c #020203",
".  c #0B0001",
"X  c #01010C",
"o  c #0A0009",
"O  c #000A0C",
"+  c #130000",
"@  c #1B0000",
"#  c #000213",
"$  c #010913",
"%  c #01021B",
"&  c #080B1A",
"*  c #1E151B",
"=  c #181214",
"-  c #150F19",
";  c #230000",
":  c #20141E",
">  c #371D06",
",  c #3C2810",
"<  c #000123",
"1  c #000A24",
"2  c #00012C",
"3  c #100F2F",
"4  c #0C1324",
"5  c #000132",
"6  c #070F34",
"7  c #0B1538",
"8  c #1A1D3C",
"9  c #141A38",
"0  c #1A192B",
"q  c #201D32",
"w  c #211926",
"e  c #182336",
"r  c #272538",
"t  c #3E363C",
"y  c #471B00",
"u  c #492608",
"i  c #5C2200",
"p  c #573105",
"a  c #4D3513",
"s  c #642B03",
"d  c #7A2500",
"f  c #683309",
"g  c #743811",
"h  c #443B38",
"j  c #79430F",
"k  c #0A1542",
"l  c #0D1945",
"z  c #0C184C",
"x  c #111C43",
"c  c #11184C",
"v  c #0F204B",
"b  c #1E2957",
"n  c #1A2749",
"m  c #272C48",
"M  c #29314B",
"N  c #383D4A",
"B  c #31374F",
"V  c #232D5C",
"C  c #262C50",
"Z  c #2F3B54",
"A  c #2A3458",
"S  c #363855",
"D  c #141B63",
"F  c #1C2661",
"G  c #282D68",
"H  c #253366",
"J  c #2D386B",
"K  c #2B3666",
"L  c #323D63",
"P  c #313A6D",
"I  c #242D75",
"U  c #2C3A74",
"Y  c #273774",
"T  c #353D74",
"R  c #473F54",
"E  c #3A4659",
"W  c #354346",
"Q  c #284368",
"!  c #374668",
"~  c #3D4973",
"^  c #47494A",
"/  c #534948",
"(  c #4A504E",
")  c #534D58",
"_  c #454B57",
"`  c #705F55",
"'  c #6C655B",
"]  c #716B5F",
"[  c #434B6E",
"{  c #464C76",
"}  c #4A5674",
"|  c #495679",
" . c #5D6075",
".. c #5D6967",
"X. c #746B71",
"o. c #8B2D00",
"O. c #873300",
"+. c #9C3A00",
"@. c #973F00",
"#. c #844A17",
"$. c #8A4301",
"%. c #A0520A",
"&. c #B66418",
"*. c #905324",
"=. c #B66B2B",
"-. c #BE6930",
";. c #B5713A",
":. c #A86830",
">. c #C96818",
",. c #D26E18",
"<. c #C86E27",
"1. c #CA732A",
"2. c #C67737",
"3. c #D37E38",
"4. c #D6712B",
"5. c #896744",
"6. c #AC754D",
"7. c #9D7D68",
"8. c #D88131",
"9. c #BF8A54",
"0. c #9D8772",
"q. c #AA8F72",
"w. c #AE927C",
"e. c #A6876B",
"r. c #D28546",
"t. c #EF8D4E",
"y. c #F3954B",
"u. c #F89746",
"i. c #E79A5B",
"p. c #F79A56",
"a. c #EB9143",
"s. c #DE9A69",
"d. c #E69F61",
"f. c #343D80",
"g. c #2B3481",
"h. c #464B86",
"j. c #445388",
"k. c #495385",
"l. c #535988",
"z. c #4C5399",
"x. c #5E678C",
"c. c #5B6591",
"v. c #56629C",
"b. c #4F6398",
"n. c #68738A",
"m. c #656994",
"M. c #726F9C",
"N. c #6C7695",
"B. c #6E718D",
"V. c #5058A3",
"C. c #5D63A8",
"Z. c #5769B2",
"A. c #6768A2",
"S. c #6770A7",
"D. c #6576B8",
"F. c #727EAC",
"G. c #727FC5",
"H. c #897F98",
"J. c #798486",
"K. c #7F8291",
"L. c #7481A9",
"P. c #7686B9",
"I. c #6F86B2",
"U. c #7E8BC0",
"Y. c #7D93E6",
"T. c #8F9390",
"R. c #A9A08F",
"E. c #AFA697",
"W. c #9C9BBD",
"Q. c #8DA2BF",
"!. c #97A2B4",
"~. c #D2A68B",
"^. c #F5CFBC",
"/. c #8C98C9",
"(. c #949FCF",
"). c #9B9ECC",
"_. c #858DD5",
"`. c #8A95D9",
"'. c #999CD3",
"]. c #9799D2",
"[. c #8186C6",
"{. c #98A4C9",
"}. c #93A2D2",
"|. c #9EAAD7",
" X c #8BA1CA",
".X c #A1ABD5",
"XX c #BFBAD1",
"oX c #ACB1C4",
"OX c #8A8FE0",
"+X c #879CEA",
"@X c #9495E5",
"#X c #96A3E9",
"$X c #A0A4ED",
"%X c #B6BBE7",
"&X c #A6B4FA",
"*X c #B4BBF5",
"=X c #B2BEFD",
"-X c #BABCF4",
";X c #AEB7EE",
":X c #BEC4CF",
">X c #B7C5FF",
",X c #C4C3D8",
"<X c #D9D9D2",
"1X c #E0DFDD",
"2X c #F3D9C8",
"3X c #FFE9D1",
"4X c #EFE4D1",
"5X c #C1CFEA",
"6X c #DEE3FF",
"7X c #DDE7E9",
"8X c #FDF4E3",
"9X c #FFF7EB",
"0X c #E5EAF4",
"qX c #E7EAFD",
"wX c #EDF2FF",
"eX c #F4FEFF",
"rX c #FCFEFF",
"tX c #F5F5F9",
"yX c #E8F1EE",
"uX c None",
/* pixels */
"uXuXuXuXuXuXuXuXuXO       uXuXuXuXuXuXuXuXuXuXuXuXuXuXuXuX",
"uXuXuXuXuXuXuXuXuX  J.yX:X  uXuXuXuXuXuXuXuXuXuXuXuXuXuXuX",
"uXuXuXuXuXuXuXuXuXuXX _ yX$ uXuXuXuXuXuXuXuXuXuXuXuXuXuXuX",
"uXuXuXuXuXuXuXuXuXX N oXqXK.O uXuXuXuXuXuXuXuXuXuXuXuXuXuX",
"uXuXuXuXuXuXuX% # $ $ # # $ X rXuXuXuXuXuXuXuXuXuXuXuXuXuX",
"uXuXuXuXuX1 2 m.c.< B.,X% m e $   O $ uXuXuXuX    X 9XuXuX",
"uXuXuXuX< S.U.Y.OXc  .0X# N Z e O T.,X% wXrX% {.).W.# rXuX",
"uXuXuX% P.&X=X&XOXS.4 0X:X< C m $ X # ,X% % '.-X*X%X# rXuX",
"uXuXuX< +X>X>X&X`.3 K.<X:X5 K ! 8 X.1X  XXM.=X=X`.}.{.# rX",
"uXuX% I._.>X&Xj.k.< ..7XqX>X2 ! M # ' <X+ S -XF.b.P./.% rX",
"uXuX< k.&XS.H v c < W J.6X%Xl 1 m X ] 4X, . H.%X XQ Q.# rX",
"uX% k.J j.K 6 F.b l.$ E |.|.A 1 m X ' 3Xp 5.+ R ! Q {.# rX",
"< { [.C.K eX# 5XP k.< Z L.|.n [ M O X.3Xp 9.u + M I.}.< rX",
"< c.$X_.m.S % eXT z.P k V V ~ C 3 o / ^.f O.:.@  .I.>X).X ",
"$ L A.@Xl.C x -Xh.z.V.V.f.Q n e $ ( 9X~.O.8.r.f o c.=X].o ",
"uX% G C.m.B.m.A.G D I g.I b 9   ( 1X7.i 3.u.d *.. x.=X].# ",
"uXuX# r r 0 8 6Xc b U G c 7 $ ^ E.e.i -.p.4.+.=.+ [ >X'.# ",
"uXuXuX  * - - 3 { K z 7 % X ^ 8Xq.f =.y.t.+.,.i.+ } ;X).X ",
"uXuXuXuX. : w m 3 9 2 < B $ ^ 9Xp =.&.a.p.o.>.d.. | }./.$ ",
"uXuXuXuXX o % % 2 2 V { S # ^ 8Xj %.8.,.d 1.y.s.. } }.% uX",
"uXuXuXX wXx.F.Z.Z.Z.G.b.A # ) 2Xf O.o.o.$.2.d.g o n.!.X uX",
"uXuXuXX % /.`.+XY.+XZ.Y A # / q.s <.1.<.d ;.6.; ) n.O uXuX",
"uXuXuXX wXC K U Y U H A & ^ R.u #.<.y.a.;.y ; R N.}   uXuX",
"uXuXuXrX# x x k z c 7 <   / R.a j 2.1.8.6.@ t S Z % uXuXuX",
"uXuXuXuXeX% < 5 5 5 2 m # t X.e.y #.#.f + h N # # uXuXuXuX",
"uXuXuXrX% N..X/.j.j.K m q   h ' > @ ; @ .   X uXuXuXuXuXuX",
"uXuXuX< A j.D.D.D.Y K x # o   .   = : : o uXuXuXuXuXuXuXuX",
"uXuXuX% {.}.G z K c 3 % uXuXuXuX  # $ # uXuXuXuXuXuXuXuXuX",
"uXuXuXuXX X X $ X X o uXuXuXuXuXuXuXuXuXuXuXuXuXuXuXuXuXuX"
};
