/* XPM */
static char *result[] = {
/* columns rows colors chars-per-pixel */
"28 29 195 2 ",
"   c #010204",
".  c #0B0100",
"X  c #01010C",
"o  c #080A0B",
"O  c #130000",
"+  c #1B0001",
"@  c #16020D",
"#  c #000113",
"$  c #090512",
"%  c #000912",
"&  c #00021B",
"*  c #040B19",
"=  c gray9",
"-  c #270000",
";  c #321517",
":  c #000123",
">  c #00002B",
",  c #0B0B29",
"<  c #0E1929",
"1  c #171B29",
"2  c #050934",
"3  c #071637",
"4  c #141B3C",
"5  c #1D1A3B",
"6  c #181835",
"7  c #211D38",
"8  c #1A202C",
"9  c #152135",
"0  c #0C243E",
"q  c #33342F",
"w  c #25263E",
"e  c #38363C",
"r  c #531700",
"t  c #4C2404",
"y  c #542404",
"u  c #5B2C0D",
"i  c #4E2313",
"p  c #5E3612",
"a  c #692604",
"s  c #752900",
"d  c #613208",
"f  c #7C3509",
"g  c #4A3F3D",
"h  c #492E37",
"j  c #7C4413",
"k  c #4E483C",
"l  c #52483F",
"z  c #794E2B",
"x  c #091745",
"c  c #141943",
"v  c #151B4A",
"b  c #121A54",
"n  c #1C2646",
"m  c #1F304C",
"M  c #192A5A",
"N  c #242544",
"B  c #242B43",
"V  c #282A4A",
"C  c #2A374B",
"Z  c #353847",
"A  c #242B5B",
"S  c #28335A",
"D  c #343D54",
"F  c #32395B",
"G  c #171966",
"H  c #1E3666",
"J  c #232C63",
"K  c #252A69",
"L  c #2A3367",
"P  c #273669",
"I  c #353A65",
"U  c #262F72",
"Y  c #243971",
"T  c #2D3A74",
"R  c #333976",
"E  c #483847",
"W  c #394456",
"Q  c #394144",
"!  c #384766",
"~  c #484A4C",
"^  c #544B45",
"/  c #564E4B",
"(  c #525343",
")  c #484759",
"_  c #58525B",
"`  c #564558",
"'  c #79684E",
"]  c #484968",
"[  c #484C7B",
"{  c #4F557B",
"}  c #585369",
"|  c #626C78",
" . c #863F0D",
".. c #813D10",
"X. c #8E4918",
"o. c #AA5916",
"O. c #9C5B31",
"+. c #A15C29",
"@. c #896438",
"#. c #B76429",
"$. c #D27B33",
"%. c #91655A",
"&. c #BD7D4D",
"*. c #B68040",
"=. c #B68852",
"-. c #80807E",
";. c #B38C63",
":. c #CE834C",
">. c #D18346",
",. c #DE9956",
"<. c #E4914A",
"1. c #FEA255",
"2. c #E9A35E",
"3. c #3E4886",
"4. c #495488",
"5. c #585B87",
"6. c #4F5892",
"7. c #535B96",
"8. c #474B8E",
"9. c #605C8E",
"0. c #596186",
"q. c #5F6D9C",
"w. c #656586",
"e. c #786D8F",
"r. c #666897",
"t. c #69779D",
"y. c #747894",
"u. c #5152A2",
"i. c #5E69AB",
"p. c #6669AA",
"a. c #6D7BA3",
"s. c #6C79A9",
"d. c #7F7FA1",
"f. c #6877B9",
"g. c #667AC8",
"h. c #857599",
"j. c #7F8386",
"k. c #7B8596",
"l. c #7B87B5",
"z. c #6D85C7",
"x. c #7B85C7",
"c. c #848395",
"v. c #AE9F98",
"b. c #8B8DBB",
"n. c #8D99BF",
"m. c #979BB9",
"M. c #9AA1BE",
"N. c #A5A9A1",
"B. c #BFAEA4",
"V. c #A1A3BC",
"C. c #838ECE",
"Z. c #9B9FC6",
"A. c #959EC8",
"S. c #868DD6",
"D. c #8999D8",
"F. c #99A3C9",
"G. c #9AA6D8",
"H. c #A6ADC0",
"J. c #ACA7D0",
"K. c #8E91E2",
"L. c #8F9FF6",
"P. c #9199EC",
"I. c #9BACEB",
"U. c #93A9FE",
"Y. c #A0B0E4",
"T. c #AFBFF1",
"R. c #ABBCFF",
"E. c #A4B2FB",
"W. c #A3AAF2",
"Q. c #C3BFD6",
"!. c #B9C3D5",
"~. c #B4C2EE",
"^. c #B2C2FF",
"/. c #BACBFF",
"(. c #C0C8D3",
"). c #FFE6CD",
"_. c #FFEED4",
"`. c #FFEBDE",
"'. c #FFF1D2",
"]. c #C0CAEE",
"[. c #C0C2F5",
"{. c #D4DCE9",
"}. c #E0DDFF",
"|. c #D8E5FF",
" X c #DEE8F8",
".X c #FFECE3",
"XX c #FFEBEA",
"oX c #FFF3E7",
"OX c #E4E9FD",
"+X c #E4EDF6",
"@X c #EEF6FF",
"#X c #F5FDFF",
"$X c #FCFEFE",
"%X c #FAF8F5",
"&X c None",
/* pixels */
"&X&X&X&X&X&X&X&X&X&X&X&X&X&X&X&X  o     &X&X&X&X&X&X&X&X",
"&X&X&X&X&X&X&X&X&X&X&X&X&X&X&XX (.+Xj.  &X&X&X&X&X&X&X&X",
"&X&X&X&X&X&X&X&X&X&X&X&X&X&X&X$ OX]   &X&X&X&X&X&X&X&X&X",
"&X&X&X&X&X&X&X&X&X&X&X&X&X&X* c.OXH.Q   &X&X&X&X&X&X&X&X",
"&X&X&X&X&X&X&X&X&X&X&X&X&X$ X X X X X * X &X&X&X&X&X&X&X",
"&X&X&X&X&X&X&X&X&X&X&XX # w Z X (.y.: 0.t.& & &X&X&X&X&X",
"&X&X&X&X&X% # X &X%X$X$ N V W    X0.b S.x.x.r.* &X&X&X&X",
"&X&X&X&X& m.M.m.      , V S & !.OX, f.P.E./.E.l.X &X&X&X",
"&X&X&X  Z.b.J.Q.  N.X 7 ] S : !.{.k.3 C.R./.R.I.& &X&X&X",
"&X&X&X# A.9.h.$ N.~ X V D : ~.|.+X| : 6.4.I.R.D.a.# &X&X",
"&X&X# m.5.e.O ; %X~ $ Z # 0 T.|.k.W : b x Y f.f.4.: &X&X",
"&X&X& Z.E @ %.i .X) & N < C Y.G.W & 5.J l.3 H 4.R [ & &X",
"&X&X& m./ + O.d `._ $ N W m Y.s.C * 4.R ].& #XI 7.x.{ & ",
"&X&X: V.. @.:.a _.g # 1 C ! M H < F 8.R #X& F r.S.W.0.& ",
"&X# Z.e.. =.<.#.y B.~ X B m T 3.7.8.u.8.[.2 I 8.K.i.! % ",
"&X# A.y.+ *.1.$.u .X/   < V A J R U G U r.r.5.r.p.L # &X",
"# F.~.w.+ +.$.>.u .X^ .   1 6 c J Y K v }.6 5 5 N # &X&X",
": n.T.| + ..o.>.t oX^   X $ : > x n F [ 5 6 & $ X X X &X",
": F.^.] O j s f p _.k   c T Y Y > : & w ] ] # C W #XX &X",
"& A.D.{ O &.+.X.d '.( % M z.g.g.i.M 6 # X X Z #X1 X &X&X",
"&X# F.4.. ;.2.o.X.).k X n z.U.U.U.g.I $Xo -.o     &X&X&X",
"&XX F.F._ + ,.$. ._.k X x H g.g.g.R 4 X = e   &X&X&X&X&X",
"&X&X& y.] + =.<.#.r oXW % 9 I L h.|.1 $X1 $ I & &X&X&X&X",
"&X&X&X& h.` - X.+.y `._ X # : c 4 6 o X e $ { b.# &X&X&X",
"&X&X&X#X# } h + z t v.Z & c v > : &   q $ 7 N n X &X&X&X",
"&X&X&X&X#X# E E O ' k # 6 4.4.s.G.C   o X X X X &X&X&X&X",
"&X&X&X&X&X@XX   .   o , S P T Y U 2 &X&X&X&X&X&X&X&X&X&X",
"&X&X&X&X&X&X$X$X%X$X  8 4 3 t.S a.Z.* &X&X&X&X&X&X&X&X&X",
"&X&X&X&X&X&X&X&X&X&X$X  % & X X # X   &X&X&X&X&X&X&X&X&X"
};
