/* XPM */
static char *result[] = {
/* columns rows colors chars-per-pixel */
"29 29 214 2 ",
"   c #010104",
".  c #0C0000",
"X  c #01010B",
"o  c #130001",
"O  c #1A0101",
"+  c #010113",
"@  c #030912",
"#  c #00011B",
"$  c #00091C",
"%  c #0C0214",
"&  c #171718",
"*  c #140E18",
"=  c #311A0A",
"-  c #32261A",
";  c #000124",
":  c #00012A",
">  c #060A29",
",  c #0F132E",
"<  c #1B1728",
"1  c #050D38",
"2  c #09173D",
"3  c #151C3C",
"4  c #161839",
"5  c #140620",
"6  c #211C22",
"7  c #1E243C",
"8  c #2A2A3E",
"9  c #2C333E",
"0  c #3D373B",
"q  c #5D1E00",
"w  c #431A00",
"e  c #492000",
"r  c #592907",
"t  c #5C360A",
"y  c #532715",
"u  c #483314",
"i  c #622000",
"p  c #7D2C00",
"a  c #7C3B05",
"s  c #663716",
"d  c #423636",
"f  c #734719",
"g  c #4B4B3B",
"h  c #544A3E",
"j  c #7D4520",
"k  c #0A1B45",
"l  c #131746",
"z  c #0E1E51",
"x  c #1C2A55",
"c  c #162A53",
"v  c #292848",
"b  c #23324F",
"n  c #333245",
"m  c #393B48",
"M  c #2A3253",
"N  c #293559",
"B  c #353857",
"V  c #222F59",
"C  c #1C2869",
"Z  c #1D2E6D",
"A  c #282B66",
"S  c #253263",
"D  c #2C3563",
"F  c #2D3964",
"G  c #24346C",
"H  c #2B396B",
"J  c #323B62",
"K  c #343667",
"L  c #263775",
"P  c #313C71",
"I  c #403B42",
"U  c #374354",
"Y  c #2D446D",
"T  c #3C436C",
"R  c #394675",
"E  c #474959",
"W  c #544C5B",
"Q  c #5A534E",
"!  c #60494F",
"~  c #614C51",
"^  c #756156",
"/  c #49476E",
"(  c #49577B",
")  c #595B78",
"_  c #545373",
"`  c #685A73",
"'  c #586470",
"]  c #6D6865",
"[  c #746567",
"{  c #6D657B",
"}  c #706B7F",
"|  c #8A2D00",
" . c #812900",
".. c #853200",
"X. c #953900",
"o. c #874304",
"O. c #944B17",
"+. c #B86C18",
"@. c #805020",
"#. c #905825",
"$. c #AF5C2A",
"%. c #9C632E",
"&. c #B66F21",
"*. c #BF752E",
"=. c #AF6D31",
"-. c #D37619",
";. c #CC741D",
":. c #C56929",
">. c #CC7324",
",. c #D0792A",
"<. c #D47735",
"1. c #CB7C3A",
"2. c #81674C",
"3. c #A96F41",
"4. c #B77A44",
"5. c #A0796A",
"6. c #D6873B",
"7. c #CC8239",
"8. c #F28E2E",
"9. c #BA8E5D",
"0. c #A88675",
"q. c #A49077",
"w. c #F78F45",
"e. c #EB9645",
"r. c #F89547",
"t. c #F28E50",
"y. c #FF9755",
"u. c #F4A44F",
"i. c #D39C70",
"p. c #D8A56C",
"a. c #3D5186",
"s. c #454986",
"d. c #495886",
"f. c #4F5893",
"g. c #45559A",
"h. c #55578D",
"j. c #596499",
"k. c #66668C",
"l. c #67769B",
"z. c #7E7F94",
"x. c #6E6C90",
"c. c #4B5AA3",
"v. c #535EA0",
"b. c #5767A8",
"n. c #5469B5",
"m. c #6C76A8",
"M. c #6776B6",
"N. c #7178B6",
"B. c #656CA0",
"V. c #817492",
"C. c #7A8696",
"Z. c #7485A9",
"A. c #7683BA",
"S. c #6F86BA",
"D. c #7789D2",
"F. c #7D9AE8",
"G. c #9F908D",
"H. c #8A8898",
"J. c #848580",
"K. c #A98B81",
"L. c #AEA19F",
"P. c #8A96B9",
"I. c #97A1BB",
"U. c #A5ACBC",
"Y. c #D1A483",
"T. c #FCD7BA",
"R. c #878FCE",
"E. c #969CCA",
"W. c #8394D7",
"Q. c #9598D4",
"!. c #8C9FC7",
"~. c #94A4C2",
"^. c #97A6CA",
"/. c #92A5DB",
"(. c #93A6D4",
"). c #A4A6C6",
"_. c #A7BADB",
"`. c #B4B9D7",
"'. c #8B9AE5",
"]. c #8A9BE5",
"[. c #969FE8",
"{. c #9CAAF3",
"}. c #9AAEFF",
"|. c #9FB4FF",
" X c #AFBFF3",
".X c #A7B6F3",
"XX c #B4BCFD",
"oX c #B1BFE5",
"OX c #B7C1D8",
"+X c #BCC0C3",
"@X c #AFC0F6",
"#X c #B2C2FD",
"$X c #BAC5FA",
"%X c #B1C0E7",
"&X c #C1C5D4",
"*X c #F0DDCF",
"=X c #FFEDD5",
"-X c #FFF5DA",
";X c #FFF5D7",
":X c #EFE5D9",
">X c #DEDFE3",
",X c #D1DEF1",
"<X c #C6C4EB",
"1X c #EBDEE3",
"2X c #DCEBFE",
"3X c #EFEDE0",
"4X c #E3EBFD",
"5X c #EBEBF9",
"6X c #ECF2FF",
"7X c #F5FCFF",
"8X c #FDFDFE",
"9X c #FBF8F8",
"0X c #FFE8E7",
"qX c None",
/* pixels */
"qXqXqXqXqXqXqXqXqXqXqXqXqXqXqXqXX       qXqXqXqXqXqXqXqXqX",
"qXqXqXqXqXqXqXqXqXqXqXqXqXqXqXX +X5Xq.  qXqXqXqXqXqXqXqXqX",
"qXqXqXqXqXqXqXqXqXqXqXqXqXqX+ + 4XE   qXqXqXqXqXqXqXqXqXqX",
"qXqXqXqXqXqXqXqXqXqXqXqXqXqXX H.6XU.m X qXqXqXqXqXqXqXqXqX",
"qXqXqXqXqXqXqXqXqXqXqXqXqXqX  X + @ X + # @ qXqXqXqXqXqXqX",
"qXqX7XX + + qXqXqXqX  . @ X 9 9 @ `.C.# j.B.@   qXqXqXqXqX",
"qXqX+ I.E.E.# 8X8X  OXI.X v 7 U # 6X{ 1 W.D.D.j.+ qXqXqXqX",
"qX8X# %X#XXXE.#   +XX # > b B : OX2X> m.]..XXX.XP.+ qXqXqX",
"qXX !././.XXXXx.&X  >X{ 3 T K : OX,XC.2 W.}.$X$X[.: qXqXqX",
"qXX E.S.d.Z.`.E X >X]   n K : oX2X2X' $ a.c.{.XX'.N.+ qXqX",
"9X  ~.Y /.oXH.. - :X]   n # k oX2XC.U $ k k S M.{.v.: 7XqX",
"9XX ^.Y H I o ^ u -X[ % 8 , x _.^.U # ( b C.3 N g.L f.# qX",
"8X+ (.N.B o r 9.t =X[ % v T V ^.z.N : h.N <XX 7XL n.A.s.X ",
"+ ~.@XA.` O %.a r T.! % < M T V M 1 L f.K 8XX E b.D.{.B.+ ",
"# ^..Xk.O r 7.6.o.Y.0XW # 3 c H P v.c.g.s.<X5 n g.F.n.P + ",
"; !.@Xk.o #. .e.1.q 5.1XW # 3 V A L C C A m.{ x.b.b.Z : qX",
"$ I. X_ O =.o.>.w.:.i 5.L.W X 3 2 x Y x l 5X< 6 v v + qXqX",
"+ I.XX/ O p.&.X.w.y.$.s q.:XQ @ > 2 k T / : < 5 6 X qXqXqX",
"$ ^.Q.h.O p.+.| w.t.:.$.t ;Xg   U : ; > , n < 6 X qXqXqXqX",
"7X# Q._ o i.u.-.| <.6.O.f -Xg X b R H : : # + + X qXqXqXqX",
"8XX I.z.O j e.-.X. ...a s *Xh   Y j.M.j.v.n.N.j.6X+ qXqXqX",
"qX8X+ } ~ O 4.*. .>.>.=.y 0.Q   N G b.].[.].[.R.; + qXqXqX",
"qX7XX ' x.I . e =.r.8.>.O.y G.E ; D S G Z L Z H 7X  qXqXqX",
"qXqX9X  U U n o 3.6.;.1.a y L.E # : k k k k z l X qXqXqXqX",
"qXqXqX8X.   m 0 O t @.j w 0.[ E + l ; ; : : : ; 7XqXqXqXqX",
"qXqXqXqX8X8XX   . . . O = ^ d X < M B ( d././.m.X qXqXqXqX",
"qXqXqXqXqXqX8X8X  & & & . . . . + 4 P H N.M.M.s.M X qXqXqX",
"qXqXqXqXqXqXqXqX7X  @ X   8X9X8X7X# 4 2 A k S ^.).+ 7XqXqX",
"qXqXqXqXqXqXqXqXqX7X7X8X8XqXqXqXqX9X% X + + X X X 8XqXqXqX"
};
