/* XPM */
static char *result[] = {
/* columns rows colors chars-per-pixel */
"26 30 214 2 ",
"   c #010203",
".  c #0B0001",
"X  c #00020C",
"o  c #060709",
"O  c #140000",
"+  c #150106",
"@  c #000214",
"#  c #000813",
"$  c #00021B",
"%  c #00081D",
"&  c #3C1604",
"*  c #000123",
"=  c #00032A",
"-  c #000A2B",
";  c #000431",
":  c #00093D",
">  c #171C34",
",  c #232839",
"<  c #4A1C04",
"1  c #4B2206",
"2  c #542804",
"3  c #4E2B10",
"4  c #5B3213",
"5  c #593207",
"6  c #742E00",
"7  c #7C2E00",
"8  c #683402",
"9  c #773506",
"0  c #633211",
"q  c #5B4B3C",
"w  c #58473A",
"e  c #6F4B2A",
"r  c #0C1842",
"t  c #0B195D",
"y  c #121D5B",
"u  c #1F2E4C",
"i  c #1E2A55",
"p  c #0D2257",
"a  c #222F4C",
"s  c #262B44",
"d  c #2D394D",
"f  c #2B3249",
"g  c #37374D",
"h  c #262E57",
"j  c #2B335A",
"k  c #2A3659",
"l  c #32355C",
"z  c #323856",
"x  c #101C68",
"c  c #0A1D62",
"v  c #262E69",
"b  c #2D3564",
"n  c #2D3A65",
"m  c #26366B",
"M  c #26376A",
"N  c #323E6A",
"B  c #2C3875",
"V  c #3F4873",
"C  c #564D44",
"Z  c #505151",
"A  c #615640",
"S  c #745C58",
"D  c #796950",
"F  c #4D516E",
"G  c #404B77",
"H  c #49557C",
"J  c #495576",
"K  c #585C77",
"L  c #464E65",
"P  c #756160",
"I  c #656378",
"U  c #747474",
"Y  c #872800",
"T  c #8F3200",
"R  c #944F04",
"E  c #97571B",
"W  c #904A0F",
"Q  c #AC520E",
"!  c #A8561A",
"~  c #B45417",
"^  c #BB5B0E",
"/  c #BA611F",
"(  c #9F5F21",
")  c #834B2D",
"_  c #A15F2B",
"`  c #BD5D20",
"'  c #AD642F",
"]  c #B7672C",
"[  c #CD712F",
"{  c #E17E3B",
"}  c #E9782A",
"|  c #9F6B44",
" . c #AB744E",
".. c #927E73",
"X. c #91776A",
"o. c #DE822D",
"O. c #DE8337",
"+. c #F08D38",
"@. c #E08A35",
"#. c #9B8B7C",
"$. c #A4896E",
"%. c #DF924E",
"&. c #CD8744",
"*. c #E98744",
"=. c #FC964B",
"-. c #EF9354",
";. c #F09954",
":. c #F6A259",
">. c #3F4E9F",
",. c #3E51A0",
"<. c #3C4CA4",
"1. c #444F8D",
"2. c #4C5686",
"3. c #555B8A",
"4. c #474F96",
"5. c #415596",
"6. c #4B5591",
"7. c #44549A",
"8. c #4A5899",
"9. c #545D99",
"0. c #586487",
"q. c #59699E",
"w. c #4B6095",
"e. c #607185",
"r. c #63729A",
"t. c #6F748D",
"y. c #4C5BA3",
"u. c #4956A4",
"i. c #515CAB",
"p. c #5C65A8",
"a. c #5B6DBC",
"s. c #5A6AB5",
"d. c #697AAC",
"f. c #6772B0",
"g. c #6069AA",
"h. c #5D6BC2",
"j. c #596AC9",
"k. c #5D71CA",
"l. c #616DC3",
"z. c #6673C5",
"x. c #6776D3",
"c. c #6B83AF",
"v. c #7B87A9",
"b. c #7989B4",
"n. c #768BB0",
"m. c #7E94CF",
"M. c #7A92C3",
"N. c #7E8EE5",
"B. c #878B8C",
"V. c #8394AD",
"C. c #8A92A9",
"Z. c #8895BA",
"A. c #949AB9",
"S. c #8086BA",
"D. c #ADB1B4",
"F. c #B6B7B9",
"G. c #C3B8B6",
"H. c #878DC6",
"J. c #8597C8",
"K. c #949AC8",
"L. c #848DD6",
"P. c #8A9AD7",
"I. c #929FD2",
"U. c #9198D9",
"Y. c #94A4C8",
"T. c #93A6D9",
"R. c #94A8D8",
"E. c #9CB4D9",
"W. c #8CA1D6",
"Q. c #A6AFCC",
"!. c #B5AEC0",
"~. c #A8AED6",
"^. c #A8B3D8",
"/. c #BABBCD",
"(. c #848FEB",
"). c #8497E9",
"_. c #8599F4",
"`. c #8A95F5",
"'. c #9BA7EA",
"]. c #9CB2E1",
"[. c #9FBDF3",
"{. c #97AAFF",
"}. c #A8B6EC",
"|. c #B6BEE4",
" X c #A2B1FF",
".X c #A6AEF7",
"XX c #B9C3CF",
"oX c #B9C3DE",
"OX c #AFC2EA",
"+X c #B4C3ED",
"@X c #B7CAED",
"#X c #B7C6E6",
"$X c #ADC7FB",
"%X c #ABC8F3",
"&X c #B3C3F2",
"*X c #B5C9FE",
"=X c #B6C9FA",
"-X c #D7D8D8",
";X c #CACACC",
":X c #FBF2D1",
">X c #C2C5E6",
",X c #C9D4ED",
"<X c #D6D9EC",
"1X c #CCD5F9",
"2X c #D1D8F4",
"3X c #DAE4FF",
"4X c #FFFFED",
"5X c #EFF7FF",
"6X c #FDFEF3",
"7X c #F1F4FF",
"8X c #F4FEFE",
"9X c #FBFEFD",
"0X c #F6FFF6",
"qX c None",
/* pixels */
"qXqXqX    6X6XqXqXqXqXqXqXqXqXqXqXqXqXqXqXqXqXqXqXqX",
"qXqX  -XD..   9XqXqXqXqXqXqXqXqXqXqXqXqXqXo   qXqXqX",
"qXqXX t.7Xe.L   8XqXqXqXqXqXqXqXqXqXqX  X F.-X  qXqX",
"qXqX7X$ |.,X8X/.X 9XqXqXqXqXqXqXqX% @ K C.7XB.  qXqX",
"qXqX% 2XQ.8X8X,XC.@ 0X6X8XqXqX9X% Z.r.3X8XoXX qXqXqX",
"qX8XX ,X^.8X8X1XZ.- # @ @ # @ * > J.=X5X7X>X<X  qXqX",
"qXqXX L }..X'.L.y 6.f.J.P.W.U.f.w.p L.'.}.^.F @ qXqX",
"qXqX8X# H.L.i.x u.l.(.`.=X*XN.).s.5.c 7.U.S.* qXqXqX",
"qXqXqX  0.p.y y.l.(.`. X$X*X{._.).a.u.t p.3.@ qXqXqX",
"qXqXqX8X@ ; 6.a.h.x.j.N.P.)._.k.j.j.a.8.: = qXqXqXqX",
"qXqXqXqX8X$ w.a.l.<.u.8.5.,.7.,.7.l.z.1.= qXqXqXqXqX",
"qXqX  X   $ 6.y.7.9.M M M m m B i.u.4.2.$ qXqXqXqXqX",
"qXo <Xd $ J G 2.M b i h i u a i v v 6.2.F # qXqXqXqX",
"9X  , 3.* = = * u a h a d s s f f j l l F $ X qXqXqX",
"0X  * = J.V.Z.V.X # > > > ,       X s f b * >X@ X qX",
"8X# |.~.^.+X&X@XV.X X @ . X 9X9X6X6XX s * 3.K.l 7X@ ",
"$ >XC.3.V }.$X$X%Xn.o 0X8X9Xw C q #.6XX = 6.4.U.K.= ",
"@ oXV.@XK.m m.[.%XE.# Z C w 3 0 0 4 D 6X@ h 4.p.9.= ",
"# e.Y.Y.W.m T.M.%X&XZ.. 1 6 ! Q Q ( < $.4X@ b B G * ",
"X d k N N c.W.M.%XOXA.. ) / =.} } [ _ e :X. > r * qX",
"X # * k q.W.}.R.*X|.I O 9 ~ O.*.~ 7 6 1 A 8X# @ qXqX",
"X , # e.R.R.m.=X+XI O  ._ Y [ ~ Y [ &.2 q 8X. qXqXqX",
"% f # k n S.}.W.~.+ | %.=.^ 7 7 ` -.E 8 w F.  qXqXqX",
"X @ oX#XY.n R.c.Q..  .:.+.o.&.6 [ *.( 5 w ;X  qXqXqX",
"9X@ +Xb.H n R.d.R.X 1 ' O.@.R 7 [ ;.9 e G.@ d @ qXqX",
"9XX Y.&Xv.Z.E.J.c.A.+ ) W W E 8 [ ' 4 C !.= G * qXqX",
"qX9X@ t.|.r.d.^.J.r.0.. & < & 3 < 1 C /.= 9.9.- qXqX",
"qXqX9X% % 0.v.2.n.2.0.g . S P S X...U # H.g.d.h @ qX",
"qXqXqXqXqX% @ $ * $ @ X + . . . . . # d k b l g   qX",
"qXqXqXqXqXqXqXqXqXqXqXqXqXqXqXqXqXqXqX@ * = $ X qXqX"
};
