/* XPM */
static char *result[] = {
/* columns rows colors chars-per-pixel */
"102 96 78 1 ",
"  c #053705",
". c #063509",
"X c #0A370A",
"o c #073A0A",
"O c #0C3D0C",
"+ c #103F0E",
"@ c #0D3613",
"# c #0E3D11",
"$ c #133E14",
"% c #133E18",
"& c #074007",
"* c #084004",
"= c #07410B",
"- c #0C440D",
"; c #044B0B",
": c #0D4B0D",
"> c #12460E",
", c #114B0E",
"< c #0E550E",
"1 c #0B590D",
"2 c #13520E",
"3 c #0E4312",
"4 c #0E4A11",
"5 c #124514",
"6 c #184515",
"7 c #144B15",
"8 c #194C16",
"9 c #164519",
"0 c #1A451B",
"q c #164B1A",
"w c #1B4C1C",
"e c #0F5312",
"r c #145214",
"t c #195416",
"y c #155A15",
"u c #1A5A15",
"i c #155219",
"p c #1B531C",
"a c #175A19",
"s c #1B5B1C",
"d c #214816",
"f c #22471C",
"g c #224E1C",
"h c #21531D",
"j c #225B1E",
"k c #1C611B",
"l c #24661F",
"z c #21691E",
"x c #1B4520",
"c c #1D4C21",
"v c #1E5321",
"b c #1E5A21",
"n c #204720",
"m c #214D23",
"M c #284E22",
"N c #234E28",
"B c #2A4F2A",
"V c #235424",
"C c #295524",
"Z c #235B23",
"A c #2B5926",
"S c #255429",
"D c #2A552A",
"F c #265B29",
"G c #2A5C2C",
"H c #30552D",
"J c #305C2A",
"K c #2E5D31",
"L c #335B34",
"P c #1E6120",
"I c #236223",
"U c #296227",
"Y c #276129",
"T c #2B622C",
"R c #31632D",
"E c #2D6431",
"W c #316634",
"Q c #357237",
/* pixels */
"VSb995333i7iippw9ccvwpwp$$+aykpvw449qc9vvv8qq545;--:::>66r8qq9wVVmw9q990qwqpcixqxeeeaiiq93qqqiisqpq7i7",
"Zbb95q433iiiiiixcqvpvppp$O>aaapwp994000vvVq8q594-;;:::7678q8wwcmCmwqq990qqqwii9q9eeiiii339qqqppipiii77",
"VbV955333iiiiwpwcccvcpppO$$uaavwv3750w0bvvq7t535-;&:::6q77qqwq9VVVqqq999qwqpqcqxxeeiiii3999xqvppiip7qe",
"TTYvvvvab;::4:4957:4,wcwhhhppvcvcpvcwqw977ZbZrii   yyyhwh>>3mmmxfxmNm96%-:-qqq343iaiicv333cccYYTqqiqqq",
"TTTvvvbas::44::9qq;4;cccjhhsVvvpwvVgqqqqq5bbbirr.o.yy2ppw53Oghcwncnmm%%%3;;qqq44qaviiiv333cxcTTTtqqqiq",
"TTYvvvppp::::447q4434ciihshvVpcvvghhwii577bZbyir...yyyppp-35cmmf0mmNm69%-33qqq444aiaviv333cccTTYiqi5iq",
"pvvieiSSSwwqyyeiiicccSbSVVVwwhiri66%ccmpppr27335sssTFG-338f8CNVmmc%00x%x33-$39bZbcqqeievSviqqPPP-3-535",
"vvvreiScSiiqiiyeeiiivbSFVSBVVc7r7$%9vccaii2rr555slsGTG335f0fSCVcnn000%x%--3593VZbiqqe4evvvqwqbPP>-5553",
"vvv77iVSSqqiyiyyeevvivbvVVSvvvqri66$mmcipirrr555ssbGGG3330ffmCCccc99900x-53555ZZSiiq222vVVqwikPP---635",
"qiq444VZb999wiwpvvGKKEEEcccZVb==&qq768q>-5->>iitVVVvvv335$$dBBBccqxxxcgw0w8w8hqtiaai2<2---IIIassXoXSCC",
"iqi:44ZbV999pcwaviGKKEEEcccbVZ===i7786q--5>->qiiCmmvvc#3#%%$BBBwwcxcxgcVwwwgww8qiaaa2<233:PIIkssoXoZZZ",
"qiq445ZZZ999iiwvviEKGEEEvccSbS===7q7q083---5>piimVvvvv333$$$BBBccixxcwgwwf8hwpiiiaaa2<2---lIPksaoX SZC",
";&;FFFTETiiiwwi74i473FSSKKKwvicvpccm77q3$#SSSZZjmVcccwrergVmNBNvcvxxwtp8VVVippyti;&-rreFZFwpiVVjwpwCVB",
"&-:FFFTRTiiwivv74i534SFFKKKvwpvwvcvc7q5$##SSSZZsmmmwww7r7VmVNSScvccqww8wVsVpppiyb=;-y<ibFVipiZZhwwwBBN",
"&:&FFFTETiiivci444335FSSKKKicwccwcccqq9#$#SSSZjZcmcccceeeVmmNBNvcvwqxw8ihVvpistye=;&eiyFVFiiihZZw88CVV",
"yyyyaasss7ee4e7q9qccccccNNc99xNxccccqqqvvvvwcggghVhFFSPksvSvVVV556mmmSSSiwi2,:--;bbbvccccwZbZGZTWWWjbb",
"yyyyyaspsi4eqiq4qqcxcqccNNN990ncxcwcqqqcvpvwpgggggVSDFkkkvvvvSS339cmcSVSqwp,,<--;sbbvNcccpZsZZFUWWWjjj",
"yyyyaysspriri7qq49cccccxNNN990cncccccxqvpcppgghgVhgFFFkkkvvcvSS999cmmVVSpip,,,&--bbbNcccwwZjZTIFWWWjjj",
"11<tiiSSS==3FFFvvvqqqqic96%%%@mpvqiqeqi999q99sphsssZIFspbvvvvSbcvN3333--777+##qiqwqqvvpppv---,5:RRRiww",
"<<<riiSZS3==FFFccvqxcqcq996%%%hhhqqwiii599999pppssjIIIpsivvcFbScvc333-5-775$##iqqiiqvvvipp&--5>,TWRi08",
"<<<tiiZSS=3=FFGvvvqcqcqw999%%%hhhqqiciq559999isphssZIIspvvvcvbvvvv3%3333767#$#7iiwiwbvcvpv---,45WTRq8q",
"pwwddd&&;474ibvPbb544FSFwww%%%pwpppp333cwcFFFbsvsuur471reFbbcqcccccxx354qqw$$%iviVbbbPbSSv747777hVhVVV",
"wgwddd-&=44qbabbPYq3qSFS0wf%%%ipwspv393cqxbSFppsius774yyybbbqicvvcxxx535wwq%$%qwiVVvbbbSSv777777jshhhV",
"88wddd;&;q44avvPYP3q3DGSww0%%%pppppp333qccFFFvvsssi7e72<ebbbqiqcccnxx553qww$%%iicbVVbbbNNS7rr775VhVsCh",
"mgm6+6   lllabkPbPWWWGGFvwvqqqpwcVbSxqqviwiiiiwhjsjqtwp8v57,Zvvqqqqqq65q5->777434ipw557qqxpcp3O37iiGFK",
"mmg$6$   lllbaaPPYWWWGGFvvpqqqwvpSvSqxqiwpiiiphpbIsqqi8hi7,,sVZ7qqq9q695$$6q75444wpq574wqcvpp#33iiiGGF",
"mmg$66   IlkabsPPPWWWGFGcppqqqvpcbSvqqcqipieihwpsZjtiqh8p>7,ssvqqqq9997q5O5777333pwp775wq9hpv#3#iwiFKF",
"88g888sjjEEEsbbYETYEY47q555mmVqqq43qSSbiqvbisqqq555wpgttt:::687777%35596wqq667FZbeeevvv999cccvvv4;4EEY",
"wfw8t8hjsTWEbbbYYYYTY474555mVmqqq455bvVwqivvvqqq,>5wwwttt:::768,775$5956w8w666ZZV<e2vvS999mcccvv;34YEE",
"8ww88tsZjWEEbbbYYYTTE44c355mVVq77775vSbpivvvbqiq55>pw8ttt*:;768,875$#5q6tww555ZFZr<<vvv999cccvvs;43EYE",
"FFZYUIJJGZIP;;;FbSbbbPGbSZF999557tupaipibiviviciwwqhhh666uuu,:,,--mmmw0m868hjVsuaIIIe7qiiivps547VFbqcq",
"ZZbYUUJJJZZZ;;;bFbbbbbbGZZZ999,,,tittiipiiiiviicw8qpth$>6uuu,,,->>VVmffn888ZCZuuaIkl74eiiipVs:::bZbcqc",
"ZZZUYYGGKFFb;;;bSbbbbFZFFZZ6994,4tttittitipipvwvqqwpuh666tuu,,,-5-mVgffm6q8CCjuuulll,2>tiihhs5,7ZZbwww",
"itiqiqciivbSeeebbb444FGFvvv877677jlZ77777r4439$9qqq66688wGAGt7qq80ChVw0wq08jjAd>duuu>,>tti+OOkkkO--747",
"tttiiivivvbveeePbZ434FFFvvv787656Zls77777734399988q66>8d8TGG7q8q08hCVf80009jjj66>uuu:,,ttqOOOlusO--5qe",
"tttqpiivcbvb1eebbb434FGGvbh778767jjl7577i73>396987q666w8gAAT8qq886Chh00wq8fjjj66duuu->,tttO+-skl-+-4q4",
"sbs33#573YYYYPY111111Pba57<535sspVbVri7it7778fff$$6666HBH0nw-O-$$+77qwqq>>>OOojjZRRR7749$088wllz55377q",
"bss393734KYKPPPe<<111skb<::355ppsbVVq7qiit7r7fff$$$667HBHmwm&-&$$+7q7i8i>55OOOZjjRWW7r796680wllz5$5qi7",
"sbb333733KYEPPP1<1111bbse:2555spsVVZ7q7iir7r7fff6$$686HHBfwc&--$$56q78qq>5-oOOZCZRRR77r9%0qq8lIz5557qq",
"3;:FSF574bbvicibasccwiiivvvwwwVNVvvZqwq777777tiphCCAAH909mgm53>575777qq59qqhvpVmVVSVi77960hVh77qOOO693",
"---FGD555bbbwiviavvcciiqvvvqqvVVmhVpwww7757,7iiiCCSDDD000mmm>3,5757q5qqq9qqVhpVmmVVV77i990ghh777O#O665",
"-;-FSF755bbbciivvaccceiivvvvqwSSSVsVwc0q7q777ispVCCADD099mgg3>5556q75q5qqq6pvVmVVCVCq77969wVv7q5-OO665",
"atarr7bvvPFIvavYGYvvvFbFvvvbbFi4eGGGbvbpit:54555VhCqqqcmmpqw8q7pcpsvb757AFGtqwwVcDDKvsvNNnmcm69q55596q",
"iutrrrbvvYPIvvvGGKvvvbFbvbvPbPeiiGGFvbbipt5:5555CZC8qwmcfqp888qpwwVVv7q7AAAwqtpVvKHDsvsncmcvmqq955567q",
"uttirrsvpIYIibvKEKvvvbFFvvvbFb7e7GFGbvvitt454595hZhqqqcmgwwwqqqggwZps77>GAAqqphwvDDKsvsnnNccNq99555666",
"zzzPsk>>>*&&WEEaii333bbbe44iii4e4vvc344ii7wwwVvmqqq779nnmhhh088$%%:::,,:t88,--q8qccvgff099SGSvss453bjs",
"zzzksP5--&&&WWWaia3;3bbb77eiii444vvv493q7rwvwVvvqqq654nnnVhhf80%$$:::,,,28t>-,q7qvccwfw9%%DSDpsh5>5pbv",
"zzzkIk>>:**;WEWiav333bbFe44iii444vvv544iiiwwwvmVqqq599Nnnhhh06f%6$-:-:,,dt8--:qqqvmvfgg900GBGspp,35sbv",
",,,ZAZ:*:2<:<221<1,44IPFiiw4,7yaebvvvvSvvvivvYYF;;:qvq9x9995q95576O Ouaatrt888qqq6q7htsZAZVVVIIIirri7t",
",,>ZUj:>*::2222<<<,,4ZFbiii7r7yiavvbSFSSSviivbGF:<:qqq9909699q67>6oOouaattt8t8q6qq66uspCZSvSVZIZr7iqii",
",>,FAA>>,2:<2221<<:54bFPi7i757iaabvvSbvvvFiiibFY:<<qww900999979776&&ouuyitt7889q976qphsZZAbvVIPIrrriii",
"q6qChhXXOkkkauuuiaFFFQQQrrirriIIFivvbbbvcvaabe7eyyyhjvxqwqq97>7777UYUlIZpss566whwqq7CjCbvb79qttte2<353",
"68qVmCX+XkkkaaaasiGFZQQQrrr7irIZFvvibZbccviaa444yyysVswccq9q>7,877UYUIZIpbs569gwg7qqCjCsbvqqqrit<4235:",
"669mSmXXOzkkakauisFFFQQQ8rri7rZIPicibbbbvvaaa4r4kyybjhxwc9q98>>756UYUIIZasv955wgwqq7ZSCjbbq9qatt<<<535",
">5-wwcGRRhCVOO-gg8ZCS$+$ggfmVMUUGbFb393pvcqq9vvpihs577995cccO$55$5mNmVVpvvvvvpVpv090vVv999q7qbPbqtp77,",
">->wwwRRRhCS&OO8fwDSS$$$fwcVmVATYSbb#93cccqq9pppash6776$$cww$O+$66mmmssVvvvcvvpvv909bbvq35q7wbbZii877r",
">33wwwRJRhVVOOOwffCDS$5OfgfCMhUAYbhC535wch909pppjhh7773%5cww$$O665mmmVvvvvvVpvpsv999CVh565qqqbbbiti775",
"wvpSFDDDHgmw>->$@$Mnm77i808gggUlYvhh659wpwcwcpspwwwq99x9xVZZ6990x00wqcpcpvp:--8885,55#3qq9FFFpwpgwh#-#",
"vppFFSDDH8fm5-3$$@nmmi7708dgggIUIhhh395wwwwcwpia8pw656xxxZZZ08q0xw8qwvwpvvp-:-8ii>5,$35677GFIwpcggg#O#",
"cvvSZFDDHfcw->+@@$Nmm7r7w0dgggIZIphh939pwwxccispwwi566xx9VZV690ww0wq0wpcvpp:-:rr77,53535q7ZFGpwpggw-#O",
"VVvADDDVSnnn7rrfwfcmc4:4$O$qwwchhqq74-4cvc335555SSN695593SSVwc0mmh575---phwrrr775qq6555mmfww8q9qww0cwc",
"VvVDJDDSSnnniri0f0ccc:4:$$$wwwpvw7qq:-:wwc4533$5SBS775539bZVwwwhvg757---wphr8r,7r76q655gm00w0qqq000wxw",
"VhVFADSSCnf0iirfwfcvc:::$$#98whhh777->4cwc555555SSB97q353SSZwwwmhg777---ppwr7i,77576755mmm0wwqqq09wwww",
"rr7ZChBNmLLLsssgccwww333677qq6%%%>>>2rr:,:443699$O-wwwq87SSSxncggptai,5>CVCDKKpVpSSSVVVpppVpVNNS999999",
"24rhCCVmNLLLsssmmfwww33-7779q6%$$>>-2t2,,:>>>q96>++wii887SFScccgwhpui>55vbvKKGpmvSDSVbVvpwvvvNVNqq9999",
"rrrhhZSmNLLLsbsccmcww535q7766q%%6>>-t2r,,>4>5q9q+++www887FSSxcmwhwuus65>vvSKGGcvgSSSZVVpppsVvVSN55999%",
"rreZjZ559vmVwgg6$9FFFitq6q6pwp867Xoo222qwp77700wCAC756qqq777pvwattr8iiqwiviccc4iq565wmwmmm969559KKKqxq",
",r7jZZ553VVmfww695SZCtwt76qphh68>OXOuu2spw77qx00CAC7667qq7rrpppiru8t8cwwivvvcvq4r757mwcmmm699593YGFxqx",
"rrrjjZ455VVVwg86$$SFSttq77qwph757XXXyrypiw>7700fACA56677q777ppptut88rwwwvivvpp7q75qqcwgmcc999955GYKcqq",
"7qqrre777657shsCZZVVVZIjr7i,>,57qqt8ipp477hhhfxw777676969fwghghtshuus>54q7477q353q9qwww0xqcicbFvYFbPZZ",
"qqqyry777775jssjZCVvvZII8ii,>,7678wqisprrrphh800q697765%58wgwhhsspupu55477qr7r359qq9ww0qqxcccSSFFPZPZZ",
"qi7y<2777765ssjZZZVVVIsIrri,77777w88psp774hhh00c5q7767$95gggwhhupusaa4757q5777553q9qqww97qicqSbSIFIZjI",
"ZFIit8qqi777jjApap5962r22<e---wwwcmmGGF7qe5$5qtqit8CCjChZpwwwdprrr7r77ii55577qwcc955888pcihvsVmmkkkass",
"YZZqq8qqq5q4Ajjspiqq78r7<2<#5OwppnnmGSFre7$668q8ippjjZhCCq8hwpwrrr78iq775,577qc0q5968tdpcisshmmVkkktsp",
"FZZiitqiqq77CACiipqqq8rr1<<-O3pwwcNnGDG77r6$5qqi8ttCAjVCChwpw8wirtr777qq555r77ccc955h88wpphVvmmVkuksph",
"IFZsiiq77cccZZZ553445sPbr4eZZZSFFNccwwwq7q8wwO#3ppuIIYTTTqwwmmmppw669GGGsjj7qq555->>87869q7779%9sasjjj",
"IZIisp7q7cccZSZ333747bPP<reVVVFFFcmmwqwqqw8wq#3#tttFUUTWTwwwcvmppp9$9DGGjsjqqq955:-,868d0d577%09suaZZj",
"IAZpip77qcmmZZZ353474Pba44eZbZFSFmcNwww7t8wwwO#3thulUIEEEwiqccmhpw$69KGGjjjq0q666-,-6668687q790%sisjjj",
"sspqgwRGEiwpqwi9q5ZZbPPPpipiii556wvcspp--&53366>gCghjjjYYvvvq77ispjZZVVZIIIpis:--O+OCjC%%%q00999pVhpjs",
"psspptTRTppwpiiq5qPFbPPPvvwsii$66mwcwvw;=o333+66CMChuhIZFvvvqr7attCjjCbVIYIssi-45+++jCj6%%f8690%hhhshs",
"spshgtRJRgwtiqi77qZbFPPPviviia593cccvvv===335666gChjjuFIFvvv777uipbbbbvvIIYiaa-4-+++ChC9$%w88999phhsss",
"q769q78882r8bbvmvw554444##=ccc9qq474icv999796MgMUUUIIYGUFiwiwwwZZZbvbxcqssuere#OOppwVphwqxq88878yurtr8",
"q5qqq888822rvbswwv455e44#@ocvcq9q474vvv999999MMMUTUIUIGGYwcqcwwZZCvbvcqqths2e1O##hhwvVvxxxq888tru2urtt",
"7qq80q8q887rbvbwvv455e44o##cccqxx443vwi39608dMMMFUUUIUGTGiiqwwwZCjbvbxxqpus<ee##OwphVvvqc97q8rr72u2ttt",
"VbbKTYpsu---pmhVvvccvcfcccc3%%99x;33$3500fHHHDMC,,,>>>qqq@@@q3qvsV#33q55ZbFeiebSVVVVqqqsss=#-77722275,",
"bSbYYFsss---VmVpvhmccnccicc%%%9x943;33$0f0HHHBCC,,,>>>qqq@@@5q3vhh#3#qqqZZbyeeSvVVmVqiqshi3-O757822>,,",
"SbvEGTshu---VpVvZvccVcccccc%%%x9x3;3%33000HHHCCC,>,>>>qqq@@@555pvs333q7qbbbieevbVVmme7ipssO#-77,r22>7,",
"qwqbljpptJJJDZSGGGEEKZZbbbbbvb333ooo-3-qqw888666-* 656vvv555pipvpv957FYYbbbvcvwi8909PPP;-&..XjAjxcw67q",
"wqqIlliqpAJJAFDGFKELKZhjababvb344ooO3--qqq888666**&>5>mgv555qiqvvp5q5YIFbbsvcieww0x%PPk-&>...jCjcxx767",
"9q8IjZppwJJJFDFGKGKWEjZjbabvbv434ooo---qqq888866&*o6>$cvv555wpivvv9qqYYYbsbiqvqvq%00PPP-*-...CjAxcc676",
"CCCYFThvv00fAAA533EGGithiiiayt33>---FSSO++tiutht>>>CVmmmc#3O759c9qccV455444935vvvw08573oXX>+$mCBxfwAZA",
"ACCUTGpVvf00AAG739TGTspsieiitt33-&--SFF-+-ssad8g>5>mVVcmc#oO9q79qxVVc94q444539vccqqq444XXX$66BBmxxcIZl",
"CCCGFGvvVf0fGAA553EETisuiiiiui5-3---SFSOO>isup8t>>5VNVmmm#OO9q99q9cvV5945:4593vcVw0q444XXX$$+mBBcxxZIZ",
"TLGcwc,7,ACAwf8pppVVh7r7555qq9GGG099qqpataVVVO++O-&777wpp ooppp-3-vvvvbV>55-O3SbVvvc#=O555ipqVVw090wqc",
"RLGccx,,7AJAgwfpwphCZrr7595q6qRGJ009iwqsapVbV-+OO>-7r7vppX oppw--OvivvVV7>5#3#SFFcvc3oo55>pqpcgc900www",
"LGLxxc277ACAwf8pppZhV7ee5360qqGJG009twqsvaSvCOO>OO-777wpioo.pvs-=-vicVVv>5>-#-bFSvcSoOO-55qpqgVp000wpw"
};
