/* XPM */
static char *_442d605b797421bb2b877d2aa363c2847w9ST7VJA3jfzKs[] = {
/* columns rows colors chars-per-pixel */
"32 32 241 2 ",
"   c None",
".  c #000011",
"X  c #000017",
"o  c #000019",
"O  c #020419",
"+  c #00001D",
"@  c #000023",
"#  c #000025",
"$  c #000027",
"%  c #01002D",
"&  c #030032",
"*  c #4F4F81",
"=  c #474489",
"-  c #4D4C8E",
";  c #514F8E",
":  c #555086",
">  c #575587",
",  c #595B84",
"<  c #5A5B87",
"1  c #55528B",
"2  c #57598A",
"3  c #414697",
"4  c #464497",
"5  c #4E4B90",
"6  c #47449D",
"7  c #494599",
"8  c #48469A",
"9  c #4A469D",
"0  c #43499F",
"q  c #4E499D",
"w  c #504D92",
"e  c #514C9C",
"r  c #504F9D",
"t  c #46549D",
"y  c #56529C",
"u  c #5A579E",
"i  c #5A599F",
"p  c #605D88",
"a  c #4E6181",
"s  c #636281",
"d  c #616193",
"f  c #4443A1",
"g  c #4746A3",
"h  c #4644A7",
"j  c #4E47A6",
"k  c #4E4BA2",
"l  c #4B4BA7",
"z  c #4C48A7",
"x  c #4A43AB",
"c  c #4B47A8",
"v  c #4944AA",
"b  c #4549AA",
"n  c #454EA9",
"m  c #4A48A9",
"M  c #4A4AAA",
"N  c #484FAA",
"B  c #4B4BAD",
"V  c #4D4BAE",
"C  c #4C4CAE",
"Z  c #514DAE",
"A  c #4552A1",
"S  c #5957A0",
"D  c #5D5AA7",
"F  c #5C5BA9",
"G  c #5D59AE",
"H  c #4345B4",
"J  c #4C49B2",
"K  c #4F4CB5",
"L  c #5757B1",
"P  c #5155B6",
"I  c #5F59B3",
"U  c #5954BB",
"Y  c #6765A4",
"T  c #6C67AA",
"R  c #6A6AAA",
"E  c #6866B9",
"W  c #6F6CBB",
"Q  c #726FB6",
"!  c #706EB9",
"~  c #6F72BF",
"^  c #7670B8",
"/  c #7473BF",
"(  c #5B5DC2",
")  c #5C5AC5",
"_  c #6064C7",
"`  c #636AC5",
"'  c #656AC6",
"]  c #646BC6",
"[  c #6A6CC3",
"{  c #6564CC",
"}  c #6665CD",
"|  c #6764CF",
" . c #676ACB",
".. c #666ACD",
"X. c #686DCB",
"o. c #716EC5",
"O. c #7469C9",
"+. c #7679C0",
"@. c #7471CC",
"#. c #7378CC",
"$. c #6D65D4",
"%. c #666BD3",
"&. c #6769D6",
"*. c #6C6CD0",
"=. c #6A6FD7",
"-. c #7372DA",
";. c #8D7FEE",
":. c #8B7CF1",
">. c #7B87C3",
",. c #7D8AD0",
"<. c #808FBA",
"1. c #838CC3",
"2. c #8F8CC3",
"3. c #8C87CA",
"4. c #8D8BCC",
"5. c #8F8ACD",
"6. c #908BCB",
"7. c #948FCF",
"8. c #9192C2",
"9. c #9A97C6",
"0. c #9793CE",
"q. c #8887D5",
"w. c #8F87D4",
"e. c #8488D2",
"r. c #8A89D5",
"t. c #8F88D5",
"y. c #8081DD",
"u. c #8480DF",
"i. c #8B83D9",
"p. c #8E86DC",
"a. c #8D8BDF",
"s. c #918EDF",
"d. c #9291D7",
"f. c #9994D4",
"g. c #9690DA",
"h. c #91A6DD",
"j. c #8786E3",
"k. c #8887E4",
"l. c #8A86E7",
"z. c #8D82E8",
"x. c #8E83E9",
"c. c #8F84ED",
"v. c #8E87EE",
"b. c #8E8AE8",
"n. c #9186E2",
"m. c #9087E2",
"M. c #918CE8",
"N. c #8B8DF1",
"B. c #9386F0",
"V. c #958AF0",
"C. c #9588F4",
"Z. c #9187F8",
"A. c #968AFA",
"S. c #988BFD",
"D. c #9C99F0",
"F. c #9D9FF2",
"G. c #96A8E8",
"H. c #9FA4F6",
"J. c #BABAEE",
"K. c #A6A8F5",
"L. c #B8BAF7",
"P. c #B2B3FF",
"I. c #B4B7FF",
"U. c #BBB0FF",
"Y. c #B8B7FF",
"T. c #BFB5FF",
"R. c #BCB6FE",
"E. c #B3B8FF",
"W. c #B5B8FF",
"Q. c #B1BDFF",
"!. c #B8BBFF",
"~. c #BCBAFF",
"^. c #BFBCFF",
"/. c #C3BDD9",
"(. c #C0BEE3",
"). c #C1BEED",
"_. c #C0BCEF",
"`. c #C2BCF8",
"'. c #C0B9FC",
"]. c #C1B9FF",
"[. c #C6BFFF",
"{. c #C7BFFF",
"}. c #ADC3E8",
"|. c #B3C1EE",
" X c #B1C7EC",
".X c #ADC4F0",
"XX c #ADC5F3",
"oX c #AEC2FF",
"OX c #B1C3F3",
"+X c #B2C3FB",
"@X c #C0C3CC",
"#X c #C2C4CF",
"$X c #C0C1D5",
"%X c #C8C7D5",
"&X c #C5C1DA",
"*X c #CAC5DC",
"=X c #C1C5E2",
"-X c #C4C1EC",
";X c #C7C4EF",
":X c #D3D4E6",
">X c #DADBED",
",X c #DBDDEC",
"<X c #C7C6F2",
"1X c #C6C2F4",
"2X c #C1C0FF",
"3X c #CED3F0",
"4X c #CFD2F3",
"5X c #C7D3F9",
"6X c #CCDDFB",
"7X c #D5D5F1",
"8X c #DCD7F7",
"9X c #DEDAF5",
"0X c #DCDCF6",
"qX c #D6D6FA",
"wX c #D3D5FF",
"eX c #D3D6FF",
"rX c #D4D6FF",
"tX c #D7D6FF",
"yX c #D0DEFB",
"uX c #D7DEFB",
"iX c #D1D9FE",
"pX c #D2D8FF",
"aX c #D1DEFF",
"sX c #DCD9F8",
"dX c #D8D9FF",
"fX c #E0DCFF",
"gX c #DDE1FF",
"hX c #D8E4FE",
"jX c #DEE5FF",
"kX c #E2E2FC",
"lX c #E1E3FF",
"zX c #E5E1FF",
"xX c #E5E2FF",
"cX c #E3E6FF",
"vX c #E7E5FF",
"bX c #E5E7FE",
"nX c #E8E5FF",
"mX c #E8E7FF",
"MX c #ECE9FF",
"NX c #E9EDFF",
"BX c #EEEDFF",
/* pixels */
"                                                                ",
"                                                                ",
"                                                                ",
"                                                                ",
"                                                                ",
"                                                                ",
"                                              O                 ",
"                                *X/.&Xs , 2 d , X               ",
"                          #X@X%X9X8XsXqXrXwXrX- 8.o             ",
"                        $X>X,X:XlXBX3XgXwXdXk 7 R               ",
"                        mX7X0XbXNX3XuXiXiX+.f Z !               ",
"                        xXMXbXcXjXhXyX5X1.e.V c W               ",
"                    ;X: xXfXmXlXaX6Xa <.>.3 B z y               ",
"                    _.].g.t.^ L.|.}. XOX,.0 m 6 Y               ",
"                  (.`.{.p.m.i./ +X.X.Xh.A N y.e >               ",
"                  1X].m.T.V.x.b.Q.oXG.t n P L i #               ",
"                -X{.O.;.B.C.:.Z.N.] ]  .) U I 4.                ",
"                _.T.x.S.v.U.A.$.| -.| K x j w.&                 ",
"                <X^.M.v.l.@.E o.*.| J c q 3.%                   ",
"              =XJ.d.a.j.P.[ ~ !.Y.h u.7 6.#                     ",
"              * 2Xq.W.#.X...` E.l.9 e f.#                       ",
"              ; s.~.I.H._ =.%.b 4 5 0.@                         ",
"              = G D.K.F.( &.H C w 9.                            ",
"              1 u D S F g m l r.                                ",
"                p 2.7.T Q 4.                                    ",
"                . +                                             ",
"                                                                ",
"                                                                ",
"                                                                ",
"                                                                ",
"                                                                ",
"                                                                "
};
