/* XPM */
static char *result[] = {
/* columns rows colors chars-per-pixel */
"64 75 256 2 ",
"   c None",
".  c #0B0101",
"X  c #020904",
"o  c #01030B",
"O  c #01090B",
"+  c #0A0909",
"@  c #160803",
"#  c #191308",
"$  c #000413",
"%  c #000914",
"&  c #00051A",
"*  c #000A1B",
"=  c #0A0B14",
"-  c #071419",
";  c #141818",
":  c #110A12",
">  c #250501",
",  c #241705",
"<  c #361A01",
"1  c #2D0909",
"2  c #3B2309",
"3  c #362817",
"4  c #2C2519",
"5  c #000B23",
"6  c #000827",
"7  c #01152C",
"8  c #051625",
"9  c #000D33",
"0  c #001A33",
"q  c #011838",
"w  c #141A29",
"e  c #122731",
"r  c #2F322E",
"t  c #19221D",
"y  c #570102",
"u  c #4A1405",
"i  c #680705",
"p  c #6F100E",
"a  c #452503",
"s  c #593817",
"d  c #57310A",
"f  c #663802",
"g  c #643C14",
"h  c #4C3A27",
"j  c #553B25",
"k  c #433D35",
"l  c #4D1322",
"z  c #3C443E",
"x  c #6C4307",
"c  c #784805",
"v  c #754819",
"b  c #6D491A",
"n  c #674927",
"m  c #765230",
"M  c #454138",
"N  c #001944",
"B  c #032347",
"V  c #183847",
"C  c #043A58",
"Z  c #173B54",
"A  c #0C384C",
"S  c #313B4C",
"D  c #003D64",
"F  c #033C68",
"G  c #003C73",
"H  c #363966",
"J  c #493244",
"K  c #19435A",
"L  c #094159",
"P  c #254557",
"I  c #2F434E",
"U  c #02436C",
"Y  c #074668",
"T  c #174A68",
"R  c #044977",
"E  c #0A537A",
"W  c #155478",
"Q  c #0F4F71",
"!  c #2B5C7B",
"~  c #2A506C",
"^  c #2D637C",
"/  c #4D6A7B",
"(  c #735853",
")  c #9C382C",
"_  c #A6342D",
"`  c #854A07",
"'  c #8A5307",
"]  c #92550C",
"[  c #8A5617",
"{  c #8B5015",
"}  c #9C6A16",
"|  c #9D7014",
" . c #A76918",
".. c #A7761A",
"X. c #B1751D",
"o. c #A46C0E",
"O. c #855625",
"+. c #8E4B37",
"@. c #956830",
"#. c #A56A25",
"$. c #A97824",
"%. c #B47828",
"&. c #AD7535",
"*. c #A7522C",
"=. c #964B51",
"-. c #A84D4D",
";. c #8C6F48",
":. c #B26B73",
">. c #8C6262",
",. c #C36678",
"<. c #B8892B",
"1. c #B88933",
"2. c #B48D31",
"3. c #AB801E",
"4. c #C48837",
"5. c #C5983A",
"6. c #C2872A",
"7. c #CFA738",
"8. c #B0874A",
"9. c #CA9648",
"0. c #D4A44B",
"q. c #D6B44E",
"w. c #E5BB5A",
"e. c #E3BD67",
"r. c #DEB570",
"t. c #DCC157",
"y. c #E6C25B",
"u. c #E7C363",
"i. c #F5D86C",
"p. c #FAD875",
"a. c #EBCD6D",
"s. c #FEE378",
"d. c #004C85",
"f. c #045485",
"g. c #175C87",
"h. c #025A93",
"j. c #105492",
"k. c #2E5D87",
"l. c #18638B",
"z. c #196797",
"x. c #0D6997",
"c. c #276688",
"v. c #386987",
"b. c #3B738D",
"n. c #256995",
"m. c #28759A",
"M. c #387597",
"N. c #336B95",
"B. c #1569A3",
"V. c #1B75A6",
"C. c #0B6EAD",
"Z. c #287AA8",
"A. c #377BA7",
"S. c #287EB5",
"D. c #2B70A7",
"F. c #486B88",
"G. c #497488",
"H. c #467796",
"J. c #4D7090",
"K. c #8A7A94",
"L. c #9E748E",
"P. c #1B88BA",
"I. c #1985B6",
"U. c #2D82AB",
"Y. c #3682AB",
"T. c #2785B9",
"R. c #3586B7",
"E. c #488CBA",
"W. c #4B97BB",
"Q. c #548DB0",
"!. c #7095B4",
"~. c #53A2BB",
"^. c #6D95AF",
"/. c #1888C8",
"(. c #118BCE",
"). c #268BC5",
"_. c #2D98C8",
"`. c #3896C9",
"'. c #3799D4",
"]. c #3192CF",
"[. c #36A5DA",
"{. c #2DA4D3",
"}. c #2A98E5",
"|. c #36A8E6",
" X c #27A6E7",
".X c #4597C6",
"XX c #559CC6",
"oX c #4594C9",
"OX c #719CC3",
"+X c #49A3C9",
"@X c #57A5C7",
"#X c #57ABD6",
"$X c #56B4D7",
"%X c #4DAED7",
"&X c #65A8CA",
"*X c #66B6CB",
"=X c #65A9D6",
"-X c #68BAD8",
";X c #79B8D7",
":X c #78ADCE",
">X c #4BB5E5",
",X c #56B4E7",
"<X c #5ABBFA",
"1X c #51AEEB",
"2X c #6ABBE6",
"3X c #65BDF7",
"4X c #74B9E6",
"5X c #6DC3D6",
"6X c #75C2D9",
"7X c #58C3FC",
"8X c #5CD0F6",
"9X c #67C3E6",
"0X c #67C5FC",
"qX c #75CEF5",
"wX c #7EF8FF",
"eX c #94949A",
"rX c #969AA6",
"tX c #8E97B1",
"yX c #97A5AE",
"uX c #A8A5B2",
"iX c #CDB0B4",
"pX c #EAABA4",
"aX c #E39194",
"sX c #FFE885",
"dX c #FFF189",
"fX c #FFDE85",
"gX c #8BADCA",
"hX c #93A9CB",
"jX c #8ACBD6",
"kX c #8AD4D9",
"lX c #93D0D1",
"zX c #86D5E5",
"xX c #8AD1E9",
"cX c #9BE9EB",
"vX c #99ECF8",
"bX c #89F4FF",
"nX c #96F2FD",
"mX c #8DEDF6",
"MX c #A3EBEB",
"NX c #AAEBEA",
"BX c #A5E9E6",
"VX c #A5F2F8",
"CX c #B9F6F7",
"ZX c #ADEDF6",
"AX c #A3C5C6",
"SX c #C4FCFA",
"DX c #CAFCFC",
"FX c #C8F8F6",
"GX c #D2F8FB",
"HX c #EBFEFF",
"JX c #E6FBFE",
"KX c #FDFCFD",
"LX c #F7FAFA",
"PX c #FCEFF8",
"IX c #C5C5C3",
"UX c None",
/* pixels */
"                                                                                                                                ",
"                                              X O   o o o o   o % O o   X X                                                     ",
"                                              O * 5 6 6 6 * * - 5 9 * 6 6 &                                                     ",
"                                          X * OX&X=X=X=X=X=X=X#X-X=X=X:X=XOX& o o   . .                                         ",
"                                      .   $ 5 &X#X,X1X1X1X1X,X,X1X%X1X2X#X;X$ o     . .                                         ",
"                                  X   O % * 5 &X$X$X>X>X>X>X%X>X1X<X%X,X#X=X5 & % o                                             ",
"                              o O / G.G.:X6X6XnXnXnXnXvXbXnXnXmXnXmXbXqXwXqX$X#X=XM.J./ o % o                                   ",
"                            O o % b.b.b.6X5X5XnXvXMXMXMXcXMXcXMXcXvXvXzXxXqX>X>X,XZ.M.F.5 $ =                                   ",
"                            o % 5 H.H.b.;XjXgXVXNXNXBXNXNXMXBXNXNXNXBXxXkXzX$X>X>X  A.M.6 & &                                   ",
"                        o $ / G.H.;X;X;XxXjXxXCXCXCXCXSXSXSXDXGXDXDXDXFXCXVXxXqXqX,X#X=XH.J.J.& $ o                             ",
"                      % $ & G.b.M.5X5X5XxXzXlXCXCXFXDXFXDXFXGXFXGXGXGXZXCXCXkXkXzX+X2X%XM.M.F.& % $                             ",
"                      $ $ 5 b.M.Y.9X5X5XzXzXjXCXCXCXDXFXFXFXGXGXGXFXDXZXCXCXkX6XzX$X>X%XV.m.H.6 * %                             ",
"                    + / F.Y.Q.W.R.{._._.$X%X*XmXcXcXMXBXBXFXFXFXNXBXcXMXMXcX*X*X$X_._.].'.'.oXM.G./ o o o                       ",
"                    o / F.N.W.R.'._._._.>X$X$XnXVXvXcXcXBXSXFXFXBXcXcXcXVXnX$X$X,X`.'.].].`.oXm.b.G.* o                         ",
"                  o % G.b.M.`..XR..X+X{.>X>X$XnXvXcXZXNXBXFXDXSXBXcXVXcXnXnX>X>X,X_.`.'.E.E.W.M.G.G.$ o o                       ",
"                    O G.N.A.XX#X~.M.U.U.P.P.U.2X-X6XMXBXNXSXDXSXBXcXcX5X5X5XP.(.T.I.S.Z.XX!.!.M.b.v.* $           +             ",
"                  X $ F.M.M.OX!.OXH.M.A.T.).T.9X5X5XvXBXNXFXFXFXMXMXvX5X9X9X/.(.I.U.Z.M.!.!.!.H.b.G.% O       .     +           ",
"                o $ * F.H.J.^.tXtXJ.H.b.A.R.U.2X,X5XnXMXNXFXDXFXMXnXcX*X$X2XZ.S.U.m.H.G.^.tX!.F.G.v.% % -     o O               ",
"            o O ^ v.g.hXgX!.PXLXHXo % & P P T ~.@X@XvXMXBXSXFXFXMXVXnX@X~.@XH H H * o   PXPXKXtXtXOXv.! ~ * $ o AXAXAXO X       ",
"              $ k.j.k.OXtXtXKXLXLXX   O I V K OXXX@XvXVXNXDXFXFXMXVXVX~.@XQ.J J J     . KXKXKXrXtXgXc.l.v.6 $ o lXlXlXO X O     ",
"          X   o c.z.k.hXtXrXKXKXKX  o o J J T OX#XXXvXMXBXFXFXFXNXcXcX~.+X&XS J J       PXKXKXeXrXtXc.l.k.* $ % jXxXlX- X X     ",
"            X $ k.D.k.LXLXKX@ . > . o = : o 9 gX2X-XVXMXBXFXFXFXlXlXkX*X$X*X# > + X +   @ @ . KXPXJXN.z.c.5 % o gX4X;XjXlXAXX + ",
"          X   $ k.g.k.HXHXKX@ > @ . .   @ @ % tX-X-XcXBXBXSXFXFXlXjXzX-X,X;X@ > @ . . . 1 > . PXPXJXc.l.! $ o % 6X0XqXxXkXAXX   ",
"              o c.n.k.HXJXKX> 1 1 @ @ @ > > + gX-X5XcXMXZXCXSXFXlXjXzX-X2XgX@ 1 > @ > > 1 1 1 PXKXHX! c.^ =   % -X0X3XqXxXjX  . ",
"              o c.l.v.HXLXPXp i i y 1 y ) =.( rX:X-XjXkXkXMXNXNXlXlXqX*X-XhXm ) ) y y i i p l PXLXJXc.c.! &   % U.T./.3X2X;X%   ",
"              o ^ l.k.JXLXPXi p p y y y _ ) m yXgX2X6XkXkXMXBXBXlXkXkX-X-XhX) _ _ i i i p p p PXKXJXc.l.! * O % U.P.T.7X<X4X& o ",
"          .     ^ W N.GXJXPXi ) p y y y -.) ( hX-X$XkXkXlXBXMXMXlXlXkX-X4XOX=.) ) i i y p y l PXLXJXn.l.^ *   X b.U.U.qX7X3X5 o ",
"              o ^ n.n.;XgXeXaXaXaX-.-.=.>.:.eXgX4X5XzXlXlXBXMXBXlXkXkX*X2XgXL.,.,.-.-.-.pXpXIXiXhXxXg.z.v.* X   L L U `.{.+X& + ",
"            o & l.x.z.4XgXyXaXaXaX-.=.>.L.L.J.gX4X-XzXlXlXcXMXMXlXkXkX-X=X:XK.L.:.=.-.-.pXpXiXuXhXgXn.n.c.%     Z F U '.[.{.=   ",
"            o & c.z.x.9X;XgXuXiXaX>.( ( K.^.^.:X=X4X6XkXkXMXMXBXkXzXzX5X-X=X!.K.K.K.>.>.iXuXIXhXgX;XD.g.! &   o C U R `.[.`.=   ",
"              $ ^ l.z.E g.W v.^ k.!.:XQ.OXXX^.jXjX;X@X~.~.6XlXkX~.+X@X5X6X6XOX=X&XQ.&X!.F.J.v.! W g.z.n.^ * o $ oX'.].|.|.`.%   ",
"            . o ! c.l.l.g.g.n.m.B..XXX+X#X+X@X6X;XqXXXW.+XqXkXkX+X+XXX9X6X4X@X=X#X%X+X+XN.n.n.g.g.W z.n.k.& o 6 `.'.'.[.[.XXO   ",
"                ^ k.k.E l.l.l.m.n.#X+XXX@X~.&X6X6X6X@XW.@X6XzXqX+X.X@X2X9X6X*X@X@X@X@X@Xc.n.D.g.W g.c.! ^ & & 6 `.'.].'.W.^.    ",
"                o 6 9 N.m.l.Q Y U U D Y L C L Q Q W W g.E Y.U.U.l.l.g.E Q Q L Y Y D D R Y Y U n.m.n.7 * * T ~ E oX'.%Xq 7 *     ",
"                  O 6 k.c.n.R Y Y C C L L Y L Q W Q l.l.l.R.A.A.g.g.W Q W Q C U U C D C U E R n.z.z.5 % & K E f.|.|..X9 6 $     ",
"                o % & / v.n.U R U Y Y C C Y D E E R j.l.g.Z.S.A.l.g.l.Q W Y U F F U U D E U Y c.n.c.* % $ ~ W R +X.X!.6 6 $     ",
"          . % $ A L Z 7 0 q n.m.z.S.A.Z.R.R.Z.V.z.V.z.B.z.g.g.g.z.l.x.z.n.m.R.R.R.Z.Y.Y.V.z.n.q 0 7 V V V o % & % % $           ",
"          o $ 6 U C C N q 9 N.z.m.Z.R.U.U.T.T.z.V.Z.B.n.n.l.c.g.z.x.x.V.z.z.S.Z.U.A.A.A.n.n.N.N 7 8 K A Z $ % o O               ",
"          $ 9 9 R R R 9 q B n.v.v.A.A.A.Y.A.Z.Z.V.B.z.z.z.l.z.l.x.x.B.x.B.Z.Z.Y.Y.M.Q.M.v.v.k.N B N F G D 9 9 6     .           ",
"      O & J.D.).oX+X+Xz.z.z.N q q q q q Y R d.Z.S.S.`.'.`.R.`.R.`.`.'.T.T.T.R Q Y q 0 7 0 0 N n.B.B.oX+XoXS.S.A.%     . .       ",
"    o $ 6 A././.|.|.[.x.C.x.q 0 8 7 9 7 T Y U R.R.T.`.`.`.'._.`.oXoXoXS.T.R.R T Z q 0 7 0 0 N D.C.C.{.[.|./.(.S.*     .         ",
"    5 9 N S.(.(. X|.{.C.C.x.q 6 - - - 7 V P T H.Y.Y.E.`.R..XW..XE.E.oXA.Y.Y.T Z I - = 8 7 0 N j.B.C.[.[._.(.(./.9 * -           ",
"o & Z.P._.8X7X8Xh.h.f.D U Y N e t 4 r 4 t t 8 8 0 7 q q 0 0 7 0 0 0 N 9 8 0 8 w # 4 3 4 w e B Y F G f.f.h.7X<X<X).I.m.9 o       ",
"  8 T.(.(.8X8XqXf.R E C Z Z q w 1 2 a 3 # , ; # + : - - ; 8 - ; - : - - - + ; , , a 2 2 t w 0 A Z A R E R 3X1X<X(.(.S.9 $       ",
"  8 V.(.(.8X0XqXf.Q T P V e t , , a a < < < < @ # , @ # # @ # # @ # # # , @ 2 , < 2 2 a , # t r e P T Q R 4X4X3X(./.S.7 o       ",
". % C.C.x.R Y Y N q - t 3 3 ;.;.@.&.&.8.8.8.8.@.@.;.n n n j j j m n n ( @.@.8.8.8.1.;.8.;.;.;.3 r t 8 0 q F F G C.C.c.5 o +     ",
". & x.C.h.D C C q 9 - 3 a 2 @.@.@.&.$.&.1.4.8.#.@.#.v v v s s d b v v #.@.#.4.4.4.$.&.&.@.@.@.u 2 4 - - 0 C F G h.C.g.* o o     ",
"  $ l.x.l.C C A 0 = # a a u } } o.<.X.<.<.<.<.} | ..c c c f x f c ` ` #.| } <.6.4.%.%.%...} #.u a 2 # - 7 A C C j.z.! * & o     ",
"o % % * * 0 7 8 - # # m @.[ 0.0.0.i.i.i.i.i.i.i.i.i.t.t.t.<.2.2.5.7.7.s.p.s.p.i.p.i.i.p.0.0.0.[ v ( # ; 8 - 8 - - - & % o       ",
"o   X     - - 8 - # # m m ] 0.q.0.p.i.i.i.i.i.p.a.i.q.q.t.<.2.<.5.5.5.s.s.i.i.i.a.i.i.a.0.0.9.{ [ O., # - - O -     o o         ",
"    . X X ; - O ; ; # m [ [ 9.0.0.p.a.p.p.p.p.p.i.y.t.q.q.<.1.1.5.5.7.i.s.s.p.p.p.p.p.p.0.0.0.[ [ m # # ; * ; O o   o   . +     ",
"          eXrXyX- @ > O.O.]  .} [  . . ...$.#...3.3.3.3...] [ ] ..| o.| ..$.$.$... .} }  . .#.{ ' [ # # w rXrXyX    o   UXUXUXUX",
"UXUX  .   eXrXyX; # 1 O.{ ]  . .#. . . . .$.%.....3.3.o.o.' ] ` ........#.$.#.X.%. .o. .o. .#.{ [ v , # : yXeXeXo     UXUXUXUXUX",
"UXUX  . X rXrXrX% @ < O.[ ] *. . .#. . .X... ...| | 3.3.3.' ] ] ..} o. .$.$. .%. . .o. .o. . .{ | b # # ; rXuXrX      UXUXUXUXUX",
"UXUX@     HXHXJX8 # > s s f { ] ] 4.4.6.w.w.a.sXs.dXdXs.s.<.$.$.sXp.s.s.sXfXw.w.w.5.4.4.] ] [ d d s , - = LXPXPX      UXUXUXUXUX",
"UXUX    O HXHXHX- : @ h j s O.O.] 5.5.<.u.y.q.dXdXs.s.dXdX..$.%.sXs.s.s.fXdXu.w.w.5.8.9.' [ O.s h M X t - KXLXLX      UXUXUXUXUX",
"UXUX. .   HXLXHX8 - - z k h m O.[ 9.2.2.u.t.e.sXdXsXdXsXsX$.&.$.fXs.s.s.s.s.t.t.y.1.5.9.{ O.m j z r 8 8 - HXLXLX  +   UXUXUXUXUX",
"UXUXUXUXUX      e r V r r r s f f c c c 3.3.$.$.3.....3.%.%.4.1.$...o.3.3.3.3.3.o.` ` c f s j r I K K V e X     UXUXUXUXUXUXUXUX",
"UXUXUXUXUX. .   P A L C K e j x d v { ` &.$.%.X.$.$.X.X.o.<.1.1.$.$.$.X.X.X.%...&.` ` ` g s k I ~ W C L V O X   UXUXUXUXUXUXUXUX",
"UXUXUXUXUX  .   L L U C U Z r h s v v f &.&.&.%.%.#.<...X.<.3.3...| &.%.%.%.%.&.&.` ` m h r S ~ W d.D L L O     UXUXUXUXUXUXUXUX",
"UXUXUXUXUXo   $ A.)._./.T.R.T I r j j g f f f ` ` ' w.w.a.s.sXdXt.a.w.' ` ` f p f s d j I P W Y.R.R.Z.m.H.%     UXUXUXUXUXUXUXUX",
"UXUXUXUXUXo   % R.(.}._./._.R T I S k h s g d x { f r.e.q.sXsXs.q.u.r.c ` ` s s h h h z P Y E T.).T.U.m.v.$ o o UXUXUXUXUXUXUXUX",
"UXUXUXUXUXO   $ oX]./.T.P.T.f.R T S I z r s s m v v r.a.u.fXsXsXe.a.pXc v v j k z z k I T R f.P.P.P.I.m.b.6 $ o UXUXUXUXUXUXUXUX",
"UXUXUXUXUX    & D.S.Z.bXbXbX'.[.+XQ K P e : 4 < a a b f x x x x x g x a u a ; t 8 I I ~ .X{.{.wXbXbXV.m.H.5 $ o UXUXUXUXUXUXUXUX",
"UXUXUXUXUX    $ M.D.m.bXnXbX X X[.h.d.Y q e t 4 a u g v v x g c x x b a a 3 w q B T T f.|. X{.bXbXnXm.m.Y.* O   UXUXUXUXUXUXUXUX",
"UXUXUXUXUXX   $ M.D.U.mXvXwX|.}.|.h.h.f.B w ; 4 3 3 j g g n n g n n n < < 3 - B N k.d.d. X X[.wXbXnXU.m.^ -     UXUXUXUXUXUXUXUX",
"UXUXUXUXUX    $ N.S.V.3X<X<X0X0X0Xh.d.U 5 o   X .   @ @ . . @ . . . . @ @ . = & 6 Y g.d.0X7X<X3X,X2XT.n.b.* o + UXUXUXUXUXUXUXUX",
"UXUXUXUXUX  o 5 D.V.S.<X<X<X0X0X3Xd.h.W &                     . . . . . .     % 6 Q R d.3X0X3X3X<X7XV.Z.M.6 % o UXUXUXUXUXUXUXUX",
"UXUXUXUXUX+ 5 9 D.V.).3X<X3X3X3XqXd.d.E & @           .       o o o           o 8 Q R f.qX3X3X<X7X<XS.A.M.9 6 * UXUXUXUXUXUXUXUX",
"UXUX  O * Q.E.E.d.R d.].'.`.d.R d.'.`.E.$ . . UXUXUXUXUXUXUXUXUXUXUXUXUXUXUX  o * Q.`.`.E G j.}.}.}.R G R .XE.Q.$ o . UXUXUXUXUX",
"UXUX    = Q.oXoXR d.R `.'.'.d.R d.`.'.oX5   . UXUXUXUXUXUXUXUXUXUXUXUXUXUXUX  $ 5 E.'.'.d.d.d.}.}.].d.d.d.`.E.E.& o . UXUXUXUXUX",
"UXUX    & Q.E.E.U Q U E.E.E.U R G E.E.Q.& o   UXUXUXUXUXUXUXUXUXUXUXUXUXUXUX  o 5 Q.E.oXF T G oX].oXU F G E.XXQ.6 $ . UXUXUXUXUX",
"UXUX      o & & & $ $ $ & $ $ $ & & & & UXUXUXUXUXUXUXUXUXUXUXUXUXUXUXUXUXUXUXUXUX& & & $ o $ % $ & o   o $ & & $ o   UXUXUXUXUX",
"UXUX                    o               UXUXUXUXUXUXUXUXUXUXUXUXUXUXUXUXUXUXUXUXUX                            o o o o UXUXUXUXUX",
"UXUX    .           o o o         .     UXUXUXUXUXUXUXUXUXUXUXUXUXUXUXUXUXUXUXUXUX                              o     UXUXUXUXUX"
};
