/* XPM */
static char *_ab82a642fd54212d52238fbdf07967bvXeu35m0BdTLRALC[] = {
/* columns rows colors chars-per-pixel */
"32 32 2 1 ",
"  c white",
". c white",
/* pixels */
"................................",
"................................",
"......  ........................",
"......  ........................",
"....  ..........................",
"....  ..........................",
"....  ..........................",
"................................",
"................................",
"................................",
"................................",
"................................",
"................................",
"................................",
"..  .....  ....  ...............",
"..  .....  ....  ...............",
"................................",
"................................",
"...........  .....  .....  .....",
"....  ....    ...    ....   ....",
"...    ..     ..     ...     ...",
"...    .       .     ...        ",
"...                  ..   ....  ",
"..   ..   ..      ..      ....  ",
"   ....   ..      ..            ",
"   ..          ....       ..    ",
"               ....   ..  ..    ",
"..  .. ..  ..    ..   ..     .. ",
"..  .. ..  ..                .. ",
"  ..                    ..      ",
"  ..                    ..      ",
"      ..      ..  ..    ..  ..  "
};
