/* XPM */
static char *_2a6f704cf3348d28c50887ac50db368s68ksPe5L8Ta4a6F[] = {
/* columns rows colors chars-per-pixel */
"32 32 3 1 ",
"  c black",
". c #111111",
"X c white",
/* pixels */
"X                              X",
"X  XXXXXXXXXXXXXXXXXXXXXXXXXX  X",
"X XXXXXXXXXXXXXXXXXXXXXXXXXXXX X",
"  XXXXXXXXXXXXXXXXXXXXXXXXXXXX  ",
" XXXXXXXXXXXXXXXXXXXXXXXXXXXXXX ",
" XXXX  XXXXXXXXXXXXXXXXXXXXXXXX ",
" XXX XXXXXXXXXXXXXXXXXXXXXXXXXX ",
" XXXXXXXXXXXXXXXXXXXXXXXXXXXXXX ",
" XXXXXXXXXXXXXXXXXXXXXXXXXXXXXX ",
" XXXXXXXXXXXXXXXXXXXXXXXXX  XXX ",
" XXXXXXXXXXXXXXXXXXXXXXXXXXX XX ",
" XXXXXXXXXXXXXXXXXXXXXXXXXXXXXX ",
"  XXXXXXXXXXXXXXXXXXXXXXXXXXXXX ",
" XXXXXXXXXXXXXXXXXXXXXXXXXXXXXX ",
" XXXXXXXXXXXXXXXXXXXXXXXXXXXXXX ",
" XXXXXXXXXXXXXXXXXXXXXXXXXXXXXX ",
" XX.XXXXXXXXXXXXXXXXXXXXXXXXXXX ",
".XXXXXXXXXXXXXXXXXXXXXXXXXXXXX. ",
".XXXXXXXXXXXXXXXXXXXXXXXXXXXXXX ",
".XXXXXXXXX..XXXXXXXXXXXXXXXXXXX ",
".XXXXXXXXXXXXXXXXXXXXXXXX..XXXX ",
".XXXXXXXXXXXXXXXXXXXXXXXXXXXXXX ",
".XXXXXXXXXXXXXXXXXXXXXXXXXXXXXX ",
".XXXXXXXXXXXXXXXXXXXXXXXXXXXXXX ",
".X.XXX.XXX.XXX.XXX.XXX.XXX.XXX. ",
".XXX.XXX.XXX.XXX.XXX.XXX.XXX.XX ",
"..X.X.X.X.X.X.X.X.X.X.X.X.X.X.X ",
".X...X...X...X...X...X...X...X. ",
"...X...X...X...X...X...X...X... ",
".X...X...X...X...X...X...X...X..",
"....X.......X.......X.......X...",
"................................"
};
