/* XPM */
static char *f44752bb7c5040b3ac7aa5a79e2069b4Ud5zJ3NcpmhwuoyV[] = {
/* columns rows colors chars-per-pixel */
"32 32 3 1 ",
"  c black",
". c #111111",
"X c white",
/* pixels */
"XXXXXXXXXXXXXXXXXXXXXXXXXXXXXXXX",
"X     XX                       X",
"X     XX                       X",
"X  XXXXXX      XXXX            X",
"X  XXXXXX      XXXX            X",
"X                        XXXXX X",
"X                        XXXXX X",
"X        XXXXXXXX        XXXXX X",
"X        XXXXXXXX        XXXXX X",
"X                        XXXXX X",
"X                        XXXXX X",
"X  XXXX       XXXX   XX  XXXXX X",
"X  XXXX      X....XXXXX  XXXXX X",
"X           X.XXXX.XXXX  XXXXX X",
"X           X.X..X.XXXX  XXXXX X",
"X           X.X..X.XXXX  XXXXX X",
"X          X.XXXXXX.XXX  XXXXX X",
"X          X..XXXX..XXX  XXXXX X",
"X          X.XXX.XX.XXX  XXXXX X",
"X          X..XX.X..XXX  XXXXX X",
"X        XXX.XXXXXX.XXX  XXXXX X",
"X        XXX........XXX  XXXXX X",
"X     XX XXXXXXXXXXXXXX  XXXXX X",
"X   XXXX XXXX XXXX XXXX  XXXXX X",
"X   XXXX XXXX XXXX XXXX  XXXXX X",
"X   XXXX XXXX XXXX XXXX  XXXXX X",
"X   XXXX XXXX XXXX XXXX   XXXX X",
"X   XXXX XXXX XXXX XXXX  XXXXX X",
"X   XXXX XXXX XXXX XXXX  XXXXX X",
"X   XXXX XXXX XXXX XXXX        X",
"X                              X",
"XXXXXXXXXXXXXXXXXXXXXXXXXXXXXXXX"
};
