/* XPM */
static char *_1a62ff52f0b4f13aad06fa04a4d1032UbD4m4Rpvw90F94h[] = {
/* columns rows colors chars-per-pixel */
"32 32 2 1 ",
"  c black",
". c white",
/* pixels */
"................................",
".     ..                       .",
".     ..                       .",
".  ......      ....            .",
".  ......      ....            .",
".                        ..... .",
".                        ..... .",
".        ........        ..... .",
".        ........        ..... .",
".                        ..... .",
".                        ..... .",
".  ....              ..  ..... .",
".  ....            ....  ..... .",
".                  ....  ..... .",
".                  ....  ..... .",
".               .. ....  ..... .",
".             .... ....  ..... .",
".             .... ....  ..... .",
".             .... ....  ..... .",
".          .. .... ....  ..... .",
".        .... .... ....  ..... .",
".        .... .... ....  ..... .",
".     .. .... .... ....  ..... .",
".   .... .... .... ....  ..... .",
".   .... .... .... ....  ..... .",
".   .... .... .... ....  ..... .",
".   .... .... .... ....   .... .",
".   .... .... .... ....  ..... .",
".   .... .... .... ....  ..... .",
".   .... .... .... ....        .",
".                              .",
"................................"
};
