/* XPM */
static char *result[] = {
/* columns rows colors chars-per-pixel */
"31 32 10 1 ",
"  c black",
". c #101010",
"X c #202020",
"o c gray17",
"O c #494949",
"+ c #5A5A5A",
"@ c gray42",
"# c gray49",
"$ c gray61",
"% c None",
/* pixels */
"%%%%%%%%%%%  %  %%%%%     %%%%%",
"%%%%%%%%%% oO oO %%%Xooooo  %%%",
"%%%%%%%%% oOOOOOO .ooOOO++Oo %%",
"%%%%%%%% XO+$++$+XoOO++@##+@O %",
"%%%%%%%% XoO#oO#X XO+O#$@#$#@X%",
"%%%%%     XXXXXX X.XO@+#$O#$#X%",
"%%%% ooOoO oO #.ooOXooO+##OO#O ",
"%%% oo+#O##O#OXoOO+oOO+#+$+##+X",
"%%% oO++@$+@$+.XO+OOO++$####@oX",
"%%% XO#O#+O#++..XO@O++#$##@OoXX",
"%%  XoO++.++...XXooXo++#+oXXX.%",
"% oo XXX.......ooOO+oOOXXXooO%%",
" ooOoX.........oOO++$++OX@oX%%%",
" oO++OX........XO++#$##@OoXX %%",
"  o#o#X.........Xo++#+oXXX.  %%",
"oooXOXo..............XXooO++@ %",
"oO+XXo...............XooO+#O+@ ",
"O+#$X................XoO+@+o## ",
"oO@+X................XoO++oO+$ ",
"XXXX...............o..XoOoo++# ",
"%XX..ooo..........XOXo.XXo+@#+ ",
" oooo+@+o........o+o++o.Xoo+#@ ",
"ooO+oo#@Oo......ooo#O#+X..XX+ %",
"oO+#+o+$+o......o+OO+$@XX..X %%",
"o++@#$O#+X......o@++#@XXoOO  %%",
"O#+O+#$@OXXoo..ooo@#oXoO++#@O %",
"O@O+##@+XooOOXoOOXXXXoO++#+#@O ",
"oOO#+++OooO++OOX OOX o+#OO+$o+ ",
" XXO#+XXoO#$#+O #+O  o@oo+##+o ",
"%  XXXX.XO@+OX  OX %% oooo+oo %",
"%%%   %      %%% %%%%%       %%",
"%%%%%%%%%%%%%%%%%%%%%%%%%%%%%%%"
};
