/* XPM */
static char *_bc113fecaab4bf4efa779e9ad329a57YwI7Xad2NeAETYOU[] = {
/* columns rows colors chars-per-pixel */
"32 32 13 1 ",
"  c None",
". c #11340B",
"X c #463932",
"o c #224B11",
"O c #3F5716",
"+ c #697519",
"@ c #735C50",
"# c #92786D",
"$ c #798818",
"% c #859426",
"& c #98A130",
"* c #BBA599",
"= c #D3C5C0",
/* pixels */
"                                ",
"                                ",
"                                ",
"                                ",
"                                ",
"                                ",
"        o         oo.       .   ",
"       o&.  o    o&&.o. oo o&.  ",
"    o o&&. o&.  o%&.o&&.O+o%&.  ",
"   o&.o%$O.o&%. o$%. o%%$OO%%.  ",
". o&%.+$O. o&%+.O$$$oo+$$+O$$+.o",
"O.%%$O+$O+oO$%$.OO$$+OO+$+O$$$++",
"O+$$$O$$$$OO+$$.+O+$++O+++OO$$++",
"++$$+O+O$$$OO$+++++++OOO$$+O+$$+",
"+O$$O+++O$$O+++%%$$O++OOO$$+O$$+",
"$+OO+$$++OOO$+%%%$O+++$$O+$$+O++",
"++++$$$++O+$$OOOOO$++%$$$++O++++",
"+OO%%%+O++$$$O+++$$O%%oo+$$O+$$$",
"OOO&&++Oo+%%%Ooo%%$O&%oo$$+oO$$o",
"OOo&o+Ooo+&%oOoo%%OO&Oo$$+OoO$o@",
"ooXo@oOo@o&o@oXo%&Oo+oo%%OoXo+o@",
"oX##@oOo#o+o*X*#o&oo+oo%&OoX#o#@",
"+o#*@oOo*o+o*@==o++oo##o&+o#***#",
"o@=#@*o**#o**#==*oo#***#o+O#==*#",
"###@***==#@**#*=*#*====*o+O*===*",
"#@*=====*#@**#@**@*====*@o+o===*",
"#@*=====**@@**#@*@*===**@#o*===*",
"#@#====****@#===#@#****@##**===*",
"#@@********#@**==#@***#@*#******",
"##X#******#*@***==#X**@#*@###***",
"*#@X#****#=*#****=*#X*#**X#**##*",
"**#@X#**#=**@#******X##*#X@*#==*"
};
