/* XPM */
static char *result[] = {
/* columns rows colors chars-per-pixel */
"22 27 203 2 ",
"   c #000403",
".  c #00040C",
"X  c #010B0E",
"o  c #090007",
"O  c #10030A",
"+  c #021C0F",
"@  c #000513",
"#  c #000B14",
"$  c #00061A",
"%  c #000B1B",
"&  c #061418",
"*  c #131514",
"=  c #181C1F",
"-  c #370808",
";  c #361D19",
":  c #14201C",
">  c #000521",
",  c #000B22",
"<  c #000B2D",
"1  c #00142B",
"2  c #021E2C",
"3  c #041625",
"4  c #021A3B",
"5  c #051431",
"6  c #141F3B",
"7  c #082727",
"8  c #16242B",
"9  c #00223D",
"0  c #172D3A",
"q  c #35242C",
"w  c #5B0200",
"e  c #520707",
"r  c #4A1201",
"t  c #4F1114",
"y  c #55140F",
"u  c #630201",
"i  c #6C0500",
"p  c #760500",
"a  c #620D10",
"s  c #641C15",
"d  c #7A1E1F",
"f  c #7C1C04",
"g  c #57271B",
"h  c #472B16",
"j  c #69291E",
"k  c #4D2924",
"l  c #562C2B",
"z  c #572321",
"x  c #42303C",
"c  c #4B2C34",
"v  c #692825",
"b  c #7A3E3D",
"n  c #762723",
"m  c #001842",
"M  c #001E59",
"N  c #052245",
"B  c #142944",
"V  c #1A3748",
"C  c #002656",
"Z  c #043B5C",
"A  c #123650",
"S  c #273D5A",
"D  c #263A41",
"F  c #003D6D",
"G  c #223F69",
"H  c #773C42",
"J  c #1F4A5B",
"K  c #314A5B",
"L  c #264750",
"P  c #0C4366",
"I  c #194A6F",
"U  c #164867",
"Y  c #17506E",
"T  c #074478",
"R  c #164771",
"E  c #125373",
"W  c #244B6B",
"Q  c #265A76",
"!  c #34526A",
"~  c #3D7377",
"^  c #29657F",
"/  c #7F464C",
"(  c #495D66",
")  c #466F7C",
"_  c #49737B",
"`  c #870100",
"'  c #900000",
"]  c #952210",
"[  c #B22D1E",
"{  c #A5341B",
"}  c #9A2928",
"|  c #873122",
" . c #8F2F31",
".. c #8F3F38",
"X. c #9C3A34",
"o. c #B12B22",
"O. c #AD392C",
"+. c #AE3232",
"@. c #B43429",
"#. c #C8362F",
"$. c #CE3D39",
"%. c #934032",
"&. c #BC4120",
"*. c #CF4332",
"=. c #D24534",
"-. c #A23D43",
";. c #9B5A48",
":. c #AA574C",
">. c #B05F44",
",. c #B25C57",
"<. c #D64543",
"1. c #C54B46",
"2. c #064584",
"3. c #1B6189",
"4. c #1A6E9D",
"5. c #246480",
"6. c #3E7289",
"7. c #377788",
"8. c #377598",
"9. c #136FB0",
"0. c #1D75AF",
"q. c #397BAB",
"w. c #257CB4",
"e. c #347BBB",
"r. c #486F8C",
"t. c #43708B",
"y. c #457E9F",
"u. c #507C95",
"i. c #627C93",
"p. c #327DC0",
"a. c #2586B5",
"s. c #3781A8",
"d. c #7D839B",
"f. c #479BBC",
"g. c #4C9ABE",
"h. c #4D8FB2",
"j. c #6C8CAD",
"k. c #75ABB9",
"l. c #228DC5",
"z. c #3D93CC",
"x. c #3397D5",
"c. c #389FE1",
"v. c #3AAAE7",
"b. c #4799C2",
"n. c #4D9BC2",
"m. c #559EC2",
"M. c #4EA0C9",
"N. c #5AAFD5",
"B. c #54B5D7",
"V. c #5BB3D5",
"C. c #55B3DB",
"Z. c #5CB4DC",
"A. c #5ABBDE",
"S. c #61AEC8",
"D. c #7ABECB",
"F. c #66B9D9",
"G. c #68BBCB",
"H. c #55AFEB",
"J. c #55B3E4",
"K. c #5EB4E6",
"L. c #55B5EF",
"P. c #4CBCFF",
"I. c #66B4E5",
"U. c #71C3D7",
"Y. c #73C3DA",
"T. c #6CC2D9",
"R. c #5DC3FF",
"E. c #75CBFB",
"W. c #6BC1FA",
"Q. c #A2959C",
"!. c #84AFB6",
"~. c #92BEBF",
"^. c #8AB2B2",
"/. c #CCC8BF",
"(. c #89BCC5",
"). c #88CCD4",
"_. c #94CEDB",
"`. c #8DD3DF",
"'. c #95D2D3",
"]. c #97D6DD",
"[. c #8CC9CC",
"{. c #B0E8DB",
"}. c #88D5E5",
"|. c #95D6E2",
" X c #AFE5F1",
".X c #BFFBFD",
"XX c #BDF7FF",
"oX c #ADE3E5",
"OX c #CDC3C1",
"+X c #E4D2C8",
"@X c #F1EEDB",
"#X c #C4FAEE",
"$X c #C2F5FF",
"%X c #CDFEFF",
"&X c #C8F9F6",
"*X c #D3F9FF",
"=X c #FFF8EB",
"-X c #FAFAEA",
";X c #FFFBF3",
":X c #F3FEFD",
">X c #FFFCFD",
",X c #FFF4F6",
"<X c None",
/* pixels */
"<X<X<X<X<X<X<X<X# # % # % <X<X<X<X<X<X<X<X<X",
"<X<X<X<X<X<XX # ^.~.!.(.k.# & <X<X<X<X<X<X<X",
"<X<X<X<X<X# ) (.{.{.oX X].k.) X <X<X<X<X<X<X",
"<X<X<X<XX _ (.'.#X#X%X$X.X`.].~ # :X<X<X<X<X",
"<X<X<X. _ '.].&X#X#X&X*X%XXX'.'._ % :X<X<X<X",
"<X<X<X@ 6.D.).]..X%X*X%XXX_.[.U.t.> :X<X<X<X",
"<X<X@ W m.V.F.}.`.).'.[.|.}.U.S.g.W # >X<X<X",
"<X<X> I b.Z.F.F.F.}.}.}.G.T.V.F.n.I # >X<X<X",
"<X<X> I f.B.A.V.F.F.V.B.V.F.B.J.M.P # <X<X<X",
"<X<X$ I M.B.Z.f.f.f.M.n.g.g.N.Z.f.Y @ <X<X<X",
"<X<X$ W 8.s.q.8.7.7.7.t.r.t.y.h.8.U @ <X<X<X",
"<X<X<X$ P P G < 3 7 X & % , 7 N U > <X<X<X<X",
"@ @ $ $ , , X * :X>X=X=X,X;X-X+ # # @ <X<X<X",
"$ i.S m ! 0 * +Xl g g r y n h @X: D K @ <X<X",
"% u.Y Z V 8 OXg d } :.w 1.} n k OX8 V K X <X",
"# W Q u., # X ;  .+.i u ' $.:.t - >X8 ( ( . ",
"<X  # , 3.3.^ @ r i ] o.#.` e e b l >X  ( . ",
"<X  @ 5.E.J.K.Q o n O.*.$.$.u s ,.g =X    <X",
"<X$ 8.K.E.W.E.K.Q O %.=.<.@.i | :.j =X  <X<X",
"<X> 4.R.L.w.9.z.F.$ %.@.o.` u f ..g =X  <X<X",
"<X$ w.P.v.0.2.w.N.@ y o.` #.@.w s k ;X  <X<X",
"<X# 4.v.v.x.M F 8.1 H w O.{ { >.- >X=   <X<X",
"<X@ E a.v.l.F m < q H a X.,.;.k >X6 L @ <X<X",
"<X<X, P a.L.q.m Q.x c l v g k >XB j.j.2 X <X",
"<X<X<X> C e.p.2.m 5 % X Q.,X>X@ S m m V . <X",
"<X<X<X<X< R T T W S L 8 o X . 3 4 4 1 2 X <X",
"<X<X<X<X<X% $ $ @ .     <X<X<X@ @ @ @   <X<X"
};
