/* XPM */
static char *result[] = {
/* columns rows colors chars-per-pixel */
"23 23 27 1 ",
"  c black",
". c gray12",
"X c #360505",
"o c #2D2D2D",
"O c #6A0B0B",
"+ c #A01010",
"@ c #B01111",
"# c #853A36",
"$ c #B73E3F",
"% c #CB1414",
"& c #E81717",
"* c #EA2626",
"= c #EC3737",
"- c #EB3D3D",
"; c #EB3F3F",
": c #BE6561",
"> c #EE6060",
", c gray56",
"< c #D1928F",
"1 c #F28484",
"2 c #F59E9E",
"3 c #C1C1C1",
"4 c #C3D7DE",
"5 c gray83",
"6 c #FBD7D7",
"7 c #EAEAEA",
"8 c white",
/* pixels */
"888888888     888888888",
"8888888  &&&&&  8888888",
"88888 X*--**%%%%X 88888",
"8888 &1111>--&%@@+ 8888",
"888 *122221--*&%@@+ 888",
"88 *1266221---*&%+@+ 88",
"88O>126621>----&%++@O88",
"8 =>12221>----%&%++@+ 8",
"8X=>1221>-----O&%++@+X8",
" O=;11>------%O&&&+@@O ",
" &*O--------%O@&&&@O%% ",
" &&$X-----%-X@&%+ X$&% ",
" &%$4X --X%*X@@  ,4$&% ",
" #@%44,   &&%X  ,44&&# ",
"8o:@$44  ,%%@,  44$&<o8",
"8 3:OX,,.,@@+, ,,XO<5 8",
"88o5:+XXX$+++$XXX+<8o88",
"88 ,5::++++++++@<<85 88",
"888 355:::::::::887 888",
"8888 ,333355777885 8888",
"88888 o333355775o 88888",
"8888888  ,33,,  8888888",
"888888888     888888888"
};
