/* XPM */
static char *result[] = {
/* columns rows colors chars-per-pixel */
"23 23 26 1 ",
"  c black",
". c gray12",
"X c #360505",
"o c #2D2D2D",
"O c #6A0B0B",
"+ c #A01010",
"@ c #B01111",
"# c #853A36",
"$ c #B73E3F",
"% c #CB1414",
"& c #E81717",
"* c #EA2626",
"= c #EC3737",
"- c #EB3D3D",
"; c #EB3F3F",
": c #BE6561",
"> c #EE6060",
", c gray56",
"< c #F28484",
"1 c #F59E9E",
"2 c #C1C1C1",
"3 c #C3D7DE",
"4 c gray83",
"5 c #FBD7D7",
"6 c #EAEAEA",
"7 c white",
/* pixels */
"777777777     777777777",
"7777777  &&&&&  7777777",
"77777 X*--**%%%%X 77777",
"7777 &<<<<>--&%&%+ 7777",
"777 *<1111<--*O&%++ 777",
"77 *<15511<--%O&&&++ 77",
"77OO<1551<>-%O@&&&@OO77",
"7 =$X111<>--X@&%+ X$+ 7",
"7X=$3X <>X--X@@  ,3$+X7",
" O=;33,   ---X  ,33@@O ",
" &*-$33  ,---,  33$%%% ",
" &&*OX,,.,---, ,,XO&&% ",
" &%&*-XXX$-*&$XXX@%&&% ",
" #@%&&&&&&&&%%@+@%&&&# ",
"7o:@%%%%%%%%@+++@%&&:o7",
"7 2:::@@@@@@+++++:::4 7",
"77o422:::::::::::667o77",
"77 ,4422222444666774 77",
"777 244222446667776 777",
"7777 ,222244666774 7777",
"77777 o222244664o 77777",
"7777777  ,22,,  7777777",
"777777777     777777777"
};
