/* XPM */
static char *result[] = {
/* columns rows colors chars-per-pixel */
"23 23 26 1 ",
"  c black",
". c gray12",
"X c #360505",
"o c #292A2A",
"O c #6A0B0B",
"+ c #A01010",
"@ c #B01111",
"# c #B73E3F",
"$ c #CB1414",
"% c #E91616",
"& c #E81717",
"* c #EA2626",
"= c #EC3737",
"- c #EB3D3D",
"; c #EB3F3F",
": c #BE6561",
"> c #EE6060",
", c gray56",
"< c #F28484",
"1 c #F59E9E",
"2 c #C1C1C1",
"3 c #C3D7DE",
"4 c gray83",
"5 c #FBD7D7",
"6 c #EAEAEA",
"7 c white",
/* pixels */
"777777777     777777777",
"7777777  &&&&&  7777777",
"77777 X$$$$**--*X 77777",
"7777 +@@$&--><<<<& 7777",
"777 +@@$&*--<1111<* 777",
"77 +@+$&*X--<11551<* 77",
"77O@++$XX---><1551<>O77",
"7 :@++X&-----><111<>= 7",
"7o:@O $&***---><11<>=X7",
" ,:@X     XO----><<;=O ",
" 2:$#,  33,:--------*& ",
" 2:&$. .33:--------*&& ",
" 2:&$X ,,:&*------*&$& ",
" 42:&$XXX$$&&&&&&&&$@+ ",
"7X6:&$@+++@$$$$$$$$@+X7",
"7 46:%$@+++@@@@@@@@+O 7",
"77X67:$@++++++++++++X77",
"77 477:@+++++++++++O 77",
"777 477::+++++++++O 777",
"7777 4666::++++++O 7777",
"77777 X4622:::::X 77777",
"7777777  ,,22,o 7777777",
"777777777     777777777"
};
