/* XPM */
static char *c4382e12756a4ce5d9e5ab7388340f8bFGCBJNMEsbaIxBEM[] = {
/* columns rows colors chars-per-pixel */
"32 32 8 1 ",
"  c None",
". c #26450F",
"X c #426316",
"o c #6C731D",
"O c #9A8821",
"+ c #B39D20",
"@ c #C2AC32",
"# c #D4B63F",
/* pixels */
"+OOOXXoOOOOOO+@+OOOO+++OOoOOooO+",
"OOXO..XoOOX...++OOOOOOOOOooOOooO",
"O++X.@..oX##@.OOooOoOOOOOOooOooo",
"X++Xo.#@.X@#.OOOOOoooOoOOOOooOOo",
"X+@.o.##XO+#.oOO..OooOooO++OOOOO",
"X@@#.oX++O.XOooO.#.OoOOoo+++OOOo",
"oX##.X.XOO.XXOoo.##.OOOOooO++OOO",
".XXXX. .XXX.XXXo..@@.OOOXXXOOOOO",
"  ...   ..XX.+@OX..X+XOO++@.OOO.",
"         .....@OoX.XoXO++@@#.O+@",
"        .+. ...ooo..ooXX..##.OO.",
"        .Oo..@+O.XX.ooOOoo.#.ooO",
"         .XX...Oo.....XXXoo..ooX",
"          ..   .o.@@+O....XoOOOX",
"                .+.+OoX...XOoXXO",
"                .oO..oX.@++OO++.",
"                 .oXX..##@+OO+#@",
"                  ....#..XXXX@##",
"                     ..o.X@@.XXX",
"                    .Oooo.X#.ooO",
"                   .++.....#.ooo",
"                   .#+.##+O. .OX",
"                   .#. ..+Oo...O",
"                   ..    ..o.oOO",
"                      .. .+.o.oO",
"                      .#. .O..Oo",
"                      .@+...o@XO",
"                       .OoXXoX+O",
"                        ....XoX+",
"                           .OoO+",
"                          .OOOO+",
"                          .OoO+O"
};
