/* XPM */
static char *_037667ab26c444bf01335427b7ff493TVwrnKuKLnRfGqT2[] = {
/* columns rows colors chars-per-pixel */
"32 32 8 1 ",
"  c None",
". c #26450F",
"X c #426316",
"o c #6C731D",
"O c #9A8821",
"+ c #B39D20",
"@ c #C2AC32",
"# c #D4B63F",
/* pixels */
"+OOOXXoOOOOOO+@+OOOO+++OOoOOooO+",
"++...OXoOOoOoo++OOooOOO+OOooOOoO",
"O.#@.OOX++ooOooOoOOooOOO..XXOOOO",
"OX#@XOOX.OooXooX.ooOooOO.#@+XOOO",
"OX+@XoOoX.ooX.XoX.oOOoXX.##@+XoO",
"OXX+XXO+.+OXX..X..XXoX+OX.XX+o+o",
"X....XXo.oOOXX...XO+X.XOoX..XooO",
"..oO...X.XooX..O..XoO..oX. ..XX.",
"  .oX. .X.XX. .oX..Xo. .. .O... ",
"   .X.  .XX.   .X. .X.    .oO.  ",
"    .    ..     .   .     .Xo.  ",
"                           .X.  ",
"                            .   ",
"                                ",
"                                ",
"                                ",
"                                ",
"                                ",
"                                ",
"                                ",
"                                ",
"                                ",
"                                ",
"                                ",
"                                ",
"                                ",
"                                ",
"                                ",
"                                ",
"                                ",
"                                ",
"                                "
};
