/* XPM */
static char *result[] = {
/* columns rows colors chars-per-pixel */
"28 29 219 2 ",
"   c #010104",
".  c #090000",
"X  c #00020B",
"o  c #08070A",
"O  c #100300",
"+  c #17140B",
"@  c #000214",
"#  c #030A15",
"$  c #00021C",
"%  c #160C14",
"&  c #181217",
"*  c #241A19",
"=  c #25190B",
"-  c #3C391E",
";  c #322818",
":  c #000224",
">  c #000D24",
",  c #00022B",
"<  c #050B2B",
"1  c #0B1227",
"2  c #121424",
"3  c #1D152C",
"4  c #000331",
"5  c #060C3C",
"6  c #020736",
"7  c #081336",
"8  c #191B39",
"9  c #271E2B",
"0  c #271E3B",
"q  c #182239",
"w  c #3F3A29",
"e  c #25233B",
"r  c #49391F",
"t  c #483A29",
"y  c #553E26",
"u  c #403232",
"i  c #534A2D",
"p  c #654E28",
"a  c #675529",
"s  c #634B36",
"d  c #6A543B",
"f  c #6B6136",
"g  c #7C6836",
"h  c #151949",
"j  c #091659",
"k  c #141859",
"l  c #0F1841",
"z  c #231E46",
"x  c #1A214B",
"c  c #172745",
"v  c #1C2A54",
"b  c #1C2557",
"n  c #1F305E",
"m  c #262846",
"M  c #302E46",
"N  c #283646",
"B  c #363648",
"V  c #242C57",
"C  c #223152",
"Z  c #2F3253",
"A  c #30385D",
"S  c #122063",
"D  c #1D2966",
"F  c #182875",
"G  c #282E63",
"H  c #2C3463",
"J  c #293668",
"K  c #35346D",
"L  c #353C6A",
"P  c #393D6A",
"I  c #363865",
"U  c #293477",
"Y  c #3A3C76",
"T  c #272E72",
"R  c #2B415B",
"E  c #3C475C",
"W  c #39464F",
"Q  c #3A4568",
"!  c #384476",
"~  c #4A525B",
"^  c #53555E",
"/  c #494F54",
"(  c #645842",
")  c #7D684B",
"_  c #7E7145",
"`  c #404366",
"'  c #4A536A",
"]  c #545767",
"[  c #444A74",
"{  c #4A5578",
"}  c #525979",
"|  c #5C6779",
" . c #5A6265",
".. c #646C7F",
"X. c #9C7F2F",
"o. c #9C7A35",
"O. c #8F6A2F",
"+. c #A8793B",
"@. c #9A7747",
"#. c #866F45",
"$. c #A67942",
"%. c #AC8331",
"&. c #B18E54",
"*. c #A79352",
"=. c #AA8E60",
"-. c #B09464",
";. c #C3995F",
":. c #CEAB57",
">. c #D1AB68",
",. c #CAB277",
"<. c #DEBF7E",
"1. c #C1A96D",
"2. c #3E3B82",
"3. c #3F4784",
"4. c #3F4C90",
"5. c #3B5497",
"6. c #454D87",
"7. c #4A5682",
"8. c #46528E",
"9. c #4A5886",
"0. c #535885",
"q. c #444B97",
"w. c #465297",
"e. c #59698B",
"r. c #4F689E",
"t. c #5B699B",
"y. c #5C6797",
"u. c #687486",
"i. c #636B92",
"p. c #677495",
"a. c #747A98",
"s. c #414DA1",
"d. c #4452A2",
"f. c #4E5DA7",
"g. c #535BAC",
"h. c #4656B6",
"j. c #5D6DA3",
"k. c #5A68A4",
"l. c #5969B6",
"z. c #6369A6",
"x. c #6473A4",
"c. c #6670A8",
"v. c #676BB8",
"b. c #6D77B4",
"n. c #757EB5",
"m. c #7174A9",
"M. c #5B6AC6",
"N. c #5B75C0",
"B. c #6D7CCD",
"V. c #6B7AC8",
"C. c #757BC6",
"Z. c #6E7CD4",
"A. c #72839D",
"S. c #7785B9",
"D. c #6E82B3",
"F. c #7B87C5",
"G. c #7D92C1",
"H. c #7989D8",
"J. c #7E95D4",
"K. c #6D86D6",
"L. c #7E97E9",
"P. c #848B9D",
"I. c #848CAA",
"U. c #8B95B6",
"Y. c #979EBE",
"T. c #868DB9",
"R. c #96A1BC",
"E. c #C8B582",
"W. c #DDC984",
"Q. c #E8C78C",
"!. c #EED08A",
"~. c #FFD98C",
"^. c #FFE3A3",
"/. c #FFE1AC",
"(. c #FFEBA2",
"). c #FFE8B1",
"_. c #8796CB",
"`. c #9398C3",
"'. c #939EDE",
"]. c #8E9CDB",
"[. c #9AA2C4",
"{. c #97A4C7",
"}. c #9BA4DF",
"|. c #95A6D8",
" X c #86A3DB",
".X c #ACB6DB",
"XX c #B5BEDF",
"oX c #8594E2",
"OX c #8297EA",
"+X c #949CE9",
"@X c #8AA2ED",
"#X c #95A2EE",
"$X c #96A9E5",
"%X c #8BA5F6",
"&X c #96A9F8",
"*X c #9DB3FE",
"=X c #9DBCFD",
"-X c #A6B9F6",
";X c #A8B4ED",
":X c #B6C4DC",
">X c #BCC3E4",
",X c #BBC9FD",
"<X c #BBD0FF",
"1X c #ACCAFF",
"2X c #C3C8DE",
"3X c #C5D2DB",
"4X c #C3C5E3",
"5X c #C4C8FD",
"6X c #D7DFEC",
"7X c #DDE6FC",
"8X c #DDE6F2",
"9X c #FFFDEF",
"0X c #E5EDFF",
"qX c #E4E9F9",
"wX c #EAF3FD",
"eX c #F5FDFF",
"rX c #FCFEFF",
"tX c #F8FAFB",
"yX c None",
/* pixels */
"yXX $ # X yXyXyXyXyXyXyXyXyXyXyXyXyXyXyX@ $ $ @ yXyXyXyX",
"  3X.X0XqX.   yXyXyXyXyXyXyXyXyXyXyX  o wX7X4X2X  yXyXyX",
"X P.[ I u.wX8X@ yXyXyXyXyXyXyXyXyXo wX7X| E ' I.X yXyXyX",
"yXX `.! M ..2X0X@ yXyXyXyXyXyXyXo 8X:Xu.N E I.# yXyXyXyX",
"yX  Q n.P V Q XXqX$ $ : : : : : 7X:XQ n R p.Q $ yXyXyXyX",
"yX  [.<X}.K I Q 0.e.x.j.j.t.z.t.9.! J R |.<X`.$ eXyXyXyX",
"yXyX# e.|.c.P H j.J. X$X-X#X#XoXk.U ! t.|.c., {.@ eXyXyX",
"yXyX# C _.S.G x.J.%X=X1X<X,X-X#XL.r.n S.].U 4 :X[.@ eXyX",
"yXyX$ A.p.v 7.S.@X%X&X@X*XL.&X&X+XC.} C x.S.: [.i.Y.X eX",
"yXyX@ ] e.7 b j U #X*XK.%XL.*X+XU k V 6 0.} # ' e.[.@ eX",
"yXyXyXX   @ 0.b.l G V.V.%XN.b.H 7 a.0., $ @ ] q XX[.# eX",
"yXyX. rX .@ 6.5X$ ` T s.K.5.Q I @ 2X0., | rX  W XXXXY.: ",
"yXyXX X # 1 c.tX  rX! l.&Xr.Q eX# eXm.6 $ X # ~ Y.{ [., ",
"yXyX@ } # 8 0.5X2 N w.B.*XD.9.c 7 >X6.V < ' $ q q } {.: ",
"yX@ .Xc.< C k v.C.$XL.l.K.M.OX&XH.z.b b 4 i..X, 0.p.U., ",
"yX$ -Xk.5 h 2.q.g.f.l.B.H.Z.M.h.g.3.Y x 5 j.*X6 7.`.a.$ ",
"$ D.z.U 6.5 x h 5Xk S S S j F j ,Xh x 6 [ U M.B.4 p.X rX",
"# e.8.8.H < 1 2 Z ` P [ ! [ L Q M 2 @ 8 H q.s.l., / . 9X",
"# 8 H 7 8X  t ; % & & . % & o + = ; r   0Xl n l X  .  9X",
"@ 7X$ 8   - d _ p d y s y y i a p #.a w X 8 # 8X  /   yX",
"yX@ qX@ + i E.W.!.>.;.+.@.@.1.,.Q.Q.E.s & # 6XX ~ X yXyX",
"yXyXX ] & i a *.:.~.^.^.$.^.~.(.>.&.a t 9 ~ # ~ X yXyXyX",
"yXyXX ] m 3 f *.o.%.+.$.O.+.X.X.o.-.( *   ] X ^   yXyXyX",
"yXyXyX$ K J 9 ( ,.^././.+.^.^.).E.d 9 B B X ^ X yXyXyXyX",
"yXyXyX@ 6.v.L 8 u ) =.O.<.O.=.) u 0 K z.{ $ X yXyXyXyXyX",
"yXyXyXX |.#Xv.Y e * t a g a y * z K C.+X+X: yXyXyXyXyXyX",
"yXyX@ p.4.5.d.6.A M   . O O O e L 4.s.s.q.y.# yXyXyXyXyX",
"yXyX$ I.J G.D _.C # yXyXyXyXyX@ C G.T _.D T.X yXyXyXyXyX",
"yXyXyX@ @ @ > @ X yXyXyXyXyXyXyXX X X # : # yXyXyXyXyXyX"
};
