/* XPM */
static char *result[] = {
/* columns rows colors chars-per-pixel */
"27 30 216 2 ",
"   c #010204",
".  c #0D0200",
"X  c #01020C",
"o  c #020A0B",
"O  c #170B08",
"+  c #000114",
"@  c #00011C",
"#  c #030919",
"$  c #130E18",
"%  c #0E1119",
"&  c #131418",
"*  c #270B06",
"=  c #261800",
"-  c #3B141B",
";  c #321C1F",
":  c #260B1E",
">  c #3C311D",
",  c #3A2F1D",
"<  c #000223",
"1  c #00002B",
"2  c #000B2E",
"3  c #080F2B",
"4  c #120F26",
"5  c #061229",
"6  c #161829",
"7  c #000635",
"8  c #0A1134",
"9  c #09123A",
"0  c #111A38",
"q  c #220D2E",
"w  c #390F22",
"e  c #271827",
"r  c #33162E",
"t  c #2D1431",
"y  c #221C3A",
"u  c #2E143B",
"i  c #391732",
"p  c #12202D",
"a  c #1B293A",
"s  c #382824",
"d  c #212E3F",
"f  c #3B3620",
"g  c #401C1E",
"h  c #4A3415",
"j  c #4E1F31",
"k  c #5E2B33",
"l  c #4E3D2A",
"z  c #623532",
"x  c #4D401E",
"c  c #69541D",
"v  c #574C29",
"b  c #5F5434",
"n  c #655228",
"m  c #775B2B",
"M  c #654E34",
"N  c #685439",
"B  c #775539",
"V  c #0A1144",
"C  c #101F48",
"Z  c #171B58",
"A  c #132345",
"S  c #1C2444",
"D  c #1A284B",
"F  c #1A2554",
"G  c #1B2854",
"H  c #1B245B",
"J  c #172658",
"K  c #22274A",
"L  c #2C3945",
"P  c #252A58",
"I  c #293658",
"U  c #333559",
"Y  c #383859",
"T  c #323449",
"R  c #131C61",
"E  c #1C2363",
"W  c #282E68",
"Q  c #2A3664",
"!  c #2C386D",
"~  c #343B6C",
"^  c #373A68",
"/  c #272A71",
"(  c #293573",
")  c #343976",
"_  c #332E68",
"`  c #423F5C",
"'  c #573C59",
"]  c #463F73",
"[  c #274150",
"{  c #3C405B",
"}  c #2C4063",
"|  c #384667",
" . c #3B4678",
".. c #4B525B",
"X. c #6D5149",
"o. c #757053",
"O. c #424668",
"+. c #445268",
"@. c #444C75",
"#. c #555D77",
"$. c #4F4C69",
"%. c #6A5B72",
"&. c #644B68",
"*. c #5B616B",
"=. c #4F607E",
"-. c #586578",
";. c #676478",
":. c #8A6D2A",
">. c #84703D",
",. c #967A3B",
"<. c #97742D",
"1. c #896E47",
"2. c #946F42",
"3. c #897349",
"4. c #9A7D45",
"5. c #A47B47",
"6. c #A3824F",
"7. c #A48455",
"8. c #A5925B",
"9. c #8E8478",
"0. c #BC9969",
"q. c #AE8768",
"w. c #C8B77F",
"e. c #E2BF7B",
"r. c #2F4382",
"t. c #3D4B9B",
"y. c #3C428C",
"u. c #424C8B",
"i. c #454F88",
"p. c #4A5686",
"a. c #535889",
"s. c #444C96",
"d. c #4C5792",
"f. c #5D6B9B",
"g. c #586795",
"h. c #576B8C",
"j. c #646983",
"k. c #647388",
"l. c #717C88",
"z. c #666B9F",
"x. c #687498",
"c. c #434FA1",
"v. c #586AA9",
"b. c #5D73A2",
"n. c #5867B5",
"m. c #6365A6",
"M. c #6672A8",
"N. c #767DA7",
"B. c #656EBD",
"V. c #727ABD",
"C. c #596EC1",
"Z. c #737FC7",
"A. c #737FD3",
"S. c #6273C3",
"D. c #758899",
"F. c #7582B6",
"G. c #7786AF",
"H. c #7382CE",
"J. c #7B96D7",
"K. c #7289D5",
"L. c #7A8DE9",
"P. c #8E8993",
"I. c #868EA8",
"U. c #8790B8",
"Y. c #9B9FBB",
"T. c #9C9EB5",
"R. c #888FAF",
"E. c #95A3BD",
"W. c #A8B6BF",
"Q. c #D4BD87",
"!. c #FFE09E",
"~. c #FFE9A2",
"^. c #FFE3A6",
"/. c #FFEEB6",
"(. c #818DC1",
"). c #989BCA",
"_. c #838EDB",
"`. c #8294DA",
"'. c #909ADA",
"]. c #8399CB",
"[. c #9AA5C9",
"{. c #8AA2D9",
"}. c #98A7D6",
"|. c #8AA0C9",
" X c #B8BDDB",
".X c #8499E9",
"XX c #929CEA",
"oX c #8AA2EB",
"OX c #94ABE3",
"+X c #9AA5E7",
"@X c #8EA6F8",
"#X c #95A9F9",
"$X c #99B6FD",
"%X c #A6B7EC",
"&X c #A0AEF7",
"*X c #A7B7FA",
"=X c #BABDEB",
"-X c #BBC5D7",
";X c #B7C8FE",
":X c #B8D1FF",
">X c #B3C7F4",
",X c #C2C5D4",
"<X c #DAE5DF",
"1X c #C3C8E9",
"2X c #C3C5F6",
"3X c #C5D3FF",
"4X c #DCE2EE",
"5X c #DEE6F2",
"6X c #D8E7FA",
"7X c #E6ECED",
"8X c #E1EAFC",
"9X c #E4EBF7",
"0X c #F5FDFF",
"qX c #FBFCFF",
"wX c #FFF7FF",
"eX c None",
/* pixels */
"eXeXeXeXeXeXeXeXeXeXeXeXeXeXeXeXeXeXeXeXo + + + eXeXeX",
"eXX X   o eXeXeXeXeXeXeXeXeXeXeXeXeXo X 5X8X1X-X  eXeX",
"  ,X-X8X<X    eXeXeXeXeXeXeXeXeXeX  5X6XD.L +.I.o eXeX",
"X I.O.O.l.7X9X+   eXeXeXeXqXqXqXo 7X-Xk.p +.I.@ eXeXeX",
"eX@  .M.^ P | -X6X# @ # @ @ < < 6X-X| A [ x.I < eXeXeX",
"eX@ [.;X+X! U | a.h.b.G.f.f.f.f.=.} L } OX3X[.@ eXeXeX",
"eXeX+ k.[.v.| ! b.J.J.OX%XOX+X`.v.! | g.}.m.1 @ eXeXeX",
"eXeXo [ |.F.W b.J.@X$X;X:X;X*X@X.Xv.G G.'.! 1 E.+ eXeX",
"eXeXX D.k.D h.F.oX@X@XoX$X.X#X#XXXZ.=.D M.N.< ;.T.+ eX",
"eXeXX #.-.2 F V ( +X*XK.@X.X&X'./ Z P 3 a.< ;.j.Y.+ eX",
"eXeXeXX + < @.V.V P Z.S.@XC.V.~ 9 N.a.@ +   ;. X).1 eX",
"eXeX+ qX*.# a.2X@ ` W c.L.t.~ ^ @ 1X$.@ *.qX# >X=X).X ",
"eX  wX@ + 3 z.qX  qX) B.#Xn.) qX+ 0Xz.8 o o @ ).a.}.X ",
"eX  < O.+ K a.2X& L p.H.#XA.p.K 6 >Xa.F X [.1 Z d.U.X ",
"eXX g.M.< S Z m.F.}.].v.H.n.].OXF.M.E E # k.%X7 z.[.  ",
"eX@ %Xv.7 K ) / ! G P U O._ W E W W ) J 8 | i.d.1 [.  ",
"# N.*Xy.G 2 J F 1X6 - - - w j 4 2XC D 5 I Q J 6X< l.  ",
"2 a.B.t.Z 7 7 Y y t w z z k j r y Y # X 6 0 ! C < l.  ",
"1 i.t.n.v.G # 4 ' u r r r r t t ' r g f . 7X+ 6X+ ..o ",
"<  .!  .r.@.  s : ' &.%.;.%.%.' w X.q.3.=     + ..o eX",
"eX@ 0XA S 9X. N h * * : = O O * 1.q.2.1.= 9.  &.  eXeX",
"eX  a K 6   , 3.0.3.N l b x b N 0.5.7.h l P.  X eXeXeX",
"eXeX  qX+ 4 e X.>.,.6.6.,.:.6.,.<.Q.N O $ X eXeXeXeXeX",
"eXeXeX  Y ^ T p b /.^.!.!.<.~.^.Q.v & Y U < eXeXeXeXeX",
"eXeXeXX ~ +Xu.^ % o.8.:.<.e.:.8., % ^ f.p.< eXeXeXeXeX",
"eXeXeX+ u.XXA.s.S X h n m m c h $ @.i.d.p.L X eXeXeXeX",
"eXeX+ U.u._.t._.P K . . . . . . T R.W U.P R.+ eXeXeXeX",
"eXeX@ S F E R E F < eXeXeXeXeXeX+ < @ @ @ X eXeXeXeXeX",
"eXeXeX+ p a S K y + eXeXeXeXeXeXeXeXeXeXeXeXeXeXeXeXeX",
"eXeXeXeXo o + @ X eXeXeXeXeXeXeXeXeXeXeXeXeXeXeXeXeXeX"
};
