/* XPM */
static char *result[] = {
/* columns rows colors chars-per-pixel */
"28 30 208 2 ",
"   c #010103",
".  c #0A0000",
"X  c #00020C",
"o  c #00080B",
"O  c #0B0709",
"+  c #000214",
"@  c #00021B",
"#  c #010D1C",
"$  c #0A0919",
"%  c #150D1B",
"&  c #06111B",
"*  c #1C141A",
"=  c #1C1115",
"-  c #130C09",
";  c #291608",
":  c #231919",
">  c #372B1B",
",  c #000123",
"<  c #000B25",
"1  c #00002A",
"2  c #000A2B",
"3  c #0A1124",
"4  c #08132B",
"5  c #00043A",
"6  c #0A1636",
"7  c #151C35",
"8  c #14132A",
"9  c #2F0E23",
"0  c #291729",
"q  c #3A172B",
"w  c #2C1A3F",
"e  c #391C38",
"r  c #16242C",
"t  c #182438",
"y  c #2F2E3C",
"u  c #3F2F30",
"i  c #39332C",
"p  c #452D1A",
"a  c #473A17",
"s  c #421C2F",
"d  c #433529",
"f  c #4C421E",
"g  c #574A25",
"h  c #685228",
"j  c #704C32",
"k  c #685438",
"l  c #6E5030",
"z  c #020F44",
"x  c #0D1142",
"c  c #171B48",
"v  c #151C57",
"b  c #1C2444",
"n  c #1B2D44",
"m  c #1B234C",
"M  c #13284A",
"N  c #1B2552",
"B  c #182757",
"V  c #0A244F",
"C  c #242E49",
"Z  c #2A3447",
"A  c #25324F",
"S  c #2D354A",
"D  c #232D5A",
"F  c #252D54",
"G  c #243456",
"H  c #273557",
"J  c #353A5C",
"K  c #3A324C",
"L  c #162963",
"P  c #252B62",
"I  c #262967",
"U  c #2B346C",
"Y  c #2C3766",
"T  c #353465",
"R  c #353B61",
"E  c #343C6A",
"W  c #383768",
"Q  c #363A77",
"!  c #2A3175",
"~  c #413452",
"^  c #483E61",
"/  c #35455C",
"(  c #2F4165",
")  c #3A4369",
"_  c #394876",
"`  c #3D507A",
"'  c #4B4F5D",
"]  c #685743",
"[  c #7A5E53",
"{  c #45486A",
"}  c #4D536D",
"|  c #464878",
" . c #4D5575",
".. c #4C5673",
"X. c #545976",
"o. c #59527C",
"O. c #554E77",
"+. c #57637B",
"@. c #636B7C",
"#. c #99762D",
"$. c #886A38",
"%. c #9C7737",
"&. c #95692D",
"*. c #A57C38",
"=. c #856E4A",
"-. c #9B6C40",
";. c #8B7546",
":. c #A17D41",
">. c #A7823E",
",. c #9C8454",
"<. c #A38448",
"1. c #A58342",
"2. c #BA9E5F",
"3. c #A98E57",
"4. c #B48D6C",
"5. c #C6AF7B",
"6. c #E0B072",
"7. c #EBC57A",
"8. c #3A4A8D",
"9. c #3C5198",
"0. c #394D92",
"q. c #3D48A2",
"w. c #444E8B",
"e. c #495788",
"r. c #515987",
"t. c #434E90",
"y. c #455294",
"u. c #5B6A95",
"i. c #5A699A",
"p. c #4B618A",
"a. c #626384",
"s. c #6B788B",
"d. c #646A97",
"f. c #687297",
"g. c #737D99",
"h. c #4C52A0",
"j. c #5C6CAA",
"k. c #5868A6",
"l. c #5D6DBA",
"z. c #616CA3",
"x. c #6468AA",
"c. c #6973A5",
"v. c #767FA0",
"b. c #6D7DBB",
"n. c #747EBB",
"m. c #5A6FC0",
"M. c #6373C7",
"N. c #747CC6",
"B. c #7A8D9B",
"V. c #7D8FA5",
"C. c #7887B6",
"Z. c #7383CB",
"A. c #7E92D7",
"S. c #738ADA",
"D. c #7D92EB",
"F. c #8D8D8C",
"G. c #8691B9",
"H. c #9A9BB7",
"J. c #858DB1",
"K. c #94A2BF",
"L. c #C8AD80",
"P. c #F8D894",
"I. c #FFE19E",
"U. c #FFEBA4",
"Y. c #FFE6A9",
"T. c #FFE0B1",
"R. c #8298CC",
"E. c #9198CA",
"W. c #808ED5",
"Q. c #8A99D7",
"!. c #9D9FD0",
"~. c #828CC7",
"^. c #A29CC8",
"/. c #93A4CC",
"(. c #9DA1CB",
"). c #98A3D3",
"_. c #88A2DB",
"`. c #AAB4DA",
"'. c #BCBED7",
"]. c #A0ACC6",
"[. c #889CE6",
"{. c #8F9DF2",
"}. c #8DA0E5",
"|. c #94A3EB",
" X c #99A9E4",
".X c #8FAAF1",
"XX c #96AAF7",
"oX c #9EB7FB",
"OX c #A3B4E8",
"+X c #A5B6FD",
"@X c #BBB9E1",
"#X c #BCC1DC",
"$X c #BDC5E4",
"%X c #ADCAFF",
"&X c #B9C4FE",
"*X c #BCD0FF",
"=X c #C0C7DC",
"-X c #C4C6E8",
";X c #C5C8F6",
":X c #C5D3EE",
">X c #DBE2F4",
",X c #D3E3FC",
"<X c #D8E5EB",
"1X c #E4E9FA",
"2X c #E8F6FB",
"3X c #F7FEFF",
"4X c #FBFEFF",
"5X c None",
/* pixels */
"5X+ < , X 5X5X5X5X5X5X5X5X5X5X5X5X5X5X5X5X5X5X5X5X5X5X5X",
"X =X`.2X2X    5X5X5X5X5X5X5X5X5X5X5X5X5XX X @ X 5X5X5X5X",
"+ F.{ J @.2X1XX 5X5X5X5X5X5X5X5X5X5X  X <X2X$X#X  5X5X5X",
"5X  H.{ S a.'.1XX 4X4X5X5X5X5X5X  X 1X>Xs./ ) G.o 5X5X5X",
"5XX J c.Q D { -X1X@ @ < 1 1 @ , ,X:X/ A ( v.( @ 5X5X5X5X",
"5XX (.*X XU E R r.i.c.z.d.k.d.d.+.( A ( /.:XK.+ 5X5X5X5X",
"5X5X@ u.!.j.Q U j.A._. XOX X|.Q.j.P ` i./.u.@ 4X5X5X5X5X",
"5X5X+ / /.C.D c.A.XX+X%X*X&X+X.XA.k.B C.E.E @ 3X5X5X5X5X",
"5X5Xo B.f.B r.C.}.XX.X[.oX[..XXX|.n.r.m c.J.@ @ 4X5X5X5X",
"5X5X5XX +.6 B z ! }.+XS.XXD.+XQ.I v N 6 ..X.@ '.X 5X5X5X",
"5X5X5XO   @ r.n.z I N.M.{.m.N.T 6 V.r.1 @ + @.#X'.+ 5X5X",
"5X5X- 4X' @ r.+X, { ! q.D.y.U W + -X| 1 X.4X+ a.^.-XO 5X",
"5X5X+ @ o < f.3XX 4XQ m.XXl.Y 3X+ 3Xc.x , + 3X+ E.!.X 4X",
"5X5X@ `.+ t r.;X7 S w.Z.XXZ.p.N 6 -X .c 1 ..# + !.d.+ 3X",
"5X, OXi.@ H v x.C./.R.j.N.k.Q. X~.z.m H 5 d.(.o ..a.+ 4X",
"@  .8._ 2 c ^ I P F D D ^ T I I U P E m 5 k.OX1 t $XH.@ ",
"+ ,XF I H < A c ;Xw e q q s e w ;Xc t 2 L 0.oXb.1 '.^.1 ",
"X t F c 7 X O y K w q q s s 9 0 K Z 8 1 v 8.l.k.1 ^.r., ",
"X >X$ 1X. d d : 0 ^ O.a.a.a.X.' * = X 7 c.i.p._ @ } H.X ",
"5X  X . ; k =.h > - & r 3 # $ O > d O 1Xn A 2Xo @ g.X 4X",
"5X5X. F.; k $.1.<.l k g f g h =.,.l s + 3 t r # J d.+ 4X",
"5X5X  F.d p $.1.7.U.I.1.U.I.I.P.2.;.0 8 + 3Xo Z  .s.X 5X",
"5X5X5X  % = ] L.1.#.*.&.>.#.%.<.$.k ~ W J @ } } s.@ 4X5X",
"5X5X5XX J J % ] 5.U.I.*.I.Y.I.T.k * T Q T 1 ..+ + 4X5X5X",
"5X5X5X, y.x.E % a 3.#.6.&.%.4.[ % R h.{.Q 1 @ 4X5X5X5X5X",
"5X5X+ J y.9.e...- f h $.l l p 9 m y.M.{.t.1 3X5X5X5X5X5X",
"5X5X+ J.G G.H V.y   . . . . O r M A.0.A.t.G.+ 5X5X5X5X5X",
"5X5X5X  + @ @ o o 5X5X5X5X5X5Xo M M V B B m + 5X5X5X5X5X",
"5X5X5X5X5X5X5X5X5X5X5X5X5X5X5Xo t M n 7 n + 5X5X5X5X5X5X",
"5X5X5X5X5X5X5X5X5X5X5X5X5X5X5X5Xo # + 3 + 5X5X5X5X5X5X5X"
};
