/* XPM */
static char *result[] = {
/* columns rows colors chars-per-pixel */
"29 30 200 2 ",
"   c #010303",
".  c #0B0001",
"X  c #01010C",
"o  c #01090D",
"O  c #130100",
"+  c #1A0000",
"@  c #000113",
"#  c #000B12",
"$  c #00021B",
"%  c #000B1C",
"&  c #0A0419",
"*  c #311D16",
"=  c #3F2317",
"-  c #000124",
";  c #00002C",
":  c #020D2D",
">  c #0B122E",
",  c #101C2A",
"<  c #00043B",
"1  c #0C1C3C",
"2  c #0C1637",
"3  c #191F3E",
"4  c #151A38",
"5  c #192338",
"6  c #172029",
"7  c #313129",
"8  c #373936",
"9  c #222B3C",
"0  c #401600",
"q  c #562605",
"w  c #5A340E",
"e  c #592D14",
"r  c #692500",
"t  c #7E2D00",
"y  c #752A00",
"u  c #653402",
"i  c #633715",
"p  c #60361E",
"a  c #743B10",
"s  c #413C36",
"d  c #37423E",
"f  c #73461B",
"g  c #4E4A3F",
"h  c #674C22",
"j  c #091847",
"k  c #141949",
"l  c #080D44",
"z  c #211E4D",
"x  c #1A2449",
"c  c #1D2B57",
"v  c #2B2A45",
"b  c #282C47",
"n  c #2D314C",
"m  c #2E3547",
"M  c #282959",
"N  c #2D375A",
"B  c #3A3B4E",
"V  c #111961",
"C  c #242E6E",
"Z  c #253163",
"A  c #2D3A65",
"S  c #2D336B",
"D  c #283368",
"F  c #333B62",
"G  c #343A69",
"H  c #2C3675",
"J  c #32377F",
"K  c #343C74",
"L  c #232973",
"P  c #37424B",
"I  c #2E425D",
"U  c #39445B",
"Y  c #3C476A",
"T  c #2F4078",
"R  c #354171",
"E  c #494C45",
"W  c #514E47",
"Q  c #565448",
"!  c #534D51",
"~  c #4B5152",
"^  c #504E55",
"/  c #6C5E5B",
"(  c #66645F",
")  c #46476D",
"_  c #4B5369",
"`  c #474C7B",
"'  c #504A70",
"]  c #455376",
"[  c #586369",
"{  c #666975",
"}  c #6F6E67",
"|  c #8D3600",
" . c #8A3D06",
".. c #823B11",
"X. c #963A00",
"o. c #944200",
"O. c #9A5514",
"+. c #A15311",
"@. c #B75919",
"#. c #8B5838",
"$. c #935629",
"%. c #8D603F",
"&. c #B56C2B",
"*. c #B87639",
"=. c #C2721D",
"-. c #C36D16",
";. c #C86C27",
":. c #D56B22",
">. c #D67527",
",. c #C7773A",
"<. c #E77A2D",
"1. c #B37F4F",
"2. c #AA6F45",
"3. c #9A7F61",
"4. c #F0943D",
"5. c #E48533",
"6. c #AF927B",
"7. c #C9864A",
"8. c #E2894F",
"9. c #FB9543",
"0. c #EB9A57",
"q. c #F49551",
"w. c #DD9968",
"e. c #EA9F65",
"r. c #3A3F83",
"t. c #3A4686",
"y. c #454C89",
"u. c #47558A",
"i. c #4D5781",
"p. c #464C93",
"a. c #4D569A",
"s. c #575797",
"d. c #655F9D",
"f. c #5A6686",
"g. c #626788",
"h. c #71798E",
"j. c #66699B",
"k. c #637299",
"l. c #747C9B",
"z. c #565AA3",
"x. c #5C66AB",
"c. c #6D77A9",
"v. c #6E77B9",
"b. c #6A6FAA",
"n. c #757CC7",
"m. c #86798B",
"M. c #7F8993",
"N. c #7181A3",
"B. c #7886BD",
"V. c #7A85C3",
"C. c #82879A",
"Z. c #848E86",
"A. c #A79B91",
"S. c #AAA198",
"D. c #8E95B9",
"F. c #9AA5BE",
"G. c #D0A982",
"H. c #8A9AC7",
"J. c #939ECD",
"K. c #949EC5",
"L. c #8C94D9",
"P. c #8289D7",
"I. c #97A4C9",
"U. c #9AA4D7",
"Y. c #A0A1CD",
"T. c #A3B1DB",
"R. c #BBBCD9",
"E. c #A6AFD0",
"W. c #8F99E0",
"Q. c #969BE6",
"!. c #9BA9F1",
"~. c #99A6EC",
"^. c #ACB8E9",
"/. c #B6BEE8",
"(. c #A4AAF4",
"). c #A8B6FA",
"_. c #B4BDF2",
"`. c #C6BDD9",
"'. c #B9C4D6",
"]. c #B7C3EB",
"[. c #B3C1FF",
"{. c #BBC8F8",
"}. c #C2C9DC",
"|. c #F2DBC1",
" X c #E7DCD5",
".X c #EAE0DF",
"XX c #FBF2D9",
"oX c #F8E8DB",
"OX c #C0D0EA",
"+X c #D7DEF4",
"@X c #DCE2FF",
"#X c #FFFCE4",
"$X c #E3EBFD",
"%X c #E0E8F5",
"&X c #E7F1FF",
"*X c #F5FEFF",
"=X c #FCFEFE",
"-X c #F9F7F8",
";X c #FBEAE0",
":X c None",
/* pixels */
":X:X:X:X:X:X:X:X    o # :X:X:X:X:X:X:X:X:X:X:X:X:X:X:X:X:X",
":X:X:X:X:X:X:X:X  Z.$X'.  :X:X:X:X:X:X:X:X:X:X:X:X:X:X:X:X",
":X:X:X:X:X:X:X:X:X  P &X@ :X:X:X:X:X:X:X:X:X:X:X:X:X:X:X:X",
":X:X:X:X:X:X:X:X  d E.@XC.@ :X:X:X:X:X:X:X:X:X:X:X:X:X:X:X",
":X:X:X:X:X:X:X$ X @ @ $ $ @ X :X:X:X:X:X:X:X:X:X:X:X:X:X:X",
":X:X:X:X:X% - k.g.$ h.}.$ n v X =X:X:X:X:X:X:X:X:X:X:X:X:X",
":X:X:X:X- k.B.P.L.l f.$X@ U b 5   . . =X=X@ & $ =X:X:X:X:X",
":X:X:X$ B.).[.).L.c.> $XR.- m 9 o (  X.   `.]./.X =X:X:X:X",
":X:X:X- W.[.{.).H.: C.+X].; N U ,   ( .X. m.Y.J.F.X :X:X:X",
":X:X$ c.W.[.!.u.i.$ [ @X@X/.- Y m   }  X= + }.c.k.@ =X:X:X",
":X:X- u.v.b.H j 1 $ P M.$X^.x $ v @ { -Xw %.O `.] F.X :X:X",
":X% k.H z.D j l.c _ # P E.T.x 4 v & { ;Xu 7.p . N ].X :X:X",
"% Y V.x.S -X$ OXA f.$ B l.T.M Y v   ! |.y | $.+ _ H.@ =X:X",
"@ f.~.P.d.) $ *XR y.G j Z k ] b & ! ;XG.o.5.7.e $ I.I.X =X",
"# I x.Q.s.M 2 ].t.a.z.t.t.T x X !  X3.q >.9.y #.X F.D.@ =X",
":X@ D x.d.j.j.j.C V L J C M @ ~ S.6.q &.q.>.X.2.. I.].$ =X",
":X=X@ b k k k @Xj C S c k : X W #Xw O.0.0.| ;.w.. f.].I.@ ",
":X:X=XX $ ' ) G ] A j - - 5 o g XXf +.;.,.t ;.e.O f._.J.@ ",
":X:X:X:X-X# @ @ - ; < x.y.N X W XXh y | | o.>.0.O g.^.U.$ ",
":X:X:X:X:X=X  , A K a.x.(.M @ g XXh o.*.&.t -.*.O ) U.J.$ ",
":X:X:X:X:XX $XF c.n.!.(.y.S X E |.u @.9.4.-.r #.& ` Y.$ :X",
":X:X:X:X:X=X@ - S H H C S 4 X Q 6.r :.<.4.&.f O ' U.$ :X:X",
":X:X:X:X:X:X  $X1 1 1 > k @ ~ A.q  .>.:.,.7.+ B l.K.% :X:X",
":X:X:X:X:X:X=X  @ $ $ $ $ X E S.e ..8.&.a + d _ l.@ :X:X:X",
":X:X:X:X:X:X:X*X$ ] G D k @ 8 } 6.* r i O s ~ o   :X:X:X:X",
":X:X:X:X:X:X:X:X$ U.v.a.` 3   7 / * O O 8   # :X:X:X:X:X:X",
":X:X:X:X:X:X:X:X; Q.n.p.s.` 4 @ &   .     :X:X:X:X:X:X:X:X",
":X:X:X:X:X:X:X@ ` y.J t.K F n @ X X :X:X:X:X:X:X:X:X:X:X:X",
":X:X:X:X:X:X:XX D.c.F f.n 4 X :X:X:X:X:X:X:X:X:X:X:X:X:X:X",
":X:X:X:X:X:X:X:X- - $ & X   :X:X:X:X:X:X:X:X:X:X:X:X:X:X:X"
};
