/* XPM */
static char *result[] = {
/* columns rows colors chars-per-pixel */
"28 29 196 2 ",
"   c #010104",
".  c #0D0100",
"X  c #01010C",
"o  c #04090C",
"O  c #140001",
"+  c #1B0000",
"@  c #1A0709",
"#  c #010113",
"$  c #000B16",
"%  c #01021B",
"&  c #02091B",
"*  c #161719",
"=  c #250000",
"-  c #271312",
";  c #000223",
":  c #000229",
">  c #000926",
",  c #0C182C",
"<  c #161A28",
"1  c #000134",
"2  c #0A1436",
"3  c #131B35",
"4  c #1C1C32",
"5  c #15193A",
"6  c #14202C",
"7  c #1C233E",
"8  c gray13",
"9  c #232637",
"0  c #3D3A3B",
"q  c #393935",
"w  c #4B1F02",
"e  c #522204",
"r  c #592A07",
"t  c #4B290C",
"y  c #682B01",
"u  c #752D00",
"i  c #733A0E",
"p  c #473336",
"a  c #7E4412",
"s  c #534438",
"d  c #754926",
"f  c #060E44",
"g  c #0D1B41",
"h  c #0B1747",
"j  c #191949",
"k  c #171B5A",
"l  c #0D1D59",
"z  c #1C274A",
"x  c #1F2A46",
"c  c #1C2A59",
"v  c #262A4A",
"b  c #2B3347",
"n  c #353949",
"m  c #232D53",
"M  c #20225B",
"N  c #2D355D",
"B  c #293658",
"V  c #383C5A",
"C  c #1E2C6A",
"Z  c #252C68",
"A  c #273668",
"S  c #383B61",
"D  c #313C6C",
"F  c #263571",
"G  c #2D3978",
"H  c #2D3076",
"J  c #433A4B",
"K  c #384043",
"L  c #3B4256",
"P  c #394565",
"I  c #394475",
"U  c #544744",
"Y  c #544A49",
"T  c #5B4C42",
"R  c #46504F",
"E  c #454958",
"W  c #544C55",
"Q  c #4E5156",
"!  c #515256",
"~  c #49474A",
"^  c #7F674B",
"/  c #464866",
"(  c #504E63",
")  c #56576F",
"_  c #434973",
"`  c #464E78",
"'  c #515471",
"]  c #605D78",
"[  c #5F657F",
"{  c #67657C",
"}  c #606A6B",
"|  c #86451A",
" . c #A6581B",
".. c #B3621C",
"X. c #9B5F36",
"o. c #885B3C",
"O. c #A35B20",
"+. c #9B6334",
"@. c #A76238",
"#. c #C87529",
"$. c #85604E",
"%. c #B77D4F",
"&. c #B57F51",
"*. c #C97F42",
"=. c #D6823A",
"-. c #BD8558",
";. c #B18663",
":. c #D58745",
">. c #CF8548",
",. c #F1974B",
"<. c #E79D5E",
"1. c #E7A267",
"2. c #374384",
"3. c #4B5888",
"4. c #535C8B",
"5. c #4B5595",
"6. c #535794",
"7. c #615E95",
"8. c #57609B",
"9. c #65698C",
"0. c #616789",
"q. c #69758C",
"w. c #737B8D",
"e. c #656C92",
"r. c #706D98",
"t. c #6B7999",
"y. c #776B81",
"u. c #5A67A9",
"i. c #5F71A3",
"p. c #6B75A7",
"a. c #626FB5",
"s. c #6D77B7",
"d. c #6171BC",
"f. c #6469AD",
"g. c #687AC6",
"h. c #727FC3",
"j. c #817B95",
"k. c #7E888A",
"l. c #7483BB",
"z. c #7783AD",
"x. c #7986C5",
"c. c #6E83C4",
"v. c #87888A",
"b. c #83809B",
"n. c #B39F96",
"m. c #A5A09A",
"M. c #808EBD",
"N. c #8D99BC",
"B. c #949DBB",
"V. c #999EB9",
"C. c #888DAA",
"Z. c #8FA0BE",
"A. c #97A1BB",
"S. c #A3A2A7",
"D. c #8C95C9",
"F. c #8F9DC4",
"G. c #949DC6",
"H. c #8B91DA",
"J. c #909EDF",
"K. c #838ACE",
"L. c #96A4C8",
"P. c #99A5D8",
"I. c #96A6D9",
"U. c #A0AFD8",
"Y. c #A2B0D5",
"T. c #B9BDDA",
"R. c #AAAFCC",
"E. c #8C99E6",
"W. c #9399E7",
"Q. c #96AAF4",
"!. c #9BB0FF",
"~. c #B3BDEB",
"^. c #A5B2FC",
"/. c #B0BFFF",
"(. c #A8B3E9",
"). c #BCC3D3",
"_. c #BBC9EE",
"`. c #BAC7F8",
"'. c #CAD1D9",
"]. c #FFEBCE",
"[. c #FFEEDD",
"{. c #FFE8D1",
"}. c #FFF1DA",
"|. c #D6DEFD",
" X c #DEE8FF",
".X c #FEF1E5",
"XX c #FCF5EB",
"oX c #E4ECFD",
"OX c #E5EAF8",
"+X c #EDFBFF",
"@X c #FEFDF6",
"#X c #F6FCFF",
"$X c #FDFEFE",
"%X c #F8F7FD",
"&X c #F6EEEB",
"*X c None",
/* pixels */
"*X*X*X*X*X*X*X*X    X o *X*X*X*X*X*X*X*X*X*X*X*X*X*X*X*X",
"*X*X*X*X*X*X*X*X  v.oX).  *X*X*X*X*X*X*X*X*X*X*X*X*X*X*X",
"*X*X*X*X*X*X*X*X$X  L oX# *X*X*X*X*X*X*X*X*X*X*X*X*X*X*X",
"*X*X*X*X*X*X*X$X  K R. Xb.# *X*X*X*X*X*X*X*X*X*X*X*X*X*X",
"*X*X*X*X*X*X#X# X X # # & X X *X*X*X*X*X*X*X*X*X*X*X*X*X",
"*X*X*X*X*X$ % e.0.# w.'.# b b # *X*X*X*X*X*X*X*X*X*X*X*X",
"*X*X*X*X; i.c.H.H.f { oX# V m 7   *X*X*X% ; ; *X*X*X*X*X",
"*X*X*X% x.^.`.^.E.p.> OXT.; N v o     # V.L.B.% *X*X*X*X",
"*X*X*X; J.`.`.^.D.2 v.'.).: N P 6   S.X ).R.N.V.X *X*X*X",
"*X*X% z.J.`.Q.5.3.# } OXoX_.; B b X Q S.# w.) G.# *X*X*X",
"*X*X; 4.s.d.G l h ; V w. X~.g > v # ! &X- O y.] V.X *X*X",
"*X% 3.A 6.A f s.c 6.# L Y.U.B 2 v # ~ .Xt $.@ J A.# *X*X",
"# ` l.8.N %X% _.G ` ; V t.U.c P v X Y [.y X.+ W V.; *X*X",
"% e.(.K.7./ % #XI 6.D f c c I m 4   T {.y *.o.O A.; $X*X",
"# S u.W.6.v 2 _.2.5.5.5.2.I c v X T n.r ..,.-.O q.N.o *X",
"*X% Z f.7.r.9.e.Z k C G C C m <   U .Xr =.,.-.O q.L.X $X",
"*X*X% v z 4 < OXj Z A A g 3 3     Y [.r #.#.+.@ { _.G.; ",
"*X  # # % X < < / S h f ; ; # # X U [.w >...i + { ~.D.: ",
"*Xo #XS S : / ( 6 X 1 1 G H H j # T [.i y u a + E `.P.1 ",
"*X*X# 3 %XJ % X o 6 c i.d.g.x.Z X s ].y  .O.-.+ ) L.F.; ",
"*X*X*X# X X v.  #XP x.E.!.Q.c.z X T {.i  .<.;.O _ L.# $X",
"*X*X*X*X*XX q 8 # g F g.d.c.A 6   s {.| :.1.+ ! L.L.  @X",
"*X*X*X*X# n   * #X3  Xx.A c , X R XXe @.>.%.@ ' q.$ %X*X",
"*X*X*X# C.' X 0 o $ 3 g h > # X R XXw X.| = W w.X $X*X*X",
"*X*X*XX 9 9 9   0   % : 1 z 5 # n m.t d + p W   $X*X*X*X",
"*X*X*X*XX X X       N P.s.5.` 5 # 0 $.+ p J   $X*X*X*X*X",
"*X*X*X*X*X*X*X*X*X*X% D F F I N <   . .     $X*X*X*X*X*X",
"*X*X*X*X*X*X*X*X*X# B.t.A p.2 5 <   $X@X$X$X*X*X*X*X*X*X",
"*X*X*X*X*X*X*X*X*X# X # X X X X X $X*X*X*X*X*X*X*X*X*X*X"
};
