/* XPM */
static char *result[] = {
/* columns rows colors chars-per-pixel */
"29 30 204 2 ",
"   c #010203",
".  c #0C0001",
"X  c #01020B",
"o  c #010A0B",
"O  c #050707",
"+  c #140000",
"@  c #1B0000",
"#  c #000213",
"$  c #00021B",
"%  c #02091C",
"&  c #080518",
"*  c #220000",
"=  c #3C1700",
"-  c #312016",
";  c #000124",
":  c #00022B",
">  c #090C2F",
",  c #0D192B",
"<  c #040738",
"1  c #0D1A37",
"2  c #131C3B",
"3  c #101731",
"4  c #171127",
"5  c #172128",
"6  c #17243D",
"7  c #2F3637",
"8  c #5F1C00",
"9  c #4A1D08",
"0  c #4D2E0F",
"q  c #582A00",
"w  c #572C18",
"e  c #503019",
"r  c #6E2D00",
"t  c #642A04",
"y  c #7D2600",
"u  c #633808",
"i  c #743400",
"p  c #633615",
"a  c #47383C",
"s  c #7C4619",
"d  c #6E4817",
"f  c #0C1949",
"g  c #1A1B43",
"h  c #161A5A",
"j  c #1A234A",
"k  c #1F2E59",
"l  c #282747",
"z  c #2A3143",
"x  c #2E364D",
"c  c #272D59",
"v  c #312F54",
"b  c #2C345C",
"n  c #293457",
"m  c #333D5C",
"M  c #393347",
"N  c #151C60",
"B  c #1D2867",
"V  c #25286E",
"C  c #263267",
"Z  c #2C3668",
"A  c #313163",
"S  c #333961",
"D  c #34386B",
"F  c #273374",
"G  c #343B73",
"H  c #323A77",
"J  c #463547",
"K  c #3E4E4E",
"L  c #374459",
"P  c #3E4778",
"I  c #3C4661",
"U  c #584A46",
"Y  c #444654",
"T  c #494B56",
"R  c #554E58",
"E  c #565154",
"W  c #49585F",
"Q  c #444D63",
"!  c #494D6D",
"~  c #574F66",
"^  c #4C557A",
"/  c #545470",
"(  c #494F6F",
")  c #6D5E65",
"_  c #5A6567",
"`  c #6C6365",
"'  c #76666C",
"]  c #616179",
"[  c #796F70",
"{  c #802E00",
"}  c #853803",
"|  c #923C04",
" . c #8A4406",
".. c #9D4B0F",
"X. c #A2591D",
"o. c #B8641A",
"O. c #885738",
"+. c #81643A",
"@. c #B86B28",
"#. c #BD722E",
"$. c #BE7535",
"%. c #B66A30",
"&. c #C36D1D",
"*. c #CF7117",
"=. c #D77925",
"-. c #CF6F33",
";. c #CB7A38",
":. c #CE7431",
">. c #AF714A",
",. c #AD724E",
"<. c #D9833A",
"1. c #EF913A",
"2. c #F8993F",
"3. c #A18061",
"4. c #A28C75",
"5. c #C28F4D",
"6. c #D98C48",
"7. c #F2934B",
"8. c #F59655",
"9. c #D09C6D",
"0. c #DC9E77",
"q. c #D7A173",
"w. c #3C4986",
"e. c #4D5786",
"r. c #545786",
"t. c #474F94",
"y. c #495596",
"u. c #555C9B",
"i. c #464388",
"p. c #536490",
"a. c #5B6684",
"s. c #696584",
"d. c #686991",
"f. c #6B7A9D",
"g. c #565FA2",
"h. c #4A5EA7",
"j. c #586AA8",
"k. c #5768B2",
"l. c #6874A7",
"z. c #6B73B6",
"x. c #7378B6",
"c. c #6F6FA5",
"v. c #7076C2",
"b. c #7F888F",
"n. c #7B8295",
"m. c #76819F",
"M. c #7B84A7",
"N. c #6D80BB",
"B. c #7780C1",
"V. c #798ED8",
"C. c #7F98E8",
"Z. c #838791",
"A. c #A88C84",
"S. c #AE9694",
"D. c #8A8FAF",
"F. c #989ABD",
"G. c #8994B9",
"H. c #8FA0BA",
"J. c #9CA3BF",
"K. c #A5A6A8",
"L. c #D7A781",
"P. c #FBD7BD",
"I. c #959DCA",
"U. c #8395D9",
"Y. c #879CCB",
"T. c #89A2C0",
"R. c #9AA3CE",
"E. c #96A5C7",
"W. c #96A5D3",
"Q. c #9FB1D9",
"!. c #A7A9C3",
"~. c #B5BFC1",
"^. c #B4BEDA",
"/. c #949BE3",
"(. c #9AA2E6",
"). c #9CAAF2",
"_. c #9BAAFA",
"`. c #AAAEED",
"'. c #AEBBE5",
"]. c #A7B8FD",
"[. c #B1BDFF",
"{. c #B1B8E4",
"}. c #C0BED6",
"|. c #B6C2D7",
" X c #B9C0CA",
".X c #B5C5EB",
"XX c #BFC5E5",
"oX c #BAC8FF",
"OX c #ACC0E5",
"+X c #EFD6CF",
"@X c #EFDBD6",
"#X c #FFECDE",
"$X c #FAE3D4",
"%X c #EDE4DB",
"&X c #D4DDEE",
"*X c #D1CEFC",
"=X c #DEE7F7",
"-X c #F9F8E4",
";X c #E2EAFE",
":X c #EDF2FB",
">X c #F6FBFD",
",X c #FCFDFD",
"<X c #F8FAF4",
"1X c None",
/* pixels */
"1X1X1X1X1X1X1X1X1X1X1X1X1X1X1X1X1X      # 1X1X1X1X1X1X1X1X",
"1X1X1X1X1X1X1X1X1X1X1X1X1X1X1X1Xo  X:XZ.X 1X1X1X1X1X1X1X1X",
"1X1X1X1X1X1X1X1X1X1X1X1X1X1X1X1XX :XY X 1X1X1X1X1X1X1X1X1X",
"1X1X1X1X1X1X1X1X1X1X1X1X1X1X1X  Z.:X!.Y   1X1X1X1X1X1X1X1X",
"1X1X1X1X1X1X1X1X1X1X1X1X1X  X X # o X # % o 1X1X1X1X1X1X1X",
"1X1X1X1X1X1X1X1X1X1X1X,X>Xo 7 z # }.n.$ p.l.o O 1X1X1X1X1X",
"1X1X1X1X1X% $ % ,X<X  . O 5 j m $ ;Xr.f V.U.N.j.# 1X1X1X1X",
"1X1X1X1X# ^..X|.  . %X` o 7 v : ^.;X> l.U.].oX_.D.# 1X1X1X",
"1X1X1X. J.E.J.Z.. +X) X 5 L m ; |.=Xb., V._.oXoX/.; ,X1X1X",
"1X1X1X& d.M. X. 0 $X' X x S ; '.;X=X_ # w.h._.oX/.x.$ 1X1X",
"1X1X# F.^ ^.+ ) 0 #X) & l ; j .X;Xn.L % f f C l.).u.; ,X1X",
"1X1X; {.m . q 5.w $X' & l < k Q.E.L $ ^ n m.6 n y.F r.$ ,X",
"1X1X< W.~ + X.| t P.U X v ! c W.D.l ; e.S XXX >XF k.v.e.# ",
"1XX Y.W.. w 6.=. .L.$XE X g P c c < S e.G ,X  Y k.V.).l.$ ",
"1X  E.I.. O.y 8.;.8 3.%XT ; j I H u.y.t.i.*X4 v y.C.k.D $ ",
"1Xo '.E.. ,.| -.7.-.q 4.K.Q $ c c H V N V c.s.d.j.j.B ; ,X",
"; E.'.s.+ 9.$.| 7.8.X.w ,XT   # 3 n H N h *Xj g j j ; ,X1X",
": I..X] @ q.;.{ =.&... .#XE   , % ; f H w.G ! Q $ X ,X1X1X",
": R.{.s.* 0.;.} { i r d -XK # m e.y.< < ; #   o ,X1X1X1X1X",
"$ F.R./ @ ,.%.y o.<. .d -XW $ b /.z.g.Z m 6 O <X1X1X1X1X1X",
"1X% G.( . O.r &.2.1.o.r @XT $ A y.).(.z.x.b ;X  1X1X1X1X1X",
"1X1X; H.R + s @.2.=.&.t A.R # g C F F F Z ; X 1X1X1X1X1X1X",
"1X1X% H.M.J + >.<.*.=. .9 S.U   3 2 g 1 2 =X  1X1X1X1X1X1X",
"1X1X1X% m.~ J * t -.6. .w S.U   o $ $ $ # X 1X1X1X1X1X1X1X",
"1X1X1X1Xo # ~ J @ p p = A.[ 7 o 1 C Z e.# 1X1X1X1X1X1X1X1X",
"1X1X1X1X1X1XX X a . + - ` J X 3 y.t.x.I.$ 1X1X1X1X1X1X1X1X",
"1X1X1X1X1X1X1X>XO O     X # g r.t.t.v.`.$ 1X1X1X1X1X1X1X1X",
"1X1X1X1X1X1X1X1X<X1X<X    & v A G H w.w.( # 1X1X1X1X1X1X1X",
"1X1X1X1X1X1X1X1X1X1X1X,X,X,XX 5 z a.c x.D.& 1X1X1X1X1X1X1X",
"1X1X1X1X1X1X1X1X1X1X1X1X1X1X1X  X # $ ; $ 1X1X1X1X1X1X1X1X"
};
