/* XPM */
static char *result[] = {
/* columns rows colors chars-per-pixel */
"26 30 208 2 ",
"   c #010203",
".  c #0B0001",
"X  c #030905",
"o  c #00020C",
"O  c #190000",
"+  c #000213",
"@  c #010B13",
"#  c #00021B",
"$  c #020B1A",
"%  c #290600",
"&  c #000022",
"*  c #191B2C",
"=  c #010937",
"-  c #0E183D",
";  c #161B34",
":  c #14202C",
">  c #1D233C",
",  c #17273E",
"<  c #232537",
"1  c #362D26",
"2  c #441B02",
"3  c #521C02",
"4  c #4C2602",
"5  c #592702",
"6  c #5C3013",
"7  c #41271A",
"8  c #612F0A",
"9  c #7A2900",
"0  c #613900",
"q  c #723400",
"w  c #7A3808",
"e  c #613417",
"r  c #473936",
"t  c #624012",
"y  c #774518",
"u  c #5C452D",
"i  c #5C463D",
"p  c #5C4D36",
"a  c #6F4223",
"s  c #654A39",
"d  c #774F2B",
"f  c #171A44",
"g  c #192859",
"h  c #252B4C",
"j  c #282E48",
"k  c #252D56",
"l  c #24315A",
"z  c #2C345A",
"x  c #2C3557",
"c  c #343755",
"v  c #26354A",
"b  c #0C1E65",
"n  c #192C65",
"m  c #252E67",
"M  c #26396B",
"N  c #2A3767",
"B  c #273774",
"V  c #323665",
"C  c #2F414F",
"Z  c #33416F",
"A  c #374367",
"S  c #374976",
"D  c #564D47",
"F  c #5A524F",
"G  c #4F565E",
"H  c #474A53",
"J  c #604F48",
"K  c #685650",
"L  c #7A6659",
"P  c #4A556A",
"I  c #575B68",
"U  c #4B5472",
"Y  c #48547B",
"T  c #52597A",
"R  c #52606D",
"E  c #62626B",
"W  c #736766",
"Q  c #626A7C",
"!  c #6E727E",
"~  c #7B7A78",
"^  c #842700",
"/  c #883302",
"(  c #9A3E00",
")  c #8C440D",
"_  c #884315",
"`  c #994C11",
"'  c #995E18",
"]  c #A64D0B",
"[  c #B35B18",
"{  c #AC550D",
"}  c #9D600F",
"|  c #B4671F",
" . c #955D2C",
".. c #A05420",
"X. c #AC703C",
"o. c #B6712B",
"O. c #C56E1F",
"+. c #CC731F",
"@. c #CB6822",
"#. c #C97629",
"$. c #D37C31",
"%. c #E57B2F",
"&. c #815F53",
"*. c #B3754D",
"=. c #857D7A",
"-. c #CC7947",
";. c #E9893A",
":. c #F5903C",
">. c #E98742",
",. c #FE9240",
"<. c #F79745",
"1. c #E59757",
"2. c #DD9B67",
"3. c #E0956E",
"4. c #D5A17C",
"5. c #3F4D8D",
"6. c #3D52A3",
"7. c #4B578A",
"8. c #545C8B",
"9. c #415591",
"0. c #43559B",
"q. c #465A9D",
"w. c #485798",
"e. c #535E9C",
"r. c #546197",
"t. c #516F95",
"y. c #4E6591",
"u. c #696E87",
"i. c #6C789B",
"p. c #68748A",
"a. c #4758A4",
"s. c #5E72AF",
"d. c #586BB9",
"f. c #5F73BC",
"g. c #5766A1",
"h. c #6272BC",
"j. c #6575B0",
"k. c #7479B1",
"l. c #5B6EC6",
"z. c #5D73C6",
"x. c #6272C9",
"c. c #76849A",
"v. c #76828E",
"b. c #6F80AB",
"n. c #7A87B7",
"m. c #7587AF",
"M. c #6F80C6",
"N. c #7F8FC2",
"B. c #7F9ECD",
"V. c #888E94",
"C. c #958F91",
"Z. c #A39D9D",
"A. c #8393AC",
"S. c #8894A5",
"D. c #8589B7",
"F. c #8A93B1",
"G. c #8596B5",
"H. c #939CB6",
"J. c #B2B8B9",
"K. c #848EC8",
"L. c #8795CB",
"P. c #979EC8",
"I. c #8696D7",
"U. c #989ED6",
"Y. c #9DA9CC",
"T. c #8DA2DA",
"R. c #96A9DA",
"E. c #9FB5DA",
"W. c #A7ADDA",
"Q. c #A9B6DD",
"!. c #A5B4D8",
"~. c #A8B0CE",
"^. c #8698EE",
"/. c #8495E5",
"(. c #8492F9",
"). c #95A5E6",
"_. c #9EADF2",
"`. c #9EB0FF",
"'. c #94B1E9",
"]. c #A6B8EA",
"[. c #A5B3F9",
"{. c #B3BFF1",
"}. c #A4ACEB",
"|. c #CABEC2",
" X c #BCC3D8",
".X c #AEC6EF",
"XX c #B3C5E6",
"oX c #BAC9E7",
"OX c #A9C2F5",
"+X c #B4CCF2",
"@X c #B5C5FF",
"#X c #B2C9FE",
"$X c #B9C7F5",
"%X c #C7C3C6",
"&X c #C9CED7",
"*X c #D1CDCE",
"=X c #C2C7EB",
"-X c #C9D4EC",
";X c #D0D9F6",
":X c #DBE3FB",
">X c #D9E1EE",
",X c #EDFBFF",
"<X c #EAF2FB",
"1X c #F4FDFF",
"2X c #FDFDFD",
"3X c #FCF6F9",
"4X c #F3EEF4",
"5X c None",
/* pixels */
"5X5X5X  X 5X5X5X5X5X5X5X5X5X5X5X5X5X5X5X5XX X 5X5X5X",
"5X5Xo *XJ.    5X5X5X5X5X5X5X5X5X5X5X5X    J.%Xo 5X5X",
"5X5X  V.<XV.I + 5X5X5X5X5X5X5X5X5X5X5XG ! 2Xu.X 5X5X",
"5X5X5X@  X,X<XQ o 5X5X5X5X5X5X5X5X5X~.1X;X~.+ 5X5X5X",
"5X5Xo -X X1X,XoXS.@ 5X5X5X5X5X5X# F.&X1X1X!.;X+ 5X5X",
"5X5X+ =X$X,X,X$XG.< + # # + + # = D.:X,X,X].-X+ 5X5X",
"5X5X+ T }.[.).L.n 5.x.I.I.U.I.j.w.g n.}.].W.P o 5X5X",
"5X5X5X# L./.w.b 0.l.(.(.{.@X/.^.h.q.b 0.B.K.# 1X5X5X",
"5X5X5Xo 8.e.b 9.s.^.(.`.@X#X[.^./.d.a.b g.7.$ 5X5X5X",
"5X5X5X5X# = 8.s.f.d.l.^./.I.B.l.l.l.x.a.= # 1X5X5X5X",
"5X5X5X5X5X& 7.d.f.a.q.w.6.5.6.a.0.l.x.9.& 1X5X5X5X5X",
"5X5X5X5X5X# 8.w.0.0.N g A Z M n a.0.a.7.# 1X5X5X5X5X",
"5X5X5X@ + U 7.7.m m k l l g g l l z 7.8.T + # 5X5X5X",
"5X5Xo >X# U x x k z h j h h l h j j z k T # :X+ 5X5X",
"5XX >XP # # # + o o o * > * >   o o o o I + U :X+ 5X",
"5X. # & F.F.A.S.o 2X2X  o o   2X3X2X2X3Xo + z Y c.# ",
"5X+ XXE.!.+XXX+Xm.@ 2X2X3X2X3X2Xi J D C.*X+ c Y m.# ",
"+ oXn.8.S E..X.X+XG.  F J i i s y 6 7 W |.# - V U # ",
"+ =Xn.{.B.Z L..X.XY.+ 1 2 5 w ) { ..e D 4X# f - * o ",
"+ u.Y.P.T.B I.T.#X+XS.. 8 ` [ ;.;.$. .s Z. X& ; + 5X",
"+ C v A B x.).T.OXOXH.. y | ;.<.;.+.' t L 2Xo o 5X5X",
"5XX @ c r.).[.).#X$XI O q / { >.:.;.t 4 p 3X  5X5X5X",
"5X5X  Q W.P.K.{.oXE O *.#.#.^ ] [ 9 } 0 u *X  5X5X5X",
"5X5Xo c c D.{.P.~.  4.1.<.:.@.( 9 ` o.5 p |.o o 5X5X",
"5Xo oX=XP.x T.m.~.. X.O.,.,.%.>.^ -.2.4 D  X& A o 5X",
"5X+ =XD.S Z '.j.Y.  y o.@.#.>.] / 3.8 s |.# n.B + 5X",
"5X+ H.$Xm.B.'.T.b.H.. d / _ _ q *.3 &.|.j Y k.f   5X",
"5X5X# i.+Xt.7.R.G.p.E . % 2 2 4 % &.|.  c i.f # 5X5X",
"5X5X5Xo + c.v.I R P I H r . K W =.=.X : > ; + 5X5X5X",
"5X5X5X5X5XX X     X # + o   o o o   X $ & + 5X5X5X5X"
};
