/* XPM */
static char *result[] = {
/* columns rows colors chars-per-pixel */
"26 31 206 2 ",
"   c #020203",
".  c #0C0102",
"X  c #00010C",
"o  c #060705",
"O  c #130000",
"+  c #000213",
"@  c #00021B",
"#  c #01091C",
"$  c #000B14",
"%  c #351600",
"&  c #010123",
"*  c #1A1E2F",
"=  c #14192B",
"-  c #000B35",
";  c #091633",
":  c #171E30",
">  c #221D2B",
",  c #15213C",
"<  c #27293C",
"1  c #342F36",
"2  c #471A01",
"3  c #4B2202",
"4  c #522600",
"5  c #4B2B15",
"6  c #5D3617",
"7  c #7E2C00",
"8  c #792400",
"9  c #683204",
"0  c #7E3300",
"q  c #7B3D00",
"w  c #61371B",
"e  c #75441A",
"r  c #5C493C",
"t  c #594837",
"y  c #664A37",
"u  c #6C4824",
"i  c #0C1F59",
"p  c #1B244F",
"a  c #0D205B",
"s  c #1B275F",
"d  c #1F295E",
"f  c #252A49",
"g  c #2D334C",
"h  c #333849",
"j  c #262C56",
"k  c #2B3A59",
"l  c #343957",
"z  c #101F60",
"x  c #0E2163",
"c  c #132265",
"v  c #26336C",
"b  c #2A3767",
"n  c #283671",
"m  c #353C70",
"M  c #34406E",
"N  c #324263",
"B  c #3E4675",
"V  c #5B4943",
"C  c #4F4855",
"Z  c #7B6446",
"A  c #706855",
"S  c #434D62",
"D  c #4A5165",
"F  c #4D5A6E",
"G  c #555766",
"H  c #495478",
"J  c #525B7B",
"K  c #535977",
"L  c #5C627B",
"P  c #66666A",
"I  c #776863",
"U  c #6C737D",
"Y  c #983C00",
"T  c #862800",
"R  c #8A450B",
"E  c #9F520A",
"W  c #824E1F",
"Q  c #954E16",
"!  c #9C541A",
"~  c #B25407",
"^  c #A0581D",
"/  c #B85D14",
"(  c #9C5926",
")  c #835730",
"_  c #A65D28",
"`  c #BB6C28",
"'  c #AF6D36",
"]  c #C3691B",
"[  c #C86C25",
"{  c #CC732F",
"}  c #D87A31",
"|  c #AF7851",
" . c #B1784D",
".. c #817D67",
"X. c #DF8536",
"o. c #E38738",
"O. c #E68634",
"+. c #F18E3B",
"@. c #F4903B",
"#. c #C1824C",
"$. c #DA955E",
"%. c #F69645",
"&. c #FFA04B",
"*. c #3E549A",
"=. c #424D8F",
"-. c #4C558B",
";. c #4C588C",
":. c #4B5584",
">. c #505484",
",. c #4A5593",
"<. c #43589A",
"1. c #4C5C9C",
"2. c #445797",
"3. c #565D94",
"4. c #58678A",
"5. c #5A6897",
"6. c #66708A",
"7. c #6B7C9C",
"8. c #4555A3",
"9. c #5667AB",
"0. c #596DB9",
"q. c #596BB7",
"w. c #5C71B6",
"e. c #6D79AA",
"r. c #616EB4",
"t. c #6673B5",
"y. c #6F74AC",
"u. c #566FC2",
"i. c #5A6FC0",
"p. c #5C72C7",
"a. c #6374C1",
"s. c #7586AA",
"d. c #7B90AD",
"f. c #7E8ABB",
"g. c #7B97BE",
"h. c #7C89CD",
"j. c #7D94E3",
"k. c #898998",
"l. c #958F93",
"z. c #A4A49C",
"x. c #818FB2",
"c. c #838DB9",
"v. c #8895B7",
"b. c #8995AB",
"n. c #8DA2BF",
"m. c #AFB2B3",
"M. c #CBC0AC",
"N. c #868DC5",
"B. c #8896C7",
"V. c #949FC7",
"C. c #818BD2",
"Z. c #8795D3",
"A. c #8A9AD6",
"S. c #959FDA",
"D. c #8DA1C4",
"F. c #98A5C9",
"G. c #94A3D2",
"H. c #9BA5DF",
"J. c #9BA7DA",
"K. c #88A2D5",
"L. c #A5B2DA",
"P. c #B1B8D2",
"I. c #8295EA",
"U. c #8398EA",
"Y. c #829AF1",
"T. c #959FE7",
"R. c #9DAEE4",
"E. c #95AEFF",
"W. c #9BB1EA",
"Q. c #A9B4E6",
"!. c #A7B4E6",
"~. c #BFBFE3",
"^. c #A8B7F2",
"/. c #B4BEFC",
"(. c #B9BBFF",
"). c #B5C7D9",
"_. c #9EC5FC",
"`. c #AAC4E9",
"'. c #B5C6E7",
"]. c #A9C7F7",
"[. c #B5C4F4",
"{. c #BCC3F4",
"}. c #B1CDFF",
"|. c #BECCFD",
" X c #B2C7FB",
".X c #B9D1FF",
"XX c #A9D0FB",
"oX c #C9C5C8",
"OX c #C8CCD5",
"+X c #D5D8D5",
"@X c #C4CFE5",
"#X c #D0CDE8",
"$X c #CEDAFF",
"%X c #DADCFF",
"&X c #C4CDF6",
"*X c #DFE3FE",
"=X c #EDEFEE",
"-X c #EFFFFF",
";X c #EEF4FF",
":X c #FEFAF4",
">X c #F5F5FF",
",X c #FDF5FE",
"<X c #F5FCFF",
"1X c #FDFDFE",
"2X c #FEF4F2",
"3X c None",
/* pixels */
"3X3X3X3X3X3X3X3X3X3X3X3X3X3X3X3X3X3X3X3X3X1XX   :X3X",
"3X3X3X3Xo o 3X3X3X3X3X3X3X3X3X3X3X3X3X3XX X m.+Xo 3X",
"3X3X3X  +Xm.X X 3X3X3X3X3X3X3X3X3X3X3X  G 6.<XU   3X",
"3X3X3X  k.>Xk.D + X 3X3X3X3X3X3X3X3XX P.<X@XP.+ 3X3X",
"3X3X3X3X@ ~.1X*Xy.N.X 3X3X3X3X3X3X+ B.&X-X-XQ.$X+ 3X",
"3X3X3XX %X/.;X1X(.S., + + + X # @ & N.$X-X<XQ.|.+ 3X",
"3X3X3X$ G L. XT.h.i 1.9.A.A.Z.Z.t.,.s h.H.!.Q.H + 3X",
"3X3X3X3X+ x.Z.8.z =.i.Y.I. X&XI.I.w.2.x 9.h.f.@ <X3X",
"3X3X3X3Xo F 5.a <.0.j.Y.E. X.XE.Y.I.0.<.c 5.J + 3X3X",
"3X3X3X3X3XX - :.w.q.p.u.I.j.j.Y.u.u.a.q.,.- @ 1X3X3X",
"3X3X3X3X3X3X& ,.r.a.8.8.2.2.,.2.<.*.q.r.,.@ <X3X3X3X",
"3X3X3X3X3X3X& :.,.=.3.n v n k v n 8.,.,.-.& X   + ,X",
"3X3X3X3X3XX D J H M j b p p j j j n d -.3.>.& h #X+ ",
"3X3X3X3X3X+ @ & & & f f g g f f j j l j j >.& L f @ ",
"3X3Xo X # @ x.N.B.c.@ + + * = < > X X + @ J & K f + ",
"3X$ h # ).L.!.{.[.[.v.+ >XX X     :X2X1X,X+ @ D * X ",
"+ , $ ).v.4.H R.Q.[.'.b.+ ,X1X1X:XV y V l.#X+ h > . ",
"X = # ).d.`.N.m h.`.[.L.@ C V y y w 6 5 I oX# f . 1X",
"1XX + 4.D.G.G.m G.K.XX].d.  3 9 Q ^ _ 9 r =XX X 1X3X",
"3X1X+ l k b M y.R.K._.XXv.. W ` O.O.{ ( y z.OX$ 1X3X",
"3X3X<XX # N 4.H.!.W.}.!.G O ' o.&.@.} ! u A :X  1X3X",
"3X3X3X1X+ 6.F.G.N.^.].4.O e 0 ~ O.+.} 0 3 t 1X  :X3X",
"3X3X3X1X+ g N c./.H.J.o | ` [ T ~ / 8 ( 6 t oX  . 3X",
"3X3X3Xo ).'.F.b S.y.P.O $.%.@.[ Y 7 Q | 5 V oX  1 . ",
"3X3X3XX '.g.H b S.e.F.. ' %.@.O.X.7 #.3 r oX+ S h X ",
"3X3X3X+ D.`.s.V.R.A.s.. e ` [ o.E q 5 ) oXX , ; + 3X",
"3X3X3X1X+ 7.{.5.;.J.B.L . ) W Y 9 % Z M.  X $ # 3X3X",
"3X3X3X3X3X$ # 7.s.H 7.b.P . 2 2 5 ....  3X3X3X3X3X3X",
"3X3X3X3X3X  h + @ J F S D C . I P o o 3X3X3X3X3X3X3X",
"3X3X3X3X3X1XX * , X X X X X X X X 3X3X3X3X3X3X3X3X3X",
"3X3X3X3X3X3X1XX         3X3X3X3X3X3X3X3X3X3X3X3X3X3X"
};
