/* XPM */
static char *_6ead2ce4be540c682147f9aa45ee980gPgjd2GuimpbepCJ[] = {
/* columns rows colors chars-per-pixel */
"93 72 256 2 ",
"   c None",
".  c #010102",
"X  c #0B0101",
"o  c #01030B",
"O  c #010A0C",
"+  c #070808",
"@  c #130101",
"#  c #1C0000",
"$  c #160D0A",
"%  c #000413",
"&  c #000A14",
"*  c #00061B",
"=  c #000A1C",
"-  c #0C0B15",
";  c #01131C",
":  c #0B141B",
">  c #091416",
",  c #141416",
"<  c #14110E",
"1  c #270302",
"2  c #380604",
"3  c #32120E",
"4  c #382611",
"5  c #000A23",
"6  c #000C2B",
"7  c #000626",
"8  c #011324",
"9  c #00142B",
"0  c #011A2C",
"q  c #081924",
"w  c #121925",
"e  c #000D33",
"r  c #001A33",
"t  c #011838",
"y  c #1C0F23",
"u  c #012239",
"i  c #132632",
"p  c #393538",
"a  c #2F3233",
"s  c #470601",
"d  c #5B0100",
"f  c #570500",
"g  c #5A1814",
"h  c #690702",
"j  c #760703",
"k  c #781408",
"l  c #6A1917",
"z  c #72170F",
"x  c #4A2710",
"c  c #462827",
"v  c #4C2F2F",
"b  c #69221E",
"n  c #725A2D",
"m  c #795713",
"M  c #001C47",
"N  c #00184E",
"B  c #052947",
"V  c #09334A",
"C  c #153646",
"Z  c #022B55",
"A  c #033758",
"S  c #14354D",
"D  c #303846",
"F  c #023B66",
"G  c #043A6F",
"H  c #5E3A43",
"J  c #10435B",
"K  c #284754",
"L  c #084669",
"P  c #174867",
"I  c #074B78",
"U  c #144B74",
"Y  c #07537A",
"T  c #135478",
"R  c #12516E",
"E  c #2B5371",
"W  c #36667D",
"Q  c #746D7B",
"!  c #5A6157",
"~  c #2F403A",
"^  c #871306",
"/  c #8B1209",
"(  c #B91C0B",
")  c #B41D12",
"_  c #902617",
"`  c #B5230B",
"'  c #A72518",
"]  c #B52517",
"[  c #AE2D13",
"{  c #97352C",
"}  c #B73828",
"|  c #AC332D",
" . c #C31D10",
".. c #C62817",
"X. c #C93324",
"o. c #8D4835",
"O. c #B24736",
"+. c #D64636",
"@. c #CE4735",
"#. c #E0422E",
"$. c #8E4B4C",
"%. c #A05F64",
"&. c #CC4C41",
"*. c #C63B42",
"=. c #D9B971",
"-. c #E6BF69",
";. c #EFC36C",
":. c #044C85",
">. c #015283",
",. c #01538A",
"<. c #095485",
"1. c #005392",
"2. c #055A95",
"3. c #135991",
"4. c #255C8E",
"5. c #19668C",
"6. c #056697",
"7. c #186898",
"8. c #17719B",
"9. c #29688A",
"0. c #366987",
"q. c #266896",
"w. c #387899",
"e. c #2F7496",
"r. c #0666A9",
"t. c #186AA7",
"y. c #1975A9",
"u. c #0767B5",
"i. c #1877B5",
"p. c #0974B0",
"a. c #2779A9",
"s. c #367CA5",
"d. c #257AB4",
"f. c #296FA7",
"g. c #045CA2",
"h. c #49738B",
"j. c #6F7987",
"k. c #0375C4",
"l. c #0677C7",
"z. c #0976C7",
"x. c #297CC1",
"c. c #957A88",
"v. c #1A86B9",
"b. c #2A83AA",
"n. c #2987B9",
"m. c #3789BA",
"M. c #3489B0",
"N. c #4896BB",
"B. c #5698B6",
"V. c #4C8BB0",
"C. c #7591B1",
"Z. c #6DA2B7",
"A. c #5C98AC",
"S. c #178CD0",
"D. c #2888C8",
"F. c #368BC4",
"G. c #3897C8",
"H. c #2797D7",
"J. c #389AD2",
"K. c #2D92D2",
"L. c #2FA6D6",
"P. c #1A94E5",
"I. c #178FE4",
"U. c #279BE5",
"Y. c #36AAF7",
"T. c #39B5F8",
"R. c #2EA7ED",
"E. c #1AA5EA",
"W. c #4797C6",
"Q. c #509CCC",
"!. c #6E99C5",
"~. c #49A6C9",
"^. c #56A5CA",
"/. c #4AA7D8",
"(. c #58ABD7",
"). c #56B1D9",
"_. c #55B3D5",
"`. c #67A8C9",
"'. c #63A9D5",
"]. c #67B8D8",
"[. c #74B8D7",
"{. c #70B0CD",
"}. c #46A8E4",
"|. c #4AB4E9",
" X c #56B5E8",
".X c #48B7FB",
"XX c #58BCF6",
"oX c #4FAEE6",
"OX c #66BAE8",
"+X c #76BBE4",
"@X c #69BBF1",
"#X c #79C8D8",
"$X c #72C6D4",
"%X c #54C3FF",
"&X c #5BC6FB",
"*X c #57D4FE",
"=X c #50CBFA",
"-X c #68C5E9",
";X c #78C8E7",
":X c #7BD1E9",
">X c #63C4FD",
",X c #68C9F9",
"<X c #77CCFC",
"1X c #6AD8FA",
"2X c #77D3FA",
"3X c #69D1E8",
"4X c #5DC5DE",
"5X c #2DC3FE",
"6X c #AF9493",
"7X c #8F97AA",
"8X c #99A6B8",
"9X c #DFAAAA",
"0X c #D7C388",
"qX c #8AB7CE",
"wX c #B8BBC5",
"eX c #81BBE0",
"rX c #8BCBCB",
"tX c #93CDCB",
"yX c #93CBC6",
"uX c #8DD2CB",
"iX c #94D2CD",
"pX c #98D2CB",
"aX c #8CCDD4",
"sX c #87CCDA",
"dX c #94CDD6",
"fX c #8CD2D4",
"gX c #8CD2DB",
"hX c #85D4D8",
"jX c #93D2D3",
"kX c #94D3D8",
"lX c #B7C9D8",
"zX c #B3C9CF",
"xX c #AFE9DC",
"cX c #87CDE8",
"vX c #86D3E7",
"bX c #8AD3EE",
"nX c #9BEDE9",
"mX c #9CF1EA",
"MX c #9AECF8",
"NX c #9BF2F6",
"BX c #A4ECEB",
"VX c #A6E9E8",
"CX c #A6EDF2",
"ZX c #AFF5F3",
"AX c #B9CEE1",
"SX c #C3C8D1",
"DX c #C6FBFA",
"FX c #DFEEF4",
"GX c #F9ECE9",
"HX c #EAEEF7",
"JX c #ECF4FB",
"KX c #EAF8FB",
"LX c #F3F4FC",
"PX c #F9F8FA",
"IX c #F7F0F0",
"UX c #91CEBF",
/* pixels */
"                                                                                                                  X . + . . . X . X X X . . . . X X X . o o                               ",
"                                                                                                                  . . + O + . o % o . . o o % % o . o o * %                               ",
"                                                                                                                  o % & & * = * * = 5 5 6 6 5 7 * 5 5 5 8 *                               ",
"                                                                                                            . & % W h.h.A.V.B.B.B.B.`.'.(.(.'.`.`.`.'.(.`.Z.o . .                         ",
"                                                                                                            . o * h.0.e.N.Q.N.W.N.W.). X|.|.oX X). X|.|.).`.& . .                         ",
"                                                                                                            o * 6 w.f.b.G.F.Q.W.W.W.|.|.|.|.oX X X|..XY.}.).5 & &                         ",
"                                                                                                      . . + W h.e.(. XoX,X2X<X<X<X<X2X1X1X2X2X2X<X<X,X>X>X X].`.Z.* % o                   ",
"                                                                                                      . O o h.w.s. X/.oX2X2X;XbX<X<X<X2X2X2X2X<X<X<X<X@X@X,X/.).{.5 * %                   ",
"                                                                                                      O o = w.e.b.).)._.2X:X;XbXcX:XvX:X:XvXbX:X:X;X:X4X].-XoXoX(.9 e 5                   ",
"                                                                                                . . o ! h.w.'.(./.2XbX:XvXvXbXMXMXMXMXMXmXNXMXMXMXMXNXNXMXMX2X,X<X(.(.`.% X X             ",
"                                                                                                X . o h.0.s. X/.).:XvXgXaXaXgXMXNXNXNXNXmXCXCXMXMXmXmXNXNXMX1X,X,XXX).`.% X X             ",
"                                                                                                X . & h.e.a.}.XX).bXgXiXyXtXfXBXVXBXnXnXnXnXBXCXCXBXVXBXmXMX2X2X,X}.|.'.* o X             ",
"                                                                                                . & & 0.s.n.|.|.).bXaXpXxXxXVXDXDXDXVXBXnXhXuXfXkXdXaXkXdXvX;X<X2X&X&X;X* . o             ",
"                                                                                                o % * h.s.y.XXXX XbXaXyXxXxXVXZXDXDXVXBXnXfXrXfXsXsXgXgXkXbXbX2X,XXXXX].; O +             ",
"                                                                                                & = 8 w.9.b. X X).:XgXiXxXxXCXZXZXZXBXBXVXiXjXgXvXbXbX:XvX:X<X<X<X-X,X].; O O             ",
"                                                                                          . + o K P P Z.^.~.<X<X<XbXgXiXDXDXZXBXnXBXfXrXpXyXjXgX_._.~.m.N.m.J.G.J.oX/._.rXyXyX% o o       ",
"                                                                                          . . o P Y Y ^././.2X<XcXcXgXuXDXDXDXVXVXZXjXtXyXtXgXvX_.oX|.J.n.G.J.K.K. X/.).:X#XqX= % +       ",
"                                                                                          . . % U ,.>./././.2XcXcXcXkXuXDXDXDXVXVXBXjXjXkXfXvXbX)./.XXn.W.W.F.G.J.|.XX|.4X:XsX* % o       ",
"                                                                                          . . % U 1.,./.}./.:XcXsXdXjXyXDXDXDXVXBXnXfXgX#X^././.e.s.e.!.!.!.s.a.d.v.v.v.-X:X#X& o +       ",
"                                                                                          . . % <.1.1.}.}./.vXfXjXtXtXyXDXDXDXVXmXnXhXvXvX_.}.oXe.0.h.C.C.C.h.q.s.n.v.v.2X-X#X; O O       ",
"                                                                                          . . % I 1.1.}.}./.vXuXpXpXtXtXDXDXZXVXmXmXgXsXcX(.}.}.w.h.h.C.7X7Xh.h.0.s.s.b.-X2XcX8 ; O       ",
"                                                                                          . . % I ,.,.}.}./.gXuXUXpXiXjXZXVXCXBXmXmXkXgXbXOXXXOX{.C.7XKXPXPXo o * K J R ^.W.Q.cX#XrX. X . ",
"                                                                                          . . % R >.>./././.sXuXyXpXjXfXCXnXmXmXnXCXjXjXsX].OX+X!.8X7XPXPXPX. + o D D S B.(.^.;X4XsX. @ X ",
"                                                                                          . . % R Y >./././.gXtXyXpXaXaXCXnXmXnXBXVXtXjXsX].].[.7X7X7XPXPXPXX . . p p D ^.W./.-X3X#Xo X X ",
"                  . . . . . . . . . . . . X X X                                           . . & R Y >.a.d.a.cXjXtXtXkXjXaXfXfXnXnXBXrXaXvX].].{.KXPXPX$ @ @ X X X $ 1 = '.|.oX3X3X#Xo . . ",
"                  = o o & o o o % % % % o o . .                                           . o % U >.Y a.y.a.cXkXdXtXtXjXtXtXuXVXnXnXuXaXgX].].{.KXPXIX@ 1 1 @ @ # 1 1 y '.|.|.&X1X#X& . . ",
"                  * 5 e 6 6 5 5 6 6 5 5 9 5 5 *                                           . o * I ,.>.a.i.b.cXgXaXkXtXpXpXyXiXVXmXmXkXjXbX].].[.KXPXGX1 1 2 # 1 1 s s 3 '..X.X*X*X-X; . . ",
"            . & * W q.7.F.m.V.+X+X+X+X[.+XN.W.V.o . .                               . + . : > 8 U ,.>.a.i.y.^.B.A.aXrXuXyXyXiXkXfXfXrXaXvX].].{.KXPXIXs l l s s f { | H +X.XT.U.E.J.= . o ",
"            o o * 4.7.r.H.H.S.&X@X-X,X>X&XH.H.G.& . +                               + . . : : 0 U Y Y a.v.i.~.B.B.bXgXfXiXiXiXrXaXaXjXaXvX].].{.KXPXIXl z j h h h | } $.!..X.XR.E.J.5 . . ",
"            % 5 e q.t.r.H.S.D.&X-X-X-X&X=XH.H.G.9 & o                               . . o > & 9 P T I a.i.i.~.~.N.vXhX#XkXfXfXjXjXjXdXaXhX].].[.KXPXLXg z j h d d { { $.`..XT.U.R.J.5 . . ",
"      . o * E 4.7. X@XOXbXvXvXvXgXaXgXvXvX:XsXvXM.M.V.= % O                   . . . 7X8X7Xj.j.j.9 r t I >.,.a.a.a.^.^.^.sXaXaXjXyXtXdXgXvX:X:XcX[.qXwX9X9X9X$.%.%.%.%.%.'..X}.v.v.b.% . o ",
"      . % 7 3.g.g.>X@X+XsXdXjXtXpXjXgXsXhXgXpXfXn.D.V.5 % .                   X @ X 6X6X7XQ j.j.8 0 r P <.>.a.a.a.Q.~.N.vXgXfXuXiXjXdXgXvX:X:X:X[.qXqXwX9X9X%.%.%.c.c.C.(.|.J.b.b.w.o . . ",
"      * 7 M r.r.r.>X,XOXbXvXjXdXdXdX;XbX:XhXiXhXn.n.V.5 o +                   1 1 2 6X6X6X%.Q j.8 8 0 K P T s.a.d.W.~.~.vXsXgXfXfXgXcXbXbX:X:X:X+XeXqXlXwXwXQ Q j.j.C.A.'././.b.w.h.o + X ",
"X % % W q.7.XX%X&XL././.F A V 0 0 u F.J.m.vXfXhX1X1X;X5 o X             . X 1 o.O.{ l g v c D a zXzXlX9 0 t I ,.1.i.y.8.N.B.A.[.$X$Xw.s.e.^.~.~.(.^.!.Z.Z.8XC.C.C.!.B.Q.M.a.b.9 5 =       ",
"o o = 9.3.t.,X&XXX|.oX/.F A B r 9 t J.H.m.cXgXhX1X1XbX5 % o             . X 1 o.' } k l g v a ~ zXzXlX0 0 u T Y >.y.8.b.N.N.B.[.#X$Xw.s.s.W.~.~./.(.(.^.^.`.^.'.'.W.Q.(.a.s.V.6 = %       ",
"+ o 5 9.t.r.>XXX>XR.}.}.L A F t t B J.D.W.bXsXvX1X1XcX5 * o             # 1 2 { X.] / k z b c a SXSXlX8 0 9 P R Y a.e.5.W.N.B.[.].$Xw.s.s.^.~.~.(.(.(.(.^.(.^.^.^.~.^.Q.w.h.h.* % o       ",
". & = 5.t.u.&X%X&XR.R.Y.y.8.a.7.7.q.M M r dXgXvX-X-X[.* o .       X . X $.| } '  .( ) ' ' j z g v D D lXlXlX8 0 u B A A 7.7.3.a.a.b.W.Q.'.5.5.7.Y T R L L L L L J V V V * % %             ",
"X o 9 q.r.u.XX>X&XU.R.R.i.d.i.r.r.7.B r 9 kXaX;X&X,X[.* + .       X . @ | ..X.` (  .( ` ] ^ ^ l c D D SXwXSX= ; 9 V A L 3.3.7.a.d.n.Q.Q.Q.q.8.7.T R T L L L A A V V i C o . X             ",
"X % 6 q.u.z.XXXXXXR.R.R.n.d.i.r.u.t.t 9 0 dXbX2X%X>X+X= + .       . . # | X...( ( ( ` ` ' ^ k l v p p SXSXzX: ; 8 C V A 5.5.5.a.y.y././.Q.t.t.7.Y Y T L I I F L S C C i . . X             ",
"o % 7 4.t.u.Y.Y.Y.XX&X%XXX@X>Xr.u.t.t 9 u [.[.-X%X>X+X5 o .       . . # &.#.#.`  .( ` [ ' j j f 1 3 , a p p HXHXFX0 9 r F F A Y ,.,.8.8.y.F.F.F.W.N.N.W.W.W.7.q.0.7 % o                   ",
". % 7 4.t.u.Y.R.R.%X&X&X>XXX&Xu.u.t.r 0 t ;XOX,X&X,X+X7 o X       X . # &.#.X. .( (  .) ' j j h s 1 $ p p v GXGXIX> ; 0 A A L Y Y >.8.8.t.F.D.D.G.G.G.G.W.J.t.q.0.5 % o                   ",
". o & W 9.7.Y.R.R.&X&X X>X>XXXr.3.q.M t M OX,X,XOX[.qX5 o X       @ # 1 &.@.+.) ] ) ] ] ' ^ h h s 2 3 c c c GXGXGX- : 0 V A A P R R 5.5.q.M.m.m.N.N.N.N.N.V.q.0.W * o O                   ",
"      o o 6 6.u.k.u.u.i.u.u.t.N B r +X@XXXH.H.F.= & %       . X # o.{ | j j j j j h h h h | [ } ^ z g 2 3 3 IXIXLX, , q r 9 9 r 0 8 u 0 0 t 9 r 0 8 8 & & & o O +                         ",
"      X . o 9.t.u.u.r.r.r.t.7.M 6 M @X%X%XU.U.G.& X X       . X 1 { *.| h h f z h h f h j } ] X./ ^ l 2 2 3 IXLXJX: , w 8 9 9 5 8 8 8 0 8 q q = : > > . . . . . .                         ",
"      . . % 0.4.q.5.5.5.7.f.3.N Z N %X=X=XH.H.W.* + .       o X 1 { | | h h k h h k h h j } X.] ^ k l s 2 3 IXJXKX: , : 0 r r 0 r 9 r r 9 5 q w > > > . . . . . .                         ",
"            * 5 6 B r 0 M M N f.t.x.P.P.H.1.2.Y * . .       . X # l j / _ z _ O.@.@.} } ] ) ] ] / k l s 2 3 IXKXJX> - w C S J A A F 9.0.W 5 % o                                           ",
"            . & % 0 9 r t t M f.i.k.I.P.H.>.Y P % o .       . X # g k ^ k _ / +.+.#.X.X... .( ) ^ k l s s 3 IXJXKX: , : C A J J L L q.9.0.* o o                                           ",
"            . . o 8 9 t t M N t.z.l.P.S.K.Y P K o . .       X X # l k j _ ^ / @.+.#...X... .( ] ^ k l 2 s 2 IXJXJX: - : S J L L L Y 8.8.9.6 = %                                           ",
"            . . % K U <.t.i.i.Y.Y.Y.P.H.m.9 * o             . @ 1 O.@.@.j h h _ ' ] (  .( ( ( ` ^ k g s s 2 IXJXJXw - q B A G x.S.S.XX&X@Xa.b.w.% X .                                     ",
"            . . % P I 1.k.l.k.Y.Y.R.P.H.F.6 % .             + X 1 O.+.+.j h f _ _ ' ` ( ( ( ( [ k h g 2 2 3 GXLXLX- , : u A G x.S.S.&XXXXXn.v.s.7 o .                                     ",
"            . . * P :.1.k.k.k.T.Y.T.I.S.F.6 % .             . @ 2 O.+.+.^ h h { { _ ` ( ` ] ] ' z b v 3 2 1 IXKXPX+ < , i B A s.d.D.XXXX|.v.v.b.7 % o                                     ",
"            . . 5 U :.1.l.k.l..X%X=XP.P.F.6 o .             . X 1 | X...[ O.{ f f h ] ( ` / / ^ b c a GXGXGX, : $ 4 4 4 & u t A G G D.z.D.1X1X2XP K D o o o                               ",
"            . o 5 I ,.1.l.k.z.%X%X%XP.P.F.e & .             + X 1 { } ..X.} | f s f ] ( [ ^ / z b v D JXIXIX: : $ 4 4 4 : 9 9 A L G z.S.S.*X*X1XI L S % . X                               ",
"            . o 5 I ,.2.l.k.l..X%X%XP.P.D.e % .             O . 1 o.} ] ..X.| h d h ' ' _ z l b c p a KXJXKX9 q $ 4 x 3 $ < & C V A n.v.v.1X1X1XL L J = . .                               ",
"            . o 5 R <.1.p.l.k.T.Y.Y.I.P.K.Z u : . + .       . X 1 b z ^ ( ( ] ) ] / d s 2 v v v PXIXLX: > 8 E P K ! n o.=.=.0X4 4 w 0 u M A J A F A S * o .                               ",
"            . . = P U >.i.k.k.Y.Y.Y.P.P.D.Z u q . . .       . X # g l z ' ) ` ] ] ' s 2 # v p D LXLXJX: : 0 U U K ! n m ;.-.=.x 3 4 O 8 9 V V A A A V % . .                               ",
"            . . % K P I t.p.k.Y.Y.Y.P.H.D.Z B u & o .       o X @ c c g _ ' ' ' ' _ 2 1 , p a D JXKXKX0 9 r T I K ! ! n =.-.0X4 4 4 + : ; C S V S V C o . X                               ",
"                  = % 6 <.1.g.k.k.S.=X%X&X8.q.0.0 w w . o + o X X IXGXGXf d h f f s c p p LXHXLX> q 0 K E L 7.e.W ; < 1 m m n @ X X . . . o = * * % o                                     ",
"                  . & % U :.1.k.l.k.*X%X&Xt.7.9.u i w O . . X X X PXHXIX2 s s s s 2 v a p JXLXLX< : 0 P Y >.y.5.W ; 8 < n n n @ X . . . . + o & + . .                                     ",
"                  . . & P L >.i.k.k.%X>XXXt.t.q.B u u * = % % % % HXKXHX3 2 3 1 3 3 a D a KXLXJXw ; B T I 1.8.8.9.B B = ! ! n @ X + . . X . . . . . .                                     ",
"                        % 6 e :.1.1.1.,.6.,.2.,.d.d.a.f.a.f.G L S 8 : > IXPXIXLXLXJXLXLXLX, < , P I Y 7.y.t.J.G.~.5.7.9.u ; -                                                             ",
"                        o % 5 U I <.3.I Y <.>.2.i.i.D.i.p.i.I L S 0 & > KXJXFXLXJXJXHXLXLX+ < : U 2.>.y.y.p.H.L.J.p.p.8.t 0 q                                                             ",
"                        . o & K P P U U E E R T a.i.i.d.f.f.L F A r w w HXKXIXIXLXLXKXFXLX, , ; U :.,.r.p.p.L.L.L.p.p.6.Z t 8                                                             ",
"                              o % = 5 * * = 5 6 F A G F F Z A Z V t q w w & < < , - : > > . . & U :.,.|.T.T.=X*X*X*X*X1XM.s.V.o . .                                                       ",
"                              . . o o o % % % * V Z Z A A A A Z B r w w : > < < < < > , > . . % U :.1.T.T.5X=X*X*X*X*X*XD.n.V.5 o .                                                       ",
"                              . . X . . . o o % i C C V V V V V i w w w : > < < < < < , < + . % P :.1.Y.R.T.*X*X*X*X*X*XS.n.V.5 o +                                                       ",
"                                                . . o o o o % % & o o o . . . . . . . . . . . o 8 t M y.p.p.L.L.L.6.r.r.*X&X;X; O .                                                       ",
"                                                . . . . . . . . o o o o . . . . . . . . . . X + ; 9 r 9.7.6.G.G.W.6.6.6.1X3X#X; + .                                                       ",
"                                                . X X X X X X . . . . . . . . . . . . . . . . . > ; 0 W 9.9.B.B.B.T 3.5.;XcXqX& + +                                                       ",
"                                                                                                . + o = = = ; & & = 6 6 5 9 *                                                             ",
"                                                                                                . o o % & O O . . - o % % % %                                                             ",
"                                                                                                . o o o o . . . X X X + o o -                                                             "
};
