/* XPM */
static char *result[] = {
/* columns rows colors chars-per-pixel */
"32 32 6 1 ",
"  c black",
". c #3A0911",
"X c #811426",
"o c #A11B31",
"O c white",
"+ c white",
/* pixels */
"++++++++++++++++++++++++++++++++",
"++++++++++++++++++++++++++++++++",
"++++++++++++++++++++++++++++++++",
"++++++++++++++++++++++++++++++++",
"++++++++++++......++++++++++++++",
"+++++++++++.oooooo.+++++++++++++",
"++++++++++.oo    oo.++++++++++++",
"+++++++++.oo      oo.+++++++++++",
"++++++++.Xo        oo.++++++++++",
"++++++++.Xo  O  O  oo.++++++++++",
"++++++++.XX  O  O  oo.++++++++++",
"++++++++.oX  O  O  oo.++++++++++",
"++++++++.oX        oX.++++++++++",
"++++++++.oXX      ooX.++++++++++",
"+++++++++.oXX    ooX.+++++++++++",
"++++++++++XooXXoooX.++++++++++++",
"++++++++++.XXXoooooX.+++++++++++",
"+++++++++.XoooooooooX.++++++++++",
"+++++++++.XoooooooooX.++++++++++",
"+++++++++.ooooooooooo.++++++++++",
"++++++++.Xooooooooooo.++++++++++",
"++++++++.XooooooXooooX.+++++++++",
"++++++++.XooooooXooooX.+++++++++",
"++++++++.XoooooXoXooXX.+++++++++",
"+++++++.XXXoXoXXoXXoXX.+++++++++",
"+++++++.XXXXo.....XXXX.+++++++++",
"+++++++.X.XXX.   .XX.X.+++++++++",
"++++++++..X        XX.++++++++++",
"+++++++++..+   ++   .+++++++++++",
"+++++++++++++ ++++ +++++++++++++",
"++++++++++++++++++ +++++++++++++",
"++++++++++++++++++ +++++++++++++"
};
