/* XPM */
static char *_67d5bd6c0bd4d87d1214c9d03c7d0d8mu3oFW2ytjkaIyK5[] = {
/* columns rows colors chars-per-pixel */
"32 32 6 1 ",
"  c white",
". c black",
"X c #3A0911",
"o c #811426",
"O c #841A2B",
"+ c #A11B31",
/* pixels */
"                                ",
"                                ",
"                                ",
"                                ",
"                                ",
"                                ",
"            XXXXXXX             ",
"           Xo++++++X            ",
"          Xo++++++++X           ",
"         Xo++++++++++X          ",
"        Xoo+++++++++++X         ",
"        Xoo+++++++++++X         ",
"        Xooo++++++++++X         ",
"         XXo++++++++++X         ",
"          Xo+++++++++oX         ",
"          Xoo++++++++oX         ",
"           Xo+++++++oX          ",
"           XOO++++OoX           ",
"          X+++++++++oX          ",
"          X+++++++++oX          ",
"          X++++++++++X          ",
"         X+++++++++++oX         ",
"         X++++++o++++oX         ",
"         X+++++oXo++ooX         ",
"         X++o+ooXoo+ooX         ",
"         X+++ooX.XooooX         ",
"         XooooX..XooooX         ",
"         XXooX....XooXX         ",
"           XX..   ..X           ",
"             .     .            ",
"             .                  ",
"             .                  "
};
