/* XPM */
static char *_9b884ec8c6c427e8947dee7872cbed2IgAvAajK45oYAZnZ[] = {
/* columns rows colors chars-per-pixel */
"32 32 6 1 ",
"  c white",
". c black",
"X c #3A0911",
"o c #811426",
"O c #A11B31",
"+ c white",
/* pixels */
"                                ",
"                                ",
"                                ",
"                                ",
"                                ",
"              XXXXXXX           ",
"             XOOOOOOoX          ",
"            XOXXXXOOOoX         ",
"           XOX....XOOOoX        ",
"          XOX......XOOoX        ",
"          XOX......XOOooX       ",
"          XOX+...+.XOooooX      ",
"          XOX+...+.XOoXooX      ",
"          XoX......XOoXXX       ",
"          XoX.....XOooX         ",
"           XoX...XoooX          ",
"            XoXXXooXX           ",
"           XoOOOOOoooX          ",
"          XoOOOOOOOOOoX         ",
"          XoOOOOOOOOOoX         ",
"          XOOOOOOOOOOOX         ",
"          XOOOOOOOOOOOoX        ",
"         XoOOOOoOOOOOOoX        ",
"         XoOOOooOOOOOOooX       ",
"        XoooOOoXoOOOOOooX       ",
"        XoooOooXooOoOoooX       ",
"        XoooooX.XooOooXoX       ",
"         XoXooX..XooooXX        ",
"          XooX...XooXX          ",
"           XXX.  XXX            ",
"            .      .            ",
"            .       .           "
};
